<?xml version="1.0" standalone="no"?>
<!DOCTYPE svg PUBLIC "-//W3C//DTD SVG 1.1//EN" "http://www.w3.org/Graphics/SVG/1.1/DTD/svg11.dtd" >
<svg xmlns="http://www.w3.org/2000/svg" xmlns:xlink="http://www.w3.org/1999/xlink" version="1.1">
<metadata>
Created by FontForge 20170731 at Mon Jan 25 19:11:31 2021
 By Aleksey,,,
Copyright (c) 2021 by Fontastica. All rights reserved.
</metadata>
<defs>
<font id="LuxoraGrotesk-Light" horiz-adv-x="1228" >
  <font-face 
    font-family="Luxora Grotesk Light"
    font-weight="300"
    font-stretch="normal"
    units-per-em="2048"
    panose-1="0 0 4 0 0 0 0 0 0 0"
    ascent="1638"
    descent="-410"
    x-height="1052"
    cap-height="1490"
    bbox="-1364 -480 3846 2082"
    underline-thickness="50"
    underline-position="-150"
    unicode-range="U+000D-F8FF"
  />
<missing-glyph horiz-adv-x="1280" 
d="M1231 1490v-1490h-1085v1490h1085zM1023 1371h-666l330 -520zM1112 1277l-350 -532l350 -527v1059zM610 745l-345 525v-1044zM1022 122l-335 517l-338 -519z" />
    <glyph glyph-name=".notdef" horiz-adv-x="1280" 
d="M1231 1490v-1490h-1085v1490h1085zM1023 1371h-666l330 -520zM1112 1277l-350 -532l350 -527v1059zM610 745l-345 525v-1044zM1022 122l-335 517l-338 -519z" />
    <glyph glyph-name=".null" horiz-adv-x="0" 
 />
    <glyph glyph-name="nonmarkingreturn" horiz-adv-x="682" 
 />
    <glyph glyph-name="CR" unicode="&#xd;" horiz-adv-x="340" 
 />
    <glyph glyph-name="space" unicode=" " horiz-adv-x="500" 
 />
    <glyph glyph-name="exclam" unicode="!" horiz-adv-x="560" 
d="M360 1490l-10 -1062h-140l-10 1062h160zM360 220v-220h-160v220h160z" />
    <glyph glyph-name="quotedbl" unicode="&#x22;" horiz-adv-x="920" 
d="M370 1490v-530h-160v530h160zM710 1490v-530h-160v530h160z" />
    <glyph glyph-name="numbersign" unicode="#" horiz-adv-x="1544" 
d="M460 390l-112 -390h-160l112 390h-240v140h280l124 430h-240v140h280l112 390h160l-112 -390h420l112 390h160l-112 -390h240v-140h-280l-124 -430h240v-140h-280l-112 -390h-160l112 390h-420zM1044 960h-420l-124 -430h420z" />
    <glyph glyph-name="dollar" unicode="$" horiz-adv-x="1260" 
d="M704 -24v-176h-140v184q-174 28 -300 135.5t-174 256.5l144 62q43 -129 128 -208.5t202 -103.5v562l-76 22q-172 50 -263 156t-91 244q0 167 120 278.5t310 123.5v202h140v-206q162 -25 279.5 -121.5t162.5 -228.5l-144 -66q-39 113 -115.5 183t-182.5 91v-560l92 -28
q183 -54 273.5 -151.5t90.5 -244.5q0 -172 -126 -283.5t-330 -122.5zM538 854l26 -8v526q-123 -11 -196.5 -78t-73.5 -172q0 -94 63 -164t181 -104zM760 630l-56 16v-528q134 8 215 76t81 174q0 102 -57.5 164t-182.5 98z" />
    <glyph glyph-name="percent" unicode="%" horiz-adv-x="2068" 
d="M554 806q-147 0 -250.5 103.5t-103.5 250.5t103.5 250.5t250.5 103.5q146 0 249 -103.5t103 -250.5t-103 -250.5t-249 -103.5zM1456 1490l-676 -1490h-172l676 1490h172zM554 948q86 0 149 63t63 149t-63 149t-149 63q-87 0 -149.5 -63t-62.5 -149t62.5 -149t149.5 -63z
M1514 -24q-146 0 -249 102.5t-103 249.5t103 250.5t249 103.5q147 0 250.5 -103.5t103.5 -250.5t-103.5 -249.5t-250.5 -102.5zM1514 116q87 0 149.5 63t62.5 149t-62.5 149t-149.5 63q-86 0 -149 -63t-63 -149t63 -149t149 -63z" />
    <glyph glyph-name="ampersand" unicode="&#x26;" horiz-adv-x="1766" 
d="M636 -24q-193 0 -319.5 110t-126.5 278q0 131 79 233.5t245 184.5l68 34l-24 24q-154 160 -154 324q0 148 110 249t272 101q156 0 259 -95.5t103 -240.5q0 -112 -70.5 -199t-225.5 -165l-56 -28l346 -356l270 254h174l-354 -346l328 -338h-196l-230 240
q-149 -146 -260.5 -205t-237.5 -59zM686 900l22 -22l56 28q133 67 188.5 128t55.5 144q0 96 -61.5 156t-160.5 60q-104 0 -173 -65.5t-69 -164.5q0 -62 33 -124.5t109 -139.5zM636 116q100 0 190 50.5t200 153.5l16 16l-372 386l-84 -42q-236 -118 -236 -316q0 -114 77 -181
t209 -67z" />
    <glyph glyph-name="quotesingle" unicode="'" horiz-adv-x="580" 
d="M370 1490v-530h-160v530h160z" />
    <glyph glyph-name="parenleft" unicode="(" horiz-adv-x="764" 
d="M674 -280h-130q-159 180 -241.5 405.5t-82.5 480.5t82.5 480.5t241.5 403.5h130q-144 -199 -219 -425t-75 -459q0 -232 75 -457.5t219 -428.5z" />
    <glyph glyph-name="parenright" unicode=")" horiz-adv-x="764" 
d="M220 -280h-130q144 203 219 428.5t75 457.5q0 233 -75 459t-219 425h130q159 -178 241.5 -403.5t82.5 -480.5t-82.5 -480.5t-241.5 -405.5z" />
    <glyph glyph-name="asterisk" unicode="*" horiz-adv-x="1004" 
d="M676 766l-174 228l-174 -228l-116 84l172 228l-254 86l44 136l256 -84v274h144v-274l256 84l44 -136l-254 -86l172 -228z" />
    <glyph glyph-name="plus" unicode="+" horiz-adv-x="1220" 
d="M686 672v-346h-150v346h-346v150h346v344h150v-344h344v-150h-344z" />
    <glyph glyph-name="comma" unicode="," horiz-adv-x="648" 
d="M438 220l-138 -460h-110l78 460h170z" />
    <glyph glyph-name="hyphen" unicode="-" horiz-adv-x="1080" 
d="M890 608v-140h-700v140h700z" />
    <glyph glyph-name="period" unicode="." horiz-adv-x="580" 
d="M370 220v-220h-160v220h160z" />
    <glyph glyph-name="slash" unicode="/" horiz-adv-x="928" 
d="M888 1490l-676 -1490h-172l676 1490h172z" />
    <glyph glyph-name="zero" unicode="0" horiz-adv-x="1456" 
d="M730 -24q-174 0 -308.5 96t-208 271t-73.5 403t73 402.5t207 270t308 95.5t308 -95.5t207 -270t73 -402.5q0 -229 -72.5 -404t-206 -270.5t-307.5 -95.5zM730 126q192 0 310 170.5t118 449.5q0 278 -118.5 448t-311.5 170q-192 0 -310 -170.5t-118 -447.5
q0 -278 118.5 -449t311.5 -171z" />
    <glyph glyph-name="one" unicode="1" horiz-adv-x="800" 
d="M500 1490v-1490h-160v1350h-280v140h440z" />
    <glyph glyph-name="two" unicode="2" horiz-adv-x="1204" 
d="M1084 140v-140h-968v100l416 438q202 213 277 326t75 232q0 133 -76.5 205.5t-215.5 72.5q-135 0 -227.5 -64t-136.5 -186l-128 60q53 152 185 241t307 89q197 0 324.5 -117.5t127.5 -300.5q0 -122 -76 -249.5t-250 -310.5l-374 -396h740z" />
    <glyph glyph-name="three" unicode="3" horiz-adv-x="1214" 
d="M596 -24q-174 0 -306.5 88t-189.5 242l128 60q45 -116 143.5 -183t224.5 -67q150 0 244 92.5t94 239.5q0 144 -96 237t-244 93q-56 0 -108 -8l1 107l369 471l-686 2v140h866v-140l-342 -432q170 -21 285 -155t115 -315q0 -206 -140.5 -339t-357.5 -133z" />
    <glyph glyph-name="four" unicode="4" horiz-adv-x="1290" 
d="M998 352v-352h-140v352h-778v130l778 1008h140v-1008h192v-130h-192zM858 482v785l-601 -785h601z" />
    <glyph glyph-name="five" unicode="5" horiz-adv-x="1242" 
d="M610 -24q-178 0 -314.5 88.5t-195.5 241.5l122 60q48 -115 154 -182.5t234 -67.5q155 0 253.5 95.5t98.5 246.5q0 150 -98.5 245t-255.5 95q-97 0 -178 -36.5t-120 -99.5l-97 53l77 777h768v-140h-654l-48 -482q114 72 258 72q222 0 365 -136t143 -348
q0 -213 -143.5 -347.5t-368.5 -134.5z" />
    <glyph glyph-name="six" unicode="6" horiz-adv-x="1160" 
d="M580 -24q-210 0 -345 138t-135 354q0 57 12 113t41 121t51 106.5t68 123.5l314 558h180l-356 -606q73 38 170 38q129 0 239.5 -64t175.5 -173.5t65 -236.5q0 -202 -137 -337t-343 -135zM580 116q138 0 229 94.5t91 237.5t-90.5 236.5t-229.5 93.5t-229.5 -93.5
t-90.5 -236.5t91 -237.5t229 -94.5z" />
    <glyph glyph-name="seven" unicode="7" horiz-adv-x="1050" 
d="M990 1352l-620 -1352h-168l622 1352h-744v140h910v-140z" />
    <glyph glyph-name="eight" unicode="8" horiz-adv-x="1266" 
d="M632 -24q-222 0 -367 128.5t-145 325.5q0 130 70 234.5t190 157.5q-86 50 -133 132t-47 176q0 164 124 274t308 110q188 0 309 -108t121 -276q0 -96 -46 -176.5t-130 -131.5q120 -53 190 -157.5t70 -234.5q0 -196 -146 -325t-368 -129zM632 884q116 0 193 70t77 176
t-77 175t-193 69t-193 -69.5t-77 -174.5q0 -107 76.5 -176.5t193.5 -69.5zM632 116q152 0 253 89t101 225t-100.5 225t-253.5 89q-152 0 -252 -89t-100 -225t100 -225t252 -89z" />
    <glyph glyph-name="nine" unicode="9" horiz-adv-x="1160" 
d="M888 558l-314 -558h-180l356 606q-73 -38 -170 -38q-129 0 -239.5 64t-175.5 173.5t-65 236.5q0 202 137 337t343 135q210 0 345 -138t135 -354q0 -57 -12 -113t-41 -121t-51 -106.5t-68 -123.5zM580 712q139 0 229.5 93.5t90.5 236.5t-91 237.5t-229 94.5t-229 -94.5
t-91 -237.5t90.5 -236.5t229.5 -93.5z" />
    <glyph glyph-name="colon" unicode=":" horiz-adv-x="580" 
d="M370 1076v-220h-160v220h160zM370 220v-220h-160v220h160z" />
    <glyph glyph-name="semicolon" unicode=";" horiz-adv-x="674" 
d="M464 1076v-220h-160v220h160zM458 220l-138 -460h-110l78 460h170z" />
    <glyph glyph-name="less" unicode="&#x3c;" horiz-adv-x="1158" 
d="M342 750l648 -376v-162l-822 470v136l822 470v-162z" />
    <glyph glyph-name="equal" unicode="=" horiz-adv-x="1320" 
d="M1080 1062v-150h-840v150h840zM1080 582v-150h-840v150h840z" />
    <glyph glyph-name="greater" unicode="&#x3e;" horiz-adv-x="1118" 
d="M990 818v-136l-822 -470v162l648 376l-648 376v162z" />
    <glyph glyph-name="question" unicode="?" horiz-adv-x="1144" 
d="M576 448v-20h-160v20q0 52 13.5 101t31.5 84.5t51.5 77t58 66t65.5 63.5q98 94 130 136q68 88 68 180t-62 155t-184 63q-256 0 -330 -250l-128 60q47 152 169 241t289 89q185 0 295.5 -104.5t110.5 -253.5q0 -33 -6.5 -65t-15.5 -57.5t-27.5 -55t-32 -49t-40 -48.5
t-41.5 -43.5t-45.5 -44.5t-43.5 -43q-81 -81 -123.5 -149.5t-42.5 -152.5zM582 220v-220h-160v220h160z" />
    <glyph glyph-name="at" unicode="@" horiz-adv-x="1894" 
d="M948 -134q-173 0 -327 63.5t-263.5 173t-173.5 262.5t-64 325q0 171 64.5 324t174.5 262.5t263.5 173.5t325.5 64q226 0 416 -109.5t300 -299t110 -415.5q0 -198 -91 -313t-247 -115q-88 0 -151.5 38.5t-92.5 109.5q-49 -66 -124.5 -101t-165.5 -35q-176 0 -293 121.5
t-117 304.5q0 182 118 305t292 123q91 0 167 -40t121 -112v132h136v-552q0 -75 32.5 -115.5t91.5 -40.5q81 0 127.5 77.5t46.5 212.5q0 195 -86.5 351.5t-241.5 244.5t-348 88t-348.5 -88.5t-242.5 -244.5t-87 -351t87 -351t242.5 -244.5t348.5 -88.5q190 0 330 76l64 -120
q-170 -96 -394 -96zM908 414q115 0 191.5 82.5t76.5 205.5t-76 202.5t-192 79.5q-115 0 -190.5 -80.5t-75.5 -203.5q0 -122 76 -204t190 -82z" />
    <glyph glyph-name="A" unicode="A" horiz-adv-x="1446" 
d="M406 417l-148 -417h-168l548 1490h170l548 -1490h-168l-147 417h-635zM991 557l-267 755l-268 -755h535z" />
    <glyph glyph-name="B" unicode="B" horiz-adv-x="1280" 
d="M710 0h-620v1490h620q187 0 303.5 -111.5t116.5 -281.5q0 -102 -44.5 -183t-125.5 -131q109 -56 169.5 -153.5t60.5 -218.5q0 -195 -129.5 -303t-350.5 -108zM698 1350h-448v-509h448q120 0 192 67.5t72 178.5q0 112 -73 187.5t-191 75.5zM710 701h-460v-561h460
q143 0 227.5 71t84.5 200q0 131 -85.5 210.5t-226.5 79.5z" />
    <glyph glyph-name="C" unicode="C" horiz-adv-x="1528" 
d="M816 -24q-207 0 -373 98.5t-259.5 274t-93.5 395.5t93.5 395.5t259.5 274t373 98.5q201 0 365 -94t257 -264l-135 -73q-72 137 -199.5 214t-287.5 77q-248 0 -407 -175.5t-159 -452.5t159 -452.5t407 -175.5q158 0 284 75t200 208l134 -75q-95 -163 -256.5 -255.5
t-361.5 -92.5z" />
    <glyph glyph-name="D" unicode="D" horiz-adv-x="1357" 
d="M562 -2h-472v1492h472q151 0 281.5 -56.5t223.5 -154.5t146.5 -236.5t53.5 -298.5t-53.5 -298.5t-146.5 -236.5t-223.5 -154.5t-281.5 -56.5zM245 1354v-1219l317 -1q241 1 395 171.5t154 438.5q0 269 -154.5 439.5t-395.5 170.5h-316z" />
    <glyph glyph-name="E" unicode="E" horiz-adv-x="1138" 
d="M1048 140v-140h-958v1490h958v-140h-798v-509h699v-140h-699v-561h798z" />
    <glyph glyph-name="F" unicode="F" horiz-adv-x="1138" 
d="M250 701v-701h-160v1490h958v-140h-798v-509h699v-140h-699z" />
    <glyph glyph-name="G" unicode="G" horiz-adv-x="1528" 
d="M816 -24q-207 0 -373 98.5t-259.5 274t-93.5 395.5t93.5 395.5t259.5 274t373 98.5q201 0 365 -94t257 -264l-135 -73q-72 137 -199.5 214t-287.5 77q-248 0 -407 -175.5t-159 -452.5q0 -274 159.5 -451t406.5 -177q155 0 279.5 72.5t198.5 201.5l-1 240h-514v140h656
v-770h-140v152q-196 -176 -479 -176z" />
    <glyph glyph-name="H" unicode="H" horiz-adv-x="1300" 
d="M250 701v-701h-160v1490h160v-649h800v649h160v-1490h-160v701h-800z" />
    <glyph glyph-name="I" unicode="I" horiz-adv-x="340" 
d="M250 1490v-1490h-160v1490h160z" />
    <glyph glyph-name="J" unicode="J" horiz-adv-x="1210" 
d="M605 -17q-235 0 -375 133.5t-140 357.5h161q0 -151 101 -250t253 -99q151 0 252 99.5t101 249.5v1008h162v-1008q0 -223 -140.5 -357t-374.5 -134z" />
    <glyph glyph-name="K" unicode="K" horiz-adv-x="1282" 
d="M250 528v-528h-160v1490h160v-742l670 742h192l-498 -556l578 -934h-188l-498 812z" />
    <glyph glyph-name="L" unicode="L" horiz-adv-x="1138" 
d="M1048 140v-140h-958v1490h160v-1350h798z" />
    <glyph glyph-name="M" unicode="M" horiz-adv-x="1500" 
d="M250 1182v-1182h-160v1490h140l520 -756l520 756h140v-1490h-160v1178l-496 -718h-8z" />
    <glyph glyph-name="N" unicode="N" horiz-adv-x="1300" 
d="M250 1192v-1192h-160v1490h140l820 -1184v1184h160v-1490h-140z" />
    <glyph glyph-name="O" unicode="O" horiz-adv-x="1632" 
d="M816 -24q-207 0 -373 98.5t-259.5 274t-93.5 395.5t93.5 395.5t259.5 274t373 98.5t373 -98.5t259.5 -274t93.5 -395.5t-93.5 -395.5t-259.5 -274t-373 -98.5zM816 116q248 0 407 175.5t159 452.5t-159 452.5t-407 175.5t-407 -175.5t-159 -452.5t159 -452.5t407 -175.5z
" />
    <glyph glyph-name="P" unicode="P" horiz-adv-x="1200" 
d="M250 580v-580h-160v1490h512q228 0 368 -126t140 -330t-139.5 -329t-368.5 -125h-352zM602 1350h-352v-630h352q153 0 246.5 87t93.5 229q0 141 -93.5 227.5t-246.5 86.5z" />
    <glyph glyph-name="Q" unicode="Q" horiz-adv-x="1632" 
d="M1228 100l164 -287l-136 -73l-161 288q-130 -52 -279 -52q-207 0 -373 98.5t-259.5 274t-93.5 395.5t93.5 395.5t259.5 274t373 98.5t373 -98.5t259.5 -274t93.5 -395.5q0 -207 -83 -375t-231 -269zM816 116q112 0 209 38l-247 442l120 79l257 -447q107 84 167 217
t60 299q0 277 -159 452.5t-407 175.5t-407 -175.5t-159 -452.5t159 -452.5t407 -175.5z" />
    <glyph glyph-name="R" unicode="R" horiz-adv-x="1242" 
d="M250 580v-580h-160v1490h512q228 0 368 -126t140 -330q0 -154 -81.5 -265.5t-226.5 -158.5l350 -610h-188l-330 580h-384zM602 1350h-352v-630h352q153 0 246.5 87t93.5 229q0 141 -93.5 227.5t-246.5 86.5z" />
    <glyph glyph-name="S" unicode="S" horiz-adv-x="1250" 
d="M670 -24q-212 0 -368.5 114t-211.5 286l144 62q52 -157 165 -239.5t271 -82.5q147 0 238.5 70t91.5 182q0 102 -57.5 164t-182.5 98l-272 80q-172 50 -263 156t-91 244q0 177 133.5 290.5t340.5 113.5q196 0 341 -101.5t197 -254.5l-144 -66q-48 137 -149 209.5
t-243 72.5q-143 0 -229.5 -69t-86.5 -183q0 -94 63 -164t181 -104l258 -76q183 -54 273.5 -151.5t90.5 -244.5q0 -180 -136.5 -293t-353.5 -113z" />
    <glyph glyph-name="T" unicode="T" horiz-adv-x="1162" 
d="M662 1350v-1350h-160v1350h-412v140h982v-140h-410z" />
    <glyph glyph-name="U" unicode="U" horiz-adv-x="1240" 
d="M620 -24q-242 0 -386 133.5t-144 356.5v1024h162v-1024q0 -151 105 -250.5t263 -99.5q156 0 262 100t106 250v1024h162v-1024q0 -222 -144.5 -356t-385.5 -134z" />
    <glyph glyph-name="V" unicode="V" horiz-adv-x="1446" 
d="M1356 1490l-548 -1490h-170l-548 1490h168l466 -1302l464 1302h168z" />
    <glyph glyph-name="W" unicode="W" horiz-adv-x="2104" 
d="M1052 1290l-364 -1290h-170l-428 1490h162l354 -1276l350 1276h192l350 -1272l354 1272h162l-428 -1490h-170z" />
    <glyph glyph-name="X" unicode="X" horiz-adv-x="1294" 
d="M648 618l-384 -618h-174l468 760l-452 730h178l364 -590l362 590h178l-454 -730l470 -760h-176z" />
    <glyph glyph-name="Y" unicode="Y" horiz-adv-x="1382" 
d="M772 692v-692h-160v692l-522 798h176l426 -650l424 650h176z" />
    <glyph glyph-name="Z" unicode="Z" horiz-adv-x="1256" 
d="M1166 140v-140h-1076v98l854 1252h-804v140h1008v-98l-854 -1252h872z" />
    <glyph glyph-name="bracketleft" unicode="[" horiz-adv-x="750" 
d="M620 0v-140h-400v1770h400v-140h-240v-1490h240z" />
    <glyph glyph-name="backslash" unicode="\" horiz-adv-x="928" 
d="M212 1490l676 -1490h-172l-676 1490h172z" />
    <glyph glyph-name="bracketright" unicode="]" horiz-adv-x="750" 
d="M530 1630v-1770h-400v140h240v1490h-240v140h400z" />
    <glyph glyph-name="asciicircum" unicode="^" horiz-adv-x="1196" 
d="M600 1304l-238 -454h-172l338 640h140l338 -640h-172z" />
    <glyph glyph-name="underscore" unicode="_" horiz-adv-x="960" 
d="M930 0v-140h-900v140h900z" />
    <glyph glyph-name="grave" unicode="`" horiz-adv-x="388" 
d="M194 1654l156 -304h-126l-182 304h152z" />
    <glyph glyph-name="a" unicode="a" horiz-adv-x="1032" 
d="M462 -24q-166 0 -269 88.5t-103 229.5q0 114 88.5 194t249.5 116l374 86v28q0 104 -75.5 161t-198.5 57q-126 -2 -188.5 -45t-62.5 -132l-150 -2q0 149 104 232t296 87q184 0 299.5 -96.5t115.5 -261.5v-718h-140v162q-50 -83 -143.5 -134.5t-196.5 -51.5zM462 114
q148 0 244 100t96 252v102l-338 -78q-102 -23 -163 -75.5t-61 -122.5q0 -81 60 -129.5t162 -48.5z" />
    <glyph glyph-name="b" unicode="b" horiz-adv-x="1212" 
d="M598 -27q-219 0 -368 149v-122h-140v1490h140v-558q147 149 368 149q228 0 376 -157t148 -397t-148 -397t-376 -157zM598 116q163 0 266 115t103 296t-103 296t-266 115t-266 -115t-103 -296t103 -296t266 -115z" />
    <glyph glyph-name="c" unicode="c" horiz-adv-x="1152" 
d="M614 -27q-228 0 -376 157t-148 397t148 397t376 157q145 0 262.5 -67.5t185.5 -186.5l-134 -72l-1 1q-47 86 -128.5 134t-184.5 48q-163 0 -266 -115t-103 -296t103 -296t266 -115q103 0 184 48t129 134l134 -72l1 1q-69 -119 -185.5 -186.5t-262.5 -67.5z" />
    <glyph glyph-name="d" unicode="d" horiz-adv-x="1212" 
d="M614 -27q-228 0 -376 157t-148 397t148 397t376 157q221 0 368 -149v558h140v-1490h-140v122q-149 -149 -368 -149zM614 116q163 0 266 115t103 296t-103 296t-266 115t-266 -115t-103 -296t103 -296t266 -115z" />
    <glyph glyph-name="e" unicode="e" 
d="M614 -27q-228 0 -376 157t-148 397t148 397t376 157t376 -157t148 -397q0 -7 -0.5 -22t-0.5 -23h-890q14 -163 114.5 -264.5t252.5 -101.5q119 0 209 65t132 177l136 -73q-61 -144 -187 -228t-290 -84zM252 612h724q-23 147 -121.5 236.5t-240.5 89.5t-240.5 -89.5
t-121.5 -236.5z" />
    <glyph glyph-name="f" unicode="f" horiz-adv-x="822" 
d="M440 912v-912h-140v912h-210v140h210v112q0 80 27 145t72.5 106.5t104.5 64t124 22.5q64 0 104 -10v-126q-33 6 -90 6q-90 0 -146 -54t-56 -154v-112h256v-140h-256z" />
    <glyph glyph-name="g" unicode="g" horiz-adv-x="1200" 
d="M610 -440q-157 0 -278.5 73.5t-175.5 190.5l128 70q37 -82 119.5 -138t202.5 -56q153 0 258.5 92t105.5 248v182q-59 -80 -155 -124t-211 -44q-214 0 -364 149.5t-150 362.5q0 216 147.5 363t366.5 147q119 0 215 -47.5t151 -130.5v154h140v-1012q0 -205 -141.5 -342.5
t-358.5 -137.5zM604 194q163 0 264.5 105.5t101.5 266.5t-104 265.5t-264 104.5q-157 0 -259.5 -102t-102.5 -268q0 -165 101 -268.5t263 -103.5z" />
    <glyph glyph-name="h" unicode="h" horiz-adv-x="1018" 
d="M230 642v-642h-140v1490h140v-521q40 47 116 76.5t162 29.5q187 0 303.5 -108t116.5 -273v-694h-140v642q0 134 -75.5 214t-202.5 80t-203.5 -80t-76.5 -214z" />
    <glyph glyph-name="i" unicode="i" horiz-adv-x="320" 
d="M230 1490v-218h-140v218h140zM230 1052v-1052h-140v1052h140z" />
    <glyph glyph-name="j" unicode="j" horiz-adv-x="602" 
d="M512 1490v-218h-140v218h140zM186 -440q-61 0 -96 8v126q42 -6 90 -6q84 0 138 54.5t54 153.5v1156h140v-1156q0 -158 -94 -247t-232 -89z" />
    <glyph glyph-name="k" unicode="k" horiz-adv-x="1002" 
d="M230 314v-314h-140v1490h140v-984l512 546h170l-390 -420l390 -632h-166l-320 526z" />
    <glyph glyph-name="l" unicode="l" horiz-adv-x="320" 
d="M230 1490v-1490h-140v1490h140z" />
    <glyph glyph-name="m" unicode="m" horiz-adv-x="1672" 
d="M230 642v-642h-140v1053h140v-84q39 46 111.5 75t156.5 31q128 1 209.5 -45t129.5 -137q49 89 148.5 136t216.5 47q164 0 272 -108t108 -272v-696h-140v644q0 134 -72.5 213t-195.5 79q-121 0 -194.5 -80t-73.5 -212v-644h-140v644q0 132 -71 211t-191 81
q-125 -2 -199.5 -82t-74.5 -212z" />
    <glyph glyph-name="n" unicode="n" horiz-adv-x="1018" 
d="M230 642v-642h-140v1053h140v-84q40 47 116 76.5t162 29.5q187 0 303.5 -108t116.5 -273v-694h-140v642q0 134 -75.5 214t-202.5 80t-203.5 -80t-76.5 -214z" />
    <glyph glyph-name="o" unicode="o" 
d="M614 -27q-228 0 -376 157t-148 397t148 397t376 157t376 -157t148 -397t-148 -397t-376 -157zM614 116q163 0 266 115t103 296t-103 296t-266 115t-266 -115t-103 -296t103 -296t266 -115z" />
    <glyph glyph-name="p" unicode="p" horiz-adv-x="1212" 
d="M230 121v-558h-140v1490h140v-122q149 149 368 149q228 0 376 -157t148 -397t-148 -397t-376 -157q-221 0 -368 149zM598 115q163 0 266 115t103 296t-103 296t-266 115t-266 -115t-103 -296t103 -296t266 -115z" />
    <glyph glyph-name="q" unicode="q" horiz-adv-x="1212" 
d="M1122 1053v-1490h-140v558q-147 -149 -368 -149q-228 0 -376 157t-148 397t148 397t376 157q219 0 368 -149v122h140zM614 115q163 0 266 115t103 296t-103 296t-266 115t-266 -115t-103 -296t103 -296t266 -115z" />
    <glyph glyph-name="r" unicode="r" horiz-adv-x="679" 
d="M230 642v-642h-140v1053h140v-84q40 47 116 76.5t162 29.5q42 0 81 -6v-142q-36 9 -79 9q-127 0 -203.5 -80t-76.5 -214z" />
    <glyph glyph-name="s" unicode="s" horiz-adv-x="984" 
d="M522 -24q-150 0 -265.5 76t-166.5 208l126 64q40 -101 121.5 -154.5t184.5 -53.5q98 0 160 47t62 119q0 56 -42.5 94t-129.5 62l-168 48q-264 76 -264 290q0 135 96.5 217.5t255.5 82.5q141 0 248 -70.5t152 -193.5l-126 -60q-35 89 -106.5 137.5t-167.5 48.5
q-91 0 -146.5 -42t-55.5 -110q0 -112 160 -160l176 -54q131 -41 199.5 -115.5t68.5 -178.5q0 -134 -103.5 -218t-268.5 -84z" />
    <glyph glyph-name="t" unicode="t" horiz-adv-x="790" 
d="M614 -12q-151 0 -232.5 82.5t-81.5 235.5v606h-210v140h210v348h140v-348h256v-140h-256v-606q0 -26 1.5 -43t11.5 -49.5t29 -53t58.5 -36.5t95.5 -16q39 0 64 4v-117q-42 -7 -86 -7z" />
    <glyph glyph-name="u" unicode="u" horiz-adv-x="1018" 
d="M510 -22q-187 0 -303.5 108t-116.5 273v694h140v-642q0 -134 75.5 -214t202.5 -80t203.5 80t76.5 214v642h140v-1053h-140v84q-40 -47 -116 -76.5t-162 -29.5z" />
    <glyph glyph-name="v" unicode="v" horiz-adv-x="1160" 
d="M1070 1052l-424 -1052h-134l-422 1052h162l328 -856l328 856h162z" />
    <glyph glyph-name="w" unicode="w" horiz-adv-x="1710" 
d="M856 850l-262 -850h-136l-368 1052h164l272 -844l254 844h150l254 -840l272 840h164l-370 -1052h-134z" />
    <glyph glyph-name="x" unicode="x" horiz-adv-x="1098" 
d="M550 414l-292 -414h-168l374 526l-374 526h168l292 -414l290 414h168l-374 -526l374 -526h-168z" />
    <glyph glyph-name="y" unicode="y" horiz-adv-x="1198" 
d="M1108 1052l-614 -1492h-158l178 450l-424 1042h166l344 -848l342 848h166z" />
    <glyph glyph-name="z" unicode="z" horiz-adv-x="978" 
d="M888 140v-140h-798v120l608 792h-576v140h764v-120l-608 -792h610z" />
    <glyph glyph-name="braceleft" unicode="{" horiz-adv-x="750" 
d="M660 -140v-140h-68q-129 0 -208.5 77.5t-79.5 204.5v386q0 68 -32 107t-96 39h-56v140h56q64 0 96 39t32 107v388q0 127 79.5 204.5t208.5 77.5h68v-140h-68q-60 0 -95.5 -39.5t-32.5 -102.5v-380q9 -134 -96 -224q48 -39 73.5 -97.5t22.5 -122.5v-382
q-3 -63 32.5 -102.5t95.5 -39.5h68z" />
    <glyph glyph-name="bar" unicode="|" horiz-adv-x="680" 
d="M420 1690v-2070h-160v2070h160z" />
    <glyph glyph-name="braceright" unicode="}" horiz-adv-x="750" 
d="M158 -280h-68v140h68q60 0 95.5 39.5t32.5 102.5v382q-3 64 22.5 122.5t73.5 97.5q-105 90 -96 224v380q3 63 -32.5 102.5t-95.5 39.5h-68v140h68q129 0 208.5 -77.5t79.5 -204.5v-388q0 -68 32 -107t96 -39h56v-140h-56q-64 0 -96 -39t-32 -107v-386
q0 -127 -79.5 -204.5t-208.5 -77.5z" />
    <glyph glyph-name="asciitilde" unicode="~" horiz-adv-x="1350" 
d="M872 600q-59 0 -112.5 22t-87 48t-77.5 48t-87 22q-59 0 -96.5 -35t-47.5 -99h-134q12 133 81 203.5t179 70.5q59 0 112.5 -22t87 -48t77.5 -48t87 -22q109 0 132 134h134q-12 -134 -75.5 -204t-172.5 -70z" />
    <glyph glyph-name="uni00A0" unicode="&#xa0;" horiz-adv-x="340" 
 />
    <glyph glyph-name="exclamdown" unicode="&#xa1;" horiz-adv-x="560" 
d="M360 1076v-220h-160v220h160zM350 648l10 -1062h-160l10 1062h140z" />
    <glyph glyph-name="cent" unicode="&#xa2;" horiz-adv-x="1116" 
d="M664 -22v-240h-140v244q-196 32 -320 186t-124 372q0 217 123.5 369.5t320.5 184.5v244h140v-240q132 -15 238 -89t154 -179l-128 -70q-38 81 -106.5 132.5t-157.5 63.5v-836q89 12 157.5 63.5t106.5 132.5l128 -70q-48 -105 -154 -179t-238 -89zM524 126v824
q-131 -32 -212.5 -144t-81.5 -268q0 -153 82 -266.5t212 -145.5z" />
    <glyph glyph-name="sterling" unicode="&#xa3;" horiz-adv-x="1570" 
d="M1330 140v-140h-1078v140h240v536h-262l40 140h222v264q0 194 126.5 314t331.5 120q170 0 295.5 -88t176.5 -242l-128 -60q-41 120 -129.5 185t-214.5 65q-140 0 -219 -78t-79 -216v-264h574l-40 -140h-534v-536h678z" />
    <glyph glyph-name="currency" unicode="&#xa4;" horiz-adv-x="1276" 
d="M410 212l-152 -152l-98 98l152 152q-74 103 -74 228q0 122 74 228l-152 152l98 98l152 -152q106 74 228 74q123 0 228 -74l152 152l98 -98l-152 -152q74 -106 74 -228q0 -125 -74 -228l152 -152l-98 -98l-152 152q-103 -74 -228 -74q-124 0 -228 74zM638 290
q102 0 175 72.5t73 175.5t-73 176.5t-175 73.5q-104 0 -177 -73t-73 -177q0 -103 73 -175.5t177 -72.5z" />
    <glyph glyph-name="yen" unicode="&#xa5;" horiz-adv-x="1302" 
d="M732 308v-308h-160v308h-460v140h460v160h-460v140h424l-486 742h176l426 -650l424 650h176l-484 -742h400v-140h-436v-160h436v-140h-436z" />
    <glyph glyph-name="brokenbar" unicode="&#xa6;" horiz-adv-x="680" 
d="M420 1690v-752h-160v752h160zM420 372v-752h-160v752h160z" />
    <glyph glyph-name="section" unicode="&#xa7;" horiz-adv-x="1238" 
d="M656 -90q-156 0 -274.5 77.5t-171.5 212.5l128 64q39 -101 123 -157.5t195 -56.5q102 0 167 48.5t65 123.5q0 112 -180 162l-174 48q-272 76 -272 296q0 165 140 238q-140 85 -140 242q0 138 99.5 222t262.5 84q146 0 256 -72t156 -198l-128 -60q-36 91 -110.5 140.5
t-173.5 49.5q-96 0 -154 -42.5t-58 -113.5q0 -115 168 -166l182 -54q135 -41 205.5 -117.5t70.5 -182.5q0 -162 -158 -230q158 -88 158 -250q0 -137 -106.5 -222.5t-275.5 -85.5zM580 572l128 -38q81 12 130.5 58t49.5 110q0 112 -180 162l-152 42q-65 -18 -104.5 -64.5
t-39.5 -103.5q0 -115 168 -166z" />
    <glyph glyph-name="dieresis" unicode="&#xa8;" horiz-adv-x="648" 
d="M162 1350q-50 0 -83 33t-33 83q0 48 33.5 81t82.5 33q48 0 81 -33t33 -81q0 -49 -33 -82.5t-81 -33.5zM500 1350q-50 0 -83 33t-33 83q0 47 33.5 80.5t82.5 33.5q46 0 80 -33.5t34 -80.5q0 -48 -33.5 -82t-80.5 -34z" />
    <glyph glyph-name="copyright" unicode="&#xa9;" horiz-adv-x="1938" 
d="M970 -24q-158 0 -300.5 60.5t-245.5 163.5t-163.5 245.5t-60.5 300.5q0 208 102 384.5t279.5 280t388.5 103.5q209 0 386 -103.5t279.5 -280t102.5 -384.5q0 -211 -103.5 -388.5t-280 -279.5t-384.5 -102zM970 116q172 0 316.5 83t228 228t83.5 319q0 172 -83 316
t-227.5 228t-317.5 84q-174 0 -319 -83.5t-228 -228t-83 -316.5q0 -131 49 -247.5t133 -200.5t200.5 -133t247.5 -49zM980 326q-173 0 -287.5 119.5t-114.5 300.5t114.5 299.5t287.5 118.5q123 0 216 -61t124 -149l-120 -58q-25 66 -82.5 107t-137.5 41q-118 0 -193 -83.5
t-75 -214.5q0 -132 75 -216t193 -84q81 0 138.5 42t81.5 108l120 -60q-32 -88 -124 -149t-216 -61z" />
    <glyph glyph-name="ordfeminine" unicode="&#xaa;" horiz-adv-x="804" 
d="M346 718q-118 0 -192 62.5t-74 163.5q0 82 61.5 138t176.5 82l256 58v20q0 63 -45 101.5t-117 38.5q-64 0 -114.5 -33t-73.5 -89l-116 60q35 83 118.5 133.5t185.5 50.5q129 0 210.5 -73t81.5 -189v-508h-126v100q-39 -54 -100.5 -85t-131.5 -31zM356 832q93 0 155.5 63
t62.5 159v64l-226 -52q-60 -14 -95 -46.5t-35 -77.5q0 -51 37 -80.5t101 -29.5z" />
    <glyph glyph-name="guillemotleft" unicode="&#xab;" horiz-adv-x="1264" 
d="M310 538l304 -380h-180l-304 380l304 380h180zM790 538l304 -380h-180l-304 380l304 380h180z" />
    <glyph glyph-name="uni00AD" unicode="&#xad;" horiz-adv-x="1080" 
d="M890 608v-140h-700v140h700z" />
    <glyph glyph-name="registered" unicode="&#xae;" horiz-adv-x="1938" 
d="M970 -24q-158 0 -300.5 60.5t-245.5 163.5t-163.5 245.5t-60.5 300.5q0 208 102 384.5t279.5 280t388.5 103.5q209 0 386 -103.5t279.5 -280t102.5 -384.5q0 -211 -103.5 -388.5t-280 -279.5t-384.5 -102zM970 116q172 0 316.5 83t228 228t83.5 319q0 172 -83 316
t-227.5 228t-317.5 84q-174 0 -319 -83.5t-228 -228t-83 -316.5q0 -131 49 -247.5t133 -200.5t200.5 -133t247.5 -49zM834 644v-304h-134v814h310q128 0 206 -69t78 -187q0 -83 -40 -142t-112 -88l188 -328h-154l-170 304h-172zM1012 1036h-178v-274h178q66 0 106 38t40 98
q0 62 -40 100t-106 38z" />
    <glyph glyph-name="macron" unicode="&#xaf;" horiz-adv-x="514" 
d="M474 1398v-118h-434v118h434z" />
    <glyph glyph-name="degree" unicode="&#xb0;" horiz-adv-x="1036" 
d="M518 880q-131 0 -224.5 92.5t-93.5 223.5q0 132 93 225t225 93t225 -93t93 -225q0 -131 -93.5 -223.5t-224.5 -92.5zM516 1004q78 0 136 57t58 135q0 79 -58 136.5t-136 57.5t-134 -57t-56 -137q0 -78 56 -135t134 -57z" />
    <glyph glyph-name="plusminus" unicode="&#xb1;" horiz-adv-x="1220" 
d="M686 672v-346h-150v346h-346v150h346v344h150v-344h344v-150h-344zM1030 150v-150h-840v150h840z" />
    <glyph glyph-name="acute" unicode="&#xb4;" horiz-adv-x="388" 
d="M376 1654l-182 -304h-126l156 304h152z" />
    <glyph glyph-name="uni00B5" unicode="&#xb5;" horiz-adv-x="1076" 
d="M252 62v-462h-132v1476h132v-706q0 -123 70 -196.5t186 -73.5q76 0 156.5 30.5t139.5 81.5v864h132v-1076h-132v74q-65 -45 -149 -71.5t-163 -26.5q-145 0 -240 86z" />
    <glyph glyph-name="paragraph" unicode="&#xb6;" horiz-adv-x="776" 
d="M606 1490v-1690h-160v1046q-132 0 -224 94t-92 228t92 228t224 94h160z" />
    <glyph glyph-name="periodcentered" unicode="&#xb7;" horiz-adv-x="580" 
d="M370 856v-220h-160v220h160z" />
    <glyph glyph-name="cedilla" unicode="&#xb8;" horiz-adv-x="520" 
d="M264 -412q-131 0 -224 90l50 82q28 -29 71.5 -47.5t90.5 -18.5q52 0 83 27.5t31 74.5q0 58 -52 113.5t-152 96.5l76 24q115 -39 178.5 -106.5t63.5 -151.5q0 -85 -62.5 -134.5t-153.5 -49.5z" />
    <glyph glyph-name="ordmasculine" unicode="&#xba;" horiz-adv-x="938" 
d="M470 718q-166 0 -278 112t-112 282t112 281t278 111q165 0 276.5 -111t111.5 -281t-111.5 -282t-276.5 -112zM470 842q107 0 179.5 76.5t72.5 191.5t-72.5 192.5t-179.5 77.5q-108 0 -180 -77t-72 -193q0 -115 72 -191.5t180 -76.5z" />
    <glyph glyph-name="guillemotright" unicode="&#xbb;" horiz-adv-x="1264" 
d="M654 538l-304 -380h-180l304 380l-304 380h180zM1134 538l-304 -380h-180l304 380l-304 380h180z" />
    <glyph glyph-name="questiondown" unicode="&#xbf;" horiz-adv-x="1144" 
d="M722 1514v-220h-160v220h160zM556 0q-185 0 -295.5 104.5t-110.5 253.5q0 33 6.5 65t15.5 57.5t27.5 55t32 49t40 48.5t41.5 43.5t45.5 44.5t43.5 43q81 81 123.5 149.5t42.5 152.5v20h160v-20q0 -52 -13.5 -101t-31.5 -84.5t-51.5 -77t-58 -66t-65.5 -63.5
q-98 -94 -130 -136q-68 -88 -68 -180t62 -155t184 -63q256 0 330 250l128 -60q-47 -152 -169 -241t-289 -89z" />
    <glyph glyph-name="Agrave" unicode="&#xc0;" horiz-adv-x="1446" 
d="M721 2004l156 -304h-126l-182 304h152zM406 417l-148 -417h-168l548 1490h170l548 -1490h-168l-147 417h-635zM991 557l-267 755l-268 -755h535z" />
    <glyph glyph-name="Aacute" unicode="&#xc1;" horiz-adv-x="1446" 
d="M877 2004l-182 -304h-126l156 304h152zM406 417l-148 -417h-168l548 1490h170l548 -1490h-168l-147 417h-635zM991 557l-267 755l-268 -755h535z" />
    <glyph glyph-name="Acircumflex" unicode="&#xc2;" horiz-adv-x="1446" 
d="M722 1922l-164 -222h-136l226 304h148l228 -304h-136zM406 417l-148 -417h-168l548 1490h170l548 -1490h-168l-147 417h-635zM991 557l-267 755l-268 -755h535z" />
    <glyph glyph-name="Atilde" unicode="&#xc3;" horiz-adv-x="1446" 
d="M850 1700q-39 0 -75.5 14t-60 31t-53.5 31t-57 14q-29 0 -51.5 -19t-26.5 -61h-116q4 87 57.5 139.5t130.5 52.5q39 0 75.5 -14t60 -31t53.5 -31t57 -14q28 0 51 19.5t27 62.5h114q-4 -93 -58 -143.5t-128 -50.5zM406 417l-148 -417h-168l548 1490h170l548 -1490h-168
l-147 417h-635zM991 557l-267 755l-268 -755h535z" />
    <glyph glyph-name="Adieresis" unicode="&#xc4;" horiz-adv-x="1446" 
d="M555 1700q-49 0 -82.5 33t-33.5 83q0 48 33.5 81t82.5 33q48 0 81 -33t33 -81q0 -49 -33 -82.5t-81 -33.5zM893 1700q-49 0 -82.5 33t-33.5 83q0 47 33.5 80.5t82.5 33.5q46 0 80 -33.5t34 -80.5q0 -48 -33.5 -82t-80.5 -34zM406 417l-148 -417h-168l548 1490h170
l548 -1490h-168l-147 417h-635zM991 557l-267 755l-268 -755h535z" />
    <glyph glyph-name="Aring" unicode="&#xc5;" horiz-adv-x="1446" 
d="M723 1700q-81 0 -138.5 55.5t-57.5 136.5q0 80 56 135t140 55q82 0 139 -55t57 -135t-57 -136t-139 -56zM723 1796q41 0 69.5 28t28.5 68q0 39 -28.5 66.5t-69.5 27.5q-42 0 -70 -27.5t-28 -66.5q0 -40 28.5 -68t69.5 -28zM406 417l-148 -417h-168l548 1490h170
l548 -1490h-168l-147 417h-635zM991 557l-267 755l-268 -755h535z" />
    <glyph glyph-name="AE" unicode="&#xc6;" horiz-adv-x="1772" 
d="M406 417l-148 -417h-168l548 1490l1044 3v-140h-798v-509h699v-140h-699v-561h798v-140h-958v414h-318zM724 557v755l-268 -755h268z" />
    <glyph glyph-name="Ccedilla" unicode="&#xc7;" horiz-adv-x="1528" 
d="M768 -412q-131 0 -224 90l50 82q28 -29 71.5 -47.5t90.5 -18.5q52 0 83 27.5t31 74.5q0 106 -152 186q-278 35 -453 245.5t-175 516.5q0 220 93.5 395.5t259.5 274t373 98.5q201 0 365 -94t257 -264l-135 -73q-72 137 -199.5 214t-287.5 77q-248 0 -407 -175.5
t-159 -452.5t159 -452.5t407 -175.5q158 0 284 75t200 208l134 -75q-90 -155 -241 -246.5t-338 -100.5q129 -82 129 -205q0 -85 -62.5 -134.5t-153.5 -49.5z" />
    <glyph glyph-name="Egrave" unicode="&#xc8;" horiz-adv-x="1138" 
d="M567 2004l156 -304h-126l-182 304h152zM1048 140v-140h-958v1490h958v-140h-798v-509h699v-140h-699v-561h798z" />
    <glyph glyph-name="Eacute" unicode="&#xc9;" horiz-adv-x="1138" 
d="M723 2004l-182 -304h-126l156 304h152zM1048 140v-140h-958v1490h958v-140h-798v-509h699v-140h-699v-561h798z" />
    <glyph glyph-name="Ecircumflex" unicode="&#xca;" horiz-adv-x="1138" 
d="M568 1922l-164 -222h-136l226 304h148l228 -304h-136zM1048 140v-140h-958v1490h958v-140h-798v-509h699v-140h-699v-561h798z" />
    <glyph glyph-name="Edieresis" unicode="&#xcb;" horiz-adv-x="1138" 
d="M401 1700q-49 0 -82.5 33t-33.5 83q0 48 33.5 81t82.5 33q48 0 81 -33t33 -81q0 -49 -33 -82.5t-81 -33.5zM739 1700q-49 0 -82.5 33t-33.5 83q0 47 33.5 80.5t82.5 33.5q46 0 80 -33.5t34 -80.5q0 -48 -33.5 -82t-80.5 -34zM1048 140v-140h-958v1490h958v-140h-798v-509
h699v-140h-699v-561h798z" />
    <glyph glyph-name="Igrave" unicode="&#xcc;" horiz-adv-x="340" 
d="M168 2004l156 -304h-126l-182 304h152zM250 1490v-1490h-160v1490h160z" />
    <glyph glyph-name="Iacute" unicode="&#xcd;" horiz-adv-x="340" 
d="M324 2004l-182 -304h-126l156 304h152zM250 1490v-1490h-160v1490h160z" />
    <glyph glyph-name="Icircumflex" unicode="&#xce;" horiz-adv-x="340" 
d="M169 1922l-164 -222h-136l226 304h148l228 -304h-136zM250 1490v-1490h-160v1490h160z" />
    <glyph glyph-name="Idieresis" unicode="&#xcf;" horiz-adv-x="340" 
d="M2 1700q-50 0 -83 33t-33 83q0 48 33.5 81t82.5 33q48 0 81 -33t33 -81q0 -49 -33 -82.5t-81 -33.5zM340 1700q-50 0 -83 33t-33 83q0 47 33.5 80.5t82.5 33.5q46 0 80 -33.5t34 -80.5q0 -48 -33.5 -82t-80.5 -34zM250 1490v-1490h-160v1490h160z" />
    <glyph glyph-name="Ntilde" unicode="&#xd1;" horiz-adv-x="1300" 
d="M777 1700q-39 0 -75.5 14t-60 31t-53.5 31t-57 14q-29 0 -51.5 -19t-26.5 -61h-116q4 87 57.5 139.5t130.5 52.5q39 0 75.5 -14t60 -31t53.5 -31t57 -14q28 0 51 19.5t27 62.5h114q-4 -93 -58 -143.5t-128 -50.5zM250 1192v-1192h-160v1490h140l820 -1184v1184h160v-1490
h-140z" />
    <glyph glyph-name="Ograve" unicode="&#xd2;" horiz-adv-x="1632" 
d="M814 2004l156 -304h-126l-182 304h152zM816 -24q-207 0 -373 98.5t-259.5 274t-93.5 395.5t93.5 395.5t259.5 274t373 98.5t373 -98.5t259.5 -274t93.5 -395.5t-93.5 -395.5t-259.5 -274t-373 -98.5zM816 116q248 0 407 175.5t159 452.5t-159 452.5t-407 175.5
t-407 -175.5t-159 -452.5t159 -452.5t407 -175.5z" />
    <glyph glyph-name="Oacute" unicode="&#xd3;" horiz-adv-x="1632" 
d="M970 2004l-182 -304h-126l156 304h152zM816 -24q-207 0 -373 98.5t-259.5 274t-93.5 395.5t93.5 395.5t259.5 274t373 98.5t373 -98.5t259.5 -274t93.5 -395.5t-93.5 -395.5t-259.5 -274t-373 -98.5zM816 116q248 0 407 175.5t159 452.5t-159 452.5t-407 175.5
t-407 -175.5t-159 -452.5t159 -452.5t407 -175.5z" />
    <glyph glyph-name="Ocircumflex" unicode="&#xd4;" horiz-adv-x="1632" 
d="M815 1922l-164 -222h-136l226 304h148l228 -304h-136zM816 -24q-207 0 -373 98.5t-259.5 274t-93.5 395.5t93.5 395.5t259.5 274t373 98.5t373 -98.5t259.5 -274t93.5 -395.5t-93.5 -395.5t-259.5 -274t-373 -98.5zM816 116q248 0 407 175.5t159 452.5t-159 452.5
t-407 175.5t-407 -175.5t-159 -452.5t159 -452.5t407 -175.5z" />
    <glyph glyph-name="Otilde" unicode="&#xd5;" horiz-adv-x="1632" 
d="M943 1700q-39 0 -75.5 14t-60 31t-53.5 31t-57 14q-29 0 -51.5 -19t-26.5 -61h-116q4 87 57.5 139.5t130.5 52.5q39 0 75.5 -14t60 -31t53.5 -31t57 -14q28 0 51 19.5t27 62.5h114q-4 -93 -58 -143.5t-128 -50.5zM816 -24q-207 0 -373 98.5t-259.5 274t-93.5 395.5
t93.5 395.5t259.5 274t373 98.5t373 -98.5t259.5 -274t93.5 -395.5t-93.5 -395.5t-259.5 -274t-373 -98.5zM816 116q248 0 407 175.5t159 452.5t-159 452.5t-407 175.5t-407 -175.5t-159 -452.5t159 -452.5t407 -175.5z" />
    <glyph glyph-name="Odieresis" unicode="&#xd6;" horiz-adv-x="1632" 
d="M648 1700q-50 0 -83 33t-33 83q0 48 33.5 81t82.5 33q48 0 81 -33t33 -81q0 -49 -33 -82.5t-81 -33.5zM986 1700q-50 0 -83 33t-33 83q0 47 33.5 80.5t82.5 33.5q46 0 80 -33.5t34 -80.5q0 -48 -33.5 -82t-80.5 -34zM816 -24q-207 0 -373 98.5t-259.5 274t-93.5 395.5
t93.5 395.5t259.5 274t373 98.5t373 -98.5t259.5 -274t93.5 -395.5t-93.5 -395.5t-259.5 -274t-373 -98.5zM816 116q248 0 407 175.5t159 452.5t-159 452.5t-407 175.5t-407 -175.5t-159 -452.5t159 -452.5t407 -175.5z" />
    <glyph glyph-name="multiply" unicode="&#xd7;" horiz-adv-x="1168" 
d="M872 354l-288 288l-288 -288l-106 106l288 288l-286 286l106 106l286 -286l286 286l106 -106l-286 -286l288 -288z" />
    <glyph glyph-name="Oslash" unicode="&#xd8;" horiz-adv-x="1632" 
d="M816 -24q-128 0 -245 40l-7 -16h-172l38 83q-159 99 -249.5 272t-90.5 389q0 220 93.5 395.5t259.5 274t373 98.5q127 0 244 -39l8 17h172l-38 -85q159 -99 249.5 -272t90.5 -389q0 -220 -93.5 -395.5t-259.5 -274t-373 -98.5zM491 218l510 1124q-86 30 -185 30
q-248 0 -407 -175.5t-159 -452.5q0 -171 63.5 -307.5t177.5 -218.5zM816 116q248 0 407 175.5t159 452.5q0 171 -64 308t-177 219l-511 -1125q87 -30 186 -30z" />
    <glyph glyph-name="Ugrave" unicode="&#xd9;" horiz-adv-x="1240" 
d="M618 2004l156 -304h-126l-182 304h152zM620 -24q-242 0 -386 133.5t-144 356.5v1024h162v-1024q0 -151 105 -250.5t263 -99.5q156 0 262 100t106 250v1024h162v-1024q0 -222 -144.5 -356t-385.5 -134z" />
    <glyph glyph-name="Uacute" unicode="&#xda;" horiz-adv-x="1240" 
d="M774 2004l-182 -304h-126l156 304h152zM620 -24q-242 0 -386 133.5t-144 356.5v1024h162v-1024q0 -151 105 -250.5t263 -99.5q156 0 262 100t106 250v1024h162v-1024q0 -222 -144.5 -356t-385.5 -134z" />
    <glyph glyph-name="Ucircumflex" unicode="&#xdb;" horiz-adv-x="1240" 
d="M619 1922l-164 -222h-136l226 304h148l228 -304h-136zM620 -24q-242 0 -386 133.5t-144 356.5v1024h162v-1024q0 -151 105 -250.5t263 -99.5q156 0 262 100t106 250v1024h162v-1024q0 -222 -144.5 -356t-385.5 -134z" />
    <glyph glyph-name="Udieresis" unicode="&#xdc;" horiz-adv-x="1240" 
d="M452 1700q-50 0 -83 33t-33 83q0 48 33.5 81t82.5 33q48 0 81 -33t33 -81q0 -49 -33 -82.5t-81 -33.5zM790 1700q-50 0 -83 33t-33 83q0 47 33.5 80.5t82.5 33.5q46 0 80 -33.5t34 -80.5q0 -48 -33.5 -82t-80.5 -34zM620 -24q-242 0 -386 133.5t-144 356.5v1024h162
v-1024q0 -151 105 -250.5t263 -99.5q156 0 262 100t106 250v1024h162v-1024q0 -222 -144.5 -356t-385.5 -134z" />
    <glyph glyph-name="Yacute" unicode="&#xdd;" horiz-adv-x="1382" 
d="M845 2004l-182 -304h-126l156 304h152zM772 692v-692h-160v692l-522 798h176l426 -650l424 650h176z" />
    <glyph glyph-name="germandbls" unicode="&#xdf;" horiz-adv-x="1268" 
d="M258 1087v-1087h-168v1097q0 170 116.5 281.5t302.5 111.5h190q186 0 302.5 -111.5t116.5 -281.5q0 -102 -44.5 -183t-125.5 -131q109 -56 169.5 -153.5t60.5 -218.5q0 -195 -129.5 -303t-350.5 -108h-183l-1 140h184q143 0 227.5 71t84.5 200q0 131 -85.5 210.5
t-226.5 79.5h-186v140h174q120 0 192 67.5t72 178.5q0 112 -73 187.5t-191 75.5h-164q-118 0 -191 -75.5t-73 -187.5z" />
    <glyph glyph-name="agrave" unicode="&#xe0;" horiz-adv-x="1032" 
d="M514 1584l156 -304h-126l-182 304h152zM462 -24q-166 0 -269 88.5t-103 229.5q0 114 88.5 194t249.5 116l374 86v28q0 104 -75.5 161t-198.5 57q-126 -2 -188.5 -45t-62.5 -132l-150 -2q0 149 104 232t296 87q184 0 299.5 -96.5t115.5 -261.5v-718h-140v162
q-50 -83 -143.5 -134.5t-196.5 -51.5zM462 114q148 0 244 100t96 252v102l-338 -78q-102 -23 -163 -75.5t-61 -122.5q0 -81 60 -129.5t162 -48.5z" />
    <glyph glyph-name="aacute" unicode="&#xe1;" horiz-adv-x="1032" 
d="M670 1584l-182 -304h-126l156 304h152zM462 -24q-166 0 -269 88.5t-103 229.5q0 114 88.5 194t249.5 116l374 86v28q0 104 -75.5 161t-198.5 57q-126 -2 -188.5 -45t-62.5 -132l-150 -2q0 149 104 232t296 87q184 0 299.5 -96.5t115.5 -261.5v-718h-140v162
q-50 -83 -143.5 -134.5t-196.5 -51.5zM462 114q148 0 244 100t96 252v102l-338 -78q-102 -23 -163 -75.5t-61 -122.5q0 -81 60 -129.5t162 -48.5z" />
    <glyph glyph-name="acircumflex" unicode="&#xe2;" horiz-adv-x="1032" 
d="M515 1502l-164 -222h-136l226 304h148l228 -304h-136zM462 -24q-166 0 -269 88.5t-103 229.5q0 114 88.5 194t249.5 116l374 86v28q0 104 -75.5 161t-198.5 57q-126 -2 -188.5 -45t-62.5 -132l-150 -2q0 149 104 232t296 87q184 0 299.5 -96.5t115.5 -261.5v-718h-140
v162q-50 -83 -143.5 -134.5t-196.5 -51.5zM462 114q148 0 244 100t96 252v102l-338 -78q-102 -23 -163 -75.5t-61 -122.5q0 -81 60 -129.5t162 -48.5z" />
    <glyph glyph-name="atilde" unicode="&#xe3;" horiz-adv-x="1032" 
d="M643 1280q-39 0 -75.5 14t-60 31t-53.5 31t-57 14q-29 0 -51.5 -19t-26.5 -61h-116q4 87 57.5 139.5t130.5 52.5q39 0 75.5 -14t60 -31t53.5 -31t57 -14q28 0 51 19.5t27 62.5h114q-4 -93 -58 -143.5t-128 -50.5zM462 -24q-166 0 -269 88.5t-103 229.5q0 114 88.5 194
t249.5 116l374 86v28q0 104 -75.5 161t-198.5 57q-126 -2 -188.5 -45t-62.5 -132l-150 -2q0 149 104 232t296 87q184 0 299.5 -96.5t115.5 -261.5v-718h-140v162q-50 -83 -143.5 -134.5t-196.5 -51.5zM462 114q148 0 244 100t96 252v102l-338 -78q-102 -23 -163 -75.5
t-61 -122.5q0 -81 60 -129.5t162 -48.5z" />
    <glyph glyph-name="adieresis" unicode="&#xe4;" horiz-adv-x="1032" 
d="M348 1280q-50 0 -83 33t-33 83q0 48 33.5 81t82.5 33q48 0 81 -33t33 -81q0 -49 -33 -82.5t-81 -33.5zM686 1280q-50 0 -83 33t-33 83q0 47 33.5 80.5t82.5 33.5q46 0 80 -33.5t34 -80.5q0 -48 -33.5 -82t-80.5 -34zM462 -24q-166 0 -269 88.5t-103 229.5q0 114 88.5 194
t249.5 116l374 86v28q0 104 -75.5 161t-198.5 57q-126 -2 -188.5 -45t-62.5 -132l-150 -2q0 149 104 232t296 87q184 0 299.5 -96.5t115.5 -261.5v-718h-140v162q-50 -83 -143.5 -134.5t-196.5 -51.5zM462 114q148 0 244 100t96 252v102l-338 -78q-102 -23 -163 -75.5
t-61 -122.5q0 -81 60 -129.5t162 -48.5z" />
    <glyph glyph-name="aring" unicode="&#xe5;" horiz-adv-x="1032" 
d="M516 1280q-81 0 -138.5 55.5t-57.5 136.5q0 80 56 135t140 55q82 0 139 -55t57 -135t-57 -136t-139 -56zM516 1376q41 0 69.5 28t28.5 68q0 39 -28.5 66.5t-69.5 27.5q-42 0 -70 -27.5t-28 -66.5q0 -40 28.5 -68t69.5 -28zM462 -24q-166 0 -269 88.5t-103 229.5
q0 114 88.5 194t249.5 116l374 86v28q0 104 -75.5 161t-198.5 57q-126 -2 -188.5 -45t-62.5 -132l-150 -2q0 149 104 232t296 87q184 0 299.5 -96.5t115.5 -261.5v-718h-140v162q-50 -83 -143.5 -134.5t-196.5 -51.5zM462 114q148 0 244 100t96 252v102l-338 -78
q-102 -23 -163 -75.5t-61 -122.5q0 -81 60 -129.5t162 -48.5z" />
    <glyph glyph-name="ae" unicode="&#xe6;" horiz-adv-x="1959" 
d="M462 -24q-166 0 -269 88.5t-103 229.5q0 114 88.5 194t249.5 116l374 86v28q0 104 -75.5 161t-198.5 57q-126 -2 -188.5 -45t-62.5 -132l-150 -2q0 149 104 232t296 87q134 0 234 -52.5t146 -147.5q72 98 180 153t238 55q228 0 376 -157t148 -397q0 -8 -0.5 -22.5
t-0.5 -22.5h-890q14 -163 114.5 -264.5t252.5 -101.5q119 0 209 65t132 177l136 -73q-61 -144 -187 -228t-290 -84q-165 0 -259.5 57.5t-170.5 193.5q-176 -251 -433 -251zM963 615h724q-23 147 -121.5 236.5t-240.5 89.5t-240.5 -89.5t-121.5 -236.5zM462 114
q148 0 244 100t96 252v28q-1 12 -1 36t1 36v2l-338 -78q-102 -23 -163 -75.5t-61 -122.5q0 -81 60 -129.5t162 -48.5z" />
    <glyph glyph-name="ccedilla" unicode="&#xe7;" horiz-adv-x="1152" 
d="M927 298l134 -72l1 1q-62 -107 -164 -173t-229 -78q127 -82 127 -204q0 -85 -62.5 -134.5t-153.5 -49.5q-131 0 -224 90l50 82q28 -29 71.5 -47.5t90.5 -18.5q52 0 83 27.5t31 74.5q0 104 -145 182q-199 27 -323 179t-124 370q0 240 148 397t376 157q145 0 262.5 -67.5
t185.5 -186.5l-134 -72l-1 1q-47 86 -128.5 134t-184.5 48q-163 0 -266 -115t-103 -296t103 -296t266 -115q103 0 184 48t129 134z" />
    <glyph glyph-name="egrave" unicode="&#xe8;" 
d="M612 1584l156 -304h-126l-182 304h152zM614 -27q-228 0 -376 157t-148 397t148 397t376 157t376 -157t148 -397q0 -7 -0.5 -22t-0.5 -23h-890q14 -163 114.5 -264.5t252.5 -101.5q119 0 209 65t132 177l136 -73q-61 -144 -187 -228t-290 -84zM252 612h724
q-23 147 -121.5 236.5t-240.5 89.5t-240.5 -89.5t-121.5 -236.5z" />
    <glyph glyph-name="eacute" unicode="&#xe9;" 
d="M768 1584l-182 -304h-126l156 304h152zM614 -27q-228 0 -376 157t-148 397t148 397t376 157t376 -157t148 -397q0 -7 -0.5 -22t-0.5 -23h-890q14 -163 114.5 -264.5t252.5 -101.5q119 0 209 65t132 177l136 -73q-61 -144 -187 -228t-290 -84zM252 612h724
q-23 147 -121.5 236.5t-240.5 89.5t-240.5 -89.5t-121.5 -236.5z" />
    <glyph glyph-name="ecircumflex" unicode="&#xea;" 
d="M613 1502l-164 -222h-136l226 304h148l228 -304h-136zM614 -27q-228 0 -376 157t-148 397t148 397t376 157t376 -157t148 -397q0 -7 -0.5 -22t-0.5 -23h-890q14 -163 114.5 -264.5t252.5 -101.5q119 0 209 65t132 177l136 -73q-61 -144 -187 -228t-290 -84zM252 612h724
q-23 147 -121.5 236.5t-240.5 89.5t-240.5 -89.5t-121.5 -236.5z" />
    <glyph glyph-name="edieresis" unicode="&#xeb;" 
d="M446 1280q-50 0 -83 33t-33 83q0 48 33.5 81t82.5 33q48 0 81 -33t33 -81q0 -49 -33 -82.5t-81 -33.5zM784 1280q-50 0 -83 33t-33 83q0 47 33.5 80.5t82.5 33.5q46 0 80 -33.5t34 -80.5q0 -48 -33.5 -82t-80.5 -34zM614 -27q-228 0 -376 157t-148 397t148 397t376 157
t376 -157t148 -397q0 -7 -0.5 -22t-0.5 -23h-890q14 -163 114.5 -264.5t252.5 -101.5q119 0 209 65t132 177l136 -73q-61 -144 -187 -228t-290 -84zM252 612h724q-23 147 -121.5 236.5t-240.5 89.5t-240.5 -89.5t-121.5 -236.5z" />
    <glyph glyph-name="igrave" unicode="&#xec;" horiz-adv-x="320" 
d="M158 1584l156 -304h-126l-182 304h152zM230 1052v-1052h-140v1052h140z" />
    <glyph glyph-name="iacute" unicode="&#xed;" horiz-adv-x="320" 
d="M314 1584l-182 -304h-126l156 304h152zM230 1052v-1052h-140v1052h140z" />
    <glyph glyph-name="icircumflex" unicode="&#xee;" horiz-adv-x="320" 
d="M159 1502l-164 -222h-136l226 304h148l228 -304h-136zM230 1052v-1052h-140v1052h140z" />
    <glyph glyph-name="idieresis" unicode="&#xef;" horiz-adv-x="320" 
d="M-8 1280q-50 0 -83 33t-33 83q0 48 33.5 81t82.5 33q48 0 81 -33t33 -81q0 -49 -33 -82.5t-81 -33.5zM330 1280q-50 0 -83 33t-33 83q0 47 33.5 80.5t82.5 33.5q46 0 80 -33.5t34 -80.5q0 -48 -33.5 -82t-80.5 -34zM230 1052v-1052h-140v1052h140z" />
    <glyph glyph-name="ntilde" unicode="&#xf1;" horiz-adv-x="1018" 
d="M636 1280q-39 0 -75.5 14t-60 31t-53.5 31t-57 14q-29 0 -51.5 -19t-26.5 -61h-116q4 87 57.5 139.5t130.5 52.5q39 0 75.5 -14t60 -31t53.5 -31t57 -14q28 0 51 19.5t27 62.5h114q-4 -93 -58 -143.5t-128 -50.5zM230 642v-642h-140v1053h140v-84q40 47 116 76.5
t162 29.5q187 0 303.5 -108t116.5 -273v-694h-140v642q0 134 -75.5 214t-202.5 80t-203.5 -80t-76.5 -214z" />
    <glyph glyph-name="ograve" unicode="&#xf2;" 
d="M612 1584l156 -304h-126l-182 304h152zM614 -27q-228 0 -376 157t-148 397t148 397t376 157t376 -157t148 -397t-148 -397t-376 -157zM614 116q163 0 266 115t103 296t-103 296t-266 115t-266 -115t-103 -296t103 -296t266 -115z" />
    <glyph glyph-name="oacute" unicode="&#xf3;" 
d="M768 1584l-182 -304h-126l156 304h152zM614 -27q-228 0 -376 157t-148 397t148 397t376 157t376 -157t148 -397t-148 -397t-376 -157zM614 116q163 0 266 115t103 296t-103 296t-266 115t-266 -115t-103 -296t103 -296t266 -115z" />
    <glyph glyph-name="ocircumflex" unicode="&#xf4;" 
d="M613 1502l-164 -222h-136l226 304h148l228 -304h-136zM614 -27q-228 0 -376 157t-148 397t148 397t376 157t376 -157t148 -397t-148 -397t-376 -157zM614 116q163 0 266 115t103 296t-103 296t-266 115t-266 -115t-103 -296t103 -296t266 -115z" />
    <glyph glyph-name="otilde" unicode="&#xf5;" 
d="M741 1280q-39 0 -75.5 14t-60 31t-53.5 31t-57 14q-29 0 -51.5 -19t-26.5 -61h-116q4 87 57.5 139.5t130.5 52.5q39 0 75.5 -14t60 -31t53.5 -31t57 -14q28 0 51 19.5t27 62.5h114q-4 -93 -58 -143.5t-128 -50.5zM614 -27q-228 0 -376 157t-148 397t148 397t376 157
t376 -157t148 -397t-148 -397t-376 -157zM614 116q163 0 266 115t103 296t-103 296t-266 115t-266 -115t-103 -296t103 -296t266 -115z" />
    <glyph glyph-name="odieresis" unicode="&#xf6;" 
d="M446 1280q-50 0 -83 33t-33 83q0 48 33.5 81t82.5 33q48 0 81 -33t33 -81q0 -49 -33 -82.5t-81 -33.5zM784 1280q-50 0 -83 33t-33 83q0 47 33.5 80.5t82.5 33.5q46 0 80 -33.5t34 -80.5q0 -48 -33.5 -82t-80.5 -34zM614 -27q-228 0 -376 157t-148 397t148 397t376 157
t376 -157t148 -397t-148 -397t-376 -157zM614 116q163 0 266 115t103 296t-103 296t-266 115t-266 -115t-103 -296t103 -296t266 -115z" />
    <glyph glyph-name="divide" unicode="&#xf7;" horiz-adv-x="1320" 
d="M740 1282v-220h-160v220h160zM1120 822v-150h-920v150h920zM740 432v-220h-160v220h160z" />
    <glyph glyph-name="oslash" unicode="&#xf8;" 
d="M732 1194h172l-72 -158q141 -63 223.5 -198t82.5 -311q0 -240 -148 -397t-376 -157q-129 0 -239 55l-13 -28h-172l55 122q-74 75 -114.5 179.5t-40.5 225.5q0 240 148 397t376 157q37 0 65 -4zM245 527q0 -146 70 -252l301 663h-2q-163 0 -266 -115t-103 -296zM614 116
q163 0 266 115t103 296q0 131 -56.5 230.5t-154.5 146.5l-337 -743q81 -45 179 -45z" />
    <glyph glyph-name="ugrave" unicode="&#xf9;" horiz-adv-x="1018" 
d="M507 1584l156 -304h-126l-182 304h152zM510 -22q-187 0 -303.5 108t-116.5 273v694h140v-642q0 -134 75.5 -214t202.5 -80t203.5 80t76.5 214v642h140v-1053h-140v84q-40 -47 -116 -76.5t-162 -29.5z" />
    <glyph glyph-name="uacute" unicode="&#xfa;" horiz-adv-x="1018" 
d="M663 1584l-182 -304h-126l156 304h152zM510 -22q-187 0 -303.5 108t-116.5 273v694h140v-642q0 -134 75.5 -214t202.5 -80t203.5 80t76.5 214v642h140v-1053h-140v84q-40 -47 -116 -76.5t-162 -29.5z" />
    <glyph glyph-name="ucircumflex" unicode="&#xfb;" horiz-adv-x="1018" 
d="M508 1502l-164 -222h-136l226 304h148l228 -304h-136zM510 -22q-187 0 -303.5 108t-116.5 273v694h140v-642q0 -134 75.5 -214t202.5 -80t203.5 80t76.5 214v642h140v-1053h-140v84q-40 -47 -116 -76.5t-162 -29.5z" />
    <glyph glyph-name="udieresis" unicode="&#xfc;" horiz-adv-x="1018" 
d="M341 1280q-49 0 -82.5 33t-33.5 83q0 48 33.5 81t82.5 33q48 0 81 -33t33 -81q0 -49 -33 -82.5t-81 -33.5zM679 1280q-49 0 -82.5 33t-33.5 83q0 47 33.5 80.5t82.5 33.5q46 0 80 -33.5t34 -80.5q0 -48 -33.5 -82t-80.5 -34zM510 -22q-187 0 -303.5 108t-116.5 273v694
h140v-642q0 -134 75.5 -214t202.5 -80t203.5 80t76.5 214v642h140v-1053h-140v84q-40 -47 -116 -76.5t-162 -29.5z" />
    <glyph glyph-name="yacute" unicode="&#xfd;" horiz-adv-x="1198" 
d="M753 1584l-182 -304h-126l156 304h152zM1108 1052l-614 -1492h-158l178 450l-424 1042h166l344 -848l342 848h166z" />
    <glyph glyph-name="ydieresis" unicode="&#xff;" horiz-adv-x="1198" 
d="M431 1280q-49 0 -82.5 33t-33.5 83q0 48 33.5 81t82.5 33q48 0 81 -33t33 -81q0 -49 -33 -82.5t-81 -33.5zM769 1280q-49 0 -82.5 33t-33.5 83q0 47 33.5 80.5t82.5 33.5q46 0 80 -33.5t34 -80.5q0 -48 -33.5 -82t-80.5 -34zM1108 1052l-614 -1492h-158l178 450
l-424 1042h166l344 -848l342 848h166z" />
    <glyph glyph-name="Amacron" unicode="&#x100;" horiz-adv-x="1446" 
d="M940 1818v-118h-434v118h434zM406 417l-148 -417h-168l548 1490h170l548 -1490h-168l-147 417h-635zM991 557l-267 755l-268 -755h535z" />
    <glyph glyph-name="amacron" unicode="&#x101;" horiz-adv-x="1032" 
d="M733 1398v-118h-434v118h434zM462 -24q-166 0 -269 88.5t-103 229.5q0 114 88.5 194t249.5 116l374 86v28q0 104 -75.5 161t-198.5 57q-126 -2 -188.5 -45t-62.5 -132l-150 -2q0 149 104 232t296 87q184 0 299.5 -96.5t115.5 -261.5v-718h-140v162q-50 -83 -143.5 -134.5
t-196.5 -51.5zM462 114q148 0 244 100t96 252v102l-338 -78q-102 -23 -163 -75.5t-61 -122.5q0 -81 60 -129.5t162 -48.5z" />
    <glyph glyph-name="Abreve" unicode="&#x102;" horiz-adv-x="1446" 
d="M722 1700q-114 0 -194 80t-80 192h110q0 -68 48.5 -118t115.5 -50q68 0 118 50t50 118h108q0 -112 -81 -192t-195 -80zM406 417l-148 -417h-168l548 1490h170l548 -1490h-168l-147 417h-635zM991 557l-267 755l-268 -755h535z" />
    <glyph glyph-name="abreve" unicode="&#x103;" horiz-adv-x="1032" 
d="M515 1280q-113 0 -193.5 80t-80.5 192h110q0 -68 48.5 -118t115.5 -50t117.5 50t50.5 118h108q0 -112 -81 -192t-195 -80zM462 -24q-166 0 -269 88.5t-103 229.5q0 114 88.5 194t249.5 116l374 86v28q0 104 -75.5 161t-198.5 57q-126 -2 -188.5 -45t-62.5 -132l-150 -2
q0 149 104 232t296 87q184 0 299.5 -96.5t115.5 -261.5v-718h-140v162q-50 -83 -143.5 -134.5t-196.5 -51.5zM462 114q148 0 244 100t96 252v102l-338 -78q-102 -23 -163 -75.5t-61 -122.5q0 -81 60 -129.5t162 -48.5z" />
    <glyph glyph-name="Aogonek" unicode="&#x104;" horiz-adv-x="1446" 
d="M1144 -302q46 0 89.5 18t72.5 48l50 -84q-94 -88 -224 -88q-92 0 -154 49.5t-62 134.5q0 83 65 150.5t187 105.5l10 -3l-137 388h-635l-148 -417h-168l548 1490h170l548 -1490h-145q-89 -41 -135 -94.5t-46 -105.5q0 -48 30.5 -75t83.5 -27zM724 1312l-268 -755h535z" />
    <glyph glyph-name="aogonek" unicode="&#x105;" horiz-adv-x="1032" 
d="M942 718v-718h-140v2q-91 -41 -138.5 -95t-47.5 -107q0 -48 30.5 -75t83.5 -27q46 0 89.5 18t72.5 48l50 -84q-94 -88 -224 -88q-92 0 -154 49.5t-62 134.5q0 83 65 150.5t187 105.5l48 -16v146q-50 -83 -143.5 -134.5t-196.5 -51.5q-166 0 -269 88.5t-103 229.5
q0 114 88.5 194t249.5 116l374 86v28q0 104 -75.5 161t-198.5 57q-126 -2 -188.5 -45t-62.5 -132l-150 -2q0 149 104 232t296 87q184 0 299.5 -96.5t115.5 -261.5zM462 114q148 0 244 100t96 252v102l-338 -78q-102 -23 -163 -75.5t-61 -122.5q0 -81 60 -129.5t162 -48.5z
" />
    <glyph glyph-name="Cacute" unicode="&#x106;" horiz-adv-x="1528" 
d="M918 2004l-182 -304h-126l156 304h152zM816 -24q-207 0 -373 98.5t-259.5 274t-93.5 395.5t93.5 395.5t259.5 274t373 98.5q201 0 365 -94t257 -264l-135 -73q-72 137 -199.5 214t-287.5 77q-248 0 -407 -175.5t-159 -452.5t159 -452.5t407 -175.5q158 0 284 75t200 208
l134 -75q-95 -163 -256.5 -255.5t-361.5 -92.5z" />
    <glyph glyph-name="cacute" unicode="&#x107;" horiz-adv-x="1152" 
d="M730 1584l-182 -304h-126l156 304h152zM614 -27q-228 0 -376 157t-148 397t148 397t376 157q145 0 262.5 -67.5t185.5 -186.5l-134 -72l-1 1q-47 86 -128.5 134t-184.5 48q-163 0 -266 -115t-103 -296t103 -296t266 -115q103 0 184 48t129 134l134 -72l1 1
q-69 -119 -185.5 -186.5t-262.5 -67.5z" />
    <glyph glyph-name="Ccircumflex" unicode="&#x108;" horiz-adv-x="1528" 
d="M763 1922l-164 -222h-136l226 304h148l228 -304h-136zM816 -24q-207 0 -373 98.5t-259.5 274t-93.5 395.5t93.5 395.5t259.5 274t373 98.5q201 0 365 -94t257 -264l-135 -73q-72 137 -199.5 214t-287.5 77q-248 0 -407 -175.5t-159 -452.5t159 -452.5t407 -175.5
q158 0 284 75t200 208l134 -75q-95 -163 -256.5 -255.5t-361.5 -92.5z" />
    <glyph glyph-name="ccircumflex" unicode="&#x109;" horiz-adv-x="1152" 
d="M575 1502l-164 -222h-136l226 304h148l228 -304h-136zM614 -27q-228 0 -376 157t-148 397t148 397t376 157q145 0 262.5 -67.5t185.5 -186.5l-134 -72l-1 1q-47 86 -128.5 134t-184.5 48q-163 0 -266 -115t-103 -296t103 -296t266 -115q103 0 184 48t129 134l134 -72l1 1
q-69 -119 -185.5 -186.5t-262.5 -67.5z" />
    <glyph glyph-name="Cdotaccent" unicode="&#x10a;" horiz-adv-x="1528" 
d="M765 1700q-49 0 -82.5 33t-33.5 83q0 48 33.5 81t82.5 33q48 0 81 -33t33 -81q0 -49 -33 -82.5t-81 -33.5zM816 -24q-207 0 -373 98.5t-259.5 274t-93.5 395.5t93.5 395.5t259.5 274t373 98.5q201 0 365 -94t257 -264l-135 -73q-72 137 -199.5 214t-287.5 77
q-248 0 -407 -175.5t-159 -452.5t159 -452.5t407 -175.5q158 0 284 75t200 208l134 -75q-95 -163 -256.5 -255.5t-361.5 -92.5z" />
    <glyph glyph-name="cdotaccent" unicode="&#x10b;" horiz-adv-x="1152" 
d="M577 1280q-49 0 -82.5 33t-33.5 83q0 48 33.5 81t82.5 33q48 0 81 -33t33 -81q0 -49 -33 -82.5t-81 -33.5zM614 -27q-228 0 -376 157t-148 397t148 397t376 157q145 0 262.5 -67.5t185.5 -186.5l-134 -72l-1 1q-47 86 -128.5 134t-184.5 48q-163 0 -266 -115t-103 -296
t103 -296t266 -115q103 0 184 48t129 134l134 -72l1 1q-69 -119 -185.5 -186.5t-262.5 -67.5z" />
    <glyph glyph-name="Ccaron" unicode="&#x10c;" horiz-adv-x="1528" 
d="M1065 2004l-228 -304h-148l-226 304h136l164 -222l166 222h136zM816 -24q-207 0 -373 98.5t-259.5 274t-93.5 395.5t93.5 395.5t259.5 274t373 98.5q201 0 365 -94t257 -264l-135 -73q-72 137 -199.5 214t-287.5 77q-248 0 -407 -175.5t-159 -452.5t159 -452.5
t407 -175.5q158 0 284 75t200 208l134 -75q-95 -163 -256.5 -255.5t-361.5 -92.5z" />
    <glyph glyph-name="ccaron" unicode="&#x10d;" horiz-adv-x="1152" 
d="M877 1584l-228 -304h-148l-226 304h136l164 -222l166 222h136zM614 -27q-228 0 -376 157t-148 397t148 397t376 157q145 0 262.5 -67.5t185.5 -186.5l-134 -72l-1 1q-47 86 -128.5 134t-184.5 48q-163 0 -266 -115t-103 -296t103 -296t266 -115q103 0 184 48t129 134
l134 -72l1 1q-69 -119 -185.5 -186.5t-262.5 -67.5z" />
    <glyph glyph-name="Dcaron" unicode="&#x10e;" horiz-adv-x="1357" 
d="M980 2004l-228 -304h-148l-226 304h136l164 -222l166 222h136zM562 -2h-472v1492h472q151 0 281.5 -56.5t223.5 -154.5t146.5 -236.5t53.5 -298.5t-53.5 -298.5t-146.5 -236.5t-223.5 -154.5t-281.5 -56.5zM245 1354v-1219l317 -1q241 1 395 171.5t154 438.5
q0 269 -154.5 439.5t-395.5 170.5h-316z" />
    <glyph glyph-name="dcaron" unicode="&#x10f;" horiz-adv-x="1212" 
d="M907 1584l-228 -304h-148l-226 304h136l164 -222l166 222h136zM614 -27q-228 0 -376 157t-148 397t148 397t376 157q221 0 368 -149v558h140v-1490h-140v122q-149 -149 -368 -149zM614 116q163 0 266 115t103 296t-103 296t-266 115t-266 -115t-103 -296t103 -296
t266 -115z" />
    <glyph glyph-name="Emacron" unicode="&#x112;" horiz-adv-x="1138" 
d="M786 1818v-118h-434v118h434zM1048 140v-140h-958v1490h958v-140h-798v-509h699v-140h-699v-561h798z" />
    <glyph glyph-name="emacron" unicode="&#x113;" 
d="M831 1398v-118h-434v118h434zM614 -27q-228 0 -376 157t-148 397t148 397t376 157t376 -157t148 -397q0 -7 -0.5 -22t-0.5 -23h-890q14 -163 114.5 -264.5t252.5 -101.5q119 0 209 65t132 177l136 -73q-61 -144 -187 -228t-290 -84zM252 612h724q-23 147 -121.5 236.5
t-240.5 89.5t-240.5 -89.5t-121.5 -236.5z" />
    <glyph glyph-name="Ebreve" unicode="&#x114;" horiz-adv-x="1138" 
d="M568 1700q-114 0 -194 80t-80 192h110q0 -68 48.5 -118t115.5 -50q68 0 118 50t50 118h108q0 -112 -81 -192t-195 -80zM1048 140v-140h-958v1490h958v-140h-798v-509h699v-140h-699v-561h798z" />
    <glyph glyph-name="ebreve" unicode="&#x115;" 
d="M613 1280q-113 0 -193.5 80t-80.5 192h110q0 -68 48.5 -118t115.5 -50t117.5 50t50.5 118h108q0 -112 -81 -192t-195 -80zM614 -27q-228 0 -376 157t-148 397t148 397t376 157t376 -157t148 -397q0 -7 -0.5 -22t-0.5 -23h-890q14 -163 114.5 -264.5t252.5 -101.5
q119 0 209 65t132 177l136 -73q-61 -144 -187 -228t-290 -84zM252 612h724q-23 147 -121.5 236.5t-240.5 89.5t-240.5 -89.5t-121.5 -236.5z" />
    <glyph glyph-name="Edotaccent" unicode="&#x116;" horiz-adv-x="1138" 
d="M570 1700q-50 0 -83 33t-33 83q0 48 33.5 81t82.5 33q48 0 81 -33t33 -81q0 -49 -33 -82.5t-81 -33.5zM1048 140v-140h-958v1490h958v-140h-798v-509h699v-140h-699v-561h798z" />
    <glyph glyph-name="edotaccent" unicode="&#x117;" 
d="M615 1280q-49 0 -82.5 33t-33.5 83q0 48 33.5 81t82.5 33q48 0 81 -33t33 -81q0 -49 -33 -82.5t-81 -33.5zM614 -27q-228 0 -376 157t-148 397t148 397t376 157t376 -157t148 -397q0 -7 -0.5 -22t-0.5 -23h-890q14 -163 114.5 -264.5t252.5 -101.5q119 0 209 65t132 177
l136 -73q-61 -144 -187 -228t-290 -84zM252 612h724q-23 147 -121.5 236.5t-240.5 89.5t-240.5 -89.5t-121.5 -236.5z" />
    <glyph glyph-name="Eogonek" unicode="&#x118;" horiz-adv-x="1138" 
d="M1048 1490v-140h-798v-509h699v-140h-699v-561h798v-140h-145q-89 -41 -135 -94.5t-46 -105.5q0 -48 30.5 -75t83.5 -27q46 0 89.5 18t72.5 48l50 -84q-94 -88 -224 -88q-92 0 -154 49.5t-62 134.5q0 68 43.5 125.5t127.5 98.5h-689v1490h958z" />
    <glyph glyph-name="eogonek" unicode="&#x119;" 
d="M614 -27q-228 0 -376 157t-148 397t148 397t376 157t376 -157t148 -397q0 -7 -0.5 -22t-0.5 -23h-890q14 -163 114.5 -264.5t252.5 -101.5q119 0 209 65t132 177l136 -73q-61 -144 -187 -228t-290 -84zM252 612h724q-23 147 -121.5 236.5t-240.5 89.5t-240.5 -89.5
t-121.5 -236.5zM914 -408q-92 0 -154 49.5t-62 134.5q0 83 65 150.5t187 105.5l66 -22q-100 -42 -152 -98t-52 -112q0 -48 30.5 -75t83.5 -27q46 0 89.5 18t72.5 48l50 -84q-94 -88 -224 -88z" />
    <glyph glyph-name="Ecaron" unicode="&#x11a;" horiz-adv-x="1138" 
d="M870 2004l-228 -304h-148l-226 304h136l164 -222l166 222h136zM1048 140v-140h-958v1490h958v-140h-798v-509h699v-140h-699v-561h798z" />
    <glyph glyph-name="ecaron" unicode="&#x11b;" 
d="M915 1584l-228 -304h-148l-226 304h136l164 -222l166 222h136zM614 -27q-228 0 -376 157t-148 397t148 397t376 157t376 -157t148 -397q0 -7 -0.5 -22t-0.5 -23h-890q14 -163 114.5 -264.5t252.5 -101.5q119 0 209 65t132 177l136 -73q-61 -144 -187 -228t-290 -84z
M252 612h724q-23 147 -121.5 236.5t-240.5 89.5t-240.5 -89.5t-121.5 -236.5z" />
    <glyph glyph-name="Gcircumflex" unicode="&#x11c;" horiz-adv-x="1528" 
d="M763 1922l-164 -222h-136l226 304h148l228 -304h-136zM816 -24q-207 0 -373 98.5t-259.5 274t-93.5 395.5t93.5 395.5t259.5 274t373 98.5q201 0 365 -94t257 -264l-135 -73q-72 137 -199.5 214t-287.5 77q-248 0 -407 -175.5t-159 -452.5q0 -274 159.5 -451t406.5 -177
q155 0 279.5 72.5t198.5 201.5l-1 240h-514v140h656v-770h-140v152q-196 -176 -479 -176z" />
    <glyph glyph-name="gcircumflex" unicode="&#x11d;" horiz-adv-x="1200" 
d="M599 1502l-164 -222h-136l226 304h148l228 -304h-136zM610 -440q-157 0 -278.5 73.5t-175.5 190.5l128 70q37 -82 119.5 -138t202.5 -56q153 0 258.5 92t105.5 248v182q-59 -80 -155 -124t-211 -44q-214 0 -364 149.5t-150 362.5q0 216 147.5 363t366.5 147
q119 0 215 -47.5t151 -130.5v154h140v-1012q0 -205 -141.5 -342.5t-358.5 -137.5zM604 194q163 0 264.5 105.5t101.5 266.5t-104 265.5t-264 104.5q-157 0 -259.5 -102t-102.5 -268q0 -165 101 -268.5t263 -103.5z" />
    <glyph glyph-name="Gbreve" unicode="&#x11e;" horiz-adv-x="1528" 
d="M763 1700q-113 0 -193.5 80t-80.5 192h110q0 -68 48.5 -118t115.5 -50t117.5 50t50.5 118h108q0 -112 -81 -192t-195 -80zM816 -24q-207 0 -373 98.5t-259.5 274t-93.5 395.5t93.5 395.5t259.5 274t373 98.5q201 0 365 -94t257 -264l-135 -73q-72 137 -199.5 214
t-287.5 77q-248 0 -407 -175.5t-159 -452.5q0 -274 159.5 -451t406.5 -177q155 0 279.5 72.5t198.5 201.5l-1 240h-514v140h656v-770h-140v152q-196 -176 -479 -176z" />
    <glyph glyph-name="gbreve" unicode="&#x11f;" horiz-adv-x="1200" 
d="M599 1280q-113 0 -193.5 80t-80.5 192h110q0 -68 48.5 -118t115.5 -50t117.5 50t50.5 118h108q0 -112 -81 -192t-195 -80zM610 -440q-157 0 -278.5 73.5t-175.5 190.5l128 70q37 -82 119.5 -138t202.5 -56q153 0 258.5 92t105.5 248v182q-59 -80 -155 -124t-211 -44
q-214 0 -364 149.5t-150 362.5q0 216 147.5 363t366.5 147q119 0 215 -47.5t151 -130.5v154h140v-1012q0 -205 -141.5 -342.5t-358.5 -137.5zM604 194q163 0 264.5 105.5t101.5 266.5t-104 265.5t-264 104.5q-157 0 -259.5 -102t-102.5 -268q0 -165 101 -268.5t263 -103.5z
" />
    <glyph glyph-name="Gdotaccent" unicode="&#x120;" horiz-adv-x="1528" 
d="M765 1700q-49 0 -82.5 33t-33.5 83q0 48 33.5 81t82.5 33q48 0 81 -33t33 -81q0 -49 -33 -82.5t-81 -33.5zM816 -24q-207 0 -373 98.5t-259.5 274t-93.5 395.5t93.5 395.5t259.5 274t373 98.5q201 0 365 -94t257 -264l-135 -73q-72 137 -199.5 214t-287.5 77
q-248 0 -407 -175.5t-159 -452.5q0 -274 159.5 -451t406.5 -177q155 0 279.5 72.5t198.5 201.5l-1 240h-514v140h656v-770h-140v152q-196 -176 -479 -176z" />
    <glyph glyph-name="gdotaccent" unicode="&#x121;" horiz-adv-x="1200" 
d="M601 1280q-49 0 -82.5 33t-33.5 83q0 48 33.5 81t82.5 33q48 0 81 -33t33 -81q0 -49 -33 -82.5t-81 -33.5zM610 -440q-157 0 -278.5 73.5t-175.5 190.5l128 70q37 -82 119.5 -138t202.5 -56q153 0 258.5 92t105.5 248v182q-59 -80 -155 -124t-211 -44q-214 0 -364 149.5
t-150 362.5q0 216 147.5 363t366.5 147q119 0 215 -47.5t151 -130.5v154h140v-1012q0 -205 -141.5 -342.5t-358.5 -137.5zM604 194q163 0 264.5 105.5t101.5 266.5t-104 265.5t-264 104.5q-157 0 -259.5 -102t-102.5 -268q0 -165 101 -268.5t263 -103.5z" />
    <glyph glyph-name="Itilde" unicode="&#x128;" horiz-adv-x="340" 
d="M297 1700q-39 0 -75.5 14t-60 31t-53.5 31t-57 14q-29 0 -51.5 -19t-26.5 -61h-116q4 87 57.5 139.5t130.5 52.5q39 0 75.5 -14t60 -31t53.5 -31t57 -14q28 0 51 19.5t27 62.5h114q-4 -93 -58 -143.5t-128 -50.5zM250 1490v-1490h-160v1490h160z" />
    <glyph glyph-name="itilde" unicode="&#x129;" horiz-adv-x="320" 
d="M287 1280q-39 0 -75.5 14t-60 31t-53.5 31t-57 14q-29 0 -51.5 -19t-26.5 -61h-116q4 87 57.5 139.5t130.5 52.5q39 0 75.5 -14t60 -31t53.5 -31t57 -14q28 0 51 19.5t27 62.5h114q-4 -93 -58 -143.5t-128 -50.5zM230 1052v-1052h-140v1052h140z" />
    <glyph glyph-name="Imacron" unicode="&#x12a;" horiz-adv-x="340" 
d="M387 1818v-118h-434v118h434zM250 1490v-1490h-160v1490h160z" />
    <glyph glyph-name="imacron" unicode="&#x12b;" horiz-adv-x="320" 
d="M377 1398v-118h-434v118h434zM230 1052v-1052h-140v1052h140z" />
    <glyph glyph-name="Iogonek" unicode="&#x12e;" horiz-adv-x="340" 
d="M250 0h-145q-89 -41 -135 -94.5t-46 -105.5q0 -48 30.5 -75t83.5 -27q46 0 89.5 18t72.5 48l50 -84q-94 -88 -224 -88q-92 0 -154 49.5t-62 134.5q0 83 65 150.5t187 105.5l28 -9v1467h160v-1490z" />
    <glyph glyph-name="iogonek" unicode="&#x12f;" horiz-adv-x="320" 
d="M90 1490h140v-218h-140v218zM330 -236l50 -84q-94 -88 -224 -88q-92 0 -154 49.5t-62 134.5q0 68 43.5 125.5t127.5 98.5h-21v1052h140v-1033l28 -9q-100 -42 -152 -98t-52 -112q0 -48 30.5 -75t83.5 -27q46 0 89.5 18t72.5 48z" />
    <glyph glyph-name="Idotaccent" unicode="&#x130;" horiz-adv-x="340" 
d="M171 1700q-49 0 -82.5 33t-33.5 83q0 48 33.5 81t82.5 33q48 0 81 -33t33 -81q0 -49 -33 -82.5t-81 -33.5zM250 1490v-1490h-160v1490h160z" />
    <glyph glyph-name="dotlessi" unicode="&#x131;" horiz-adv-x="320" 
d="M230 1052v-1052h-140v1052h140z" />
    <glyph glyph-name="Omacron" unicode="&#x14c;" horiz-adv-x="1632" 
d="M1033 1818v-118h-434v118h434zM816 -24q-207 0 -373 98.5t-259.5 274t-93.5 395.5t93.5 395.5t259.5 274t373 98.5t373 -98.5t259.5 -274t93.5 -395.5t-93.5 -395.5t-259.5 -274t-373 -98.5zM816 116q248 0 407 175.5t159 452.5t-159 452.5t-407 175.5t-407 -175.5
t-159 -452.5t159 -452.5t407 -175.5z" />
    <glyph glyph-name="omacron" unicode="&#x14d;" 
d="M831 1398v-118h-434v118h434zM614 -27q-228 0 -376 157t-148 397t148 397t376 157t376 -157t148 -397t-148 -397t-376 -157zM614 116q163 0 266 115t103 296t-103 296t-266 115t-266 -115t-103 -296t103 -296t266 -115z" />
    <glyph glyph-name="Obreve" unicode="&#x14e;" horiz-adv-x="1632" 
d="M815 1700q-113 0 -193.5 80t-80.5 192h110q0 -68 48.5 -118t115.5 -50t117.5 50t50.5 118h108q0 -112 -81 -192t-195 -80zM816 -24q-207 0 -373 98.5t-259.5 274t-93.5 395.5t93.5 395.5t259.5 274t373 98.5t373 -98.5t259.5 -274t93.5 -395.5t-93.5 -395.5t-259.5 -274
t-373 -98.5zM816 116q248 0 407 175.5t159 452.5t-159 452.5t-407 175.5t-407 -175.5t-159 -452.5t159 -452.5t407 -175.5z" />
    <glyph glyph-name="obreve" unicode="&#x14f;" 
d="M613 1280q-113 0 -193.5 80t-80.5 192h110q0 -68 48.5 -118t115.5 -50t117.5 50t50.5 118h108q0 -112 -81 -192t-195 -80zM614 -27q-228 0 -376 157t-148 397t148 397t376 157t376 -157t148 -397t-148 -397t-376 -157zM614 116q163 0 266 115t103 296t-103 296t-266 115
t-266 -115t-103 -296t103 -296t266 -115z" />
    <glyph glyph-name="Ohungarumlaut" unicode="&#x150;" horiz-adv-x="1632" 
d="M825 2006l-182 -306h-126l156 306h152zM1115 2006l-184 -306h-126l158 306h152zM816 -24q-207 0 -373 98.5t-259.5 274t-93.5 395.5t93.5 395.5t259.5 274t373 98.5t373 -98.5t259.5 -274t93.5 -395.5t-93.5 -395.5t-259.5 -274t-373 -98.5zM816 116q248 0 407 175.5
t159 452.5t-159 452.5t-407 175.5t-407 -175.5t-159 -452.5t159 -452.5t407 -175.5z" />
    <glyph glyph-name="ohungarumlaut" unicode="&#x151;" 
d="M623 1586l-182 -306h-126l156 306h152zM913 1586l-184 -306h-126l158 306h152zM614 -27q-228 0 -376 157t-148 397t148 397t376 157t376 -157t148 -397t-148 -397t-376 -157zM614 116q163 0 266 115t103 296t-103 296t-266 115t-266 -115t-103 -296t103 -296t266 -115z
" />
    <glyph glyph-name="OE" unicode="&#x152;" horiz-adv-x="2436" 
d="M816 -24q-207 0 -373 98.5t-259.5 274t-93.5 395.5t93.5 395.5t259.5 274t373 98.5q174 0 320.5 -71t245.5 -199v248h958v-140h-798v-509h699v-140h-699v-561h798v-140h-958v246q-99 -128 -245.5 -199t-320.5 -71zM816 116q248 0 407 175.5t159 452.5t-159 452.5
t-407 175.5t-407 -175.5t-159 -452.5t159 -452.5t407 -175.5z" />
    <glyph glyph-name="oe" unicode="&#x153;" horiz-adv-x="2145" 
d="M614 -27q-228 0 -376 157t-148 397t148 397t376 157q145 0 261.5 -67t184.5 -184q69 117 185.5 184t261.5 67q228 0 376 -157t148 -397q0 -7 -0.5 -22t-0.5 -23h-890q14 -163 114.5 -264.5t252.5 -101.5q119 0 209 65t132 177l136 -73q-61 -144 -187 -228t-290 -84
q-145 0 -261.5 67t-185.5 184q-68 -117 -184.5 -184t-261.5 -67zM614 116q89 0 160.5 35.5t116 93t68.5 131.5t24 151t-23.5 151t-68 131.5t-116.5 93t-161 35.5q-163 0 -266 -115t-103 -296t103 -296t266 -115zM1145 612h724q-23 147 -121.5 236.5t-240.5 89.5
t-240.5 -89.5t-121.5 -236.5z" />
    <glyph glyph-name="Rcaron" unicode="&#x158;" horiz-adv-x="1242" 
d="M922 2004l-228 -304h-148l-226 304h136l164 -222l166 222h136zM250 580v-580h-160v1490h512q228 0 368 -126t140 -330q0 -154 -81.5 -265.5t-226.5 -158.5l350 -610h-188l-330 580h-384zM602 1350h-352v-630h352q153 0 246.5 87t93.5 229q0 141 -93.5 227.5t-246.5 86.5z
" />
    <glyph glyph-name="rcaron" unicode="&#x159;" horiz-adv-x="679" 
d="M641 1584l-228 -304h-148l-226 304h136l164 -222l166 222h136zM230 642v-642h-140v1053h140v-84q40 47 116 76.5t162 29.5q42 0 81 -6v-142q-36 9 -79 9q-127 0 -203.5 -80t-76.5 -214z" />
    <glyph glyph-name="Sacute" unicode="&#x15a;" horiz-adv-x="1250" 
d="M779 2004l-182 -304h-126l156 304h152zM670 -24q-212 0 -368.5 114t-211.5 286l144 62q52 -157 165 -239.5t271 -82.5q147 0 238.5 70t91.5 182q0 102 -57.5 164t-182.5 98l-272 80q-172 50 -263 156t-91 244q0 177 133.5 290.5t340.5 113.5q196 0 341 -101.5t197 -254.5
l-144 -66q-48 137 -149 209.5t-243 72.5q-143 0 -229.5 -69t-86.5 -183q0 -94 63 -164t181 -104l258 -76q183 -54 273.5 -151.5t90.5 -244.5q0 -180 -136.5 -293t-353.5 -113z" />
    <glyph glyph-name="sacute" unicode="&#x15b;" horiz-adv-x="984" 
d="M646 1584l-182 -304h-126l156 304h152zM522 -24q-150 0 -265.5 76t-166.5 208l126 64q40 -101 121.5 -154.5t184.5 -53.5q98 0 160 47t62 119q0 56 -42.5 94t-129.5 62l-168 48q-264 76 -264 290q0 135 96.5 217.5t255.5 82.5q141 0 248 -70.5t152 -193.5l-126 -60
q-35 89 -106.5 137.5t-167.5 48.5q-91 0 -146.5 -42t-55.5 -110q0 -112 160 -160l176 -54q131 -41 199.5 -115.5t68.5 -178.5q0 -134 -103.5 -218t-268.5 -84z" />
    <glyph glyph-name="Scircumflex" unicode="&#x15c;" horiz-adv-x="1250" 
d="M624 1922l-164 -222h-136l226 304h148l228 -304h-136zM670 -24q-212 0 -368.5 114t-211.5 286l144 62q52 -157 165 -239.5t271 -82.5q147 0 238.5 70t91.5 182q0 102 -57.5 164t-182.5 98l-272 80q-172 50 -263 156t-91 244q0 177 133.5 290.5t340.5 113.5
q196 0 341 -101.5t197 -254.5l-144 -66q-48 137 -149 209.5t-243 72.5q-143 0 -229.5 -69t-86.5 -183q0 -94 63 -164t181 -104l258 -76q183 -54 273.5 -151.5t90.5 -244.5q0 -180 -136.5 -293t-353.5 -113z" />
    <glyph glyph-name="scircumflex" unicode="&#x15d;" horiz-adv-x="984" 
d="M491 1502l-164 -222h-136l226 304h148l228 -304h-136zM522 -24q-150 0 -265.5 76t-166.5 208l126 64q40 -101 121.5 -154.5t184.5 -53.5q98 0 160 47t62 119q0 56 -42.5 94t-129.5 62l-168 48q-264 76 -264 290q0 135 96.5 217.5t255.5 82.5q141 0 248 -70.5t152 -193.5
l-126 -60q-35 89 -106.5 137.5t-167.5 48.5q-91 0 -146.5 -42t-55.5 -110q0 -112 160 -160l176 -54q131 -41 199.5 -115.5t68.5 -178.5q0 -134 -103.5 -218t-268.5 -84z" />
    <glyph glyph-name="Scedilla" unicode="&#x15e;" horiz-adv-x="1250" 
d="M1160 382q0 -170 -122.5 -281t-321.5 -124q129 -82 129 -205q0 -85 -62.5 -134.5t-153.5 -49.5q-131 0 -224 90l50 82q28 -29 71.5 -47.5t90.5 -18.5q52 0 83 27.5t31 74.5q0 106 -152 186q-180 24 -310.5 133t-178.5 261l144 62q52 -157 165 -239.5t271 -82.5
q147 0 238.5 70t91.5 182q0 102 -57.5 164t-182.5 98l-272 80q-172 50 -263 156t-91 244q0 177 133.5 290.5t340.5 113.5q196 0 341 -101.5t197 -254.5l-144 -66q-48 137 -149 209.5t-243 72.5q-143 0 -229.5 -69t-86.5 -183q0 -94 63 -164t181 -104l258 -76
q183 -54 273.5 -151.5t90.5 -244.5z" />
    <glyph glyph-name="scedilla" unicode="&#x15f;" horiz-adv-x="984" 
d="M894 278q0 -121 -86 -202.5t-228 -96.5q132 -82 132 -207q0 -85 -62.5 -134.5t-153.5 -49.5q-131 0 -224 90l50 82q28 -29 71.5 -47.5t90.5 -18.5q52 0 83 27.5t31 74.5q0 50 -38.5 98t-112.5 87q-125 18 -219 91t-138 188l126 64q40 -101 121.5 -154.5t184.5 -53.5
q98 0 160 47t62 119q0 56 -42.5 94t-129.5 62l-168 48q-264 76 -264 290q0 135 96.5 217.5t255.5 82.5q141 0 248 -70.5t152 -193.5l-126 -60q-35 89 -106.5 137.5t-167.5 48.5q-91 0 -146.5 -42t-55.5 -110q0 -112 160 -160l176 -54q131 -41 199.5 -115.5t68.5 -178.5z" />
    <glyph glyph-name="Scaron" unicode="&#x160;" horiz-adv-x="1250" 
d="M926 2004l-228 -304h-148l-226 304h136l164 -222l166 222h136zM670 -24q-212 0 -368.5 114t-211.5 286l144 62q52 -157 165 -239.5t271 -82.5q147 0 238.5 70t91.5 182q0 102 -57.5 164t-182.5 98l-272 80q-172 50 -263 156t-91 244q0 177 133.5 290.5t340.5 113.5
q196 0 341 -101.5t197 -254.5l-144 -66q-48 137 -149 209.5t-243 72.5q-143 0 -229.5 -69t-86.5 -183q0 -94 63 -164t181 -104l258 -76q183 -54 273.5 -151.5t90.5 -244.5q0 -180 -136.5 -293t-353.5 -113z" />
    <glyph glyph-name="scaron" unicode="&#x161;" horiz-adv-x="984" 
d="M793 1584l-228 -304h-148l-226 304h136l164 -222l166 222h136zM522 -24q-150 0 -265.5 76t-166.5 208l126 64q40 -101 121.5 -154.5t184.5 -53.5q98 0 160 47t62 119q0 56 -42.5 94t-129.5 62l-168 48q-264 76 -264 290q0 135 96.5 217.5t255.5 82.5q141 0 248 -70.5
t152 -193.5l-126 -60q-35 89 -106.5 137.5t-167.5 48.5q-91 0 -146.5 -42t-55.5 -110q0 -112 160 -160l176 -54q131 -41 199.5 -115.5t68.5 -178.5q0 -134 -103.5 -218t-268.5 -84z" />
    <glyph glyph-name="Utilde" unicode="&#x168;" horiz-adv-x="1240" 
d="M747 1700q-39 0 -75.5 14t-60 31t-53.5 31t-57 14q-29 0 -51.5 -19t-26.5 -61h-116q4 87 57.5 139.5t130.5 52.5q39 0 75.5 -14t60 -31t53.5 -31t57 -14q28 0 51 19.5t27 62.5h114q-4 -93 -58 -143.5t-128 -50.5zM620 -24q-242 0 -386 133.5t-144 356.5v1024h162v-1024
q0 -151 105 -250.5t263 -99.5q156 0 262 100t106 250v1024h162v-1024q0 -222 -144.5 -356t-385.5 -134z" />
    <glyph glyph-name="utilde" unicode="&#x169;" horiz-adv-x="1018" 
d="M636 1280q-39 0 -75.5 14t-60 31t-53.5 31t-57 14q-29 0 -51.5 -19t-26.5 -61h-116q4 87 57.5 139.5t130.5 52.5q39 0 75.5 -14t60 -31t53.5 -31t57 -14q28 0 51 19.5t27 62.5h114q-4 -93 -58 -143.5t-128 -50.5zM510 -22q-187 0 -303.5 108t-116.5 273v694h140v-642
q0 -134 75.5 -214t202.5 -80t203.5 80t76.5 214v642h140v-1053h-140v84q-40 -47 -116 -76.5t-162 -29.5z" />
    <glyph glyph-name="Umacron" unicode="&#x16a;" horiz-adv-x="1240" 
d="M837 1818v-118h-434v118h434zM620 -24q-242 0 -386 133.5t-144 356.5v1024h162v-1024q0 -151 105 -250.5t263 -99.5q156 0 262 100t106 250v1024h162v-1024q0 -222 -144.5 -356t-385.5 -134z" />
    <glyph glyph-name="umacron" unicode="&#x16b;" horiz-adv-x="1018" 
d="M726 1398v-118h-434v118h434zM510 -22q-187 0 -303.5 108t-116.5 273v694h140v-642q0 -134 75.5 -214t202.5 -80t203.5 80t76.5 214v642h140v-1053h-140v84q-40 -47 -116 -76.5t-162 -29.5z" />
    <glyph glyph-name="Ubreve" unicode="&#x16c;" horiz-adv-x="1240" 
d="M619 1700q-113 0 -193.5 80t-80.5 192h110q0 -68 48.5 -118t115.5 -50t117.5 50t50.5 118h108q0 -112 -81 -192t-195 -80zM620 -24q-242 0 -386 133.5t-144 356.5v1024h162v-1024q0 -151 105 -250.5t263 -99.5q156 0 262 100t106 250v1024h162v-1024q0 -222 -144.5 -356
t-385.5 -134z" />
    <glyph glyph-name="ubreve" unicode="&#x16d;" horiz-adv-x="1018" 
d="M508 1280q-114 0 -194 80t-80 192h110q0 -68 48.5 -118t115.5 -50q68 0 118 50t50 118h108q0 -112 -81 -192t-195 -80zM510 -22q-187 0 -303.5 108t-116.5 273v694h140v-642q0 -134 75.5 -214t202.5 -80t203.5 80t76.5 214v642h140v-1053h-140v84q-40 -47 -116 -76.5
t-162 -29.5z" />
    <glyph glyph-name="Uring" unicode="&#x16e;" horiz-adv-x="1240" 
d="M620 1700q-81 0 -138.5 55.5t-57.5 136.5q0 80 56 135t140 55q82 0 139 -55t57 -135t-57 -136t-139 -56zM620 1796q41 0 69.5 28t28.5 68q0 39 -28.5 66.5t-69.5 27.5q-42 0 -70 -27.5t-28 -66.5q0 -40 28.5 -68t69.5 -28zM620 -24q-242 0 -386 133.5t-144 356.5v1024
h162v-1024q0 -151 105 -250.5t263 -99.5q156 0 262 100t106 250v1024h162v-1024q0 -222 -144.5 -356t-385.5 -134z" />
    <glyph glyph-name="uring" unicode="&#x16f;" horiz-adv-x="1018" 
d="M509 1280q-81 0 -138.5 55.5t-57.5 136.5q0 80 56 135t140 55q82 0 139 -55t57 -135t-57 -136t-139 -56zM509 1376q41 0 69.5 28t28.5 68q0 39 -28.5 66.5t-69.5 27.5q-42 0 -70 -27.5t-28 -66.5q0 -40 28.5 -68t69.5 -28zM510 -22q-187 0 -303.5 108t-116.5 273v694h140
v-642q0 -134 75.5 -214t202.5 -80t203.5 80t76.5 214v642h140v-1053h-140v84q-40 -47 -116 -76.5t-162 -29.5z" />
    <glyph glyph-name="Uhungarumlaut" unicode="&#x170;" horiz-adv-x="1240" 
d="M629 2006l-182 -306h-126l156 306h152zM919 2006l-184 -306h-126l158 306h152zM620 -24q-242 0 -386 133.5t-144 356.5v1024h162v-1024q0 -151 105 -250.5t263 -99.5q156 0 262 100t106 250v1024h162v-1024q0 -222 -144.5 -356t-385.5 -134z" />
    <glyph glyph-name="uhungarumlaut" unicode="&#x171;" horiz-adv-x="1018" 
d="M518 1586l-182 -306h-126l156 306h152zM808 1586l-184 -306h-126l158 306h152zM510 -22q-187 0 -303.5 108t-116.5 273v694h140v-642q0 -134 75.5 -214t202.5 -80t203.5 80t76.5 214v642h140v-1053h-140v84q-40 -47 -116 -76.5t-162 -29.5z" />
    <glyph glyph-name="Uogonek" unicode="&#x172;" horiz-adv-x="1240" 
d="M620 -24q-242 0 -386 133.5t-144 356.5v1024h162v-1024q0 -151 105 -250.5t263 -99.5q156 0 262 100t106 250v1024h162v-1024q0 -222 -144.5 -356t-385.5 -134zM926 -408q-92 0 -154 49.5t-62 134.5q0 83 65 150.5t187 105.5l66 -22q-100 -42 -152 -98t-52 -112
q0 -48 30.5 -75t83.5 -27q46 0 89.5 18t72.5 48l50 -84q-94 -88 -224 -88z" />
    <glyph glyph-name="uogonek" unicode="&#x173;" horiz-adv-x="1018" 
d="M928 1053v-1053h-140v2q-91 -41 -138.5 -95t-47.5 -107q0 -48 30.5 -75t83.5 -27q46 0 89.5 18t72.5 48l50 -84q-94 -88 -224 -88q-92 0 -154 49.5t-62 134.5q0 83 65 150.5t187 105.5l48 -16v68q-40 -47 -116 -76.5t-162 -29.5q-187 0 -303.5 108t-116.5 273v694h140
v-642q0 -134 75.5 -214t202.5 -80t203.5 80t76.5 214v642h140z" />
    <glyph glyph-name="Wcircumflex" unicode="&#x174;" horiz-adv-x="2104" 
d="M1051 1922l-164 -222h-136l226 304h148l228 -304h-136zM1052 1290l-364 -1290h-170l-428 1490h162l354 -1276l350 1276h192l350 -1272l354 1272h162l-428 -1490h-170z" />
    <glyph glyph-name="wcircumflex" unicode="&#x175;" horiz-adv-x="1710" 
d="M854 1502l-164 -222h-136l226 304h148l228 -304h-136zM856 850l-262 -850h-136l-368 1052h164l272 -844l254 844h150l254 -840l272 840h164l-370 -1052h-134z" />
    <glyph glyph-name="Ycircumflex" unicode="&#x176;" horiz-adv-x="1382" 
d="M690 1922l-164 -222h-136l226 304h148l228 -304h-136zM772 692v-692h-160v692l-522 798h176l426 -650l424 650h176z" />
    <glyph glyph-name="ycircumflex" unicode="&#x177;" horiz-adv-x="1198" 
d="M598 1502l-164 -222h-136l226 304h148l228 -304h-136zM1108 1052l-614 -1492h-158l178 450l-424 1042h166l344 -848l342 848h166z" />
    <glyph glyph-name="Ydieresis" unicode="&#x178;" horiz-adv-x="1382" 
d="M523 1700q-49 0 -82.5 33t-33.5 83q0 48 33.5 81t82.5 33q48 0 81 -33t33 -81q0 -49 -33 -82.5t-81 -33.5zM861 1700q-49 0 -82.5 33t-33.5 83q0 47 33.5 80.5t82.5 33.5q46 0 80 -33.5t34 -80.5q0 -48 -33.5 -82t-80.5 -34zM772 692v-692h-160v692l-522 798h176
l426 -650l424 650h176z" />
    <glyph glyph-name="Zacute" unicode="&#x179;" horiz-adv-x="1256" 
d="M782 2004l-182 -304h-126l156 304h152zM1166 140v-140h-1076v98l854 1252h-804v140h1008v-98l-854 -1252h872z" />
    <glyph glyph-name="zacute" unicode="&#x17a;" horiz-adv-x="978" 
d="M643 1584l-182 -304h-126l156 304h152zM888 140v-140h-798v120l608 792h-576v140h764v-120l-608 -792h610z" />
    <glyph glyph-name="Zdotaccent" unicode="&#x17b;" horiz-adv-x="1256" 
d="M629 1700q-49 0 -82.5 33t-33.5 83q0 48 33.5 81t82.5 33q48 0 81 -33t33 -81q0 -49 -33 -82.5t-81 -33.5zM1166 140v-140h-1076v98l854 1252h-804v140h1008v-98l-854 -1252h872z" />
    <glyph glyph-name="zdotaccent" unicode="&#x17c;" horiz-adv-x="978" 
d="M490 1280q-50 0 -83 33t-33 83q0 48 33.5 81t82.5 33q48 0 81 -33t33 -81q0 -49 -33 -82.5t-81 -33.5zM888 140v-140h-798v120l608 792h-576v140h764v-120l-608 -792h610z" />
    <glyph glyph-name="Zcaron" unicode="&#x17d;" horiz-adv-x="1256" 
d="M929 2004l-228 -304h-148l-226 304h136l164 -222l166 222h136zM1166 140v-140h-1076v98l854 1252h-804v140h1008v-98l-854 -1252h872z" />
    <glyph glyph-name="zcaron" unicode="&#x17e;" horiz-adv-x="978" 
d="M790 1584l-228 -304h-148l-226 304h136l164 -222l166 222h136zM888 140v-140h-798v120l608 792h-576v140h764v-120l-608 -792h610z" />
    <glyph glyph-name="circumflex" unicode="&#x2c6;" horiz-adv-x="682" 
d="M340 1572l-164 -222h-136l226 304h148l228 -304h-136z" />
    <glyph glyph-name="caron" unicode="&#x2c7;" horiz-adv-x="682" 
d="M642 1654l-228 -304h-148l-226 304h136l164 -222l166 222h136z" />
    <glyph glyph-name="breve" unicode="&#x2d8;" horiz-adv-x="630" 
d="M314 1350q-114 0 -194 80t-80 192h110q0 -68 48.5 -118t115.5 -50q68 0 118 50t50 118h108q0 -112 -81 -192t-195 -80z" />
    <glyph glyph-name="dotaccent" unicode="&#x2d9;" horiz-adv-x="310" 
d="M156 1350q-50 0 -83 33t-33 83q0 48 33.5 81t82.5 33q48 0 81 -33t33 -81q0 -49 -33 -82.5t-81 -33.5z" />
    <glyph glyph-name="ring" unicode="&#x2da;" horiz-adv-x="472" 
d="M236 1350q-81 0 -138.5 55.5t-57.5 136.5q0 80 56 135t140 55q82 0 139 -55t57 -135t-57 -136t-139 -56zM236 1446q41 0 69.5 28t28.5 68q0 39 -28.5 66.5t-69.5 27.5q-42 0 -70 -27.5t-28 -66.5q0 -40 28.5 -68t69.5 -28z" />
    <glyph glyph-name="ogonek" unicode="&#x2db;" horiz-adv-x="520" 
d="M256 -408q-92 0 -154 49.5t-62 134.5q0 83 65 150.5t187 105.5l66 -22q-100 -42 -152 -98t-52 -112q0 -48 30.5 -75t83.5 -27q46 0 89.5 18t72.5 48l50 -84q-94 -88 -224 -88z" />
    <glyph glyph-name="tilde" unicode="&#x2dc;" horiz-adv-x="706" 
d="M480 1350q-39 0 -75.5 14t-60 31t-53.5 31t-57 14q-29 0 -51.5 -19t-26.5 -61h-116q4 87 57.5 139.5t130.5 52.5q39 0 75.5 -14t60 -31t53.5 -31t57 -14q28 0 51 19.5t27 62.5h114q-4 -93 -58 -143.5t-128 -50.5z" />
    <glyph glyph-name="hungarumlaut" unicode="&#x2dd;" horiz-adv-x="678" 
d="M348 1656l-182 -306h-126l156 306h152zM638 1656l-184 -306h-126l158 306h152z" />
    <glyph glyph-name="gravecomb" unicode="&#x300;" horiz-adv-x="0" 
d="M-196 1584l156 -304h-126l-182 304h152z" />
    <glyph glyph-name="acutecomb" unicode="&#x301;" horiz-adv-x="0" 
d="M-40 1584l-182 -304h-126l156 304h152z" />
    <glyph glyph-name="uni0302" unicode="&#x302;" horiz-adv-x="0" 
d="M-342 1502l-164 -222h-136l226 304h148l228 -304h-136z" />
    <glyph glyph-name="tildecomb" unicode="&#x303;" horiz-adv-x="0" 
d="M-226 1280q-39 0 -75.5 14t-60 31t-53.5 31t-57 14q-29 0 -51.5 -19t-26.5 -61h-116q4 87 57.5 139.5t130.5 52.5q39 0 75.5 -14t60 -31t53.5 -31t57 -14q28 0 51 19.5t27 62.5h114q-4 -93 -58 -143.5t-128 -50.5z" />
    <glyph glyph-name="uni0304" unicode="&#x304;" horiz-adv-x="0" 
d="M-40 1398v-118h-434v118h434z" />
    <glyph glyph-name="uni0306" unicode="&#x306;" horiz-adv-x="0" 
d="M-316 1280q-114 0 -194 80t-80 192h110q0 -68 48.5 -118t115.5 -50q68 0 118 50t50 118h108q0 -112 -81 -192t-195 -80z" />
    <glyph glyph-name="uni0307" unicode="&#x307;" horiz-adv-x="0" 
d="M-154 1280q-50 0 -83 33t-33 83q0 48 33.5 81t82.5 33q48 0 81 -33t33 -81q0 -49 -33 -82.5t-81 -33.5z" />
    <glyph glyph-name="uni0308" unicode="&#x308;" horiz-adv-x="0" 
d="M-492 1280q-50 0 -83 33t-33 83q0 48 33.5 81t82.5 33q48 0 81 -33t33 -81q0 -49 -33 -82.5t-81 -33.5zM-154 1280q-50 0 -83 33t-33 83q0 47 33.5 80.5t82.5 33.5q46 0 80 -33.5t34 -80.5q0 -48 -33.5 -82t-80.5 -34z" />
    <glyph glyph-name="uni030A" unicode="&#x30a;" horiz-adv-x="0" 
d="M-236 1280q-81 0 -138.5 55.5t-57.5 136.5q0 80 56 135t140 55q82 0 139 -55t57 -135t-57 -136t-139 -56zM-236 1376q41 0 69.5 28t28.5 68q0 39 -28.5 66.5t-69.5 27.5q-42 0 -70 -27.5t-28 -66.5q0 -40 28.5 -68t69.5 -28z" />
    <glyph glyph-name="uni030B" unicode="&#x30b;" horiz-adv-x="0" 
d="M-330 1586l-182 -306h-126l156 306h152zM-40 1586l-184 -306h-126l158 306h152z" />
    <glyph glyph-name="uni030C" unicode="&#x30c;" horiz-adv-x="0" 
d="M-40 1584l-228 -304h-148l-226 304h136l164 -222l166 222h136z" />
    <glyph glyph-name="uni0326" unicode="&#x326;" horiz-adv-x="0" 
d="M-40 -100l-206 -380h-104l126 380h184z" />
    <glyph glyph-name="uni0327" unicode="&#x327;" horiz-adv-x="0" 
d="M-256 -412q-131 0 -224 90l50 82q28 -29 71.5 -47.5t90.5 -18.5q52 0 83 27.5t31 74.5q0 58 -52 113.5t-152 96.5l76 24q115 -39 178.5 -106.5t63.5 -151.5q0 -85 -62.5 -134.5t-153.5 -49.5z" />
    <glyph glyph-name="uni0328" unicode="&#x328;" horiz-adv-x="0" 
d="M-264 -408q-92 0 -154 49.5t-62 134.5q0 83 65 150.5t187 105.5l66 -22q-100 -42 -152 -98t-52 -112q0 -48 30.5 -75t83.5 -27q46 0 89.5 18t72.5 48l50 -84q-94 -88 -224 -88z" />
    <glyph glyph-name="uni0335" unicode="&#x335;" horiz-adv-x="0" 
d="M-40 724v-140h-794v140h794z" />
    <glyph glyph-name="uni0336" unicode="&#x336;" horiz-adv-x="0" 
d="M-40 718v-130h-1324v130h1324z" />
    <glyph glyph-name="Wgrave" unicode="&#x1e80;" horiz-adv-x="2104" 
d="M1050 2004l156 -304h-126l-182 304h152zM1052 1290l-364 -1290h-170l-428 1490h162l354 -1276l350 1276h192l350 -1272l354 1272h162l-428 -1490h-170z" />
    <glyph glyph-name="wgrave" unicode="&#x1e81;" horiz-adv-x="1710" 
d="M853 1584l156 -304h-126l-182 304h152zM856 850l-262 -850h-136l-368 1052h164l272 -844l254 844h150l254 -840l272 840h164l-370 -1052h-134z" />
    <glyph glyph-name="Wacute" unicode="&#x1e82;" horiz-adv-x="2104" 
d="M1206 2004l-182 -304h-126l156 304h152zM1052 1290l-364 -1290h-170l-428 1490h162l354 -1276l350 1276h192l350 -1272l354 1272h162l-428 -1490h-170z" />
    <glyph glyph-name="wacute" unicode="&#x1e83;" horiz-adv-x="1710" 
d="M1009 1584l-182 -304h-126l156 304h152zM856 850l-262 -850h-136l-368 1052h164l272 -844l254 844h150l254 -840l272 840h164l-370 -1052h-134z" />
    <glyph glyph-name="Wdieresis" unicode="&#x1e84;" horiz-adv-x="2104" 
d="M884 1700q-50 0 -83 33t-33 83q0 48 33.5 81t82.5 33q48 0 81 -33t33 -81q0 -49 -33 -82.5t-81 -33.5zM1222 1700q-50 0 -83 33t-33 83q0 47 33.5 80.5t82.5 33.5q46 0 80 -33.5t34 -80.5q0 -48 -33.5 -82t-80.5 -34zM1052 1290l-364 -1290h-170l-428 1490h162l354 -1276
l350 1276h192l350 -1272l354 1272h162l-428 -1490h-170z" />
    <glyph glyph-name="wdieresis" unicode="&#x1e85;" horiz-adv-x="1710" 
d="M687 1280q-49 0 -82.5 33t-33.5 83q0 48 33.5 81t82.5 33q48 0 81 -33t33 -81q0 -49 -33 -82.5t-81 -33.5zM1025 1280q-49 0 -82.5 33t-33.5 83q0 47 33.5 80.5t82.5 33.5q46 0 80 -33.5t34 -80.5q0 -48 -33.5 -82t-80.5 -34zM856 850l-262 -850h-136l-368 1052h164
l272 -844l254 844h150l254 -840l272 840h164l-370 -1052h-134z" />
    <glyph glyph-name="endash" unicode="&#x2013;" horiz-adv-x="1220" 
d="M1030 608v-140h-840v140h840z" />
    <glyph glyph-name="emdash" unicode="&#x2014;" horiz-adv-x="1700" 
d="M1510 608v-140h-1320v140h1320z" />
    <glyph glyph-name="quoteleft" unicode="&#x2018;" horiz-adv-x="648" 
d="M438 1490l-78 -530h-170l138 530h110z" />
    <glyph glyph-name="quoteright" unicode="&#x2019;" horiz-adv-x="648" 
d="M438 1490l-138 -530h-110l78 530h170z" />
    <glyph glyph-name="quotesinglbase" unicode="&#x201a;" horiz-adv-x="648" 
d="M438 220l-138 -530h-110l78 530h170z" />
    <glyph glyph-name="quotedblleft" unicode="&#x201c;" horiz-adv-x="998" 
d="M438 1490l-78 -530h-170l138 530h110zM788 1490l-78 -530h-170l138 530h110z" />
    <glyph glyph-name="quotedblright" unicode="&#x201d;" horiz-adv-x="998" 
d="M438 1490l-138 -530h-110l78 530h170zM788 1490l-138 -530h-110l78 530h170z" />
    <glyph glyph-name="quotedblbase" unicode="&#x201e;" horiz-adv-x="998" 
d="M438 220l-138 -530h-110l78 530h170zM788 220l-138 -530h-110l78 530h170z" />
    <glyph glyph-name="dagger" unicode="&#x2020;" horiz-adv-x="1480" 
d="M820 936v-1326h-160v1326h-460v140h460v414h160v-414h460v-140h-460z" />
    <glyph glyph-name="daggerdbl" unicode="&#x2021;" horiz-adv-x="1480" 
d="M820 24v-414h-160v414h-460v140h460v772h-460v140h460v414h160v-414h460v-140h-460v-772h460v-140h-460z" />
    <glyph glyph-name="bullet" unicode="&#x2022;" horiz-adv-x="828" 
d="M416 542q-87 0 -146.5 60t-59.5 148q0 84 59.5 143t146.5 59q85 0 142.5 -58.5t59.5 -143.5q1 -88 -57.5 -148t-144.5 -60z" />
    <glyph glyph-name="ellipsis" unicode="&#x2026;" horiz-adv-x="1780" 
d="M370 220v-220h-160v220h160zM970 220v-220h-160v220h160zM1570 220v-220h-160v220h160z" />
    <glyph glyph-name="guilsinglleft" unicode="&#x2039;" horiz-adv-x="784" 
d="M310 538l304 -380h-180l-304 380l304 380h180z" />
    <glyph glyph-name="guilsinglright" unicode="&#x203a;" horiz-adv-x="784" 
d="M654 538l-304 -380h-180l304 380l-304 380h180z" />
    <glyph glyph-name="Euro" unicode="&#x20ac;" horiz-adv-x="1672" 
d="M1030 -24q-231 0 -400 145t-228 387h-322l40 140h258q-4 64 -4 96q0 42 2 64h-236l40 140h214q51 258 222 412t414 154q191 0 335 -99t207 -273l-142 -70q-49 142 -155.5 222t-244.5 80q-169 0 -297.5 -117t-176.5 -309h580l-40 -140h-562q-2 -20 -2 -64q0 -32 4 -96h540
l-40 -140h-472q50 -181 174 -286.5t292 -105.5q138 0 243.5 79t156.5 221l142 -70q-63 -172 -208 -271t-334 -99z" />
    <glyph glyph-name="trademark" unicode="&#x2122;" horiz-adv-x="2154" 
d="M606 1374v-928h-132v928h-284v116h698v-116h-282zM1140 1246v-800h-132v1044h120l358 -512l358 512h120v-1044h-132v796l-342 -484h-10z" />
    <glyph glyph-name="partialdiff" unicode="&#x2202;" horiz-adv-x="1244" 
d="M622 -24q-240 0 -394 158.5t-154 405.5q0 246 159.5 403t408.5 157q155 0 302 -52q-75 214 -217 333t-323 119q-94 0 -208 -44l-26 134q129 50 236 50q153 0 294.5 -80.5t244 -215t164 -319.5t61.5 -385q0 -307 -147 -485.5t-401 -178.5zM622 116q182 0 291.5 143.5
t106.5 378.5q0 88 -28 236q-182 86 -350 86q-187 0 -302.5 -116.5t-115.5 -305.5q0 -180 114 -301t284 -121z" />
    <glyph glyph-name="summation" unicode="&#x2211;" horiz-adv-x="1168" 
d="M1038 140v-140h-888v118l392 628l-392 626v118h888v-140h-724l376 -604l-376 -606h724z" />
    <glyph glyph-name="minus" unicode="&#x2212;" horiz-adv-x="1320" 
d="M1080 822v-150h-840v150h840z" />
    <glyph glyph-name="uni2215" unicode="&#x2215;" horiz-adv-x="884" 
d="M888 1490l-676 -1490h-172l676 1490h172z" />
    <glyph glyph-name="uni2219" unicode="&#x2219;" horiz-adv-x="964" 
d="M484 472q-116 0 -195 79.5t-79 196.5q0 113 79.5 191.5t194.5 78.5q113 0 190.5 -78.5t79.5 -191.5q1 -117 -77.5 -196.5t-192.5 -79.5z" />
    <glyph glyph-name="radical" unicode="&#x221a;" horiz-adv-x="1618" 
d="M1212 1350l-574 -1350h-144l-314 746h142l244 -594l550 1338h322v-140h-226z" />
    <glyph glyph-name="integral" unicode="&#x222b;" horiz-adv-x="892" 
d="M156 -400q-55 0 -98 10v126q39 -6 98 -6q91 0 149.5 55.5t58.5 156.5v1230q0 161 100 251.5t248 90.5q55 0 98 -10v-126q-39 6 -98 6q-91 0 -149.5 -55.5t-58.5 -156.5v-1230q0 -161 -100 -251.5t-248 -90.5z" />
    <glyph glyph-name="approxequal" unicode="&#x2248;" horiz-adv-x="1476" 
d="M240 826v138q111 120 292 120q64 0 122 -18t94.5 -40t90.5 -40t111 -18q79 0 154.5 31t131.5 87v-138q-111 -120 -288 -120q-53 0 -100.5 12t-83 29t-70 34t-77.5 29t-91 12q-78 0 -154.5 -31.5t-131.5 -86.5zM240 406v138q114 120 292 120q64 0 122 -18t94.5 -40
t90.5 -40t111 -18q79 0 154.5 31t131.5 87v-138q-111 -120 -288 -120q-53 0 -100.5 12t-83 29t-70 34t-77.5 29t-91 12q-78 0 -154.5 -31.5t-131.5 -86.5z" />
    <glyph glyph-name="notequal" unicode="&#x2260;" horiz-adv-x="1320" 
d="M664 432l-56 -200h-150l56 200h-274v150h314l92 330h-406v150h446l56 200h150l-56 -200h244v-150h-284l-92 -330h376v-150h-416z" />
    <glyph glyph-name="lessequal" unicode="&#x2264;" horiz-adv-x="1256" 
d="M390 878l648 -376v-162l-822 470v136l822 470v-162zM1088 140v-140h-920v140h920z" />
    <glyph glyph-name="greaterequal" unicode="&#x2265;" horiz-adv-x="1216" 
d="M1040 946v-136l-822 -470v162l648 376l-648 376v162zM1088 140v-140h-920v140h920z" />
    <glyph glyph-name="uniF8FF" unicode="&#xf8ff;" horiz-adv-x="1860" 
d="M1800 1630v-1869h-1740v1869h1740zM321 205h198v344h687v183h-687v491h687v176h-890v-1186q0 -2 1 -3q0 -5 4 -5zM1338 390h-685v-185h888v1194h-203v-334h-685v-190h685v-485zM1037 -26q11 0 29 4q8 6 12 6q9 0 9 9q0 1 1.5 4.5t1.5 5.5t0.5 5.5t0.5 5.5q0 10 -1 14
l-3 8l-9 9q-5 5 -8 5l-10 2q-13 3 -14 4q-8 5 -13 5t-8 4q-3 6 -3 8q0 10 12 10q7 0 10 -1q2 -1 5.5 -2t5.5 -2q3 -2 5.5 -3t4 -1.5t2.5 -0.5q8 -3 10 -4l14 27q-4 4 -26 11q-15 5 -28 5q-14 0 -26 -6q-1 -1 -5.5 -2.5t-5.5 -2.5q-6 -6 -8 -9q-6 -9 -6 -23q0 -4 2 -10
q1 -5 4 -9t7 -7l7 -5q4 -3 11 -3q2 0 6.5 -2t7.5 -2l6 -1q1 0 2 -1t2.5 -2t2.5 -2l7 -5q4 -3 4 -6q0 -9 -5 -10q-10 -2 -13 -2q-9 0 -24 6q-12 5 -23 14l-13 -26q14 -12 29 -16l6 -2q5 -1 9 -2q10 -2 16 -2zM499 -27q33 0 51 18t21 51q2 20 -11 36q-9 12 -10 13
q-10 10 -13 12q-12 8 -38 8q-17 0 -36 -8q-19 -13 -26 -25q-10 -17 -10 -36q0 -21 10 -35q9 -20 25 -27q15 -7 37 -7zM1349 -27q18 0 30 7q16 10 24 19l-20 19q-4 -4 -17 -10q-5 -4 -17 -4q-11 0 -17 5l-7 6q-1 0 -7 9q-4 5 -4 20q0 13 4 20l14 12q6 5 17 5q12 0 17 -5
q13 -4 17 -12l18 23q-1 2 -10 11q-7 7 -11 7q-8 0 -15 3q-9 3 -16 3q-31 0 -50 -18q-20 -19 -20 -51q0 -23 8 -35q11 -17 27 -27q13 -7 35 -7zM419 107h-98v-130h35v47h59v26h-59v31h63v26zM620 107h-31v-130h33v78l60 -78h31v130h-33v-77zM725 81h42v-104h34v104h39v26
h-115v-26zM919 107h-36l-57 -130h35l10 22h57l9 -22h38zM1098 81h40v-104h34v104h41v26h-115v-26zM1260 107h-33v-130h33v130zM1495 107h-36l-58 -130h38l8 22h61l6 -22h37zM500 2q-16 0 -27 12q-10 11 -10 28q0 13 5 20q1 1 2 3t2 3.5t2 2.5l7 5q7 5 19 5q9 0 19 -5
q9 -5 12 -14q0 -1 2 -4.5t2 -5.5v-20q0 -5 -4 -10q-2 -2 -4 -5l-3 -4.5t-2.5 -3t-2.5 -1.5q-18 -6 -19 -6zM901 73l16 -48h-36zM1476 73l17 -48h-36zM1031 -413q-13 0 -17 4q-10 3 -13 12l-2 6q0 1 -1 2q0 1 -1 3l7 2q4 1 8 1l2 -3q9 -13 17 -13q3 0 9 3t6 7q0 5 -3 8
q-2 2 -17 6q-18 4 -20 7q-8 13 -5 22q5 13 19 16q0 3 13 2q14 -2 20 -9q7 -3 7 -15v-3h-16v3q-5 11 -13 11q-1 0 -2 -1h-3q-9 -5 -9 -11l17 -6q16 -6 23 -13t7 -14q0 -4 -9 -18q-4 -6 -11 -8q-4 -1 -13 -1zM635 -414q-24 0 -33 22q-4 10 -4 20q0 15 3 22q1 3 10 12q5 5 13 8
q6 2 14 2q30 0 36 -29q3 -15 0 -27t-14 -22q-9 -8 -25 -8zM1281 -413q-24 0 -38 27q-3 7 -2 15l2 14q6 21 26 27q2 0 4 1t6 1q15 0 25 -10q5 -5 6 -8l2 -6l-8 -3l-6 -2q-3 0 -4 4q-4 11 -15 11q-9 0 -15 -8q-6 -7 -6 -16q0 -1 0.5 -5t0.5 -7q0 -5 3 -10q4 -11 16 -11
q11 0 16 13l2 5l8 -2q8 -3 8 -4l-2 -6q-11 -20 -29 -20zM1540 -413q-12 0 -20 6q-8 5 -12 14q-10 19 0 45q1 3 5 6.5t5 4.5q4 5 12 7q2 2 13 2q1 0 13 -3q2 -1 10 -8q5 -5 7 -9l1 -4q-2 -2 -9 -3l-8 -2q-1 1 -2 4q-4 9 -14 9q-12 0 -16 -9q-4 -10 -4 -19q0 -11 4 -19
q5 -8 16 -8t16 13q0 3 2 3v2l9 -3l5 -2v-3q0 -2 -2 -6l-3 -7q-11 -11 -28 -11zM112 -377l-8 -36h-9l-9 2l-19 79q0 2 8 2h9l11 -53q2 1 2 5q0 9 5 19q7 15 7 24l2 5h18l8 -27l6 -26q1 0 3 9l3 17q2 4 4 12.5t3 12.5q0 2 7 2q10 0 10 -2q-4 -10 -8 -32q-1 -5 -3.5 -13.5
t-3.5 -12.5l-4 -18v-5h-18v5l-4 10l-6 20l-6 25zM241 -381l-8 -32h-15q-2 2 -4 2l-3 12l-6 28l-6 27l-3 12q0 2 8 2h8q1 0 1 -2q1 -2 1 -7q4 -9 4 -18l6 -26l14 53h20q2 0 2 -2l7 -27l5 -27l13 54q0 2 7 2q9 0 9 -2q0 -1 -0.5 -4.5t-0.5 -5.5l-3 -15q-2 -10 -5 -15l-11 -41
h-7l-9 2l-9 30q0 1 -1 5.5t-1 5.5q0 2 -4 9q0 6 -1 9q-2 -6 -2 -9q-3 -6 -3 -9q0 -8 -3 -11zM377 -353l-15 -58l-10 -2q-8 0 -9 4l-2 12q-1 6 -7 27q-2 6 -4 16t-2 12l-3 12h16l5 -27l8 -26l3 9l11 44h19l8 -27q3 -24 8 -27q0 4 1 7q-1 2 3 20l6 27h8q9 0 9 -2q0 -1 -1 -4.5
t-1 -5.5q0 -3 -2 -15q0 -3 -2 -8t-3 -7l-11 -39l-7 -2h-10l-8 32l-5 21zM526 -393l-1 -18h-15v79q0 2 4 2h52v-14h-40v-19h33v-14h-33v-16zM727 -359v-54h-16v83h16l32 -53v53h15v-81l-7 -2h-8zM849 -344v-69h-17v69h-23v14h65v-14h-25zM907 -411l-8 -2h-7q0 2 -2 2l3 9
l9 22l11 26q1 2 3.5 10t4.5 12q0 2 7 2h9l33 -81q-2 0 -2 -2h-5l-11 2l-6 19h-32zM1135 -344v-69h-17v69h-25v14h65v-14h-23zM1206 -330v-83h-15v83h15zM1358 -411l-9 -2h-6l-2 2q2 3 4 9l7 22q5 14 10 26q2 4 5 11.5t4 10.5q0 2 9 2h9l32 -81q-2 0 -2 -2h-7l-9 2l-7 19h-31
zM1646 -413q-21 0 -30 12q-10 13 -10 29q0 7 8 25q6 14 19 17q17 0 37 -6q14 -4 14 -34q0 -20 -8 -31q-9 -12 -30 -12zM1735 -411l-8 -2h-7v83h25l6 -27l5 -18q2 -6 2 -8l7 24q2 6 4 12.5t3 10t1 4.5v2h26v-83h-17v63l-6 -28l-6 -21l-2 -10v-4h-10l-7 2l-6 30l-10 29v-59z
M637 -399q20 0 20 16v24q0 3 -10 13q-4 4 -9 4q-10 0 -18 -8q-2 -2 -4 -8q-1 -3 -1 -14q0 -12 7 -20q5 -7 15 -7zM1646 -399q7 0 10 4q11 5 11 23q0 21 -11 26q-2 1 -4 3q-1 1 -5 1q-15 0 -18 -9t-3 -21q0 -16 2 -19q5 -8 18 -8zM1377 -358l-8 -20h22l-5 14q-3 6 -3 7
q0 2 -1 3l-1 2zM930 -352l-5 -6l-6 -20h20q-2 5 -4 14q-3 6 -3 7q0 2 -1 3zM471 -395v-16h-16v16h16zM1468 -403l-1 -8h-14v16h15v-8z" />
    <glyph glyph-name="G.ss01" horiz-adv-x="1541" 
d="M816 -24q-207 0 -373 98.5t-259.5 274t-93.5 395.5t93.5 395.5t259.5 274t373 98.5q201 0 365 -94t257 -264l-135 -73q-72 137 -199.5 214t-287.5 77q-248 0 -407 -175.5t-159 -452.5t159 -452.5t407 -175.5q158 0 284 75t200 208l1 229h-470v140h620v-402
q-82 -193 -248 -291.5t-387 -98.5z" />
    <glyph glyph-name="Q.ss01" horiz-adv-x="1632" 
d="M1440 -269v-140h-206q-206 0 -340 106t-154 283q-286 27 -468 239t-182 525q0 220 93.5 395.5t259.5 274t373 98.5t373 -98.5t259.5 -274t93.5 -395.5q0 -208 -84 -377t-234.5 -270.5t-341.5 -117.5q20 -114 114 -181t238 -67h206zM816 116q248 0 407 175.5t159 452.5
t-159 452.5t-407 175.5t-407 -175.5t-159 -452.5t159 -452.5t407 -175.5z" />
    <glyph glyph-name="g.001" horiz-adv-x="1200" 
d="M610 -440q-157 0 -278.5 73.5t-175.5 190.5l128 70q37 -82 119.5 -138t202.5 -56q153 0 258.5 92t105.5 248v182q-59 -80 -155 -124t-211 -44q-214 0 -364 149.5t-150 362.5q0 216 147.5 363t366.5 147q119 0 215 -47.5t151 -130.5v154h140v-1012q0 -205 -141.5 -342.5
t-358.5 -137.5zM604 194q163 0 264.5 105.5t101.5 266.5t-104 265.5t-264 104.5q-157 0 -259.5 -102t-102.5 -268q0 -165 101 -268.5t263 -103.5z" />
    <glyph glyph-name="uni030C.alt" horiz-adv-x="0" 
d="M-40 1490l-38 -464h-106l-38 464h182z" />
    <glyph glyph-name="uni0335.alt" horiz-adv-x="0" 
d="M-40 718v-130h-594v130h594z" />
    <glyph glyph-name="_FSHallmark" horiz-adv-x="1728" 
d="M1668 1375v-190h-1604v190h1604zM1322 287q-75 0 -132 18q-98 25 -161 98.5t-63 173.5l186 -4q0 -8 12 -32q3 -25 26.5 -49t47.5 -31q33 -20 92 -20q67 0 104 22q34 20 34 52q0 59 -152 88q-134 39 -234 88q-96 48 -96 158q0 86 55 137.5t149 86.5q2 0 52 7t80 7
q75 0 180 -38q68 -24 109 -85.5t41 -134.5h-192q0 42 -50 78q-5 1 -20.5 9t-25.5 9q-7 1 -22.5 5.5t-23.5 4.5q-44 0 -90 -28q-38 -23 -38 -58q0 -63 36 -78q2 -1 20 -9t32.5 -12.5t29.5 -6.5l72 -20l58 -14q7 -1 27 -6.5t31 -5.5q37 -9 44 -14l40 -18q38 -24 62 -52
q22 -51 24 -88q3 -41 -20 -94q-80 -144 -324 -144zM274 545v-258h-210v798h674v-180h-464v-182h388v-178h-388zM816 291q-32 0 -62 30q-34 28 -34 64t30 66q26 26 66 26q47 0 78 -28q32 -29 32 -64q0 -38 -32 -70q-36 -24 -78 -24zM1666 189v-190h-1606v190h1606z" />
    <glyph glyph-name="_Fontastica" horiz-adv-x="1338" 
d="M262 536v-340h-196q-3 0 -4.5 2t-1.5 4v2v1178h884v-174h-682v-490h682v-182h-682zM1278 1382v-1186h-884v184h682v482h-682v188h682v332h202zM252 2q-9 0 -36 8q-15 4 -25.5 22.5t-10.5 35.5q0 28 21.5 47t50.5 19q21 0 32.5 -7.5t25.5 -26.5q10 -13 10 -32
q0 -28 -20 -47t-48 -19zM770 2q-35 0 -60 20l14 26q20 -20 46 -20q16 0 16 12q0 1 -2 3.5t-2 4.5l-6 4q-6 0 -14 4q-5 3 -13 3.5t-11 2.5q-20 13 -20 34q0 38 52 38q24 0 52 -14l-14 -28q-16 16 -50 16q-2 0 -2 -2l-2 -8q0 -1 1 -3t1 -3q0 -2 1.5 -3.5l2.5 -2.5h2
q3 0 7.5 -2t6.5 -2q15 0 30.5 -12.5t15.5 -27.5q0 -19 -16 -29.5t-36 -10.5zM1068 2q-18 0 -34 8q-15 7 -24.5 24t-9.5 34q0 14 10.5 33.5t23.5 24.5q20 8 34 8q18 0 30 -6t22 -16l-20 -24q-3 5 -13.5 11.5t-16.5 6.5q-18 0 -30 -18q-4 -6 -4 -20q0 -24 16 -32q12 -6 18 -6
q5 0 16.5 6t13.5 10l20 -20q-18 -24 -52 -24zM112 50v-46h-34v128h96v-26h-62v-30h58v-26h-58zM368 80v-76h-32v128h30l58 -78v78h32v-128h-30zM542 104v-100h-34v100h-38v28h108v-28h-36zM608 28l-8 -24h-34l54 128h34l54 -128h-36l-8 24h-56zM898 104v-100h-32v100h-38v28
h108v-28h-38zM984 132v-128h-34v128h34zM1164 28l-10 -24h-34l56 128h34l54 -128h-36l-10 24h-54zM252 28q14 0 24 12.5t10 27.5q0 13 -10.5 25.5t-23.5 12.5q-8 0 -20 -6q-16 -8 -16 -32q0 -17 9.5 -28.5t26.5 -11.5zM654 52l-18 46l-18 -46h36zM1208 52l-18 46l-16 -46h34
z" />
    <glyph glyph-name="_www.fontastica.com" horiz-adv-x="3906" 
d="M132 627v-120h-68l-4 2v418h316v-62h-244v-174h244v-64h-244zM494 927v-420h-316v64h244v172h-244v66h244v118h72zM2500 541q-41 0 -86.5 15.5t-75.5 40.5l36 72q22 -19 61 -36.5t65 -17.5q16 0 32 8q14 7 14 22t-10 20q-18 12 -58 24q-55 17 -62 20q-26 11 -40 30
q-14 20 -14 56q0 53 40.5 80.5t97.5 27.5q74 0 140 -40l-34 -72q-70 36 -114 36q-36 0 -36 -24q0 -27 66 -44q45 -10 62 -20q28 -16 40 -32q16 -22 16 -58q0 -54 -41 -81t-99 -27zM1086 539q-79 0 -133.5 51.5t-54.5 130.5t54 129.5t134 50.5t134 -50.5t54 -129.5
t-53.5 -130.5t-134.5 -51.5zM3312 539q-77 0 -129.5 52.5t-52.5 129.5q0 78 53.5 129t132.5 51q86 0 140 -60l-52 -64q-34 46 -86 46q-43 0 -69.5 -28.5t-26.5 -71.5q0 -33 12 -52q31 -50 84 -50q46 0 86 40l54 -56q-66 -66 -146 -66zM708 671v-124h-90v348h260v-72h-170
v-78h156v-74h-156zM1406 755v-208h-86v348h80l160 -210l-2 210h86v-348h-80zM1876 821v-274h-90v274h-104v74h300v-74h-106zM2062 607l-24 -60h-94l150 348h94l146 -348h-96l-24 60h-152zM2852 821v-274h-92v274h-104v74h300v-74h-104zM3084 895v-348h-90v348h90zM3574 607
l-24 -60h-94l150 348h94l146 -348h-98l-22 60h-152zM1088 617q40 0 67 31.5t27 72.5q0 15 -14 52q-19 50 -80 50q-43 0 -69.5 -29t-26.5 -73q0 -42 27 -73t69 -31zM2186 677l-46 126l-50 -126h96zM3698 677l-48 126l-48 -126h96z" />
    </font>
</defs>
</svg>
