<?xml version="1.0" standalone="no"?>
<!DOCTYPE svg PUBLIC "-//W3C//DTD SVG 1.1//EN" "http://www.w3.org/Graphics/SVG/1.1/DTD/svg11.dtd" >
<svg xmlns="http://www.w3.org/2000/svg" xmlns:xlink="http://www.w3.org/1999/xlink" version="1.1">
<metadata>
Created by FontForge 20170731 at Mon Jan 25 21:51:45 2021
 By Aleksey,,,
Copyright (c) 2021 by Fontastica. All rights reserved.
</metadata>
<defs>
<font id="LuxoraGrotesk-Medium" horiz-adv-x="1258" >
  <font-face 
    font-family="Luxora Grotesk Medium"
    font-weight="500"
    font-stretch="normal"
    units-per-em="2048"
    panose-1="0 0 6 0 0 0 0 0 0 0"
    ascent="1638"
    descent="-410"
    x-height="1081"
    cap-height="1500"
    bbox="-1418 -449 3846 2069"
    underline-thickness="50"
    underline-position="-150"
    unicode-range="U+000D-F8FF"
  />
<missing-glyph horiz-adv-x="1347" 
d="M1297 1500v-1500h-1151v1500h1151zM947 1289h-448l222 -341zM1074 1073l-217 -322l217 -320v642zM582 751l-211 315v-628zM946 214l-225 341l-227 -342z" />
    <glyph glyph-name=".notdef" horiz-adv-x="1347" 
d="M1297 1500v-1500h-1151v1500h1151zM947 1289h-448l222 -341zM1074 1073l-217 -322l217 -320v642zM582 751l-211 315v-628zM946 214l-225 341l-227 -342z" />
    <glyph glyph-name=".null" horiz-adv-x="0" 
 />
    <glyph glyph-name="nonmarkingreturn" horiz-adv-x="682" 
 />
    <glyph glyph-name="CR" unicode="&#xd;" horiz-adv-x="333" 
 />
    <glyph glyph-name="space" unicode=" " horiz-adv-x="486" 
 />
    <glyph glyph-name="exclam" unicode="!" horiz-adv-x="663" 
d="M464 1490l-11 -1090h-243l-10 1090h264zM463 305v-305h-263v305h263z" />
    <glyph glyph-name="quotedbl" unicode="&#x22;" horiz-adv-x="1006" 
d="M473 1490v-595h-263v595h263zM796 1490v-595h-262v595h262z" />
    <glyph glyph-name="numbersign" unicode="#" horiz-adv-x="1586" 
d="M538 363l-106 -363h-267l107 363h-212v231h280l88 301h-213v230h280l107 365h267l-107 -365h286l106 365h267l-107 -365h212v-230h-280l-88 -301h213v-231h-280l-107 -363h-267l107 363h-286zM981 895h-287l-88 -301h286z" />
    <glyph glyph-name="dollar" unicode="$" horiz-adv-x="1331" 
d="M796 -18v-168h-243v181q-131 29 -235 106t-167 185q-26 44 -51 113l-10 28l237 101l7 -20q71 -208 219 -272v419q-102 29 -158 58q-120 60 -186 156.5t-66 216.5q0 164 113.5 279t296.5 139v194h243v-201q157 -36 268 -137t160 -241l5 -14l-237 -107l-7 21
q-62 181 -189 236v-417l51 -15q182 -55 283 -155t101 -262q0 -172 -121 -286.5t-314 -137.5zM553 910v361q-70 -19 -108.5 -64t-38.5 -110q0 -125 147 -187zM796 584v-367q78 16 125 62t47 114q0 75 -43 119t-129 72z" />
    <glyph glyph-name="percent" unicode="%" horiz-adv-x="2099" 
d="M592 751q-113 0 -204.5 55.5t-139.5 142t-48 183.5t48 183.5t139 141.5t205 55q113 0 204 -56t138.5 -142t47.5 -182t-47.5 -182.5t-138.5 -142.5t-204 -56zM1534 1490l-690 -1490h-284l691 1490h283zM592 983q61 0 103.5 46t42.5 103t-42.5 103t-103.5 46t-104 -46
t-43 -103q0 -58 43 -103.5t104 -45.5zM1506 -23q-85 0 -159.5 32.5t-124 85.5t-77.5 121t-28 140q0 71 28 139.5t77.5 122t124 86t159.5 32.5q114 0 205.5 -55t139.5 -141.5t48 -183.5t-48 -183t-139.5 -141t-205.5 -55zM1506 208q62 0 104.5 45t42.5 103t-42.5 103
t-104.5 45q-61 0 -104 -45.5t-43 -102.5t43 -102.5t104 -45.5z" />
    <glyph glyph-name="ampersand" unicode="&#x26;" horiz-adv-x="1882" 
d="M670 -23q-134 0 -243.5 52t-173 146.5t-63.5 213.5q0 79 25.5 145.5t75 119t106.5 92.5t135 79q-138 155 -138 311q0 157 119.5 266.5t298.5 109.5q175 0 288 -105t113 -259q0 -68 -23.5 -126t-68 -104t-94.5 -80.5t-117 -68.5l243 -246l232 215h318l-391 -374l361 -364
h-335l-196 200q-112 -105 -223 -164t-249 -59zM749 931q50 23 82 41t67.5 45.5t53 60t17.5 70.5q0 68 -42 110.5t-115 42.5q-76 0 -125.5 -48t-49.5 -117q0 -91 112 -205zM670 208q81 0 156 42t156 114l-292 297l-41 -20q-196 -95 -196 -252q0 -86 58.5 -133.5t158.5 -47.5z
" />
    <glyph glyph-name="quotesingle" unicode="'" horiz-adv-x="682" 
d="M473 1490v-595h-263v595h263z" />
    <glyph glyph-name="parenleft" unicode="(" horiz-adv-x="900" 
d="M770 -207l38 -54h-250l-13 13q-69 79 -113 145q-212 319 -212 718q0 400 212 717q45 66 113 144l12 14h253l-40 -55q-68 -97 -99 -152q-188 -325 -188 -668q0 -341 188 -670q35 -60 99 -152z" />
    <glyph glyph-name="parenright" unicode=")" horiz-adv-x="901" 
d="M349 -255l-7 -6h-252l22 28q144 185 225.5 407t81.5 441q0 344 -189 668q-38 68 -99 152l-39 55h251l12 -14q73 -84 114 -144q212 -315 212 -717q0 -401 -212 -718q-40 -61 -114 -145z" />
    <glyph glyph-name="asterisk" unicode="*" horiz-adv-x="1104" 
d="M706 693l-154 198l-154 -198l-197 139l152 199l-223 74l74 223l223 -73v235h248v-235l226 72l73 -222l-224 -74l153 -199z" />
    <glyph glyph-name="plus" unicode="+" horiz-adv-x="1290" 
d="M772 627v-322h-252v322h-330v239h330v321h252v-321h328v-239h-328z" />
    <glyph glyph-name="comma" unicode="," horiz-adv-x="773" 
d="M563 305l-162 -528h-211l91 528h282z" />
    <glyph glyph-name="hyphen" unicode="-" horiz-adv-x="1157" 
d="M966 667v-230h-776v230h776z" />
    <glyph glyph-name="period" unicode="." horiz-adv-x="682" 
d="M473 305v-305h-263v305h263z" />
    <glyph glyph-name="slash" unicode="/" horiz-adv-x="1053" 
d="M1013 1490l-690 -1490h-283l691 1490h282z" />
    <glyph glyph-name="zero" unicode="0" horiz-adv-x="1510" 
d="M756 -23q-114 0 -211.5 37.5t-167 103.5t-117.5 146t-77 173q-43 140 -43 309q0 176 48 326q30 91 79 168t118 139t164 97.5t206 35.5t206 -35.5t164.5 -97.5t118 -139t78.5 -168q48 -145 48 -326q0 -182 -48 -327q-30 -91 -78.5 -168.5t-117 -140t-164 -98t-206.5 -35.5
zM756 217q66 0 122 26t95 71t66 97t43 112q27 97 27 223q0 127 -31 234q-17 58 -44 108t-65.5 93t-93.5 67.5t-120 24.5q-64 0 -119 -24.5t-93.5 -67.5t-65 -93t-43.5 -108q-31 -107 -31 -234q0 -120 27 -222q16 -60 42.5 -112t65.5 -97.5t95 -71.5t123 -26z" />
    <glyph glyph-name="one" unicode="1" horiz-adv-x="889" 
d="M590 1490v-1490h-264v1259h-266v231h530z" />
    <glyph glyph-name="two" unicode="2" horiz-adv-x="1278" 
d="M1159 230v-230h-1033v162l10 10l401 412q31 32 131 141q44 49 70.5 81.5t58 80t46.5 93.5t15 92q0 100 -56 155t-167 55q-231 0 -307 -233l-6 -21l-222 100l4 14q50 164 195 267t336 103q213 0 349 -126t136 -314q0 -62 -21.5 -128t-49 -116t-78.5 -114.5t-83 -99.5
t-91 -96l-277 -288h639z" />
    <glyph glyph-name="three" unicode="3" horiz-adv-x="1289" 
d="M640 -23q-192 0 -336.5 102.5t-198.5 266.5l-5 14l218 100l16 -37q15 -35 27 -55q45 -74 117 -117t162 -43q123 0 194.5 74t71.5 186q0 110 -73.5 184t-194.5 74q-38 0 -136 -13l-23 -2l2 174l299 373l-601 1v231h934v-197l-287 -357q105 -33 184.5 -108t119 -168.5
t39.5 -191.5q0 -101 -38 -191t-106 -156.5t-168 -105t-217 -38.5z" />
    <glyph glyph-name="four" unicode="4" horiz-adv-x="1347" 
d="M1064 328v-328h-244v328h-740v187l768 975h216v-941h183v-221h-183zM820 549v526l-411 -526h411z" />
    <glyph glyph-name="five" unicode="5" horiz-adv-x="1316" 
d="M653 -23q-192 0 -334.5 96t-208.5 258l-5 15l-5 14l213 102l8 -20q36 -102 126.5 -168t205.5 -66q128 0 204.5 76.5t76.5 192.5q0 117 -77 192.5t-206 75.5q-82 0 -150 -34t-103 -96l-10 -17l-171 92l81 802h837v-231h-628l-32 -312q84 29 181 29q120 0 222 -39.5
t171.5 -107t108 -159.5t38.5 -195q0 -105 -38.5 -196.5t-108 -158.5t-172 -106t-224.5 -39z" />
    <glyph glyph-name="six" unicode="6" horiz-adv-x="1224" 
d="M612 -23q-119 0 -218 42.5t-162 113.5t-97.5 162t-34.5 191q0 111 55 238q28 64 114 218l316 548h297l-320 -533q26 3 50 3q109 0 206 -42t163.5 -111t104.5 -158t38 -181q0 -97 -36.5 -186t-101.5 -156.5t-162.5 -108t-211.5 -40.5zM612 208q114 0 182 76.5t68 183.5
t-68 182.5t-182 75.5t-181.5 -75.5t-67.5 -182.5t67.5 -183.5t181.5 -76.5z" />
    <glyph glyph-name="seven" unicode="7" horiz-adv-x="1117" 
d="M1056 1301l-609 -1301h-279l593 1261h-681v231h976v-191z" />
    <glyph glyph-name="eight" unicode="8" horiz-adv-x="1327" 
d="M663 -23q-233 0 -388 134.5t-155 339.5q0 110 54 208.5t152 162.5q-63 55 -96.5 128t-33.5 153q0 175 134 292t333 117q202 0 333.5 -115.5t131.5 -293.5q0 -165 -128 -281q99 -63 153 -162t54 -209q0 -205 -155.5 -339.5t-388.5 -134.5zM663 924q88 0 144.5 51t56.5 128
q0 78 -56.5 128.5t-144.5 50.5t-145.5 -51t-57.5 -128t57.5 -128t145.5 -51zM663 208q121 0 201.5 68.5t80.5 174.5q0 107 -80 175t-202 68q-121 0 -200.5 -68.5t-79.5 -174.5t79.5 -174.5t200.5 -68.5z" />
    <glyph glyph-name="nine" unicode="9" horiz-adv-x="1224" 
d="M954 548l-314 -548h-297l319 533q-24 -3 -50 -3q-109 0 -206 42t-163 111t-104.5 158t-38.5 181q0 97 36.5 185.5t101.5 156t162.5 108t211.5 40.5q120 0 218.5 -42.5t162 -114t97.5 -162.5t34 -191q0 -112 -55 -237q-32 -76 -115 -217zM612 764q114 0 182 75.5t68 182.5
q0 106 -68 183t-182 77t-181.5 -76.5t-67.5 -183.5t67 -182.5t182 -75.5z" />
    <glyph glyph-name="colon" unicode=":" horiz-adv-x="682" 
d="M473 1104v-306h-263v306h263zM473 305v-305h-263v305h263z" />
    <glyph glyph-name="semicolon" unicode=";" horiz-adv-x="792" 
d="M572 1104v-306h-264v306h264zM583 305l-162 -528h-211l91 528h282z" />
    <glyph glyph-name="less" unicode="&#x3c;" horiz-adv-x="1229" 
d="M492 750l569 -324v-268l-893 501v182l893 500v-268z" />
    <glyph glyph-name="equal" unicode="=" horiz-adv-x="1390" 
d="M1150 1090v-240h-910v240h910zM1150 643v-240h-910v240h910z" />
    <glyph glyph-name="greater" unicode="&#x3e;" horiz-adv-x="1189" 
d="M1061 841v-182l-893 -501v268l569 324l-569 323v268z" />
    <glyph glyph-name="question" unicode="?" horiz-adv-x="1223" 
d="M675 468v-68h-263v68q0 62 16.5 117.5t49.5 103.5t63 82t76 77l73 70q44 44 62 67q58 73 58 144q0 73 -47.5 113t-131.5 40q-162 0 -236 -137q-11 -21 -30 -76l-14 -41l-221 100l8 28q50 158 180 257t313 99q191 0 316.5 -107.5t125.5 -275.5q0 -57 -16.5 -109t-50 -99.5
t-62.5 -79.5t-76 -77q-8 -8 -33.5 -32.5t-38.5 -38.5q-35 -35 -62 -71q-59 -79 -59 -154zM680 305v-305h-262v305h262z" />
    <glyph glyph-name="at" unicode="@" horiz-adv-x="1925" 
d="M964 -124q-257 0 -462.5 127t-304.5 339q-77 164 -77 352t78 351q100 210 305.5 338.5t460.5 128.5q253 0 458 -129.5t305 -339.5q79 -167 79 -349q0 -63 -11.5 -123.5t-39 -120.5t-69.5 -104.5t-108.5 -72.5t-149.5 -28q-157 0 -242 100q-107 -89 -267 -89
q-102 0 -188 38t-141 101.5t-85.5 143t-30.5 164.5q0 84 30.5 163.5t86 143.5t141 103t187.5 39q124 0 220 -63v44h229q-163 149 -404 149q-187 0 -331.5 -93t-210.5 -249q-49 -111 -49 -246t49 -247q66 -157 210.5 -249.5t331.5 -92.5q165 0 318 81l19 10l109 -200l-14 -9
l-16 -9q-189 -102 -416 -102zM1442 473q60 0 89 79q21 61 21 142q0 133 -48 246q-46 108 -126 184v-556q0 -40 14 -67q16 -28 50 -28zM925 485q92 0 146.5 65.5t54.5 154.5q0 87 -54 150t-147 63q-91 0 -144.5 -64t-53.5 -151t54 -152.5t144 -65.5z" />
    <glyph glyph-name="A" unicode="A" horiz-adv-x="1549" 
d="M510 393l-142 -393h-278l564 1500h242l564 -1500h-279l-140 393h-531zM956 624l-181 500l-181 -500h362z" />
    <glyph glyph-name="B" unicode="B" horiz-adv-x="1346" 
d="M741 0h-651v1500h651q204 0 331 -119.5t127 -298.5q0 -178 -127 -293q89 -63 136.5 -156.5t47.5 -196.5q0 -205 -140.5 -320.5t-374.5 -115.5zM729 1270h-375v-380h375q92 0 144.5 49.5t52.5 132.5t-54 140.5t-143 57.5zM741 659h-387v-428h387q114 0 179 53.5t65 151.5
q0 101 -65.5 162t-178.5 61z" />
    <glyph glyph-name="C" unicode="C" horiz-adv-x="1601" 
d="M842 -24q-233 0 -412.5 116.5t-267.5 310.5q-72 158 -72 347t72 346q87 194 267 310t413 116q216 0 384.5 -101t268.5 -275l9 -15l7 -15l-227 -120l-9 19q-56 123 -172 199t-261 76q-163 0 -281.5 -87.5t-169.5 -229.5q-37 -102 -37 -223q0 -122 37 -223
q51 -143 169.5 -230.5t281.5 -87.5q145 0 256 72.5t177 195.5l10 18l223 -123l-7 -14q-94 -173 -270 -277.5t-389 -104.5z" />
    <glyph glyph-name="D" unicode="D" horiz-adv-x="1420" 
d="M598 -2h-508v1502h508q158 0 294 -56q110 -45 196 -121.5t137.5 -169.5t78 -195t26.5 -208q0 -107 -26.5 -209t-78 -194.5t-137 -168.5t-196.5 -122q-138 -58 -294 -58zM597 225q73 0 151 27q107 37 181.5 118t107.5 177t33 203q0 111 -37 215q-51 140 -164.5 224.5
t-271.5 84.5h-248v-1048q42 0 124.5 -0.5t123.5 -0.5z" />
    <glyph glyph-name="E" unicode="E" horiz-adv-x="1210" 
d="M1120 231v-231h-1030v1500h1030v-230h-766v-380h671v-231h-671v-428h766z" />
    <glyph glyph-name="F" unicode="F" horiz-adv-x="1210" 
d="M354 659v-659h-264v1500h1030v-230h-766v-380h671v-231h-671z" />
    <glyph glyph-name="G" unicode="G" horiz-adv-x="1601" 
d="M842 -24q-243 0 -425.5 124.5t-265.5 329.5q-61 150 -61 320t61 318q83 206 265 330t426 124q215 0 384.5 -101.5t268.5 -274.5l9 -15l7 -15l-227 -120l-9 19q-58 124 -173 199.5t-260 75.5q-152 0 -265.5 -77t-171.5 -207q-51 -116 -51 -256q0 -138 51 -255
q57 -130 171 -208t266 -78q195 0 327 126q18 17 54 61q3 4 9 10l8 8q5 5 6 7l-1 171h-494v231h741v-823h-245v88q-183 -112 -405 -112z" />
    <glyph glyph-name="H" unicode="H" horiz-adv-x="1365" 
d="M354 659v-659h-264v1500h264v-610h658v610h263v-1500h-263v659h-658z" />
    <glyph glyph-name="I" unicode="I" horiz-adv-x="444" 
d="M354 1500v-1500h-264v1500h264z" />
    <glyph glyph-name="J" unicode="J" horiz-adv-x="1279" 
d="M640 -17q-130 0 -235.5 41t-173.5 112.5t-104.5 167t-36.5 206.5v35h265v-35q0 -120 78 -206.5t207 -86.5q125 0 204 81.5t79 196.5v999h266v-999q0 -109 -37.5 -202.5t-106.5 -162.5t-173.5 -108t-231.5 -39z" />
    <glyph glyph-name="K" unicode="K" horiz-adv-x="1388" 
d="M354 529v-529h-264v1500h264v-609l562 609h327l-528 -577l583 -923h-308l-454 727z" />
    <glyph glyph-name="L" unicode="L" horiz-adv-x="1210" 
d="M1120 231v-231h-1030v1500h264v-1269h766z" />
    <glyph glyph-name="M" unicode="M" horiz-adv-x="1557" 
d="M354 990v-990h-264v1500h220l469 -666l468 666h220v-1500h-263v987l-391 -554h-69z" />
    <glyph glyph-name="N" unicode="N" horiz-adv-x="1365" 
d="M354 999v-999h-264v1500h220l702 -993v993h263v-1500h-220z" />
    <glyph glyph-name="O" unicode="O" horiz-adv-x="1684" 
d="M842 -24q-241 0 -423 123t-266 325q-63 149 -63 326q0 176 63 325q84 202 266.5 324.5t422.5 122.5q247 0 431.5 -128t265.5 -338q56 -146 56 -306q0 -162 -56 -308q-81 -209 -266 -337.5t-431 -128.5zM842 209q163 0 280.5 87t170.5 231q37 101 37 223q0 121 -37 223
q-53 143 -170.5 230t-280.5 87q-159 0 -275 -83.5t-170 -221.5q-43 -107 -43 -235t43 -236q54 -139 170 -222t275 -83z" />
    <glyph glyph-name="P" unicode="P" horiz-adv-x="1269" 
d="M354 545v-545h-264v1500h547q243 0 392.5 -132.5t149.5 -345.5q0 -214 -149.5 -345.5t-392.5 -131.5h-283zM637 1270h-283v-493h283q125 0 198.5 68t73.5 179q0 110 -74 178t-198 68z" />
    <glyph glyph-name="Q" unicode="Q" horiz-adv-x="1684" 
d="M1308 131l160 -276l-226 -119l-158 277q-119 -37 -242 -37q-228 0 -405.5 112t-267.5 300q-79 164 -79 362q0 197 79 361q90 188 267.5 299.5t405.5 111.5q227 0 405.5 -111.5t268.5 -299.5q79 -167 79 -361q0 -181 -71.5 -344.5t-215.5 -274.5zM842 209q61 0 123 14
l-230 403l205 133l242 -413q148 152 148 404q0 121 -37 223q-52 143 -170 230t-281 87t-281 -87t-170 -230q-37 -102 -37 -223q0 -122 37 -223q52 -143 170 -230.5t281 -87.5z" />
    <glyph glyph-name="R" unicode="R" horiz-adv-x="1346" 
d="M354 545v-545h-264v1500h547q243 0 392.5 -132.5t149.5 -345.5q0 -138 -69 -251t-204 -172l350 -599h-305l-318 545h-279zM637 1270h-283v-493h283q125 0 198.5 68t73.5 179q0 110 -74 178t-198 68z" />
    <glyph glyph-name="S" unicode="S" horiz-adv-x="1329" 
d="M714 -24q-178 0 -326.5 82.5t-232.5 223.5q-28 46 -55 119l-10 29l240 101l6 -20q97 -302 378 -302q110 0 185.5 49t75.5 138q0 83 -46 125.5t-146 73.5q-43 13 -130.5 37.5t-130.5 37.5q-174 53 -276 160t-102 264q0 190 146.5 310t363.5 120q160 0 296 -70.5
t218 -192.5q32 -46 60 -119l10 -28l-239 -107l-7 21q-40 121 -123 192.5t-213 71.5q-109 0 -179 -49t-70 -139q0 -75 53.5 -126.5t143.5 -77.5q46 -14 131 -38t116 -33q388 -112 388 -420q0 -131 -71 -230.5t-189.5 -151t-264.5 -51.5z" />
    <glyph glyph-name="T" unicode="T" horiz-adv-x="1233" 
d="M749 1270v-1270h-263v1270h-396v230h1053v-230h-394z" />
    <glyph glyph-name="U" unicode="U" horiz-adv-x="1308" 
d="M654 -24q-259 0 -411.5 142t-152.5 370v1012h266v-1012q0 -118 83 -198.5t215 -80.5q130 0 214 81t84 198v1012h266v-1012q0 -227 -153 -369.5t-411 -142.5z" />
    <glyph glyph-name="V" unicode="V" horiz-adv-x="1549" 
d="M1460 1500l-564 -1500h-242l-564 1500h278l407 -1114l406 1114h279z" />
    <glyph glyph-name="W" unicode="W" horiz-adv-x="2170" 
d="M1085 1066l-307 -1066h-248l-440 1500h270l297 -1047l293 1047h270l294 -1044l297 1044h270l-441 -1500h-248z" />
    <glyph glyph-name="X" unicode="X" horiz-adv-x="1439" 
d="M720 531l-336 -531h-294l480 764l-464 736h297l317 -503l316 503h298l-468 -736l483 -764h-295z" />
    <glyph glyph-name="Y" unicode="Y" horiz-adv-x="1529" 
d="M897 687v-687h-263v687l-544 813h297l379 -564l375 564h298z" />
    <glyph glyph-name="Z" unicode="Z" horiz-adv-x="1323" 
d="M1233 231v-231h-1143v156l775 1114h-726v230h1077v-156l-776 -1113h793z" />
    <glyph glyph-name="bracketleft" unicode="[" horiz-adv-x="841" 
d="M711 99v-229h-491v1750h491v-230h-228v-1291h228z" />
    <glyph glyph-name="backslash" unicode="\" horiz-adv-x="1053" 
d="M323 1490l690 -1490h-282l-691 1490h283z" />
    <glyph glyph-name="bracketright" unicode="]" horiz-adv-x="841" 
d="M621 1620v-1750h-491v229h229v1291h-229v230h491z" />
    <glyph glyph-name="asciicircum" unicode="^" horiz-adv-x="1333" 
d="M667 1151l-191 -358h-286l376 697h202l375 -697h-287z" />
    <glyph glyph-name="underscore" unicode="_" horiz-adv-x="1027" 
d="M997 99v-229h-967v229h967z" />
    <glyph glyph-name="grave" unicode="`" horiz-adv-x="553" 
d="M315 1642l200 -383h-238l-235 383h273z" />
    <glyph glyph-name="a" unicode="a" horiz-adv-x="1101" 
d="M499 -23q-178 0 -293.5 95.5t-115.5 251.5q0 56 20.5 105.5t54.5 85.5t81.5 66t98.5 49t109 32l314 70q-6 68 -63 105t-142 37q-88 0 -136 -30.5t-49 -100.5q0 -3 0.5 -8.5t0.5 -7.5l1 -18l-254 -3v36q0 139 80.5 229.5t235.5 119.5q63 13 120 13q198 0 324 -105
t126 -280v-719h-244v66q-121 -89 -269 -89zM499 206q123 0 196 81.5t73 196.5v32l-253 -57q-71 -16 -121.5 -51t-50.5 -85q0 -57 43 -87t113 -30z" />
    <glyph glyph-name="b" unicode="b" horiz-adv-x="1273" 
d="M629 -24q-166 0 -296 78v-54h-243v1490h243v-461q131 79 296 79q176 0 309.5 -88.5t196.5 -236.5q48 -112 48 -242q0 -129 -48 -241q-63 -148 -196.5 -236t-309.5 -88zM629 208q72 0 130 28.5t93 76.5t53.5 106.5t18.5 121.5q0 64 -18.5 122.5t-53.5 107t-92.5 77
t-130.5 28.5t-131 -28.5t-93.5 -77t-54 -107t-18.5 -122.5q0 -63 19 -121.5t54.5 -106.5t93.5 -76.5t130 -28.5z" />
    <glyph glyph-name="c" unicode="c" horiz-adv-x="1234" 
d="M644 -24q-179 0 -313.5 91.5t-196.5 241.5q-44 105 -44 232t44 233q61 150 196 242t314 92q129 0 240 -51t187 -144q14 -17 50 -71l18 -28l-219 -130l-10 19q-41 79 -108.5 126t-157.5 47q-96 0 -165 -50t-100 -124t-31 -161q0 -63 18.5 -121.5t54 -106.5t93.5 -76.5
t130 -28.5q89 0 159 47.5t107 124.5l10 20l219 -131l-18 -28q-35 -53 -50 -70q-76 -93 -187 -144t-240 -51z" />
    <glyph glyph-name="d" unicode="d" horiz-adv-x="1273" 
d="M644 -24q-177 0 -310 88t-196 236q-48 112 -48 241q0 133 48 242q63 148 196.5 236.5t309.5 88.5q165 0 295 -79v461h244v-1490h-244v54q-128 -78 -295 -78zM644 208q95 0 164 49.5t100.5 123.5t31.5 160q0 64 -18.5 122.5t-54 107t-93.5 77t-130 28.5q-96 0 -165 -50
t-100 -124t-31 -161q0 -63 18.5 -121.5t54 -106.5t93.5 -76.5t130 -28.5z" />
    <glyph glyph-name="e" unicode="e" horiz-adv-x="1288" 
d="M644 -24q-168 0 -298.5 81.5t-197.5 219.5q-58 122 -58 264q0 143 58 265q67 138 197.5 220t298.5 82t299 -82t198 -220q58 -122 58 -265q0 -12 -0.5 -36.5t-0.5 -36.5v-18h-840q25 -105 99.5 -173.5t186.5 -68.5q89 0 158.5 47.5t107.5 124.5l10 20l219 -131l-18 -28
q-32 -51 -61 -84q-77 -87 -184.5 -134t-231.5 -47zM367 671h554q-31 92 -103 148.5t-174 56.5q-101 0 -173.5 -57t-103.5 -148z" />
    <glyph glyph-name="f" unicode="f" horiz-adv-x="901" 
d="M533 850v-850h-243v850h-200v231h200v55q0 97 41 178.5t126.5 133.5t200.5 52q79 0 139 -17l15 -4v-217l-26 6q-53 13 -114 13q-69 0 -104 -39.5t-35 -105.5v-55h244v-231h-244z" />
    <glyph glyph-name="g" unicode="g" horiz-adv-x="1262" 
d="M640 -411q-132 0 -248 55t-190 152q-29 39 -50 81l-14 28l219 119l9 -21q35 -85 104.5 -134.5t166.5 -49.5t170.5 47.5t103.5 129.5q14 39 16 92q0 8 0.5 23t1.5 23q-127 -84 -294 -84q-119 0 -222.5 44.5t-173 118.5t-109.5 169t-40 195q0 103 39 198t108 168t173 117
t225 44q167 0 292 -87v64h244v-994q0 -101 -38 -191.5t-106 -158.5t-168.5 -108t-218.5 -40zM635 281q135 0 213.5 85.5t78.5 210.5q0 124 -80 210.5t-214 86.5q-135 0 -212.5 -86t-77.5 -211q0 -126 78 -211t214 -85z" />
    <glyph glyph-name="h" unicode="h" horiz-adv-x="1088" 
d="M333 649v-649h-243v1490h243v-434q97 47 210 47q200 0 328 -114.5t128 -290.5v-698h-245v649q0 98 -53.5 161.5t-155.5 63.5q-103 0 -157.5 -64t-54.5 -161z" />
    <glyph glyph-name="i" unicode="i" horiz-adv-x="423" 
d="M333 1490v-304h-243v304h243zM333 1081v-1081h-243v1081h243z" />
    <glyph glyph-name="j" unicode="j" horiz-adv-x="692" 
d="M602 1490v-304h-244v304h244zM236 -411q-58 0 -130 15l-16 3v215l23 -3q86 -11 117 -11q63 0 95.5 41t32.5 104v1128h244v-1128q0 -72 -24 -137t-68.5 -116t-115 -81t-158.5 -30z" />
    <glyph glyph-name="k" unicode="k" horiz-adv-x="1137" 
d="M333 324v-324h-243v1490h243v-834l407 425h307l-423 -448l399 -633h-285l-283 454z" />
    <glyph glyph-name="l" unicode="l" horiz-adv-x="423" 
d="M333 1490v-1490h-243v1490h243z" />
    <glyph glyph-name="m" unicode="m" horiz-adv-x="1711" 
d="M333 649v-649h-243v1081h243v-25q94 47 204 47q210 0 322 -129q62 64 153.5 97t191.5 33q125 0 222 -58t146 -149.5t49 -197.5v-699h-243v651q0 96 -51 159.5t-150 63.5q-97 0 -148.5 -64t-51.5 -159v-651h-244v651q0 72 -32 130.5t-98 80.5q-33 12 -64 12q-26 0 -64 -12
q-71 -22 -106.5 -80t-35.5 -133z" />
    <glyph glyph-name="n" unicode="n" horiz-adv-x="1088" 
d="M333 649v-649h-243v1081h243v-25q97 47 210 47q200 0 328 -114.5t128 -290.5v-698h-245v649q0 98 -53.5 161.5t-155.5 63.5q-103 0 -157.5 -64t-54.5 -161z" />
    <glyph glyph-name="o" unicode="o" horiz-adv-x="1288" 
d="M644 -24q-177 0 -311.5 90t-196.5 239q-46 108 -46 236q0 108 36.5 208.5t104.5 181t175 129t238 48.5q182 0 318 -94t196 -249q41 -105 41 -224q0 -128 -46 -236q-62 -149 -197 -239t-312 -90zM644 208q95 0 164 49.5t100.5 123.5t31.5 160q0 64 -18.5 122.5t-54 107
t-93.5 77t-130 28.5q-96 0 -165 -50t-100 -124t-31 -161q0 -63 18.5 -121.5t54 -106.5t93.5 -76.5t130 -28.5z" />
    <glyph glyph-name="p" unicode="p" horiz-adv-x="1273" 
d="M333 53v-461h-243v1489h243v-54q129 80 296 80q176 0 309.5 -88.5t196.5 -236.5q48 -112 48 -242q0 -129 -48 -241q-63 -147 -196.5 -235.5t-309.5 -88.5q-166 0 -296 78zM629 207q72 0 130 28.5t93 76.5t53.5 106.5t18.5 121.5q0 64 -18.5 122.5t-53.5 107t-92.5 77
t-130.5 28.5t-131 -28.5t-93.5 -77t-54 -107t-18.5 -122.5q0 -63 19 -121.5t54.5 -106.5t93.5 -76.5t130 -28.5z" />
    <glyph glyph-name="q" unicode="q" horiz-adv-x="1273" 
d="M1183 1081v-1489h-244v461q-128 -78 -295 -78q-176 0 -309.5 88.5t-196.5 235.5q-48 112 -48 241q0 133 48 242q63 148 196.5 236.5t309.5 88.5q166 0 295 -80v54h244zM644 207q95 0 164 49.5t100.5 123.5t31.5 160q0 64 -18.5 122.5t-54 107t-93.5 77t-130 28.5
q-96 0 -165 -50t-100 -124t-31 -161q0 -63 18.5 -121.5t54 -106.5t93.5 -76.5t130 -28.5z" />
    <glyph glyph-name="r" unicode="r" horiz-adv-x="765" 
d="M333 649v-649h-243v1081h243v-25q97 47 210 47q61 0 116 -12l16 -3v-236l-24 5q-19 3 -55 11q-27 6 -51 6q-103 0 -157.5 -64t-54.5 -161z" />
    <glyph glyph-name="s" unicode="s" horiz-adv-x="1078" 
d="M569 -23q-170 0 -295 89.5t-179 234.5l-5 14l216 109l16 -40q34 -81 96 -128.5t151 -47.5q65 0 111 27.5t46 77.5q0 38 -39 62q-27 18 -88 35l-159 45q-135 39 -212.5 118t-77.5 200q0 150 110 240.5t280 90.5q160 0 278.5 -85t164.5 -222l5 -14l-219 -104l-7 22
q-24 77 -82 126t-140 49q-59 0 -98 -24.5t-39 -68.5q0 -38 29 -60.5t86 -41.5q27 -9 82.5 -25.5t84.5 -25.5q293 -91 293 -321q0 -101 -56.5 -178t-148.5 -115.5t-204 -38.5z" />
    <glyph glyph-name="t" unicode="t" horiz-adv-x="871" 
d="M644 -12q-176 0 -265 95.5t-89 251.5v515h-200v231h200v324h243v-324h244v-231h-244v-515q0 -70 29 -102.5t104 -32.5q22 0 92 9l23 3v-209l-16 -3q-67 -12 -121 -12z" />
    <glyph glyph-name="u" unicode="u" horiz-adv-x="1088" 
d="M545 -21q-200 0 -327.5 114.5t-127.5 290.5v697h243v-649q0 -97 54 -160t156 -63q103 0 157 63t54 160v649h245v-1081h-245v25q-98 -46 -209 -46z" />
    <glyph glyph-name="v" unicode="v" horiz-adv-x="1271" 
d="M1181 1081l-444 -1081h-205l-442 1081h272l274 -700l273 700h272z" />
    <glyph glyph-name="w" unicode="w" horiz-adv-x="1788" 
d="M896 660l-209 -660h-211l-386 1081h273l215 -657l203 657h226l202 -654l217 654h272l-388 -1081h-209z" />
    <glyph glyph-name="x" unicode="x" 
d="M630 344l-248 -344h-292l392 540l-392 541h292l248 -345l246 345h292l-392 -541l392 -540h-292z" />
    <glyph glyph-name="y" unicode="y" horiz-adv-x="1309" 
d="M1218 1081l-626 -1492h-267l189 470l-424 1022h276l289 -698l287 698h276z" />
    <glyph glyph-name="z" unicode="z" horiz-adv-x="1050" 
d="M960 230v-230h-870v178l528 672h-497v231h837v-177l-528 -674h530z" />
    <glyph glyph-name="braceleft" unicode="{" horiz-adv-x="834" 
d="M745 -31v-230h-121q-152 0 -240.5 89t-88.5 223v361q0 86 -67 86h-108v230h108q67 0 67 86v363q0 133 88.5 223t240.5 90h121v-231h-121q-30 0 -48.5 -21t-18.5 -52q0 -63 0.5 -190.5t0.5 -190.5q0 -111 -71 -192q71 -82 71 -190q0 -3 -0.5 -8t-0.5 -7v-365
q0 -33 17.5 -53.5t49.5 -20.5h121z" />
    <glyph glyph-name="bar" unicode="|" horiz-adv-x="782" 
d="M523 1677v-2032h-263v2032h263z" />
    <glyph glyph-name="braceright" unicode="}" horiz-adv-x="834" 
d="M209 -261h-119v230h119q31 0 49.5 21t18.5 53q0 63 -0.5 189t-0.5 189q0 111 71 192q-71 83 -71 188q0 3 0.5 10t0.5 11v364q0 33 -18 53t-50 20h-119v231h119q153 0 241.5 -89.5t88.5 -223.5v-363q0 -86 66 -86h110v-230h-110q-66 0 -66 -86v-361q0 -134 -88.5 -223
t-241.5 -89z" />
    <glyph glyph-name="asciitilde" unicode="~" horiz-adv-x="1428" 
d="M901 559q-102 0 -211 69q-54 35 -72 44q-36 18 -63 18q-39 0 -61 -30.5t-27 -77.5l-1 -17h-236l4 38q6 61 24 113.5t52 100t92 75.5t135 28q105 0 213 -69q69 -42 72 -44q38 -18 63 -18q34 0 53 35q9 17 14 37q2 8 5 21.5t4 17.5l3 14h234l-4 -38q-5 -47 -15.5 -89
t-32.5 -85t-53 -73.5t-80.5 -50t-111.5 -19.5z" />
    <glyph glyph-name="uni00A0" unicode="&#xa0;" horiz-adv-x="330" 
 />
    <glyph glyph-name="exclamdown" unicode="&#xa1;" horiz-adv-x="663" 
d="M463 1104v-306h-263v306h263zM453 704l11 -1090h-264l10 1090h243z" />
    <glyph glyph-name="cent" unicode="&#xa2;" horiz-adv-x="1194" 
d="M746 -13v-232h-242v238q-103 25 -185.5 82.5t-134 134t-78 164.5t-26.5 180t27 179.5t78 163t133.5 132.5t185.5 81v238h242v-232q100 -19 184.5 -72.5t141.5 -130.5q21 -30 49 -82l14 -28l-219 -116l-9 20q-55 124 -161 168v-647q104 43 161 169l9 19l219 -116l-14 -28
q-28 -52 -49 -82q-57 -77 -141.5 -130.5t-184.5 -72.5zM504 242v620q-81 -45 -126 -131t-45 -179t45 -179t126 -131z" />
    <glyph glyph-name="sterling" unicode="&#xa3;" horiz-adv-x="1651" 
d="M1404 230v-230h-1137v230h229v401h-266l67 230h199v196q0 198 134 326.5t358 128.5q144 0 260 -61.5t188 -173.5q31 -48 57 -120l10 -28l-223 -102l-6 22q-33 106 -103.5 169.5t-182.5 63.5q-113 0 -171.5 -60.5t-58.5 -164.5v-196h564l-68 -230h-496v-401h646z" />
    <glyph glyph-name="currency" unicode="&#xa4;" horiz-adv-x="1380" 
d="M481 183l-153 -151l-168 165l151 149q-57 97 -57 206q0 106 58 206l-152 147l168 166l154 -150q101 54 208 54q108 0 209 -54l152 150l169 -166l-152 -147q58 -100 58 -206q0 -112 -57 -206l151 -149l-169 -165l-152 151q-100 -55 -209 -55q-110 0 -209 55zM690 370
q78 0 130 54.5t52 127.5q0 72 -52.5 127.5t-129.5 55.5q-78 0 -130.5 -55t-52.5 -128t52 -127.5t131 -54.5z" />
    <glyph glyph-name="yen" unicode="&#xa5;" horiz-adv-x="1440" 
d="M852 287v-287h-262v287h-439v230h439v50h-439v230h361l-462 693h296l375 -560l372 560h297l-461 -693h338v-230h-415v-50h415v-230h-415z" />
    <glyph glyph-name="brokenbar" unicode="&#xa6;" horiz-adv-x="782" 
d="M523 1677v-801h-263v801h263zM523 447v-802h-263v802h263z" />
    <glyph glyph-name="section" unicode="&#xa7;" horiz-adv-x="1332" 
d="M702 -83q-170 0 -297.5 86t-184.5 229l-5 15l-5 14l219 106l8 -20l7 -19q36 -83 101 -132.5t157 -49.5q69 0 117.5 29t48.5 82q0 65 -132 103q-31 9 -88.5 24t-77.5 20q-140 39 -219.5 119.5t-79.5 205.5q0 140 100 224q-100 91 -100 224q0 153 112.5 244t287.5 91
q126 0 230 -52.5t169 -148.5q28 -42 51 -97l11 -29l-223 -102l-6 22q-24 78 -85.5 127.5t-146.5 49.5q-63 0 -104.5 -24.5t-41.5 -70.5q0 -70 122 -109q29 -9 87 -25.5t87 -25.5q300 -91 300 -326q0 -137 -109 -219q109 -92 109 -229q0 -155 -121 -245.5t-298 -90.5z
M754 599q2 0 14.5 3.5t19.5 5.5q36 11 58 37.5t22 59.5q0 67 -132 103l-129 35q-37 -14 -59.5 -42.5t-22.5 -62.5q0 -57 81 -93q28 -12 79 -26q14 -5 38.5 -11.5t30.5 -8.5z" />
    <glyph glyph-name="dieresis" unicode="&#xa8;" horiz-adv-x="731" 
d="M212 1259q-74 0 -120 47.5t-46 111.5q0 63 46.5 109.5t119.5 46.5q62 0 105.5 -36t54.5 -89q12 53 56 89t105 36q70 0 117 -48t47 -108q0 -62 -46 -110.5t-118 -48.5q-63 0 -106.5 36.5t-54.5 89.5q-11 -53 -54 -89.5t-106 -36.5z" />
    <glyph glyph-name="copyright" unicode="&#xa9;" horiz-adv-x="1975" 
d="M988 -23q-246 0 -442.5 131.5t-284.5 339.5q-61 141 -61 298q0 116 36 228.5t106 209t164.5 170.5t219 116t262.5 42q239 0 433 -126.5t285 -325.5q69 -150 69 -314q0 -169 -70 -318q-92 -200 -285 -325.5t-432 -125.5zM988 208q170 0 305 90t196 235q42 97 42 213
q0 138 -66.5 260t-193 199t-283.5 77q-158 0 -284.5 -76.5t-193.5 -198.5t-67 -261q0 -114 43 -213q61 -146 196 -235.5t306 -89.5zM997 305q-101 0 -185.5 37.5t-139 100t-84 141t-29.5 162.5t29.5 162.5t84 140.5t138.5 99t186 37q135 0 242 -71t144 -185l5 -14l-212 -101
l-7 21q-21 62 -64.5 100.5t-107.5 38.5q-95 0 -147 -67.5t-52 -160.5q0 -94 52 -162.5t147 -68.5q123 0 172 142l7 21l211 -105l-4 -13q-37 -114 -144 -184.5t-242 -70.5z" />
    <glyph glyph-name="ordfeminine" unicode="&#xaa;" horiz-adv-x="884" 
d="M388 670q-134 0 -221 71.5t-87 189.5q0 163 200 234l-187 94l12 28q44 96 137 155.5t210 59.5q146 0 239.5 -83t93.5 -211v-523h-231v28q-78 -43 -166 -43zM311 1175q33 8 38 9l199 44q-7 29 -32.5 45t-63.5 16q-98 0 -141 -114zM397 876q68 0 110 45t43 108l-146 -33
q-83 -20 -83 -67q0 -53 76 -53z" />
    <glyph glyph-name="guillemotleft" unicode="&#xab;" horiz-adv-x="1395" 
d="M438 552l331 -404h-310l-329 404l329 404h310zM896 552l329 -404h-307l-331 404l331 404h307z" />
    <glyph glyph-name="uni00AD" unicode="&#xad;" horiz-adv-x="1157" 
d="M966 667v-230h-776v230h776z" />
    <glyph glyph-name="registered" unicode="&#xae;" horiz-adv-x="1975" 
d="M988 -23q-246 0 -442.5 131.5t-284.5 339.5q-61 141 -61 298q0 116 36 228.5t106 209t164.5 170.5t219 116t262.5 42q239 0 433 -126.5t285 -325.5q69 -150 69 -314q0 -169 -70 -318q-92 -200 -285 -325.5t-432 -125.5zM988 208q187 0 331 108h-168l-161 285h-76v-285
h-238v860h350q147 0 236 -79.5t89 -208.5q0 -72 -31 -133.5t-94 -100.5l161 -276q144 150 144 368q0 138 -66.5 260t-193 199t-283.5 77q-158 0 -284.5 -76.5t-193.5 -198.5t-67 -261q0 -114 43 -213q62 -146 196.5 -235.5t305.5 -89.5zM1028 967h-114v-156h114
q40 0 62.5 21t22.5 56q0 36 -22.5 57.5t-62.5 21.5z" />
    <glyph glyph-name="macron" unicode="&#xaf;" horiz-adv-x="603" 
d="M564 1404v-210h-524v210h524z" />
    <glyph glyph-name="degree" unicode="&#xb0;" horiz-adv-x="1116" 
d="M558 821q-154 0 -256 104t-102 240q0 88 43.5 167t127 129.5t187.5 50.5q155 0 256.5 -105t101.5 -242q0 -136 -102 -240t-256 -104zM556 1036q53 0 91.5 39.5t38.5 89.5q0 52 -38 92t-92 40q-53 0 -89.5 -40.5t-36.5 -91.5q0 -50 36.5 -89.5t89.5 -39.5z" />
    <glyph glyph-name="plusminus" unicode="&#xb1;" horiz-adv-x="1290" 
d="M772 627v-322h-252v322h-330v239h330v321h252v-321h328v-239h-328zM1100 239v-239h-910v239h910z" />
    <glyph glyph-name="acute" unicode="&#xb4;" horiz-adv-x="553" 
d="M541 1642l-233 -383h-240l201 383h272z" />
    <glyph glyph-name="uni00B5" unicode="&#xb5;" horiz-adv-x="1147" 
d="M356 13v-386h-236v1477h236v-709q0 -88 48 -145.5t140 -57.5q128 0 227 78v834h236v-1104h-236v30q-123 -53 -242 -53q-90 0 -173 36z" />
    <glyph glyph-name="paragraph" unicode="&#xb6;" horiz-adv-x="863" 
d="M694 1490v-1676h-263v980q-135 22 -218 122.5t-83 223.5q0 88 42.5 167t125.5 131t188 52h208z" />
    <glyph glyph-name="periodcentered" unicode="&#xb7;" horiz-adv-x="682" 
d="M473 898v-305h-263v305h263z" />
    <glyph glyph-name="cedilla" unicode="&#xb8;" horiz-adv-x="622" 
d="M321 -384q-141 0 -260 107l-21 18l105 170l19 -20q77 -77 146 -77q53 0 53 46q0 52 -87 109q-26 16 -82 43q-14 6 -39 17t-35 15l-45 19l224 68l7 -3l6 -3q52 -18 83 -34q85 -43 136 -107t51 -147q0 -99 -74.5 -160t-186.5 -61z" />
    <glyph glyph-name="ordmasculine" unicode="&#xba;" horiz-adv-x="1011" 
d="M506 670q-128 0 -227 60t-149 154.5t-50 203.5q0 108 50.5 201.5t149.5 153t226 59.5t226 -59.5t149 -153t50 -201.5t-50 -202.5t-148.5 -155t-226.5 -60.5zM506 884q84 0 135 60.5t51 141.5q0 80 -51 140.5t-135 60.5t-134.5 -60t-50.5 -141t50.5 -141.5t134.5 -60.5z
" />
    <glyph glyph-name="guillemotright" unicode="&#xbb;" horiz-adv-x="1395" 
d="M809 552l-331 -404h-308l329 404l-329 404h308zM1265 552l-329 -404h-309l331 404l-331 404h309z" />
    <glyph glyph-name="questiondown" unicode="&#xbf;" horiz-adv-x="1223" 
d="M805 1512v-304h-263v304h263zM592 0q-191 0 -316.5 107.5t-125.5 275.5q0 57 15.5 108.5t48.5 98.5t64 81t81 82q8 8 22.5 21.5t26.5 25t22 21.5q40 42 62 72q38 52 47 89.5t9 113.5v17h263v-68q0 -62 -16.5 -117.5t-49.5 -104t-62.5 -82t-75.5 -77.5q-50 -46 -73 -69
q-35 -33 -62 -68q-59 -74 -59 -144q0 -73 47.5 -113t131.5 -40q108 0 170.5 55.5t95.5 157.5l13 43l222 -102l-8 -28q-51 -159 -180.5 -257.5t-312.5 -98.5z" />
    <glyph glyph-name="Agrave" unicode="&#xc0;" horiz-adv-x="1506" 
d="M811 1995l202 -384h-240l-236 384h274zM488 393l-142 -393h-278l564 1500h242l564 -1500h-279l-140 393h-531zM934 624l-181 500l-181 -500h362z" />
    <glyph glyph-name="Aacute" unicode="&#xc1;" horiz-adv-x="1506" 
d="M1019 1995l-235 -384h-241l202 384h274zM488 393l-142 -393h-278l564 1500h242l564 -1500h-279l-140 393h-531zM934 624l-181 500l-181 -500h362z" />
    <glyph glyph-name="Acircumflex" unicode="&#xc2;" horiz-adv-x="1506" 
d="M753 1781l-128 -170h-264l291 384h200l296 -384h-264zM488 393l-142 -393h-278l564 1500h242l564 -1500h-279l-140 393h-531zM934 624l-181 500l-181 -500h362z" />
    <glyph glyph-name="Atilde" unicode="&#xc3;" horiz-adv-x="1506" 
d="M905 1611q-73 0 -151 45q-4 2 -22.5 12.5t-27.5 15.5q-21 11 -36 11q-8 0 -15 -17q-7 -18 -7 -40l-1 -18h-221l2 37q4 60 28.5 113t79 91t128.5 38q70 0 150 -44l24.5 -14t26.5 -14q21 -11 36 -11q9 0 15 17q3 7 5 22l3 22l2 15h217l-2 -36q-3 -45 -17.5 -86.5t-41.5 -78
t-72 -58.5t-103 -22zM488 393l-142 -393h-278l564 1500h242l564 -1500h-279l-140 393h-531zM934 624l-181 500l-181 -500h362z" />
    <glyph glyph-name="Adieresis" unicode="&#xc4;" horiz-adv-x="1506" 
d="M536 1597q-74 0 -120 47.5t-46 111.5q0 63 47 110t119 47t118.5 -47.5t46.5 -109.5q0 -64 -45.5 -111.5t-119.5 -47.5zM962 1597q-74 0 -120 47.5t-46 111.5q0 63 47 110t119 47t118.5 -47.5t46.5 -109.5q0 -64 -45.5 -111.5t-119.5 -47.5zM488 393l-142 -393h-278
l564 1500h242l564 -1500h-279l-140 393h-531zM934 624l-181 500l-181 -500h362z" />
    <glyph glyph-name="Aring" unicode="&#xc5;" horiz-adv-x="1506" 
d="M751 1611q-106 0 -174 69t-68 161t68 160t174 68q105 0 174.5 -68t69.5 -160q0 -93 -69 -161.5t-175 -68.5zM750 1759q34 0 57 24.5t23 59.5q0 33 -23 55t-57 22q-33 0 -54.5 -21t-21.5 -56t22.5 -59.5t53.5 -24.5zM488 393l-142 -393h-278l564 1500h242l564 -1500h-279
l-140 393h-531zM934 624l-181 500l-181 -500h362z" />
    <glyph glyph-name="AE" unicode="&#xc6;" horiz-adv-x="1840" 
d="M510 393l-142 -393h-278l564 1500l1096 3v-230h-765v-380h670v-231h-670v-428h765v-231h-1030v390h-210zM720 624v348l-126 -348h126z" />
    <glyph glyph-name="Ccedilla" unicode="&#xc7;" horiz-adv-x="1602" 
d="M795 -388q-140 0 -262 108l-20 18l106 172l19 -21q69 -78 147 -78q53 0 53 47q0 53 -78 109q-27 19 -40 21q-57 9 -58 9q-76 17 -139 46q-146 66 -245.5 181t-143.5 247.5t-44 278.5q0 193 74 351q89 193 267.5 307t410.5 114q215 0 385 -101.5t268 -274.5l9 -15l7 -15
l-226 -120l-10 19q-59 124 -173 199.5t-260 75.5q-156 0 -270.5 -80t-170.5 -215q-47 -111 -47 -245q0 -136 47 -247q56 -134 170.5 -214t270.5 -80q145 0 255 72t178 196l10 18l223 -123l-8 -14q-76 -138 -206 -235.5t-294 -130.5q58 -71 58 -156q0 -100 -74.5 -162
t-188.5 -62z" />
    <glyph glyph-name="Egrave" unicode="&#xc8;" horiz-adv-x="1179" 
d="M605 1995l201 -384h-240l-234 384h273zM1104 231v-231h-1030v1500h1030v-230h-766v-380h671v-231h-671v-428h766z" />
    <glyph glyph-name="Eacute" unicode="&#xc9;" horiz-adv-x="1179" 
d="M928 1995l-236 -384h-239l200 384h275zM1104 231v-231h-1030v1500h1030v-230h-766v-380h671v-231h-671v-428h766z" />
    <glyph glyph-name="Ecircumflex" unicode="&#xca;" horiz-adv-x="1179" 
d="M594 1783l-128 -170h-263l291 384h200l295 -384h-263zM1104 231v-231h-1030v1500h1030v-230h-766v-380h671v-231h-671v-428h766z" />
    <glyph glyph-name="Edieresis" unicode="&#xcb;" horiz-adv-x="1179" 
d="M391 1601q-74 0 -120 47.5t-46 111.5q0 63 47 110t119 47t118.5 -47.5t46.5 -109.5q0 -64 -45.5 -111.5t-119.5 -47.5zM817 1601q-74 0 -120 47.5t-46 111.5q0 63 47 110t119 47t118.5 -47.5t46.5 -109.5q0 -64 -45.5 -111.5t-119.5 -47.5zM1104 231v-231h-1030v1500
h1030v-230h-766v-380h671v-231h-671v-428h766z" />
    <glyph glyph-name="Igrave" unicode="&#xcc;" horiz-adv-x="456" 
d="M274 1995l202 -384h-240l-237 384h275zM362 1500v-1500h-263v1500h263z" />
    <glyph glyph-name="Iacute" unicode="&#xcd;" horiz-adv-x="456" 
d="M477 1995l-235 -384h-240l202 384h273zM358 1500v-1500h-263v1500h263z" />
    <glyph glyph-name="Icircumflex" unicode="&#xce;" horiz-adv-x="465" 
d="M227 1782l-129 -171h-263l291 385h200l296 -385h-264zM364 1500v-1500h-264v1500h264z" />
    <glyph glyph-name="Idieresis" unicode="&#xcf;" horiz-adv-x="397" 
d="M-7 1610q-74 0 -120 47.5t-46 111.5q0 63 47 110t119 47t118.5 -47.5t46.5 -109.5q0 -64 -45.5 -111.5t-119.5 -47.5zM419 1610q-74 0 -120 47.5t-46 111.5q0 63 47 110t119 47t118.5 -47.5t46.5 -109.5q0 -64 -45.5 -111.5t-119.5 -47.5zM330 1500v-1500h-264v1500h264z
" />
    <glyph glyph-name="Ntilde" unicode="&#xd1;" horiz-adv-x="1335" 
d="M776 1611q-72 0 -150 45q-8 4 -24.5 14t-24.5 14q-21 11 -36 11q-9 0 -16 -16q-4 -13 -5 -22l-3 -21l-2 -16h-218l2 37q4 60 28.5 113t79 91t128.5 38q70 0 150 -44q32 -20 50 -28q21 -11 35 -11q9 0 16 17q6 16 8 42v17h219l-2 -36q-2 -45 -16.5 -86.5t-42 -78
t-73 -58.5t-103.5 -22zM338 999v-999h-264v1500h220l702 -993v993h263v-1500h-220z" />
    <glyph glyph-name="Ograve" unicode="&#xd2;" horiz-adv-x="1653" 
d="M870 1995l202 -384h-241l-234 384h273zM826 -24q-241 0 -423 123t-266 325q-63 149 -63 326q0 176 63 325q84 202 266.5 324.5t422.5 122.5q247 0 431.5 -128t265.5 -338q56 -146 56 -306q0 -162 -56 -308q-81 -209 -266 -337.5t-431 -128.5zM826 209q163 0 280.5 87
t170.5 231q37 101 37 223q0 121 -37 223q-53 143 -170.5 230t-280.5 87q-159 0 -275 -83.5t-170 -221.5q-43 -107 -43 -235t43 -236q54 -139 170 -222t275 -83z" />
    <glyph glyph-name="Oacute" unicode="&#xd3;" horiz-adv-x="1653" 
d="M1096 1995l-235 -384h-241l203 384h273zM826 -24q-241 0 -423 123t-266 325q-63 149 -63 326q0 176 63 325q84 202 266.5 324.5t422.5 122.5q247 0 431.5 -128t265.5 -338q56 -146 56 -306q0 -162 -56 -308q-81 -209 -266 -337.5t-431 -128.5zM826 209q163 0 280.5 87
t170.5 231q37 101 37 223q0 121 -37 223q-53 143 -170.5 230t-280.5 87q-159 0 -275 -83.5t-170 -221.5q-43 -107 -43 -235t43 -236q54 -139 170 -222t275 -83z" />
    <glyph glyph-name="Ocircumflex" unicode="&#xd4;" horiz-adv-x="1653" 
d="M825 1781l-129 -170h-262l291 384h200l295 -384h-263zM826 -24q-241 0 -423 123t-266 325q-63 149 -63 326q0 176 63 325q84 202 266.5 324.5t422.5 122.5q247 0 431.5 -128t265.5 -338q56 -146 56 -306q0 -162 -56 -308q-81 -209 -266 -337.5t-431 -128.5zM826 209
q163 0 280.5 87t170.5 231q37 101 37 223q0 121 -37 223q-53 143 -170.5 230t-280.5 87q-159 0 -275 -83.5t-170 -221.5q-43 -107 -43 -235t43 -236q54 -139 170 -222t275 -83z" />
    <glyph glyph-name="Otilde" unicode="&#xd5;" horiz-adv-x="1653" 
d="M948 1610q-73 0 -151 45q-36 22 -50 29q-24 11 -36 11q-8 0 -15 -17q-6 -16 -8 -42l-2 -16h-219l2 36q3 44 18.5 85.5t43 77.5t73 58t101.5 22q74 0 152 -45q6 -3 23 -13.5t26 -14.5q21 -11 36 -11q8 0 14 18q5 12 8 42l1 17h220l-2 -36q-3 -44 -18 -86t-42 -78.5
t-72.5 -59t-102.5 -22.5zM826 -24q-241 0 -423 123t-266 325q-63 149 -63 326q0 176 63 325q84 202 266.5 324.5t422.5 122.5q247 0 431.5 -128t265.5 -338q56 -146 56 -306q0 -162 -56 -308q-81 -209 -266 -337.5t-431 -128.5zM826 209q163 0 280.5 87t170.5 231
q37 101 37 223q0 121 -37 223q-53 143 -170.5 230t-280.5 87q-159 0 -275 -83.5t-170 -221.5q-43 -107 -43 -235t43 -236q54 -139 170 -222t275 -83z" />
    <glyph glyph-name="Odieresis" unicode="&#xd6;" horiz-adv-x="1653" 
d="M616 1601q-74 0 -120 47.5t-46 111.5q0 63 47 110t119 47t118.5 -47.5t46.5 -109.5q0 -64 -45.5 -111.5t-119.5 -47.5zM1042 1601q-74 0 -120 47.5t-46 111.5q0 63 47 110t119 47t118.5 -47.5t46.5 -109.5q0 -64 -45.5 -111.5t-119.5 -47.5zM826 -24q-241 0 -423 123
t-266 325q-63 149 -63 326q0 176 63 325q84 202 266.5 324.5t422.5 122.5q247 0 431.5 -128t265.5 -338q56 -146 56 -306q0 -162 -56 -308q-81 -209 -266 -337.5t-431 -128.5zM826 209q163 0 280.5 87t170.5 231q37 101 37 223q0 121 -37 223q-53 143 -170.5 230t-280.5 87
q-159 0 -275 -83.5t-170 -221.5q-43 -107 -43 -235t43 -236q54 -139 170 -222t275 -83z" />
    <glyph glyph-name="multiply" unicode="&#xd7;" horiz-adv-x="1280" 
d="M914 307l-274 268l-274 -268l-176 171l274 270l-272 266l176 172l272 -267l272 267l176 -172l-272 -266l274 -270z" />
    <glyph glyph-name="Oslash" unicode="&#xd8;" horiz-adv-x="1684" 
d="M637 3l-48 -94h-285l99 202q-157 110 -235 279.5t-78 359.5q0 184 69 339q87 197 267.5 315t415.5 118q100 0 203 -25l32 72h285l-82 -180q159 -109 237 -279t78 -360q0 -182 -70 -341q-87 -197 -267 -315t-416 -118q-100 0 -205 27zM509 339l436 941q-49 10 -103 10
q-158 0 -274.5 -83t-170.5 -220q-43 -109 -43 -237q0 -118 38 -225.5t117 -185.5zM842 209q158 0 274 82.5t171 220.5q43 105 43 238q0 118 -38 225.5t-118 184.5l-436 -941q49 -10 104 -10z" />
    <glyph glyph-name="Ugrave" unicode="&#xd9;" horiz-adv-x="1277" 
d="M582 1995l202 -384h-241l-235 384h274zM638 -24q-259 0 -411.5 142t-152.5 370v1012h266v-1012q0 -118 83 -198.5t215 -80.5q130 0 214 81t84 198v1012h266v-1012q0 -227 -153 -369.5t-411 -142.5z" />
    <glyph glyph-name="Uacute" unicode="&#xda;" horiz-adv-x="1277" 
d="M903 1995l-236 -384h-240l202 384h274zM638 -24q-259 0 -411.5 142t-152.5 370v1012h266v-1012q0 -118 83 -198.5t215 -80.5q130 0 214 81t84 198v1012h266v-1012q0 -227 -153 -369.5t-411 -142.5z" />
    <glyph glyph-name="Ucircumflex" unicode="&#xdb;" horiz-adv-x="1277" 
d="M624 1781l-129 -170h-263l291 384h200l295 -384h-263zM638 -24q-259 0 -411.5 142t-152.5 370v1012h266v-1012q0 -118 83 -198.5t215 -80.5q130 0 214 81t84 198v1012h266v-1012q0 -227 -153 -369.5t-411 -142.5z" />
    <glyph glyph-name="Udieresis" unicode="&#xdc;" horiz-adv-x="1277" 
d="M426 1629q-74 0 -120 47.5t-46 111.5q0 63 47 110t119 47t118.5 -47.5t46.5 -109.5q0 -64 -45.5 -111.5t-119.5 -47.5zM852 1629q-74 0 -120 47.5t-46 111.5q0 63 47 110t119 47t118.5 -47.5t46.5 -109.5q0 -64 -45.5 -111.5t-119.5 -47.5zM638 -24q-259 0 -411.5 142
t-152.5 370v1012h266v-1012q0 -118 83 -198.5t215 -80.5q130 0 214 81t84 198v1012h266v-1012q0 -227 -153 -369.5t-411 -142.5z" />
    <glyph glyph-name="Yacute" unicode="&#xdd;" horiz-adv-x="1473" 
d="M1017 1989l-235 -384h-241l203 384h273zM868 687v-687h-263v687l-544 813h297l379 -564l375 564h298z" />
    <glyph glyph-name="germandbls" unicode="&#xdf;" horiz-adv-x="1326" 
d="M360 1064v-1064h-270v1073q0 178 125.5 297.5t328.5 119.5h181q203 0 328.5 -119.5t125.5 -297.5q0 -177 -125 -290q89 -64 136 -155.5t47 -195.5q0 -204 -140 -318t-373 -114h-229l-1 230h230q113 0 177.5 52t64.5 150q0 100 -65 160.5t-177 60.5h-232v230h220
q92 0 145 49.5t53 131.5q0 83 -54 139t-144 56h-155q-90 0 -143.5 -56t-53.5 -139z" />
    <glyph glyph-name="agrave" unicode="&#xe0;" horiz-adv-x="1070" 
d="M588 1577l200 -383h-239l-233 383h272zM483 -23q-178 0 -293.5 95.5t-115.5 251.5q0 56 20.5 105.5t54.5 85.5t81.5 66t98.5 49t109 32l314 70q-6 68 -63 105t-142 37q-88 0 -136 -30.5t-49 -100.5q0 -3 0.5 -8.5t0.5 -7.5l1 -18l-254 -3v36q0 139 80.5 229.5
t235.5 119.5q63 13 120 13q198 0 324 -105t126 -280v-719h-244v66q-121 -89 -269 -89zM483 206q123 0 196 81.5t73 196.5v32l-253 -57q-71 -16 -121.5 -51t-50.5 -85q0 -57 43 -87t113 -30z" />
    <glyph glyph-name="aacute" unicode="&#xe1;" horiz-adv-x="1070" 
d="M795 1577l-234 -383h-239l201 383h272zM483 -23q-178 0 -293.5 95.5t-115.5 251.5q0 56 20.5 105.5t54.5 85.5t81.5 66t98.5 49t109 32l314 70q-6 68 -63 105t-142 37q-88 0 -136 -30.5t-49 -100.5q0 -3 0.5 -8.5t0.5 -7.5l1 -18l-254 -3v36q0 139 80.5 229.5
t235.5 119.5q63 13 120 13q198 0 324 -105t126 -280v-719h-244v66q-121 -89 -269 -89zM483 206q123 0 196 81.5t73 196.5v32l-253 -57q-71 -16 -121.5 -51t-50.5 -85q0 -57 43 -87t113 -30z" />
    <glyph glyph-name="acircumflex" unicode="&#xe2;" horiz-adv-x="1070" 
d="M534 1359l-128 -169h-261l289 383h199l293 -383h-262zM483 -23q-178 0 -293.5 95.5t-115.5 251.5q0 56 20.5 105.5t54.5 85.5t81.5 66t98.5 49t109 32l314 70q-6 68 -63 105t-142 37q-88 0 -136 -30.5t-49 -100.5q0 -3 0.5 -8.5t0.5 -7.5l1 -18l-254 -3v36
q0 139 80.5 229.5t235.5 119.5q63 13 120 13q198 0 324 -105t126 -280v-719h-244v66q-121 -89 -269 -89zM483 206q123 0 196 81.5t73 196.5v32l-253 -57q-71 -16 -121.5 -51t-50.5 -85q0 -57 43 -87t113 -30z" />
    <glyph glyph-name="atilde" unicode="&#xe3;" horiz-adv-x="1070" 
d="M680 1194q-68 0 -149 45q-36 22 -50 29q-22 11 -34 11q-8 0 -15 -17q-4 -14 -5 -21l-3 -21l-2 -16h-217l2 36q3 60 27.5 113t78.5 91t128 38q71 0 149 -45q6 -3 23.5 -13t26.5 -15q24 -11 34 -11q9 0 16 18q6 16 8 42v17h218l-2 -37q-2 -44 -17 -86t-42 -78t-72.5 -58
t-102.5 -22zM483 -23q-178 0 -293.5 95.5t-115.5 251.5q0 56 20.5 105.5t54.5 85.5t81.5 66t98.5 49t109 32l314 70q-6 68 -63 105t-142 37q-88 0 -136 -30.5t-49 -100.5q0 -3 0.5 -8.5t0.5 -7.5l1 -18l-254 -3v36q0 139 80.5 229.5t235.5 119.5q63 13 120 13
q198 0 324 -105t126 -280v-719h-244v66q-121 -89 -269 -89zM483 206q123 0 196 81.5t73 196.5v32l-253 -57q-71 -16 -121.5 -51t-50.5 -85q0 -57 43 -87t113 -30z" />
    <glyph glyph-name="adieresis" unicode="&#xe4;" horiz-adv-x="1070" 
d="M326 1188q-74 0 -120 47.5t-46 111.5q0 63 47 110t119 47t118.5 -47.5t46.5 -109.5q0 -64 -45.5 -111.5t-119.5 -47.5zM752 1188q-74 0 -120 47.5t-46 111.5q0 63 47 110t119 47t118.5 -47.5t46.5 -109.5q0 -64 -45.5 -111.5t-119.5 -47.5zM483 -23q-178 0 -293.5 95.5
t-115.5 251.5q0 56 20.5 105.5t54.5 85.5t81.5 66t98.5 49t109 32l314 70q-6 68 -63 105t-142 37q-88 0 -136 -30.5t-49 -100.5q0 -3 0.5 -8.5t0.5 -7.5l1 -18l-254 -3v36q0 139 80.5 229.5t235.5 119.5q63 13 120 13q198 0 324 -105t126 -280v-719h-244v66
q-121 -89 -269 -89zM483 206q123 0 196 81.5t73 196.5v32l-253 -57q-71 -16 -121.5 -51t-50.5 -85q0 -57 43 -87t113 -30z" />
    <glyph glyph-name="aring" unicode="&#xe5;" horiz-adv-x="1070" 
d="M544 1225q-106 0 -174 69t-68 161t68 160t174 68q105 0 174.5 -68t69.5 -160q0 -93 -69 -161.5t-175 -68.5zM543 1373q34 0 57 24.5t23 59.5q0 33 -23 55t-57 22q-33 0 -54.5 -21t-21.5 -56t22.5 -59.5t53.5 -24.5zM483 -23q-178 0 -293.5 95.5t-115.5 251.5
q0 56 20.5 105.5t54.5 85.5t81.5 66t98.5 49t109 32l314 70q-6 68 -63 105t-142 37q-88 0 -136 -30.5t-49 -100.5q0 -3 0.5 -8.5t0.5 -7.5l1 -18l-254 -3v36q0 139 80.5 229.5t235.5 119.5q63 13 120 13q198 0 324 -105t126 -280v-719h-244v66q-121 -89 -269 -89zM483 206
q123 0 196 81.5t73 196.5v32l-253 -57q-71 -16 -121.5 -51t-50.5 -85q0 -57 43 -87t113 -30z" />
    <glyph glyph-name="ae" unicode="&#xe6;" horiz-adv-x="1985" 
d="M499 -23q-178 0 -293.5 95.5t-115.5 251.5q0 70 30.5 128.5t83.5 98.5t115 67.5t135 43.5l314 70q-6 68 -63 105t-142 37q-88 0 -136 -30.5t-49 -100.5q0 -3 0.5 -8.5t0.5 -7.5l1 -18l-254 -3v36q0 138 78.5 228t230.5 120q65 14 127 14q111 0 208 -37t159 -112
q158 156 392 156q179 0 314 -92.5t197 -243.5q44 -109 44 -231q0 -12 -0.5 -37t-0.5 -38v-17h-840q26 -104 100.5 -172.5t185.5 -68.5q89 0 158.5 47.5t107.5 124.5l10 20l219 -131l-18 -28q-36 -54 -58 -80q-77 -89 -185 -138t-234 -49t-234.5 48.5t-184.5 137.5
q-166 -186 -403 -186zM1044 673h554q-31 92 -103 148.5t-174 56.5t-174 -57t-103 -148zM499 206q123 0 196 81.5t73 196.5v32l-253 -57q-71 -16 -121.5 -51t-50.5 -85q0 -57 43 -87t113 -30z" />
    <glyph glyph-name="ccedilla" unicode="&#xe7;" horiz-adv-x="1198" 
d="M620 -384q-77 0 -149 32t-123 85l-9 9l106 170l19 -21q70 -77 145 -77q53 0 53 46t-84 107l-14 10l-6 3q-5 0 -8 1l-11 1q-9 1 -27 5q-58 11 -108 31q-110 46 -186 131.5t-110 184.5t-34 207q0 140 54 257q65 141 197 225.5t303 84.5q127 0 236 -49.5t186 -139.5
q26 -31 55 -77l18 -28l-218 -130l-10 19q-95 173 -267 173q-96 0 -165 -50t-100 -124t-31 -161q0 -63 18.5 -121.5t54 -106.5t93.5 -76.5t130 -28.5q89 0 158 47t108 126l10 19l219 -131l-18 -28q-33 -49 -43 -62q-98 -125 -250 -175q69 -75 69 -167q0 -99 -74.5 -160
t-186.5 -61z" />
    <glyph glyph-name="egrave" unicode="&#xe8;" 
d="M684 1577l201 -383h-240l-233 383h272zM628 -24q-168 0 -298.5 81.5t-197.5 219.5q-58 122 -58 264q0 143 58 265q67 138 197.5 220t298.5 82t299 -82t198 -220q58 -122 58 -265q0 -12 -0.5 -36.5t-0.5 -36.5v-18h-840q25 -105 99.5 -173.5t186.5 -68.5q89 0 158.5 47.5
t107.5 124.5l10 20l219 -131l-18 -28q-32 -51 -61 -84q-77 -87 -184.5 -134t-231.5 -47zM351 671h554q-31 92 -103 148.5t-174 56.5q-101 0 -173.5 -57t-103.5 -148z" />
    <glyph glyph-name="eacute" unicode="&#xe9;" 
d="M891 1577l-234 -383h-239l201 383h272zM628 -24q-168 0 -298.5 81.5t-197.5 219.5q-58 122 -58 264q0 143 58 265q67 138 197.5 220t298.5 82t299 -82t198 -220q58 -122 58 -265q0 -12 -0.5 -36.5t-0.5 -36.5v-18h-840q25 -105 99.5 -173.5t186.5 -68.5q89 0 158.5 47.5
t107.5 124.5l10 20l219 -131l-18 -28q-32 -51 -61 -84q-77 -87 -184.5 -134t-231.5 -47zM351 671h554q-31 92 -103 148.5t-174 56.5q-101 0 -173.5 -57t-103.5 -148z" />
    <glyph glyph-name="ecircumflex" unicode="&#xea;" 
d="M624 1363l-128 -169h-261l289 383h199l293 -383h-262zM628 -24q-179 0 -314 91.5t-196 241.5q-44 105 -44 232t44 233q61 150 196 242t314 92q125 0 231 -45t176 -120t109.5 -172t39.5 -203q0 -17 -1 -50.5t-1 -49.5v-18h-840q25 -105 99.5 -173.5t186.5 -68.5
q89 0 158.5 47.5t107.5 124.5l10 20l219 -131l-18 -28q-39 -59 -58 -80q-77 -89 -185 -137t-234 -48zM351 671h554q-31 92 -103 148.5t-174 56.5q-101 0 -173.5 -57t-103.5 -148z" />
    <glyph glyph-name="edieresis" unicode="&#xeb;" 
d="M411 1160q-74 0 -120 47.5t-46 111.5q0 63 47 110t119 47t118.5 -47.5t46.5 -109.5q0 -64 -45.5 -111.5t-119.5 -47.5zM837 1160q-74 0 -120 47.5t-46 111.5q0 63 47 110t119 47t118.5 -47.5t46.5 -109.5q0 -64 -45.5 -111.5t-119.5 -47.5zM628 -24q-179 0 -314 91.5
t-196 241.5q-44 105 -44 232t44 233q61 150 196 242t314 92q125 0 231 -45t176 -120t109.5 -172t39.5 -203q0 -17 -1 -50.5t-1 -49.5v-18h-840q25 -105 99.5 -173.5t186.5 -68.5q89 0 158 47.5t108 124.5l10 20l219 -131l-18 -28q-39 -59 -58 -80q-77 -89 -185 -137
t-234 -48zM351 671h554q-31 92 -103 148.5t-174 56.5q-101 0 -173.5 -57t-103.5 -148z" />
    <glyph glyph-name="igrave" unicode="&#xec;" horiz-adv-x="438" 
d="M262 1577l200 -383h-238l-235 383h273zM344 1081v-1081h-243v1081h243z" />
    <glyph glyph-name="iacute" unicode="&#xed;" horiz-adv-x="438" 
d="M464 1577l-234 -383h-239l201 383h272zM339 1081v-1081h-244v1081h244z" />
    <glyph glyph-name="icircumflex" unicode="&#xee;" horiz-adv-x="453" 
d="M232 1363l-126 -169h-263l289 383h199l294 -383h-263zM349 1081v-1081h-244v1081h244z" />
    <glyph glyph-name="idieresis" unicode="&#xef;" horiz-adv-x="384" 
d="M-15 1160q-74 0 -120 47.5t-46 111.5q0 63 47 110t119 47t118.5 -47.5t46.5 -109.5q0 -64 -45.5 -111.5t-119.5 -47.5zM411 1160q-74 0 -120 47.5t-46 111.5q0 63 47 110t119 47t118.5 -47.5t46.5 -109.5q0 -64 -45.5 -111.5t-119.5 -47.5zM314 1081v-1081h-243v1081h243
z" />
    <glyph glyph-name="ntilde" unicode="&#xf1;" horiz-adv-x="1058" 
d="M673 1194q-68 0 -149 45q-36 22 -50 29q-22 11 -34 11q-8 0 -15 -17q-4 -14 -5 -21l-3 -21l-2 -16h-217l2 36q5 95 65.5 168.5t168.5 73.5q71 0 149 -45q6 -3 23.5 -13t26.5 -15q24 -11 35 -11q8 0 15 18q6 16 8 42v17h218l-2 -37q-2 -44 -17 -86t-42 -78t-72.5 -58
t-102.5 -22zM317 649v-649h-243v1081h243v-25q97 47 210 47q200 0 328 -114.5t128 -290.5v-698h-245v649q0 98 -53.5 161.5t-155.5 63.5q-103 0 -157.5 -64t-54.5 -161z" />
    <glyph glyph-name="ograve" unicode="&#xf2;" 
d="M647 1577l201 -383h-239l-235 383h273zM628 -24q-177 0 -311.5 90t-196.5 239q-46 108 -46 236q0 108 36.5 208.5t104.5 181t175 129t238 48.5q182 0 318 -94t196 -249q41 -105 41 -224q0 -128 -46 -236q-62 -149 -197 -239t-312 -90zM628 208q95 0 164 49.5t100.5 123.5
t31.5 160q0 64 -18.5 122.5t-54 107t-93.5 77t-130 28.5q-96 0 -165 -50t-100 -124t-31 -161q0 -63 18.5 -121.5t54 -106.5t93.5 -76.5t130 -28.5z" />
    <glyph glyph-name="oacute" unicode="&#xf3;" 
d="M891 1577l-234 -383h-239l201 383h272zM628 -24q-177 0 -311.5 90t-196.5 239q-46 108 -46 236q0 108 36.5 208.5t104.5 181t175 129t238 48.5q182 0 318 -94t196 -249q41 -105 41 -224q0 -128 -46 -236q-62 -149 -197 -239t-312 -90zM628 208q95 0 164 49.5t100.5 123.5
t31.5 160q0 64 -18.5 122.5t-54 107t-93.5 77t-130 28.5q-96 0 -165 -50t-100 -124t-31 -161q0 -63 18.5 -121.5t54 -106.5t93.5 -76.5t130 -28.5z" />
    <glyph glyph-name="ocircumflex" unicode="&#xf4;" 
d="M619 1363l-127 -169h-262l289 383h199l293 -383h-262zM628 -24q-177 0 -311.5 90t-196.5 239q-46 108 -46 236q0 108 36.5 208.5t104.5 181t175 129t238 48.5q182 0 318 -94t196 -249q41 -105 41 -224q0 -128 -46 -236q-62 -149 -197 -239t-312 -90zM628 208
q95 0 164 49.5t100.5 123.5t31.5 160q0 64 -18.5 122.5t-54 107t-93.5 77t-130 28.5q-96 0 -165 -50t-100 -124t-31 -161q0 -63 18.5 -121.5t54 -106.5t93.5 -76.5t130 -28.5z" />
    <glyph glyph-name="otilde" unicode="&#xf5;" 
d="M726 1193q-71 0 -150 45q-37 23 -49 29q-24 11 -36 11q-7 0 -14 -17q-7 -20 -7 -41l-1 -17h-220l2 37q3 43 18 84.5t42.5 77t72.5 57.5t101 22q72 0 150 -45q4 -2 22.5 -12.5t27.5 -15.5q21 -10 35 -10q9 0 15 17q3 7 5 22l3 21l2 16h216l-2 -37q-3 -44 -17.5 -85.5
t-41.5 -78t-72 -58.5t-102 -22zM628 -24q-177 0 -311.5 90t-196.5 239q-46 108 -46 236q0 108 36.5 208.5t104.5 181t175 129t238 48.5q182 0 318 -94t196 -249q41 -105 41 -224q0 -128 -46 -236q-62 -149 -197 -239t-312 -90zM628 208q95 0 164 49.5t100.5 123.5t31.5 160
q0 64 -18.5 122.5t-54 107t-93.5 77t-130 28.5q-96 0 -165 -50t-100 -124t-31 -161q0 -63 18.5 -121.5t54 -106.5t93.5 -76.5t130 -28.5z" />
    <glyph glyph-name="odieresis" unicode="&#xf6;" 
d="M411 1160q-74 0 -120 47.5t-46 111.5q0 63 47 110t119 47t118.5 -47.5t46.5 -109.5q0 -64 -45.5 -111.5t-119.5 -47.5zM837 1160q-74 0 -120 47.5t-46 111.5q0 63 47 110t119 47t118.5 -47.5t46.5 -109.5q0 -64 -45.5 -111.5t-119.5 -47.5zM628 -24q-177 0 -311.5 90
t-196.5 239q-46 108 -46 236q0 108 36.5 208.5t104.5 181t175 129t238 48.5q182 0 318 -94t196 -249q41 -105 41 -224q0 -128 -46 -236q-62 -149 -197 -239t-312 -90zM628 208q95 0 164 49.5t100.5 123.5t31.5 160q0 64 -18.5 122.5t-54 107t-93.5 77t-130 28.5
q-96 0 -165 -50t-100 -124t-31 -161q0 -63 18.5 -121.5t54 -106.5t93.5 -76.5t130 -28.5z" />
    <glyph glyph-name="divide" unicode="&#xf7;" horiz-adv-x="1386" 
d="M825 1296v-305h-264v305h264zM1186 866v-239h-986v239h986zM825 503v-305h-264v305h264z" />
    <glyph glyph-name="oslash" unicode="&#xf8;" 
d="M1158 765q41 -105 41 -224q0 -128 -46 -236q-62 -149 -197 -239t-312 -90q-34 0 -76 5l-70 -151h-283l112 240q-129 87 -191 235q-46 108 -46 236q0 108 36.5 208.5t104.5 181t175 129t238 48.5q81 0 155 -20l74 160h282l-131 -284q88 -82 134 -199zM348 541
q0 -148 85 -242l265 573q-34 4 -54 4q-96 0 -165 -50t-100 -124t-31 -161zM905 708l-231 -499q86 8 148 58.5t90 121.5t28 152q0 89 -35 167z" />
    <glyph glyph-name="ugrave" unicode="&#xf9;" horiz-adv-x="1058" 
d="M522 1577l201 -383h-239l-235 383h273zM529 -21q-200 0 -327.5 114.5t-127.5 290.5v697h243v-649q0 -97 54 -160t156 -63q103 0 157 63t54 160v649h245v-1081h-245v25q-98 -46 -209 -46z" />
    <glyph glyph-name="uacute" unicode="&#xfa;" horiz-adv-x="1058" 
d="M788 1577l-234 -383h-239l201 383h272zM529 -21q-200 0 -327.5 114.5t-127.5 290.5v697h243v-649q0 -97 54 -160t156 -63q103 0 157 63t54 160v649h245v-1081h-245v25q-98 -46 -209 -46z" />
    <glyph glyph-name="ucircumflex" unicode="&#xfb;" horiz-adv-x="1058" 
d="M522 1363l-127 -169h-262l289 383h199l293 -383h-262zM529 -21q-200 0 -327.5 114.5t-127.5 290.5v697h243v-649q0 -97 54 -160t156 -63q103 0 157 63t54 160v649h245v-1081h-245v25q-98 -46 -209 -46z" />
    <glyph glyph-name="udieresis" unicode="&#xfc;" horiz-adv-x="1058" 
d="M326 1188q-74 0 -120 47.5t-46 111.5q0 63 47 110t119 47t118.5 -47.5t46.5 -109.5q0 -64 -45.5 -111.5t-119.5 -47.5zM752 1188q-74 0 -120 47.5t-46 111.5q0 63 47 110t119 47t118.5 -47.5t46.5 -109.5q0 -64 -45.5 -111.5t-119.5 -47.5zM529 -21q-200 0 -327.5 114.5
t-127.5 290.5v697h243v-649q0 -97 54 -160t156 -63q103 0 157 63t54 160v649h245v-1081h-245v25q-98 -46 -209 -46z" />
    <glyph glyph-name="yacute" unicode="&#xfd;" horiz-adv-x="1263" 
d="M935 1577l-235 -383h-239l201 383h273zM1194 1081l-626 -1492h-267l189 470l-424 1022h276l289 -698l287 698h276z" />
    <glyph glyph-name="ydieresis" unicode="&#xff;" horiz-adv-x="1263" 
d="M437 1188q-74 0 -120 47.5t-46 111.5q0 63 47 110t119 47t118.5 -47.5t46.5 -109.5q0 -64 -45.5 -111.5t-119.5 -47.5zM863 1188q-74 0 -120 47.5t-46 111.5q0 63 47 110t119 47t118.5 -47.5t46.5 -109.5q0 -64 -45.5 -111.5t-119.5 -47.5zM1194 1081l-626 -1492h-267
l189 470l-424 1022h276l289 -698l287 698h276z" />
    <glyph glyph-name="Amacron" unicode="&#x100;" horiz-adv-x="1506" 
d="M1022 1822v-211h-527v211h527zM488 393l-142 -393h-278l564 1500h242l564 -1500h-279l-140 393h-531zM934 624l-181 500l-181 -500h362z" />
    <glyph glyph-name="amacron" unicode="&#x101;" horiz-adv-x="1070" 
d="M798 1404v-210h-523v210h523zM483 -23q-178 0 -293.5 95.5t-115.5 251.5q0 56 20.5 105.5t54.5 85.5t81.5 66t98.5 49t109 32l314 70q-6 68 -63 105t-142 37q-88 0 -136 -30.5t-49 -100.5q0 -3 0.5 -8.5t0.5 -7.5l1 -18l-254 -3v36q0 139 80.5 229.5t235.5 119.5
q63 13 120 13q198 0 324 -105t126 -280v-719h-244v66q-121 -89 -269 -89zM483 206q123 0 196 81.5t73 196.5v32l-253 -57q-71 -16 -121.5 -51t-50.5 -85q0 -57 43 -87t113 -30z" />
    <glyph glyph-name="Abreve" unicode="&#x102;" horiz-adv-x="1506" 
d="M752 1611q-94 0 -168 48.5t-111.5 120.5t-37.5 150v36h215v-36q0 -45 29.5 -83.5t72.5 -38.5q45 0 76 38.5t31 83.5v36h214v-36q0 -79 -38 -151t-113.5 -120t-169.5 -48zM488 393l-142 -393h-278l564 1500h242l564 -1500h-279l-140 393h-531zM934 624l-181 500l-181 -500
h362z" />
    <glyph glyph-name="abreve" unicode="&#x103;" horiz-adv-x="1070" 
d="M559 1194q-94 0 -168 48t-111.5 120t-37.5 150v35h215l-1 -18q-2 -52 26.5 -95t76.5 -43q42 0 73 38.5t31 82.5v35h213v-35q0 -123 -88.5 -220.5t-228.5 -97.5zM483 -23q-178 0 -293.5 95.5t-115.5 251.5q0 56 20.5 105.5t54.5 85.5t81.5 66t98.5 49t109 32l314 70
q-6 68 -63 105t-142 37q-88 0 -136 -30.5t-49 -100.5q0 -3 0.5 -8.5t0.5 -7.5l1 -18l-254 -3v36q0 139 80.5 229.5t235.5 119.5q63 13 120 13q198 0 324 -105t126 -280v-719h-244v66q-121 -89 -269 -89zM483 206q123 0 196 81.5t73 196.5v32l-253 -57q-71 -16 -121.5 -51
t-50.5 -85q0 -57 43 -87t113 -30z" />
    <glyph glyph-name="Aogonek" unicode="&#x104;" horiz-adv-x="1497" 
d="M1242 -408q-113 0 -187.5 61t-74.5 161q0 74 44 135t117 102l-122 342h-531l-142 -393h-278l564 1500h242l558 -1485l-18 -6q-74 -26 -144.5 -75.5t-70.5 -96.5q0 -46 54 -46q73 0 146 78l19 20l108 -175l-11 -9q-123 -113 -273 -113zM934 624l-181 500l-181 -500h362z
" />
    <glyph glyph-name="aogonek" unicode="&#x105;" horiz-adv-x="1078" 
d="M781 -401q-112 0 -186.5 61t-74.5 160q0 97 75 172q-54 -15 -112 -15q-178 0 -293.5 95.5t-115.5 251.5q0 56 20.5 105.5t54.5 85.5t81.5 66t98.5 49t109 32l314 70q-6 68 -63 105t-142 37q-185 0 -185 -130v-35l-252 -3v36q0 138 78.5 228t230.5 120q65 14 127 14
q198 0 324 -105t126 -280v-709l-15 -4l-13 -4q-106 -34 -150 -59q-79 -44 -79 -100q0 -46 53 -46q72 0 145 78l19 21l107 -174l-11 -10q-125 -113 -271 -113zM483 206q123 0 196 81.5t73 196.5v32l-253 -57q-71 -16 -121.5 -51t-50.5 -85q0 -57 43 -87t113 -30z" />
    <glyph glyph-name="Cacute" unicode="&#x106;" horiz-adv-x="1565" 
d="M1085 1995l-237 -384h-240l202 384h275zM826 -24q-233 0 -412.5 116.5t-267.5 310.5q-72 158 -72 347t72 346q87 194 267 310t413 116q216 0 384.5 -101t268.5 -275l9 -15l7 -15l-227 -120l-9 19q-56 123 -172 199t-261 76q-163 0 -281.5 -87.5t-169.5 -229.5
q-37 -102 -37 -223q0 -122 37 -223q51 -143 169.5 -230.5t281.5 -87.5q145 0 256 72.5t177 195.5l10 18l223 -123l-7 -14q-94 -173 -270 -277.5t-389 -104.5z" />
    <glyph glyph-name="cacute" unicode="&#x107;" horiz-adv-x="1198" 
d="M854 1577l-235 -383h-239l201 383h273zM628 -24q-179 0 -313.5 91.5t-196.5 241.5q-44 105 -44 232t44 233q61 150 196 242t314 92q129 0 240 -51t187 -144q14 -17 50 -71l18 -28l-219 -130l-10 19q-41 79 -108.5 126t-157.5 47q-96 0 -165 -50t-100 -124t-31 -161
q0 -63 18.5 -121.5t54 -106.5t93.5 -76.5t130 -28.5q89 0 159 47.5t107 124.5l10 20l219 -131l-18 -28q-35 -53 -50 -70q-76 -93 -187 -144t-240 -51z" />
    <glyph glyph-name="Ccircumflex" unicode="&#x108;" horiz-adv-x="1565" 
d="M823 1760l-128 -170h-264l291 384h201l296 -384h-265zM826 -24q-233 0 -412.5 116.5t-267.5 310.5q-72 158 -72 347t72 346q87 194 267 310t413 116q214 0 381.5 -101t271.5 -275l9 -15l7 -15l-227 -120l-9 19q-58 123 -173.5 199t-259.5 76q-163 0 -281.5 -87.5
t-169.5 -229.5q-37 -102 -37 -223q0 -122 37 -223q51 -143 169.5 -230.5t281.5 -87.5q144 0 254 72.5t179 195.5l10 18l223 -123l-7 -14q-87 -173 -265 -277.5t-394 -104.5z" />
    <glyph glyph-name="ccircumflex" unicode="&#x109;" horiz-adv-x="1198" 
d="M618 1363l-127 -169h-262l289 383h199l293 -383h-262zM628 -24q-179 0 -313.5 91.5t-196.5 241.5q-44 105 -44 232t44 233q61 150 196 242t314 92q129 0 240 -51t187 -144q14 -17 50 -71l18 -28l-219 -130l-10 19q-41 79 -108.5 126t-157.5 47q-96 0 -165 -50t-100 -124
t-31 -161q0 -63 18.5 -121.5t54 -106.5t93.5 -76.5t130 -28.5q89 0 159 47.5t107 124.5l10 20l219 -131l-18 -28q-35 -53 -50 -70q-76 -93 -187 -144t-240 -51z" />
    <glyph glyph-name="Cdotaccent" unicode="&#x10a;" horiz-adv-x="1565" 
d="M827 1619q-74 0 -120 47.5t-46 111.5q0 63 47 110t119 47t118.5 -47.5t46.5 -109.5q0 -64 -45.5 -111.5t-119.5 -47.5zM826 -24q-233 0 -412.5 116.5t-267.5 310.5q-72 158 -72 347t72 346q87 194 267 310t413 116q214 0 381.5 -101t271.5 -275l9 -15l7 -15l-227 -120
l-9 19q-58 123 -173.5 199t-259.5 76q-163 0 -281.5 -87.5t-169.5 -229.5q-37 -102 -37 -223q0 -122 37 -223q51 -143 169.5 -230.5t281.5 -87.5q144 0 254 72.5t179 195.5l10 18l223 -123l-7 -14q-87 -173 -265 -277.5t-394 -104.5z" />
    <glyph glyph-name="cdotaccent" unicode="&#x10b;" horiz-adv-x="1198" 
d="M613 1194q-73 0 -119 47.5t-46 110.5t46.5 109.5t118.5 46.5t118 -47t46 -109q0 -63 -45.5 -110.5t-118.5 -47.5zM628 -24q-179 0 -313.5 91.5t-196.5 241.5q-44 105 -44 232t44 233q61 150 196 242t314 92q129 0 240 -51t187 -144q14 -17 50 -71l18 -28l-219 -130
l-10 19q-41 79 -108.5 126t-157.5 47q-96 0 -165 -50t-100 -124t-31 -161q0 -63 18.5 -121.5t54 -106.5t93.5 -76.5t130 -28.5q89 0 159 47.5t107 124.5l10 20l219 -131l-18 -28q-35 -53 -50 -70q-76 -93 -187 -144t-240 -51z" />
    <glyph glyph-name="Ccaron" unicode="&#x10c;" horiz-adv-x="1565" 
d="M1203 1995l-296 -384h-201l-291 384h264l128 -169l131 169h265zM826 -24q-233 0 -412.5 116.5t-267.5 310.5q-72 158 -72 347t72 346q87 194 267 310t413 116q216 0 384.5 -101t268.5 -275l9 -15l7 -15l-227 -120l-9 19q-56 123 -172 199t-261 76q-163 0 -281.5 -87.5
t-169.5 -229.5q-37 -102 -37 -223q0 -122 37 -223q51 -143 169.5 -230.5t281.5 -87.5q145 0 256 72.5t177 195.5l10 18l223 -123l-7 -14q-94 -173 -270 -277.5t-389 -104.5z" />
    <glyph glyph-name="ccaron" unicode="&#x10d;" horiz-adv-x="1198" 
d="M1010 1577l-293 -383h-199l-289 383h262l127 -169l130 169h262zM628 -24q-179 0 -313.5 91.5t-196.5 241.5q-44 105 -44 232t44 233q61 150 196 242t314 92q129 0 240 -51t187 -144q14 -17 50 -71l18 -28l-219 -130l-10 19q-41 79 -108.5 126t-157.5 47q-96 0 -165 -50
t-100 -124t-31 -161q0 -63 18.5 -121.5t54 -106.5t93.5 -76.5t130 -28.5q89 0 159 47.5t107 124.5l10 20l219 -131l-18 -28q-35 -53 -50 -70q-76 -93 -187 -144t-240 -51z" />
    <glyph glyph-name="Dcaron" unicode="&#x10e;" horiz-adv-x="1390" 
d="M974 1995l-295 -384h-201l-291 384h263l129 -169l131 169h264zM582 -2h-508v1502h508q158 0 294 -56q110 -45 196 -121.5t137.5 -169.5t78 -195t26.5 -208q0 -107 -26.5 -209t-78 -194.5t-137 -168.5t-196.5 -122q-138 -58 -294 -58zM581 225q73 0 151 27
q107 37 181.5 118t107.5 177t33 203q0 111 -37 215q-51 140 -164.5 224.5t-271.5 84.5h-248v-1048q42 0 124.5 -0.5t123.5 -0.5z" />
    <glyph glyph-name="dcaron" unicode="&#x10f;" horiz-adv-x="1242" 
d="M1036 1685l-293 -383h-199l-289 383h261l128 -169l130 169h262zM644 -24q-177 0 -310 88t-196 236q-48 112 -48 241q0 133 48 242q63 148 196.5 236.5t309.5 88.5q165 0 295 -79v461h244v-1490h-244v54q-128 -78 -295 -78zM644 208q95 0 164 49.5t100.5 123.5t31.5 160
q0 64 -18.5 122.5t-54 107t-93.5 77t-130 28.5q-96 0 -165 -50t-100 -124t-31 -161q0 -63 18.5 -121.5t54 -106.5t93.5 -76.5t130 -28.5z" />
    <glyph glyph-name="Emacron" unicode="&#x112;" horiz-adv-x="1179" 
d="M854 1822v-211h-527v211h527zM1104 231v-231h-1030v1500h1030v-230h-766v-380h671v-231h-671v-428h766z" />
    <glyph glyph-name="emacron" unicode="&#x113;" 
d="M880 1404v-210h-523v210h523zM628 -24q-179 0 -314 91.5t-196 241.5q-44 105 -44 232t44 233q61 150 196 242t314 92q125 0 231 -45t176 -120t109.5 -172t39.5 -203q0 -17 -1 -50.5t-1 -49.5v-18h-840q25 -105 99.5 -173.5t186.5 -68.5q89 0 158.5 47.5t107.5 124.5
l10 20l219 -131l-18 -28q-39 -59 -58 -80q-77 -89 -185 -137t-234 -48zM351 671h554q-31 92 -103 148.5t-174 56.5q-101 0 -173.5 -57t-103.5 -148z" />
    <glyph glyph-name="Ebreve" unicode="&#x114;" horiz-adv-x="1179" 
d="M614 1611q-94 0 -168.5 48t-112 120t-37.5 151v36h214v-36q0 -45 30 -83.5t74 -38.5t74.5 38.5t30.5 83.5v36h214v-36q0 -58 -22.5 -115t-62.5 -102.5t-101.5 -73.5t-132.5 -28zM1104 231v-231h-1030v1500h1030v-230h-766v-380h671v-231h-671v-428h766z" />
    <glyph glyph-name="ebreve" unicode="&#x115;" 
d="M635 1194q-70 0 -131 28t-101 74t-62.5 102.5t-22.5 113.5v35h215v-35q0 -45 29.5 -83t72.5 -38t73.5 38t30.5 83v35h213v-35q0 -123 -88.5 -220.5t-228.5 -97.5zM628 -24q-179 0 -314 91.5t-196 241.5q-44 105 -44 232t44 233q61 150 196 242t314 92q125 0 231 -45
t176 -120t109.5 -172t39.5 -203q0 -17 -1 -50.5t-1 -49.5v-18h-840q25 -105 99.5 -173.5t186.5 -68.5q89 0 158.5 47.5t107.5 124.5l10 20l219 -131l-18 -28q-39 -59 -58 -80q-77 -89 -185 -137t-234 -48zM351 671h554q-31 92 -103 148.5t-174 56.5q-101 0 -173.5 -57
t-103.5 -148z" />
    <glyph glyph-name="Edotaccent" unicode="&#x116;" horiz-adv-x="1179" 
d="M610 1611q-74 0 -120 47.5t-46 111.5q0 63 47 110t119 47t118.5 -47.5t46.5 -109.5q0 -64 -45.5 -111.5t-119.5 -47.5zM1104 231v-231h-1030v1500h1030v-230h-766v-380h671v-231h-671v-428h766z" />
    <glyph glyph-name="edotaccent" unicode="&#x117;" 
d="M627 1194q-73 0 -119 47.5t-46 110.5t46.5 109.5t118.5 46.5t118 -47t46 -109q0 -63 -45.5 -110.5t-118.5 -47.5zM628 -24q-179 0 -314 91.5t-196 241.5q-44 105 -44 232t44 233q61 150 196 242t314 92q125 0 231 -45t176 -120t109.5 -172t39.5 -203q0 -17 -1 -50.5
t-1 -49.5v-18h-840q25 -105 99.5 -173.5t186.5 -68.5q89 0 158.5 47.5t107.5 124.5l10 20l219 -131l-18 -28q-39 -59 -58 -80q-77 -89 -185 -137t-234 -48zM351 671h554q-31 92 -103 148.5t-174 56.5q-101 0 -173.5 -57t-103.5 -148z" />
    <glyph glyph-name="Eogonek" unicode="&#x118;" horiz-adv-x="1186" 
d="M925 -408q-114 0 -188.5 61t-74.5 161q0 104 89 186h-677v1500h1030v-230h-766v-380h671v-231h-671v-428h766v-220l-13 -4l-11 -4q-69 -26 -134 -74t-65 -92q0 -46 55 -46q73 0 145 77l20 21l106 -175l-10 -9q-125 -113 -272 -113z" />
    <glyph glyph-name="eogonek" unicode="&#x119;" 
d="M628 -405q-113 0 -187 60.5t-74 159.5q0 105 88 185q-124 37 -212.5 124.5t-128.5 194t-40 222.5q0 140 54 257q65 141 197 225.5t303 84.5q125 0 231 -45t176 -120t109.5 -172t39.5 -203q0 -17 -1 -50.5t-1 -49.5v-18h-840q25 -105 99.5 -173.5t186.5 -68.5q89 0 158 47
t108 126l10 19l219 -131l-18 -28q-102 -162 -260 -225q-32 -13 -79 -25l-11 -2h-5q-6 -1 -14 -6l-18 -10q-57 -31 -89 -59q-44 -41 -44 -75q0 -46 54 -46q72 0 144 77l20 21l105 -174l-10 -10q-126 -112 -270 -112zM351 671h554q-31 92 -103 148.5t-174 56.5
q-101 0 -173.5 -57t-103.5 -148z" />
    <glyph glyph-name="Ecaron" unicode="&#x11a;" horiz-adv-x="1179" 
d="M1009 1995l-295 -384h-200l-291 384h263l128 -169l132 169h263zM1104 231v-231h-1030v1500h1030v-230h-766v-380h671v-231h-671v-428h766z" />
    <glyph glyph-name="ecaron" unicode="&#x11b;" 
d="M1018 1577l-293 -383h-199l-289 383h261l128 -169l130 169h262zM628 -24q-179 0 -314 91.5t-196 241.5q-44 105 -44 232t44 233q61 150 196 242t314 92q125 0 231 -45t176 -120t109.5 -172t39.5 -203q0 -17 -1 -50.5t-1 -49.5v-18h-840q25 -105 99.5 -173.5t186.5 -68.5
q89 0 158.5 47.5t107.5 124.5l10 20l219 -131l-18 -28q-39 -59 -58 -80q-77 -89 -185 -137t-234 -48zM351 671h554q-31 92 -103 148.5t-174 56.5q-101 0 -173.5 -57t-103.5 -148z" />
    <glyph glyph-name="Gcircumflex" unicode="&#x11c;" horiz-adv-x="1565" 
d="M826 1783l-130 -170h-262l291 384h200l295 -384h-264zM826 -24q-243 0 -425.5 124.5t-265.5 329.5q-61 150 -61 320t61 318q83 206 265 330t426 124q215 0 384.5 -101.5t268.5 -274.5l9 -15l7 -15l-227 -120l-9 19q-58 124 -173 199.5t-260 75.5q-152 0 -265.5 -77
t-171.5 -207q-51 -116 -51 -256q0 -138 51 -255q57 -130 171 -208t266 -78q195 0 327 126q18 17 54 61q3 4 9 10l8 8q5 5 6 7l-1 171h-494v231h741v-823h-245v88q-183 -112 -405 -112z" />
    <glyph glyph-name="gcircumflex" unicode="&#x11d;" horiz-adv-x="1231" 
d="M625 1365l-128 -169h-261l289 383h199l293 -383h-262zM624 -411q-129 0 -243 52.5t-188 145.5q-30 38 -57 90l-14 28l219 119l9 -21q35 -85 104.5 -134.5t166.5 -49.5q128 0 209 76.5t81 191.5v47q-125 -84 -292 -84q-119 0 -222.5 44.5t-173 118.5t-109.5 169t-40 195
q0 138 65.5 257.5t192 194.5t287.5 75q167 0 292 -87v64h244v-994q0 -101 -38 -191.5t-106 -158.5t-168.5 -108t-218.5 -40zM619 281q135 0 213.5 85.5t78.5 210.5q0 124 -80 210.5t-214 86.5q-135 0 -212.5 -86t-77.5 -211q0 -126 78 -211t214 -85z" />
    <glyph glyph-name="Gbreve" unicode="&#x11e;" horiz-adv-x="1565" 
d="M825 1611q-94 0 -168 48.5t-111.5 120.5t-37.5 150v36h214v-36q0 -45 30 -83.5t73 -38.5q44 0 75 38.5t31 83.5v36h214v-36q0 -79 -38 -151t-113 -120t-169 -48zM826 -24q-243 0 -425.5 124.5t-265.5 329.5q-61 150 -61 320t61 318q83 206 265 330t426 124
q215 0 384.5 -101.5t268.5 -274.5l9 -15l7 -15l-227 -120l-9 19q-58 124 -173 199.5t-260 75.5q-152 0 -265.5 -77t-171.5 -207q-51 -116 -51 -256q0 -138 51 -255q57 -130 171 -208t266 -78q195 0 327 126q18 17 54 61q3 4 9 10l8 8q5 5 6 7l-1 171h-494v231h741v-823h-245
v88q-183 -112 -405 -112z" />
    <glyph glyph-name="gbreve" unicode="&#x11f;" horiz-adv-x="1231" 
d="M641 1194q-94 0 -168 48t-111.5 120t-37.5 150v35h215v-35q0 -45 29.5 -83t72.5 -38t73.5 38t30.5 83v35h213v-35q0 -123 -88.5 -220.5t-228.5 -97.5zM624 -411q-132 0 -248 55t-190 152q-29 39 -50 81l-14 28l219 119l9 -21q35 -85 104.5 -134.5t166.5 -49.5t170.5 47.5
t103.5 129.5q14 39 16 92q0 8 0.5 23t1.5 23q-127 -84 -294 -84q-119 0 -222.5 44.5t-173 118.5t-109.5 169t-40 195q0 103 39 198t108 168t173 117t225 44q167 0 292 -87v64h244v-994q0 -101 -38 -191.5t-106 -158.5t-168.5 -108t-218.5 -40zM619 281q135 0 213.5 85.5
t78.5 210.5q0 124 -80 210.5t-214 86.5q-135 0 -212.5 -86t-77.5 -211q0 -126 78 -211t214 -85z" />
    <glyph glyph-name="Gdotaccent" unicode="&#x120;" horiz-adv-x="1565" 
d="M827 1611q-74 0 -120 47.5t-46 111.5q0 63 47 110t119 47t118.5 -47.5t46.5 -109.5q0 -64 -45.5 -111.5t-119.5 -47.5zM826 -24q-243 0 -425.5 124.5t-265.5 329.5q-61 150 -61 320t61 318q83 206 265 330t426 124q213 0 381 -101.5t272 -274.5l9 -15l7 -15l-227 -120
l-9 19q-59 124 -173.5 199.5t-259.5 75.5q-152 0 -265.5 -77t-171.5 -207q-51 -116 -51 -256q0 -138 51 -255q57 -130 171 -208t266 -78q195 0 327 126q18 17 54 61q3 4 9 10l8 8q5 5 6 7l-1 171h-494v231h741v-823h-245v88q-183 -112 -405 -112z" />
    <glyph glyph-name="gdotaccent" unicode="&#x121;" horiz-adv-x="1231" 
d="M637 1194q-73 0 -119 47.5t-46 110.5t46.5 109.5t118.5 46.5t118 -47t46 -109q0 -63 -45.5 -110.5t-118.5 -47.5zM624 -411q-132 0 -248 55t-190 152q-29 39 -50 81l-14 28l219 119l9 -21q35 -85 104.5 -134.5t166.5 -49.5t170.5 47.5t103.5 129.5q14 39 16 92
q0 8 0.5 23t1.5 23q-127 -84 -294 -84q-119 0 -222.5 44.5t-173 118.5t-109.5 169t-40 195q0 103 39 198t108 168t173 117t225 44q167 0 292 -87v64h244v-994q0 -101 -38 -191.5t-106 -158.5t-168.5 -108t-218.5 -40zM619 281q135 0 213.5 85.5t78.5 210.5q0 124 -80 210.5
t-214 86.5q-135 0 -212.5 -86t-77.5 -211q0 -126 78 -211t214 -85z" />
    <glyph glyph-name="Itilde" unicode="&#x128;" horiz-adv-x="399" 
d="M337 1611q-74 0 -152 45q-4 2 -22.5 12.5t-27.5 15.5q-21 11 -35 11q-9 0 -15 -16q-2 -4 -4 -12.5t-2 -9.5l-2 -21l-2 -16h-219l2 37q4 60 28.5 113t79 91t128.5 38q70 0 150 -44l24.5 -14t26.5 -14q21 -11 36 -11q8 0 15 17q4 13 5 22l3 21l2 16h217l-2 -36
q-3 -45 -17.5 -86.5t-41.5 -78t-72.5 -58.5t-102.5 -22zM331 1500v-1500h-263v1500h263z" />
    <glyph glyph-name="itilde" unicode="&#x129;" horiz-adv-x="387" 
d="M323 1194q-71 0 -150 45q-30 18 -50 29q-24 11 -35 11q-8 0 -14 -17l-6 -21l-2 -21l-2 -16h-218l2 36q4 60 28.5 113t78 91t127.5 38q72 0 150 -45q4 -2 22.5 -12.5t27.5 -15.5q22 -11 35 -11q8 0 15 18q4 13 5 22l3 21l2 16h216l-2 -37q-3 -44 -17.5 -85.5t-41.5 -78
t-72 -58.5t-102 -22zM316 1081v-1081h-243v1081h243z" />
    <glyph glyph-name="Imacron" unicode="&#x12a;" horiz-adv-x="403" 
d="M462 1822v-211h-527v211h527zM333 1500v-1500h-263v1500h263z" />
    <glyph glyph-name="imacron" unicode="&#x12b;" horiz-adv-x="387" 
d="M463 1404v-210h-523v210h523zM315 1081v-1081h-242v1081h242z" />
    <glyph glyph-name="Iogonek" unicode="&#x12e;" horiz-adv-x="410" 
d="M80 -408q-114 0 -188 61t-74 161q0 97 69 167.5t176 109.5v1409h265v-1490l-14 -4q-120 -35 -151 -48q-62 -24 -94 -50.5t-32 -69.5q0 -47 55 -47q73 0 145 77l20 21l105 -172l-9 -10q-52 -53 -123.5 -84t-149.5 -31z" />
    <glyph glyph-name="iogonek" unicode="&#x12f;" horiz-adv-x="387" 
d="M309 1490v-304h-243v304h243zM119 -402q-112 0 -186.5 61t-74.5 160q0 87 57.5 153t150.5 108v1001h243v-1081h-20l-20 1q-11 0 -16 -1l-11 -6l-18 -9q-59 -30 -98 -62q-50 -42 -50 -81q0 -46 54 -46q70 0 144 78l20 21l105 -174l-10 -10q-128 -113 -270 -113z" />
    <glyph glyph-name="Idotaccent" unicode="&#x130;" horiz-adv-x="411" 
d="M197 1611q-74 0 -120 47.5t-46 111.5q0 63 47 110t119 47t119 -47t47 -110q0 -64 -46 -111.5t-120 -47.5zM337 1500v-1500h-263v1500h263z" />
    <glyph glyph-name="dotlessi" unicode="&#x131;" horiz-adv-x="393" 
d="M318 1081v-1081h-243v1081h243z" />
    <glyph glyph-name="Omacron" unicode="&#x14c;" horiz-adv-x="1653" 
d="M1120 1822v-211h-526v211h526zM826 -24q-241 0 -423 123t-266 325q-63 149 -63 326q0 176 63 325q84 202 266.5 324.5t422.5 122.5q247 0 431.5 -128t265.5 -338q56 -146 56 -306q0 -162 -56 -308q-81 -209 -266 -337.5t-431 -128.5zM826 209q163 0 280.5 87t170.5 231
q37 101 37 223q0 121 -37 223q-53 143 -170.5 230t-280.5 87q-159 0 -275 -83.5t-170 -221.5q-43 -107 -43 -235t43 -236q54 -139 170 -222t275 -83z" />
    <glyph glyph-name="omacron" unicode="&#x14d;" 
d="M884 1404v-210h-523v210h523zM628 -24q-177 0 -311.5 90t-196.5 239q-46 108 -46 236q0 108 36.5 208.5t104.5 181t175 129t238 48.5q182 0 318 -94t196 -249q41 -105 41 -224q0 -128 -46 -236q-62 -149 -197 -239t-312 -90zM628 208q95 0 164 49.5t100.5 123.5t31.5 160
q0 64 -18.5 122.5t-54 107t-93.5 77t-130 28.5q-96 0 -165 -50t-100 -124t-31 -161q0 -63 18.5 -121.5t54 -106.5t93.5 -76.5t130 -28.5z" />
    <glyph glyph-name="Obreve" unicode="&#x14e;" horiz-adv-x="1653" 
d="M822 1611q-94 0 -168 48.5t-111.5 120.5t-37.5 150v36h214v-36q0 -45 30 -83.5t73 -38.5q44 0 75 38.5t31 83.5v36h214v-36q0 -79 -38 -151t-113 -120t-169 -48zM826 -24q-241 0 -423 123t-266 325q-63 149 -63 326q0 176 63 325q84 202 266.5 324.5t422.5 122.5
q247 0 431.5 -128t265.5 -338q56 -146 56 -306q0 -162 -56 -308q-81 -209 -266 -337.5t-431 -128.5zM826 209q163 0 280.5 87t170.5 231q37 101 37 223q0 121 -37 223q-53 143 -170.5 230t-280.5 87q-159 0 -275 -83.5t-170 -221.5q-43 -107 -43 -235t43 -236
q54 -139 170 -222t275 -83z" />
    <glyph glyph-name="obreve" unicode="&#x14f;" 
d="M619 1194q-94 0 -167.5 48t-110.5 120t-37 150v35h213v-35q0 -45 30 -83t72 -38q43 0 73.5 38t30.5 83v35h213v-35q0 -123 -88.5 -220.5t-228.5 -97.5zM628 -24q-177 0 -311.5 90t-196.5 239q-46 108 -46 236q0 108 36.5 208.5t104.5 181t175 129t238 48.5q182 0 318 -94
t196 -249q41 -105 41 -224q0 -128 -46 -236q-62 -149 -197 -239t-312 -90zM628 208q95 0 164 49.5t100.5 123.5t31.5 160q0 64 -18.5 122.5t-54 107t-93.5 77t-130 28.5q-96 0 -165 -50t-100 -124t-31 -161q0 -63 18.5 -121.5t54 -106.5t93.5 -76.5t130 -28.5z" />
    <glyph glyph-name="Ohungarumlaut" unicode="&#x150;" horiz-adv-x="1653" 
d="M962 1997l-237 -386h-240l202 386h275zM1349 1997l-237 -386h-240l202 386h275zM826 -24q-241 0 -423 123t-266 325q-63 149 -63 326q0 176 63 325q84 202 266.5 324.5t422.5 122.5q247 0 431.5 -128t265.5 -338q56 -146 56 -306q0 -162 -56 -308q-81 -209 -266 -337.5
t-431 -128.5zM826 209q163 0 280.5 87t170.5 231q37 101 37 223q0 121 -37 223q-53 143 -170.5 230t-280.5 87q-159 0 -275 -83.5t-170 -221.5q-43 -107 -43 -235t43 -236q54 -139 170 -222t275 -83z" />
    <glyph glyph-name="ohungarumlaut" unicode="&#x151;" 
d="M791 1604l-237 -386h-240l202 386h275zM1178 1604l-237 -386h-240l202 386h275zM628 -24q-177 0 -311.5 90t-196.5 239q-46 108 -46 236q0 108 36.5 208.5t104.5 181t175 129t238 48.5q182 0 318 -94t196 -249q41 -105 41 -224q0 -128 -46 -236q-62 -149 -197 -239
t-312 -90zM628 208q95 0 164 49.5t100.5 123.5t31.5 160q0 64 -18.5 122.5t-54 107t-93.5 77t-130 28.5q-96 0 -165 -50t-100 -124t-31 -161q0 -63 18.5 -121.5t54 -106.5t93.5 -76.5t130 -28.5z" />
    <glyph glyph-name="OE" unicode="&#x152;" horiz-adv-x="2456" 
d="M842 -24q-233 0 -412.5 116.5t-267.5 310.5q-72 158 -72 347t72 346q87 194 267 310t413 116q285 0 488 -172v150h1031v-230h-766v-380h671v-231h-671v-428h766v-231h-1031v148q-205 -172 -488 -172zM842 209q163 0 280.5 87t170.5 231q37 101 37 223q0 121 -37 223
q-53 143 -170.5 230t-280.5 87q-159 0 -275 -83.5t-170 -221.5q-43 -107 -43 -235t43 -236q54 -139 170 -222t275 -83z" />
    <glyph glyph-name="oe" unicode="&#x153;" horiz-adv-x="2162" 
d="M644 -24q-176 0 -309.5 88t-196.5 236q-48 112 -48 241q0 133 48 242q63 148 196.5 236.5t309.5 88.5q131 0 240.5 -51t186.5 -144q76 93 186.5 144t240.5 51q177 0 310.5 -88.5t196.5 -236.5q48 -112 48 -242q0 -12 -0.5 -36.5t-0.5 -36.5v-18h-839q25 -105 99 -173.5
t186 -68.5q90 0 159.5 47.5t107.5 125.5l9 19l218 -130l-7 -14q-71 -129 -199 -204.5t-288 -75.5q-130 0 -241 50.5t-186 142.5q-76 -92 -186.5 -142.5t-240.5 -50.5zM644 208q70 0 128 29t93.5 77.5t55 107t19.5 120.5t-19.5 120.5t-55 107t-93.5 77.5t-128 29
q-96 0 -165 -50t-100 -124t-31 -161q0 -63 18.5 -121.5t54 -106.5t93.5 -76.5t130 -28.5zM1222 671h553q-30 91 -102.5 148t-174.5 57q-101 0 -173 -57t-103 -148z" />
    <glyph glyph-name="Rcaron" unicode="&#x158;" horiz-adv-x="1305" 
d="M1002 1995l-296 -384h-200l-291 384h263l128 -169l132 169h264zM338 545v-545h-264v1500h547q243 0 392.5 -132.5t149.5 -345.5q0 -138 -69 -251t-204 -172l350 -599h-305l-318 545h-279zM621 1270h-283v-493h283q125 0 198.5 68t73.5 179q0 110 -74 178t-198 68z" />
    <glyph glyph-name="rcaron" unicode="&#x159;" horiz-adv-x="798" 
d="M782 1577l-294 -383h-199l-289 383h263l126 -169l130 169h263zM348 649v-649h-242v1081h242v-25q97 47 211 47q61 0 116 -12l16 -3v-236l-25 5q-8 1 -26.5 5t-28.5 6q-25 6 -51 6q-102 0 -157 -64t-55 -161z" />
    <glyph glyph-name="Sacute" unicode="&#x15a;" horiz-adv-x="1295" 
d="M955 1995l-237 -384h-239l202 384h274zM695 -24q-178 0 -326.5 82.5t-232.5 223.5q-28 46 -55 119l-10 29l240 101l6 -20q97 -302 378 -302q110 0 185.5 49t75.5 138q0 83 -46 125.5t-146 73.5q-43 13 -130.5 37.5t-130.5 37.5q-174 53 -276 160t-102 264
q0 190 146.5 310t363.5 120q160 0 296 -70.5t218 -192.5q32 -46 60 -119l10 -28l-239 -107l-7 21q-40 121 -123 192.5t-213 71.5q-109 0 -179 -49t-70 -139q0 -75 53.5 -126.5t143.5 -77.5q46 -14 131 -38t116 -33q388 -112 388 -420q0 -131 -71 -230.5t-189.5 -151
t-264.5 -51.5z" />
    <glyph glyph-name="sacute" unicode="&#x15b;" horiz-adv-x="1041" 
d="M769 1560l-234 -382h-239l200 382h273zM549 -23q-170 0 -295 89.5t-179 234.5l-5 14l216 109l16 -40q34 -81 96 -128.5t151 -47.5q65 0 111 27.5t46 77.5q0 36 -39 62q-25 17 -88 35l-159 45q-135 39 -212.5 118t-77.5 200q0 150 110 240.5t280 90.5q160 0 278.5 -85
t164.5 -222l5 -14l-219 -104l-7 22q-24 77 -82 126t-140 49q-59 0 -98 -24.5t-39 -68.5q0 -38 29.5 -61t85.5 -41q27 -9 82.5 -25.5t84.5 -25.5q135 -42 214 -121t79 -200q0 -101 -56.5 -178t-148.5 -115.5t-204 -38.5z" />
    <glyph glyph-name="Scircumflex" unicode="&#x15c;" horiz-adv-x="1295" 
d="M636 1781l-130 -170h-263l292 384h200l295 -384h-264zM695 -24q-178 0 -326.5 82.5t-232.5 223.5q-28 46 -55 119l-10 29l240 101l6 -20q97 -302 378 -302q110 0 185.5 49t75.5 138q0 83 -46 125.5t-146 73.5q-43 13 -130.5 37.5t-130.5 37.5q-174 53 -276 160t-102 264
q0 190 146.5 310t363.5 120q160 0 296 -70.5t218 -192.5q32 -46 60 -119l10 -28l-239 -107l-7 21q-40 121 -123 192.5t-213 71.5q-109 0 -179 -49t-70 -139q0 -75 53.5 -126.5t143.5 -77.5q46 -14 131 -38t116 -33q388 -112 388 -420q0 -131 -71 -230.5t-189.5 -151
t-264.5 -51.5z" />
    <glyph glyph-name="scircumflex" unicode="&#x15d;" horiz-adv-x="1041" 
d="M518 1371l-128 -169h-262l289 383h199l294 -383h-263zM549 -23q-170 0 -295 89.5t-179 234.5l-5 14l216 109l16 -40q34 -81 96 -128.5t151 -47.5q65 0 111 27.5t46 77.5q0 36 -39 62q-25 17 -88 35l-159 45q-135 39 -212.5 118t-77.5 200q0 150 110 240.5t280 90.5
q160 0 278.5 -85t164.5 -222l5 -14l-219 -104l-7 22q-24 77 -82 126t-140 49q-59 0 -98 -24.5t-39 -68.5q0 -38 29.5 -61t85.5 -41q27 -9 82.5 -25.5t84.5 -25.5q135 -42 214 -121t79 -200q0 -101 -56.5 -178t-148.5 -115.5t-204 -38.5z" />
    <glyph glyph-name="Scedilla" unicode="&#x15e;" horiz-adv-x="1295" 
d="M680 -387q-143 0 -263 108l-21 18l108 171l18 -21q68 -77 147 -77q54 0 54 47t-88 110q-9 5 -16 11q-5 3 -8 3h-9q-2 0 -6.5 0.5t-6.5 1.5l-31 6q-45 9 -90 24q-114 39 -203.5 115.5t-142.5 175.5q-17 31 -41 95l-10 29l239 101l14 -41q45 -130 136.5 -205.5t234.5 -75.5
q110 0 185.5 49t75.5 138q0 82 -46.5 126t-145.5 73l-261 75q-172 50 -275 159t-103 265q0 190 146.5 310t363.5 120q202 0 356 -105.5t218 -276.5l10 -28l-239 -107l-7 21q-90 264 -336 264q-109 0 -179 -49t-70 -139q0 -74 53.5 -126t143.5 -78l246 -71q389 -110 389 -420
q0 -148 -92 -257.5t-251 -151.5q65 -75 65 -165q0 -100 -74.5 -161t-187.5 -61z" />
    <glyph glyph-name="scedilla" unicode="&#x15f;" horiz-adv-x="1041" 
d="M545 -384q-142 0 -261 107l-21 18l106 171l19 -21q70 -77 146 -77q53 0 53 46q0 48 -75 101l-19 13q-13 7 -17 9l-3 1q-1 0 -5 0.5t-6 0.5l-21 4q-30 5 -67 17q-110 37 -185 114.5t-114 180.5l-5 14l217 109l16 -40q33 -80 95.5 -128t150.5 -48q66 0 111.5 27.5
t45.5 77.5q0 37 -33.5 58.5t-93.5 38.5l-159 45q-135 39 -212.5 118t-77.5 200q0 150 110 240.5t280 90.5q161 0 278.5 -84.5t164.5 -222.5l5 -14l-219 -104l-7 22q-25 78 -82 126.5t-140 48.5q-59 0 -98 -24.5t-39 -68.5q0 -38 30 -61.5t85 -40.5l167 -51
q135 -41 214 -120.5t79 -200.5q0 -102 -60 -181.5t-165 -118.5q73 -76 73 -172q0 -99 -74.5 -160t-186.5 -61z" />
    <glyph glyph-name="Scaron" unicode="&#x160;" horiz-adv-x="1295" 
d="M1023 1995l-296 -384h-200l-291 384h262l129 -169l132 169h264zM695 -24q-178 0 -326.5 82.5t-232.5 223.5q-28 46 -55 119l-10 29l240 101l6 -20q97 -302 378 -302q110 0 185.5 49t75.5 138q0 83 -46 125.5t-146 73.5q-43 13 -130.5 37.5t-130.5 37.5q-174 53 -276 160
t-102 264q0 190 146.5 310t363.5 120q160 0 296 -70.5t218 -192.5q32 -46 60 -119l10 -28l-239 -107l-7 21q-40 121 -123 192.5t-213 71.5q-109 0 -179 -49t-70 -139q0 -75 53.5 -126.5t143.5 -77.5q46 -14 131 -38t116 -33q388 -112 388 -420q0 -131 -71 -230.5
t-189.5 -151t-264.5 -51.5z" />
    <glyph glyph-name="scaron" unicode="&#x161;" horiz-adv-x="1041" 
d="M908 1577l-293 -383h-200l-289 383h262l128 -169l129 169h263zM549 -23q-170 0 -295 89.5t-179 234.5l-5 14l216 109l16 -40q34 -81 96 -128.5t151 -47.5q65 0 111 27.5t46 77.5q0 36 -39 62q-25 17 -88 35l-159 45q-135 39 -212.5 118t-77.5 200q0 150 110 240.5
t280 90.5q160 0 278.5 -85t164.5 -222l5 -14l-219 -104l-7 22q-24 77 -82 126t-140 49q-59 0 -98 -24.5t-39 -68.5q0 -38 29.5 -61t85.5 -41q27 -9 82.5 -25.5t84.5 -25.5q135 -42 214 -121t79 -200q0 -101 -56.5 -178t-148.5 -115.5t-204 -38.5z" />
    <glyph glyph-name="Utilde" unicode="&#x168;" horiz-adv-x="1277" 
d="M787 1611q-72 0 -150 45q-4 2 -22.5 12.5t-27.5 15.5q-22 11 -35 11q-9 0 -15 -16q-4 -13 -5 -22l-3 -21l-2 -16h-218l2 37q3 60 27.5 113t78.5 91t129 38q70 0 150 -44q32 -20 50 -28q21 -11 35 -11q10 0 17 17q6 16 8 42v17h217v-35q0 -33 -13 -76
q-23 -75 -79.5 -122.5t-143.5 -47.5zM638 -24q-259 0 -411.5 142t-152.5 370v1012h266v-1012q0 -118 83 -198.5t215 -80.5q130 0 214 81t84 198v1012h266v-1012q0 -227 -153 -369.5t-411 -142.5z" />
    <glyph glyph-name="utilde" unicode="&#x169;" horiz-adv-x="1058" 
d="M644 1194q-71 0 -150 45q-30 18 -50 29q-24 11 -35 11q-8 0 -14 -17l-6 -21l-2 -21l-2 -16h-218l2 36q4 60 28.5 113t78 91t127.5 38q72 0 150 -45q4 -2 22.5 -12.5t27.5 -15.5q22 -11 35 -11q9 0 15 18q3 7 5 22l3 21l2 16h216l-2 -37q-3 -44 -17.5 -85.5t-41.5 -78
t-72 -58.5t-102 -22zM529 -21q-200 0 -327.5 114.5t-127.5 290.5v697h243v-649q0 -97 54 -160t156 -63q103 0 157 63t54 160v649h245v-1081h-245v25q-98 -46 -209 -46z" />
    <glyph glyph-name="Umacron" unicode="&#x16a;" horiz-adv-x="1277" 
d="M902 1822v-211h-526v211h526zM638 -24q-259 0 -411.5 142t-152.5 370v1012h266v-1012q0 -118 83 -198.5t215 -80.5q130 0 214 81t84 198v1012h266v-1012q0 -227 -153 -369.5t-411 -142.5z" />
    <glyph glyph-name="umacron" unicode="&#x16b;" horiz-adv-x="1058" 
d="M781 1404v-210h-523v210h523zM529 -21q-200 0 -327.5 114.5t-127.5 290.5v697h243v-649q0 -97 54 -160t156 -63q103 0 157 63t54 160v649h245v-1081h-245v25q-98 -46 -209 -46z" />
    <glyph glyph-name="Ubreve" unicode="&#x16c;" horiz-adv-x="1277" 
d="M623 1611q-94 0 -168 48.5t-111.5 120.5t-37.5 150v36h214v-36q0 -45 30 -83.5t73 -38.5q44 0 75 38.5t31 83.5v36h214v-36q0 -79 -38 -151t-113 -120t-169 -48zM638 -24q-259 0 -411.5 142t-152.5 370v1012h266v-1012q0 -118 83 -198.5t215 -80.5q130 0 214 81t84 198
v1012h266v-1012q0 -227 -153 -369.5t-411 -142.5z" />
    <glyph glyph-name="ubreve" unicode="&#x16d;" horiz-adv-x="1058" 
d="M531 1194q-94 0 -167.5 48t-110.5 120t-37 150v35h213v-35q0 -45 29.5 -83t72.5 -38t73.5 38t30.5 83v35h213v-35q0 -123 -88.5 -220.5t-228.5 -97.5zM529 -21q-200 0 -327.5 114.5t-127.5 290.5v697h243v-649q0 -97 54 -160t156 -63q103 0 157 63t54 160v649h245v-1081
h-245v25q-98 -46 -209 -46z" />
    <glyph glyph-name="Uring" unicode="&#x16e;" horiz-adv-x="1277" 
d="M647 1611q-106 0 -174 69t-68 161t68 160t174 68q105 0 174.5 -68t69.5 -160q0 -93 -69 -161.5t-175 -68.5zM646 1759q34 0 57 24.5t23 59.5q0 33 -23 55t-57 22q-33 0 -54.5 -21t-21.5 -56t22.5 -59.5t53.5 -24.5zM638 -24q-259 0 -411.5 142t-152.5 370v1012h266v-1012
q0 -118 83 -198.5t215 -80.5q130 0 214 81t84 198v1012h266v-1012q0 -227 -153 -369.5t-411 -142.5z" />
    <glyph glyph-name="uring" unicode="&#x16f;" horiz-adv-x="1058" 
d="M514 1252q-106 0 -174 69t-68 161t68 160t174 68q105 0 174.5 -68t69.5 -160q0 -93 -69 -161.5t-175 -68.5zM513 1400q34 0 57 24.5t23 59.5q0 33 -23 55t-57 22q-33 0 -54.5 -21t-21.5 -56t22.5 -59.5t53.5 -24.5zM529 -21q-200 0 -327.5 114.5t-127.5 290.5v697h243
v-649q0 -97 54 -160t156 -63q103 0 157 63t54 160v649h245v-1081h-245v25q-98 -46 -209 -46z" />
    <glyph glyph-name="Uhungarumlaut" unicode="&#x170;" horiz-adv-x="1277" 
d="M791 1997l-237 -386h-240l202 386h275zM1178 1997l-237 -386h-240l202 386h275zM638 -24q-259 0 -411.5 142t-152.5 370v1012h266v-1012q0 -118 83 -198.5t215 -80.5q130 0 214 81t84 198v1012h266v-1012q0 -227 -153 -369.5t-411 -142.5z" />
    <glyph glyph-name="uhungarumlaut" unicode="&#x171;" horiz-adv-x="1074" 
d="M681 1597l-237 -386h-240l202 386h275zM1068 1597l-237 -386h-240l202 386h275zM529 -21q-200 0 -327.5 114.5t-127.5 290.5v697h243v-649q0 -97 54 -160t156 -63q103 0 157 63t54 160v649h245v-1081h-245v25q-98 -46 -209 -46z" />
    <glyph glyph-name="Uogonek" unicode="&#x172;" horiz-adv-x="1285" 
d="M936 488v1012h266v-1012q0 -196 -115.5 -331t-316.5 -170q-93 -28 -120 -39q-62 -24 -94 -50.5t-32 -69.5q0 -47 55 -47q73 0 145 77l20 21l105 -172l-9 -10q-52 -53 -123.5 -84t-149.5 -31q-114 0 -188 61t-74 161q0 121 111 205q-162 53 -252 179.5t-90 299.5v1012h266
v-1012q0 -118 83 -198.5t215 -80.5q130 0 214 81t84 198z" />
    <glyph glyph-name="uogonek" unicode="&#x173;" horiz-adv-x="1065" 
d="M804 -405q-113 0 -187 60.5t-74 159.5q0 97 98 179q-53 -15 -112 -15q-200 0 -327.5 114.5t-127.5 290.5v697h243v-649q0 -96 54 -159.5t156 -63.5q103 0 157 63t54 160v649h245v-1070l-13 -4l-11 -4q-71 -27 -134.5 -73.5t-63.5 -90.5q0 -46 54 -46q72 0 145 77l19 21
l105 -174l-10 -9q-125 -113 -270 -113z" />
    <glyph glyph-name="Wcircumflex" unicode="&#x174;" horiz-adv-x="2129" 
d="M1059 1781l-128 -170h-264l291 384h200l296 -384h-264zM1064 1066l-307 -1066h-248l-440 1500h270l297 -1047l293 1047h270l294 -1044l297 1044h270l-441 -1500h-248z" />
    <glyph glyph-name="wcircumflex" unicode="&#x175;" horiz-adv-x="1745" 
d="M867 1363l-128 -169h-263l291 383h199l292 -383h-263zM874 660l-209 -660h-211l-386 1081h273l215 -657l203 657h226l202 -654l217 654h272l-388 -1081h-209z" />
    <glyph glyph-name="Ycircumflex" unicode="&#x176;" horiz-adv-x="1473" 
d="M727 1781l-128 -170h-264l291 384h201l296 -384h-265zM868 687v-687h-263v687l-544 813h297l379 -564l375 564h298z" />
    <glyph glyph-name="ycircumflex" unicode="&#x177;" horiz-adv-x="1263" 
d="M625 1363l-128 -169h-263l291 383h198l293 -383h-263zM1194 1081l-626 -1492h-267l189 470l-424 1022h276l289 -698l287 698h276z" />
    <glyph glyph-name="Ydieresis" unicode="&#x178;" horiz-adv-x="1473" 
d="M539 1601q-74 0 -120 47.5t-46 111.5q0 63 47 110t119 47t118.5 -47.5t46.5 -109.5q0 -64 -45.5 -111.5t-119.5 -47.5zM965 1601q-74 0 -120 47.5t-46 111.5q0 63 47 110t119 47t118.5 -47.5t46.5 -109.5q0 -64 -45.5 -111.5t-119.5 -47.5zM868 687v-687h-263v687
l-544 813h297l379 -564l375 564h298z" />
    <glyph glyph-name="Zacute" unicode="&#x179;" horiz-adv-x="1293" 
d="M911 1995l-236 -384h-240l202 384h274zM1217 231v-231h-1143v156l775 1114h-726v230h1077v-156l-776 -1113h793z" />
    <glyph glyph-name="zacute" unicode="&#x17a;" horiz-adv-x="1019" 
d="M769 1577l-235 -383h-239l201 383h273zM944 230v-230h-870v178l528 672h-497v231h837v-177l-528 -674h530z" />
    <glyph glyph-name="Zdotaccent" unicode="&#x17b;" horiz-adv-x="1293" 
d="M669 1611q-74 0 -119.5 47t-45.5 112q0 63 46 110t119 47q72 0 118.5 -47.5t46.5 -109.5q0 -63 -45.5 -111t-119.5 -48zM1217 231v-231h-1143v156l775 1114h-726v230h1077v-156l-776 -1113h793z" />
    <glyph glyph-name="zdotaccent" unicode="&#x17c;" horiz-adv-x="1019" 
d="M495 1194q-73 0 -119 47.5t-46 110.5q0 62 46.5 109t118.5 47t118 -47t46 -109q0 -63 -45.5 -110.5t-118.5 -47.5zM944 230v-230h-870v178l528 672h-497v231h837v-177l-528 -674h530z" />
    <glyph glyph-name="Zcaron" unicode="&#x17d;" horiz-adv-x="1293" 
d="M1068 1995l-295 -384h-202l-291 384h265l128 -169l130 169h265zM1217 231v-231h-1143v156l775 1114h-726v230h1077v-156l-776 -1113h793z" />
    <glyph glyph-name="zcaron" unicode="&#x17e;" horiz-adv-x="1019" 
d="M895 1577l-294 -383h-199l-289 383h262l127 -169l130 169h263zM944 230v-230h-870v178l528 672h-497v231h837v-177l-528 -674h530z" />
    <glyph glyph-name="circumflex" unicode="&#x2c6;" horiz-adv-x="863" 
d="M430 1429l-126 -170h-264l290 383h199l294 -383h-264z" />
    <glyph glyph-name="caron" unicode="&#x2c7;" horiz-adv-x="863" 
d="M823 1642l-294 -383h-199l-290 383h264l126 -168l129 168h264z" />
    <glyph glyph-name="breve" unicode="&#x2d8;" horiz-adv-x="714" 
d="M355 1259q-93 0 -167 48.5t-111 120.5t-37 150v35h215v-35q0 -46 29 -84.5t71 -38.5q45 0 76 38.5t31 84.5v35h212v-35q0 -79 -37.5 -151t-112.5 -120t-169 -48z" />
    <glyph glyph-name="dotaccent" unicode="&#x2d9;" horiz-adv-x="409" 
d="M206 1259q-74 0 -120 47.5t-46 111.5q0 63 46.5 109.5t119.5 46.5q72 0 118 -47t46 -109q0 -63 -45.5 -111t-118.5 -48z" />
    <glyph glyph-name="ring" unicode="&#x2da;" horiz-adv-x="563" 
d="M282 1259q-105 0 -173.5 69t-68.5 160q0 93 68 160t174 67q105 0 173 -67.5t68 -159.5q0 -91 -68 -160t-173 -69zM282 1448q15 0 26.5 12t11.5 28t-11 27t-27 11q-17 0 -28 -11t-11 -27t11.5 -28t27.5 -12z" />
    <glyph glyph-name="ogonek" unicode="&#x2db;" horiz-adv-x="622" 
d="M301 -381q-113 0 -187 61t-74 160q0 85 55 149.5t145 106.5q31 15 81 31l6 3l7 3l211 -70l-45 -17q-102 -42 -154 -75q-87 -56 -87 -108q0 -46 54 -46q73 0 144 78l19 21l106 -174l-10 -9q-130 -114 -271 -114z" />
    <glyph glyph-name="tilde" unicode="&#x2dc;" horiz-adv-x="791" 
d="M517 1259q-66 0 -150 45q-31 19 -51 29q-21 11 -34 11q-9 0 -14 -17q-5 -11 -6 -22l-2 -20l-2 -16h-218l2 37q6 95 66.5 168t168.5 73q73 0 151 -45q8 -4 24.5 -14t24.5 -14q22 -11 35 -11q7 0 14 18q3 12 5 23l3 21l2 16h216l-2 -38q-3 -44 -17.5 -85.5t-41.5 -78
t-72 -58.5t-102 -22z" />
    <glyph glyph-name="hungarumlaut" unicode="&#x2dd;" horiz-adv-x="830" 
d="M513 1644l-234 -385h-239l201 385h272zM790 1644l-237 -385h-239l203 385h273z" />
    <glyph glyph-name="gravecomb" unicode="&#x300;" horiz-adv-x="0" 
d="M-225 1577l200 -383h-238l-235 383h273z" />
    <glyph glyph-name="acutecomb" unicode="&#x301;" horiz-adv-x="0" 
d="M-23 1577l-234 -383h-239l201 383h272z" />
    <glyph glyph-name="uni0302" unicode="&#x302;" horiz-adv-x="0" 
d="M-421 1363l-126 -169h-263l289 383h199l294 -383h-263z" />
    <glyph glyph-name="tildecomb" unicode="&#x303;" horiz-adv-x="0" 
d="M-277 1194q-71 0 -150 45q-30 18 -50 29q-24 11 -35 11q-8 0 -14 -17l-6 -21l-2 -21l-2 -16h-218l2 36q4 60 28.5 113t78 91t127.5 38q72 0 150 -45q4 -2 22.5 -12.5t27.5 -15.5q22 -11 35 -11q8 0 15 18q4 13 5 22l3 21l2 16h216l-2 -37q-3 -44 -17.5 -85.5t-41.5 -78
t-72 -58.5t-102 -22z" />
    <glyph glyph-name="uni0304" unicode="&#x304;" horiz-adv-x="0" 
d="M-38 1404v-210h-523v210h523z" />
    <glyph glyph-name="uni0306" unicode="&#x306;" horiz-adv-x="0" 
d="M-359 1194q-93 0 -167 48t-111 120t-37 150v35h214v-35q0 -45 29.5 -83t71.5 -38q44 0 75 38t31 83v35h212v-35q0 -123 -89 -220.5t-229 -97.5z" />
    <glyph glyph-name="uni0307" unicode="&#x307;" horiz-adv-x="0" 
d="M-196 1194q-73 0 -119 47.5t-46 110.5t46.5 109.5t118.5 46.5t118 -47t46 -109q0 -63 -45.5 -110.5t-118.5 -47.5z" />
    <glyph glyph-name="uni0308" unicode="&#x308;" horiz-adv-x="0" 
d="M-527 1194q-73 0 -119 47.5t-46 110.5t46.5 109.5t118.5 46.5q62 0 105.5 -35.5t54.5 -88.5q12 52 56 88t106 36q70 0 117 -48t47 -108q0 -62 -46 -110t-118 -48q-64 0 -107 36t-55 90q-11 -54 -54 -90t-106 -36z" />
    <glyph glyph-name="uni030A" unicode="&#x30a;" horiz-adv-x="0" 
d="M-278 1194q-105 0 -173 69t-68 161q0 91 68 158t173 67q104 0 172.5 -67t68.5 -158q0 -92 -68 -161t-173 -69zM-278 1383q16 0 27 12t11 29q0 15 -11.5 26t-26.5 11q-16 0 -27 -10.5t-11 -26.5q0 -17 11 -29t27 -12z" />
    <glyph glyph-name="uni030B" unicode="&#x30b;" horiz-adv-x="0" 
d="M-308 1579l-234 -385h-239l201 385h272zM-31 1579l-237 -385h-239l203 385h273z" />
    <glyph glyph-name="uni030C" unicode="&#x30c;" horiz-adv-x="0" 
d="M-28 1577l-294 -383h-199l-289 383h263l126 -169l130 169h263z" />
    <glyph glyph-name="uni0326" unicode="&#x326;" horiz-adv-x="0" 
d="M-40 6l-250 -455h-208l154 455h304z" />
    <glyph glyph-name="uni0327" unicode="&#x327;" horiz-adv-x="0" 
d="M-300 -384q-142 0 -261 107l-20 18l106 171l19 -21q70 -77 146 -77q52 0 52 46q0 55 -87 109q-33 20 -82 43l-74 32l-45 19l224 68l7 -3l6 -3q52 -18 83 -34q85 -43 136 -107t51 -147q0 -99 -74.5 -160t-186.5 -61z" />
    <glyph glyph-name="uni0328" unicode="&#x328;" horiz-adv-x="0" 
d="M-314 -380q-113 0 -187 60.5t-74 159.5q0 86 55 150t145 106q28 14 81 31l6 3l8 3l208 -70l-44 -17q-102 -42 -154 -75q-87 -56 -87 -108q0 -46 54 -46q75 0 144 78l19 22l106 -175l-10 -9q-127 -113 -270 -113z" />
    <glyph glyph-name="uni0335" unicode="&#x335;" horiz-adv-x="0" 
d="M-40 775v-230h-866v230h866z" />
    <glyph glyph-name="uni0336" unicode="&#x336;" horiz-adv-x="0" 
d="M-47 769v-220h-1371v220h1371z" />
    <glyph glyph-name="Wgrave" unicode="&#x1e80;" horiz-adv-x="2129" 
d="M1133 1995l202 -384h-240l-237 384h275zM1064 1066l-307 -1066h-248l-440 1500h270l297 -1047l293 1047h270l294 -1044l297 1044h270l-441 -1500h-248z" />
    <glyph glyph-name="wgrave" unicode="&#x1e81;" horiz-adv-x="1745" 
d="M934 1577l201 -383h-239l-235 383h273zM874 660l-209 -660h-211l-386 1081h273l215 -657l203 657h226l202 -654l217 654h272l-388 -1081h-209z" />
    <glyph glyph-name="Wacute" unicode="&#x1e82;" horiz-adv-x="2129" 
d="M1341 1995l-236 -384h-241l203 384h274zM1064 1066l-307 -1066h-248l-440 1500h270l297 -1047l293 1047h270l294 -1044l297 1044h270l-441 -1500h-248z" />
    <glyph glyph-name="wacute" unicode="&#x1e83;" horiz-adv-x="1745" 
d="M1141 1577l-233 -383h-239l201 383h271zM874 660l-209 -660h-211l-386 1081h273l215 -657l203 657h226l202 -654l217 654h272l-388 -1081h-209z" />
    <glyph glyph-name="Wdieresis" unicode="&#x1e84;" horiz-adv-x="2129" 
d="M854 1601q-74 0 -120 47.5t-46 111.5q0 63 47 110t119 47t118.5 -47.5t46.5 -109.5q0 -64 -45.5 -111.5t-119.5 -47.5zM1280 1601q-74 0 -120 47.5t-46 111.5q0 63 47 110t119 47t118.5 -47.5t46.5 -109.5q0 -64 -45.5 -111.5t-119.5 -47.5zM1064 1066l-307 -1066h-248
l-440 1500h270l297 -1047l293 1047h270l294 -1044l297 1044h270l-441 -1500h-248z" />
    <glyph glyph-name="wdieresis" unicode="&#x1e85;" horiz-adv-x="1745" 
d="M658 1188q-74 0 -120 47.5t-46 111.5q0 63 47 110t119 47t118.5 -47.5t46.5 -109.5q0 -64 -45.5 -111.5t-119.5 -47.5zM1084 1188q-74 0 -120 47.5t-46 111.5q0 63 47 110t119 47t118.5 -47.5t46.5 -109.5q0 -64 -45.5 -111.5t-119.5 -47.5zM874 660l-209 -660h-211
l-386 1081h273l215 -657l203 657h226l202 -654l217 654h272l-388 -1081h-209z" />
    <glyph glyph-name="endash" unicode="&#x2013;" horiz-adv-x="1290" 
d="M1100 667v-230h-910v230h910z" />
    <glyph glyph-name="emdash" unicode="&#x2014;" horiz-adv-x="1747" 
d="M1557 667v-230h-1367v230h1367z" />
    <glyph glyph-name="quoteleft" unicode="&#x2018;" horiz-adv-x="769" 
d="M559 1490l-89 -595h-280l158 595h211z" />
    <glyph glyph-name="quoteright" unicode="&#x2019;" horiz-adv-x="769" 
d="M559 1490l-158 -595h-211l88 595h281z" />
    <glyph glyph-name="quotesinglbase" unicode="&#x201a;" horiz-adv-x="769" 
d="M559 305l-158 -594h-211l88 594h281z" />
    <glyph glyph-name="quotedblleft" unicode="&#x201c;" horiz-adv-x="1102" 
d="M559 1490l-89 -595h-280l158 595h211zM892 1490l-88 -595h-280l158 595h210z" />
    <glyph glyph-name="quotedblright" unicode="&#x201d;" horiz-adv-x="1102" 
d="M559 1490l-158 -595h-211l88 595h281zM892 1490l-158 -595h-210l88 595h280z" />
    <glyph glyph-name="quotedblbase" unicode="&#x201e;" horiz-adv-x="1102" 
d="M559 305l-158 -594h-211l88 594h281zM892 305l-158 -594h-210l88 594h280z" />
    <glyph glyph-name="dagger" unicode="&#x2020;" horiz-adv-x="1539" 
d="M901 874v-1237h-263v1237h-438v230h438v386h263v-386h438v-230h-438z" />
    <glyph glyph-name="daggerdbl" unicode="&#x2021;" horiz-adv-x="1539" 
d="M901 23v-386h-263v386h-438v229h438v622h-438v230h438v386h263v-386h438v-230h-438v-622h438v-229h-438z" />
    <glyph glyph-name="bullet" unicode="&#x2022;" horiz-adv-x="919" 
d="M461 506q-112 0 -181.5 73t-69.5 171q0 95 71 166t180 71t178.5 -72.5t69.5 -168.5t-69 -168t-179 -72z" />
    <glyph glyph-name="ellipsis" unicode="&#x2026;" horiz-adv-x="1825" 
d="M473 305v-305h-263v305h263zM1044 305v-305h-263v305h263zM1616 305v-305h-264v305h264z" />
    <glyph glyph-name="guilsinglleft" unicode="&#x2039;" horiz-adv-x="938" 
d="M438 552l331 -404h-310l-329 404l329 404h310z" />
    <glyph glyph-name="guilsinglright" unicode="&#x203a;" horiz-adv-x="938" 
d="M809 552l-331 -404h-308l329 404l-329 404h308z" />
    <glyph glyph-name="Euro" unicode="&#x20ac;" horiz-adv-x="1739" 
d="M1055 -23q-125 0 -233 39.5t-187 109t-134.5 157.5t-85.5 191h-335l67 230h230l-1 49h-240l68 230h201q27 109 81 203t133.5 167.5t191.5 116t244 42.5q211 0 364.5 -112.5t214.5 -294.5l5 -14l-234 -112l-15 40q-22 57 -42 88q-48 81 -123 128t-170 47q-132 0 -230 -86
t-147 -213h550l-67 -230h-525v-9q0 -7 0.5 -20.5t0.5 -19.5h535l-68 -230h-417q49 -119 143 -192.5t225 -73.5q187 0 294 173q21 35 42 87l15 41l233 -112l-5 -14q-60 -179 -215 -292.5t-364 -113.5z" />
    <glyph glyph-name="trademark" unicode="&#x2122;" horiz-adv-x="2180" 
d="M696 1282v-867h-236v867h-270v208h774v-208h-268zM1205 1042v-627h-236v1075h200l310 -435l312 435h199v-1075h-236v626l-242 -334h-69z" />
    <glyph glyph-name="partialdiff" unicode="&#x2202;" horiz-adv-x="1302" 
d="M652 -23q-135 0 -246.5 48t-183 128.5t-110 184t-38.5 216.5q0 115 41.5 218.5t116.5 182t188.5 124.5t249.5 46q101 0 197 -21q-66 131 -172.5 213t-250.5 82q-82 0 -218 -51l-24 -9l-43 225l29 10q146 56 258 56q184 0 337.5 -99t256.5 -251q187 -275 187 -633
q0 -165 -45 -295q-60 -172 -195.5 -273.5t-334.5 -101.5zM652 208q67 0 122.5 27t92 70t62 99.5t36.5 114.5t11 115q0 77 -22 198q-146 63 -284 63q-161 0 -252 -97.5t-91 -245.5q0 -138 89 -241t236 -103z" />
    <glyph glyph-name="summation" unicode="&#x2211;" horiz-adv-x="1236" 
d="M1106 230v-230h-956v173l364 573l-364 570v174h956v-231h-650l327 -513l-327 -516h650z" />
    <glyph glyph-name="minus" unicode="&#x2212;" horiz-adv-x="1390" 
d="M1150 866v-239h-910v239h910z" />
    <glyph glyph-name="uni2215" unicode="&#x2215;" horiz-adv-x="1009" 
d="M1013 1490l-690 -1490h-283l691 1490h282z" />
    <glyph glyph-name="uni2219" unicode="&#x2219;" horiz-adv-x="1048" 
d="M525 441q-140 0 -227.5 92t-87.5 215q0 120 89 210.5t226 90.5q139 0 226.5 -91.5t87.5 -213.5t-87.5 -212.5t-226.5 -90.5z" />
    <glyph glyph-name="radical" unicode="&#x221a;" horiz-adv-x="1694" 
d="M1281 1259l-547 -1259h-212l-342 795h254l194 -463l486 1158h399v-231h-232z" />
    <glyph glyph-name="integral" unicode="&#x222b;" horiz-adv-x="966" 
d="M206 -373q-77 0 -134 17l-14 4v215l24 -4q64 -11 124 -11q70 0 106.5 40.5t36.5 107.5v1147q0 158 104 263.5t284 105.5q30 0 67 -5q22 -3 64 -11l17 -3v-215l-24 3q-82 10 -124 10q-70 0 -107.5 -41t-37.5 -107v-1147q0 -158 -103.5 -263.5t-282.5 -105.5z" />
    <glyph glyph-name="approxequal" unicode="&#x2248;" horiz-adv-x="1539" 
d="M310 762l-70 -69v275l10 10q133 133 323 133q97 0 221 -56q71 -32 86 -37q48 -15 91 -15q68 0 136.5 33t120.5 85l70 69v-273l-4 -4l-4 -6q-59 -65 -142.5 -99.5t-178.5 -34.5q-111 0 -230 58q-38 18 -59 26.5t-51.5 16t-61.5 7.5q-67 0 -136 -34t-121 -85zM311 370
l-71 -70v276l10 10q133 133 323 133q62 0 112.5 -14t114.5 -44q63 -28 84 -35q42 -15 87 -15q68 0 137 33.5t120 84.5l35 35l35 37v-276l-4 -5l-4 -6q-59 -63 -143.5 -98t-177.5 -35q-67 0 -117 14.5t-121 47.5q-52 24 -87 35t-77 11q-67 0 -135 -33.5t-121 -85.5z" />
    <glyph glyph-name="notequal" unicode="&#x2260;" horiz-adv-x="1390" 
d="M741 403l-53 -187h-257l55 187h-246v240h311l59 207h-370v240h437l53 187h256l-52 -187h216v-240h-283l-59 -207h342v-240h-409z" />
    <glyph glyph-name="lessequal" unicode="&#x2264;" horiz-adv-x="1322" 
d="M538 868l569 -322v-268l-892 500v181l892 501v-268zM1154 230v-230h-986v230h986z" />
    <glyph glyph-name="greaterequal" unicode="&#x2265;" horiz-adv-x="1282" 
d="M1109 959v-181l-892 -500v268l567 322l-567 324v268zM1154 230v-230h-986v230h986z" />
    <glyph glyph-name="uniF8FF" unicode="&#xf8ff;" horiz-adv-x="1860" 
d="M1800 1630v-1869h-1740v1869h1740zM321 205h198v344h687v183h-687v491h687v176h-890v-1186q0 -2 1 -3q0 -5 4 -5zM1338 390h-685v-185h888v1194h-203v-334h-685v-190h685v-485zM1037 -26q11 0 29 4q8 6 12 6q9 0 9 9q0 1 1.5 4.5t1.5 5.5t0.5 5.5t0.5 5.5q0 10 -1 14
l-3 8l-9 9q-5 5 -8 5l-10 2q-13 3 -14 4q-8 5 -13 5t-8 4q-3 6 -3 8q0 10 12 10q7 0 10 -1q2 -1 5.5 -2t5.5 -2q3 -2 5.5 -3t4 -1.5t2.5 -0.5q8 -3 10 -4l14 27q-4 4 -26 11q-15 5 -28 5q-14 0 -26 -6q-1 -1 -5.5 -2.5t-5.5 -2.5q-6 -6 -8 -9q-6 -9 -6 -23q0 -4 2 -10
q1 -5 4 -9t7 -7l7 -5q4 -3 11 -3q2 0 6.5 -2t7.5 -2l6 -1q1 0 2 -1t2.5 -2t2.5 -2l7 -5q4 -3 4 -6q0 -9 -5 -10q-10 -2 -13 -2q-9 0 -24 6q-12 5 -23 14l-13 -26q14 -12 29 -16l6 -2q5 -1 9 -2q10 -2 16 -2zM499 -27q33 0 51 18t21 51q2 20 -11 36q-9 12 -10 13
q-10 10 -13 12q-12 8 -38 8q-17 0 -36 -8q-19 -13 -26 -25q-10 -17 -10 -36q0 -21 10 -35q9 -20 25 -27q15 -7 37 -7zM1349 -27q18 0 30 7q16 10 24 19l-20 19q-4 -4 -17 -10q-5 -4 -17 -4q-11 0 -17 5l-7 6q-1 0 -7 9q-4 5 -4 20q0 13 4 20l14 12q6 5 17 5q12 0 17 -5
q13 -4 17 -12l18 23q-1 2 -10 11q-7 7 -11 7q-8 0 -15 3q-9 3 -16 3q-31 0 -50 -18q-20 -19 -20 -51q0 -23 8 -35q11 -17 27 -27q13 -7 35 -7zM419 107h-98v-130h35v47h59v26h-59v31h63v26zM620 107h-31v-130h33v78l60 -78h31v130h-33v-77zM725 81h42v-104h34v104h39v26
h-115v-26zM919 107h-36l-57 -130h35l10 22h57l9 -22h38zM1098 81h40v-104h34v104h41v26h-115v-26zM1260 107h-33v-130h33v130zM1495 107h-36l-58 -130h38l8 22h61l6 -22h37zM500 2q-16 0 -27 12q-10 11 -10 28q0 13 5 20q1 1 2 3t2 3.5t2 2.5l7 5q7 5 19 5q9 0 19 -5
q9 -5 12 -14q0 -1 2 -4.5t2 -5.5v-20q0 -5 -4 -10q-2 -2 -4 -5l-3 -4.5t-2.5 -3t-2.5 -1.5q-18 -6 -19 -6zM901 73l16 -48h-36zM1476 73l17 -48h-36zM1031 -413q-13 0 -17 4q-10 3 -13 12l-2 6q0 1 -1 2q0 1 -1 3l7 2q4 1 8 1l2 -3q9 -13 17 -13q3 0 9 3t6 7q0 5 -3 8
q-2 2 -17 6q-18 4 -20 7q-8 13 -5 22q5 13 19 16q0 3 13 2q14 -2 20 -9q7 -3 7 -15v-3h-16v3q-5 11 -13 11q-1 0 -2 -1h-3q-9 -5 -9 -11l17 -6q16 -6 23 -13t7 -14q0 -4 -9 -18q-4 -6 -11 -8q-4 -1 -13 -1zM635 -414q-24 0 -33 22q-4 10 -4 20q0 15 3 22q1 3 10 12q5 5 13 8
q6 2 14 2q30 0 36 -29q3 -15 0 -27t-14 -22q-9 -8 -25 -8zM1281 -413q-24 0 -38 27q-3 7 -2 15l2 14q6 21 26 27q2 0 4 1t6 1q15 0 25 -10q5 -5 6 -8l2 -6l-8 -3l-6 -2q-3 0 -4 4q-4 11 -15 11q-9 0 -15 -8q-6 -7 -6 -16q0 -1 0.5 -5t0.5 -7q0 -5 3 -10q4 -11 16 -11
q11 0 16 13l2 5l8 -2q8 -3 8 -4l-2 -6q-11 -20 -29 -20zM1540 -413q-12 0 -20 6q-8 5 -12 14q-10 19 0 45q1 3 5 6.5t5 4.5q4 5 12 7q2 2 13 2q1 0 13 -3q2 -1 10 -8q5 -5 7 -9l1 -4q-2 -2 -9 -3l-8 -2q-1 1 -2 4q-4 9 -14 9q-12 0 -16 -9q-4 -10 -4 -19q0 -11 4 -19
q5 -8 16 -8t16 13q0 3 2 3v2l9 -3l5 -2v-3q0 -2 -2 -6l-3 -7q-11 -11 -28 -11zM112 -377l-8 -36h-9l-9 2l-19 79q0 2 8 2h9l11 -53q2 1 2 5q0 9 5 19q7 15 7 24l2 5h18l8 -27l6 -26q1 0 3 9l3 17q2 4 4 12.5t3 12.5q0 2 7 2q10 0 10 -2q-4 -10 -8 -32q-1 -5 -3.5 -13.5
t-3.5 -12.5l-4 -18v-5h-18v5l-4 10l-6 20l-6 25zM241 -381l-8 -32h-15q-2 2 -4 2l-3 12l-6 28l-6 27l-3 12q0 2 8 2h8q1 0 1 -2q1 -2 1 -7q4 -9 4 -18l6 -26l14 53h20q2 0 2 -2l7 -27l5 -27l13 54q0 2 7 2q9 0 9 -2q0 -1 -0.5 -4.5t-0.5 -5.5l-3 -15q-2 -10 -5 -15l-11 -41
h-7l-9 2l-9 30q0 1 -1 5.5t-1 5.5q0 2 -4 9q0 6 -1 9q-2 -6 -2 -9q-3 -6 -3 -9q0 -8 -3 -11zM377 -353l-15 -58l-10 -2q-8 0 -9 4l-2 12q-1 6 -7 27q-2 6 -4 16t-2 12l-3 12h16l5 -27l8 -26l3 9l11 44h19l8 -27q3 -24 8 -27q0 4 1 7q-1 2 3 20l6 27h8q9 0 9 -2q0 -1 -1 -4.5
t-1 -5.5q0 -3 -2 -15q0 -3 -2 -8t-3 -7l-11 -39l-7 -2h-10l-8 32l-5 21zM526 -393l-1 -18h-15v79q0 2 4 2h52v-14h-40v-19h33v-14h-33v-16zM727 -359v-54h-16v83h16l32 -53v53h15v-81l-7 -2h-8zM849 -344v-69h-17v69h-23v14h65v-14h-25zM907 -411l-8 -2h-7q0 2 -2 2l3 9
l9 22l11 26q1 2 3.5 10t4.5 12q0 2 7 2h9l33 -81q-2 0 -2 -2h-5l-11 2l-6 19h-32zM1135 -344v-69h-17v69h-25v14h65v-14h-23zM1206 -330v-83h-15v83h15zM1358 -411l-9 -2h-6l-2 2q2 3 4 9l7 22q5 14 10 26q2 4 5 11.5t4 10.5q0 2 9 2h9l32 -81q-2 0 -2 -2h-7l-9 2l-7 19h-31
zM1646 -413q-21 0 -30 12q-10 13 -10 29q0 7 8 25q6 14 19 17q17 0 37 -6q14 -4 14 -34q0 -20 -8 -31q-9 -12 -30 -12zM1735 -411l-8 -2h-7v83h25l6 -27l5 -18q2 -6 2 -8l7 24q2 6 4 12.5t3 10t1 4.5v2h26v-83h-17v63l-6 -28l-6 -21l-2 -10v-4h-10l-7 2l-6 30l-10 29v-59z
M637 -399q20 0 20 16v24q0 3 -10 13q-4 4 -9 4q-10 0 -18 -8q-2 -2 -4 -8q-1 -3 -1 -14q0 -12 7 -20q5 -7 15 -7zM1646 -399q7 0 10 4q11 5 11 23q0 21 -11 26q-2 1 -4 3q-1 1 -5 1q-15 0 -18 -9t-3 -21q0 -16 2 -19q5 -8 18 -8zM1377 -358l-8 -20h22l-5 14q-3 6 -3 7
q0 2 -1 3l-1 2zM930 -352l-5 -6l-6 -20h20q-2 5 -4 14q-3 6 -3 7q0 2 -1 3zM471 -395v-16h-16v16h16zM1468 -403l-1 -8h-14v16h15v-8z" />
    <glyph glyph-name="G.ss01" horiz-adv-x="1601" 
d="M842 -24q-233 0 -412.5 116.5t-267.5 310.5q-72 158 -72 347t72 346q88 194 267.5 310t412.5 116q215 0 385 -101.5t268 -274.5l9 -15l7 -15l-226 -120l-10 19q-59 124 -173 199.5t-260 75.5q-163 0 -281 -87t-170 -230q-37 -102 -37 -223q0 -122 37 -223
q52 -143 170 -230.5t281 -87.5q206 0 342 139q15 16 45 54q3 5 8.5 11t6.5 7l4 5q2 2 2 3q3 3 3 25q0 7 -0.5 21t-0.5 21l1 96h-451v231h705v-431q0 -8 -3 -14l-6 -15l-18 -35q-28 -48 -32 -54q-26 -42 -76 -94q-197 -203 -530 -203z" />
    <glyph glyph-name="Q.ss01" horiz-adv-x="1684" 
d="M1497 -154v-231h-253q-203 0 -346.5 99.5t-176.5 272.5q-203 30 -351.5 150t-219.5 296q-60 149 -60 317q0 172 62 321q83 204 265.5 327.5t424.5 123.5t424.5 -123.5t266.5 -327.5q62 -152 62 -321t-60 -318q-70 -173 -216 -292.5t-344 -151.5q30 -70 102.5 -106
t166.5 -36h253zM842 209q163 0 280.5 87t170.5 231q37 101 37 223q0 121 -37 223q-53 143 -170.5 230t-280.5 87q-159 0 -275 -83.5t-170 -221.5q-43 -107 -43 -235t43 -236q54 -139 170 -222t275 -83z" />
    <glyph glyph-name="g.001" horiz-adv-x="1262" 
d="M640 -411q-132 0 -248 55t-190 152q-29 39 -50 81l-14 28l219 119l9 -21q35 -85 104.5 -134.5t166.5 -49.5t170.5 47.5t103.5 129.5q14 39 16 92q0 8 0.5 23t1.5 23q-127 -84 -294 -84q-119 0 -222.5 44.5t-173 118.5t-109.5 169t-40 195q0 103 39 198t108 168t173 117
t225 44q167 0 292 -87v64h244v-994q0 -101 -38 -191.5t-106 -158.5t-168.5 -108t-218.5 -40zM635 281q135 0 213.5 85.5t78.5 210.5q0 124 -80 210.5t-214 86.5q-135 0 -212.5 -86t-77.5 -211q0 -126 78 -211t214 -85z" />
    <glyph glyph-name="uni030C.alt" horiz-adv-x="0" 
d="M-41 1490l-43 -533h-203l-45 533h291z" />
    <glyph glyph-name="uni0335.alt" horiz-adv-x="0" 
d="M-41 769v-220h-675v220h675z" />
    <glyph glyph-name="_FSHallmark" horiz-adv-x="1728" 
d="M1668 1375v-190h-1604v190h1604zM1322 287q-75 0 -132 18q-98 25 -161 98.5t-63 173.5l186 -4q0 -8 12 -32q3 -25 26.5 -49t47.5 -31q33 -20 92 -20q67 0 104 22q34 20 34 52q0 59 -152 88q-134 39 -234 88q-96 48 -96 158q0 86 55 137.5t149 86.5q2 0 52 7t80 7
q75 0 180 -38q68 -24 109 -85.5t41 -134.5h-192q0 42 -50 78q-5 1 -20.5 9t-25.5 9q-7 1 -22.5 5.5t-23.5 4.5q-44 0 -90 -28q-38 -23 -38 -58q0 -63 36 -78q2 -1 20 -9t32.5 -12.5t29.5 -6.5l72 -20l58 -14q7 -1 27 -6.5t31 -5.5q37 -9 44 -14l40 -18q38 -24 62 -52
q22 -51 24 -88q3 -41 -20 -94q-80 -144 -324 -144zM274 545v-258h-210v798h674v-180h-464v-182h388v-178h-388zM816 291q-32 0 -62 30q-34 28 -34 64t30 66q26 26 66 26q47 0 78 -28q32 -29 32 -64q0 -38 -32 -70q-36 -24 -78 -24zM1666 189v-190h-1606v190h1606z" />
    <glyph glyph-name="_Fontastica" horiz-adv-x="1338" 
d="M262 536v-340h-196q-3 0 -4.5 2t-1.5 4v2v1178h884v-174h-682v-490h682v-182h-682zM1278 1382v-1186h-884v184h682v482h-682v188h682v332h202zM252 2q-9 0 -36 8q-15 4 -25.5 22.5t-10.5 35.5q0 28 21.5 47t50.5 19q21 0 32.5 -7.5t25.5 -26.5q10 -13 10 -32
q0 -28 -20 -47t-48 -19zM770 2q-35 0 -60 20l14 26q20 -20 46 -20q16 0 16 12q0 1 -2 3.5t-2 4.5l-6 4q-6 0 -14 4q-5 3 -13 3.5t-11 2.5q-20 13 -20 34q0 38 52 38q24 0 52 -14l-14 -28q-16 16 -50 16q-2 0 -2 -2l-2 -8q0 -1 1 -3t1 -3q0 -2 1.5 -3.5l2.5 -2.5h2
q3 0 7.5 -2t6.5 -2q15 0 30.5 -12.5t15.5 -27.5q0 -19 -16 -29.5t-36 -10.5zM1068 2q-18 0 -34 8q-15 7 -24.5 24t-9.5 34q0 14 10.5 33.5t23.5 24.5q20 8 34 8q18 0 30 -6t22 -16l-20 -24q-3 5 -13.5 11.5t-16.5 6.5q-18 0 -30 -18q-4 -6 -4 -20q0 -24 16 -32q12 -6 18 -6
q5 0 16.5 6t13.5 10l20 -20q-18 -24 -52 -24zM112 50v-46h-34v128h96v-26h-62v-30h58v-26h-58zM368 80v-76h-32v128h30l58 -78v78h32v-128h-30zM542 104v-100h-34v100h-38v28h108v-28h-36zM608 28l-8 -24h-34l54 128h34l54 -128h-36l-8 24h-56zM898 104v-100h-32v100h-38v28
h108v-28h-38zM984 132v-128h-34v128h34zM1164 28l-10 -24h-34l56 128h34l54 -128h-36l-10 24h-54zM252 28q14 0 24 12.5t10 27.5q0 13 -10.5 25.5t-23.5 12.5q-8 0 -20 -6q-16 -8 -16 -32q0 -17 9.5 -28.5t26.5 -11.5zM654 52l-18 46l-18 -46h36zM1208 52l-18 46l-16 -46h34
z" />
    <glyph glyph-name="_www.fontastica.com" horiz-adv-x="3906" 
d="M132 627v-120h-68l-4 2v418h316v-62h-244v-174h244v-64h-244zM494 927v-420h-316v64h244v172h-244v66h244v118h72zM2500 541q-41 0 -86.5 15.5t-75.5 40.5l36 72q22 -19 61 -36.5t65 -17.5q16 0 32 8q14 7 14 22t-10 20q-18 12 -58 24q-55 17 -62 20q-26 11 -40 30
q-14 20 -14 56q0 53 40.5 80.5t97.5 27.5q74 0 140 -40l-34 -72q-70 36 -114 36q-36 0 -36 -24q0 -27 66 -44q45 -10 62 -20q28 -16 40 -32q16 -22 16 -58q0 -54 -41 -81t-99 -27zM1086 539q-79 0 -133.5 51.5t-54.5 130.5t54 129.5t134 50.5t134 -50.5t54 -129.5
t-53.5 -130.5t-134.5 -51.5zM3312 539q-77 0 -129.5 52.5t-52.5 129.5q0 78 53.5 129t132.5 51q86 0 140 -60l-52 -64q-34 46 -86 46q-43 0 -69.5 -28.5t-26.5 -71.5q0 -33 12 -52q31 -50 84 -50q46 0 86 40l54 -56q-66 -66 -146 -66zM708 671v-124h-90v348h260v-72h-170
v-78h156v-74h-156zM1406 755v-208h-86v348h80l160 -210l-2 210h86v-348h-80zM1876 821v-274h-90v274h-104v74h300v-74h-106zM2062 607l-24 -60h-94l150 348h94l146 -348h-96l-24 60h-152zM2852 821v-274h-92v274h-104v74h300v-74h-104zM3084 895v-348h-90v348h90zM3574 607
l-24 -60h-94l150 348h94l146 -348h-98l-22 60h-152zM1088 617q40 0 67 31.5t27 72.5q0 15 -14 52q-19 50 -80 50q-43 0 -69.5 -29t-26.5 -73q0 -42 27 -73t69 -31zM2186 677l-46 126l-50 -126h96zM3698 677l-48 126l-48 -126h96z" />
    </font>
</defs>
</svg>
