<?xml version="1.0" standalone="no"?>
<!DOCTYPE svg PUBLIC "-//W3C//DTD SVG 1.1//EN" "http://www.w3.org/Graphics/SVG/1.1/DTD/svg11.dtd" >
<svg xmlns="http://www.w3.org/2000/svg" xmlns:xlink="http://www.w3.org/1999/xlink" version="1.1">
<metadata>
Created by FontForge 20170731 at Mon Jan 25 21:52:06 2021
 By Aleksey,,,
Copyright (c) 2021 by Fontastica. All rights reserved.
</metadata>
<defs>
<font id="LuxoraGrotesk-Regular" horiz-adv-x="0" >
  <font-face 
    font-family="Luxora Grotesk"
    font-weight="400"
    font-stretch="normal"
    units-per-em="2048"
    panose-1="0 0 5 0 0 0 0 0 0 0"
    ascent="1638"
    descent="-410"
    x-height="1067"
    cap-height="1495"
    bbox="-1391 -458 3846 2075"
    underline-thickness="50"
    underline-position="-150"
    unicode-range="U+000D-F8FF"
  />
<missing-glyph horiz-adv-x="1318" 
d="M1268 1495v-1495h-1122v1495h1122zM970 1316h-523l259 -403zM1083 1143l-263 -395l263 -392v787zM590 748l-258 388v-773zM969 182l-263 402l-265 -403z" />
    <glyph glyph-name=".notdef" horiz-adv-x="1318" 
d="M1268 1495v-1495h-1122v1495h1122zM970 1316h-523l259 -403zM1083 1143l-263 -395l263 -392v787zM590 748l-258 388v-773zM969 182l-263 402l-265 -403z" />
    <glyph glyph-name=".null" 
 />
    <glyph glyph-name="nonmarkingreturn" horiz-adv-x="682" 
 />
    <glyph glyph-name="CR" unicode="&#xd;" horiz-adv-x="333" 
 />
    <glyph glyph-name="space" unicode=" " horiz-adv-x="486" 
 />
    <glyph glyph-name="exclam" unicode="!" horiz-adv-x="625" 
d="M425 1484l-10 -1076h-205l-10 1076h225zM425 275v-275h-225v275h225z" />
    <glyph glyph-name="quotedbl" unicode="&#x22;" horiz-adv-x="971" 
d="M435 1484v-570h-225v570h225zM761 1484v-570h-224v570h224z" />
    <glyph glyph-name="numbersign" unicode="#" horiz-adv-x="1560" 
d="M507 371l-108 -371h-227l108 371h-220v199h278l100 344h-221v198h278l108 372h227l-108 -372h331l108 372h227l-108 -372h220v-198h-278l-100 -344h221v-199h-278l-108 -371h-227l108 371h-331zM996 914h-332l-99 -344h331z" />
    <glyph glyph-name="dollar" unicode="$" horiz-adv-x="1297" 
d="M758 -20v-170h-205v181q-167 34 -288.5 144t-169.5 259l-5 14l202 87l7 -20q76 -220 254 -280v468l-49 15q-77 24 -121 47q-117 59 -180.5 153.5t-63.5 211.5q0 165 114.5 278t299.5 133v196h205v-202q153 -31 267 -129.5t161 -232.5l5 -14l-202 -92l-7 20
q-65 191 -224 244v-467l65 -19q180 -56 277 -152.5t97 -256.5q0 -173 -122 -285.5t-317 -130.5zM553 883v419q-88 -16 -138.5 -68.5t-50.5 -132.5q0 -77 51 -132.5t138 -85.5zM758 604v-423q96 14 155.5 67t59.5 135q0 89 -54.5 139.5t-160.5 81.5z" />
    <glyph glyph-name="percent" unicode="%" horiz-adv-x="2075" 
d="M576 767q-83 0 -155 32t-119.5 84.5t-74.5 118.5t-27 135q0 93 45 177t133 138.5t198 54.5q83 0 154 -32.5t118.5 -85t74 -118.5t26.5 -134q0 -92 -45 -176t-132 -139t-196 -55zM1497 1484l-681 -1484h-242l681 1484h242zM576 967q70 0 119 52t49 118t-49 118t-119 52
q-71 0 -120 -52t-49 -118t49 -118t120 -52zM1499 -23q-109 0 -196.5 54.5t-132 138t-44.5 175.5t44.5 176t132 139t196.5 55q110 0 198 -54.5t133 -138.5t45 -177t-45 -176.5t-133 -137.5t-198 -54zM1499 176q71 0 120 51t49 118t-49 118t-120 51q-70 0 -119.5 -51.5
t-49.5 -117.5t49.5 -117.5t119.5 -51.5z" />
    <glyph glyph-name="ampersand" unicode="&#x26;" horiz-adv-x="1830" 
d="M654 -23q-199 0 -331.5 113.5t-132.5 288.5q0 76 24.5 140.5t71 116t103 91.5t131.5 78l26 13q-150 162 -150 323q0 152 114.5 259t287.5 107q169 0 276.5 -102t107.5 -251q0 -70 -25 -129t-72.5 -105t-98.5 -79.5t-121 -68.5l277 -283l244 228h265l-375 -363l347 -354
h-284l-207 213q-55 -53 -100.5 -89t-106 -73t-128.5 -55.5t-143 -18.5zM730 909l31 15q50 25 82.5 44.5t66.5 48t50.5 62.5t16.5 75q0 76 -48.5 125t-130.5 49q-86 0 -141.5 -54.5t-55.5 -132.5q0 -103 129 -232zM654 176q91 0 172.5 47.5t170.5 129.5l-318 326l-56 -27
q-208 -103 -208 -273q0 -95 64.5 -149t174.5 -54z" />
    <glyph glyph-name="quotesingle" unicode="'" horiz-adv-x="644" 
d="M435 1484v-570h-225v570h225z" />
    <glyph glyph-name="parenleft" unicode="(" horiz-adv-x="848" 
d="M738 -239l19 -27h-207l-6 6q-163 183 -243.5 405.5t-80.5 464.5q0 241 80.5 463.5t243.5 403.5l6 7h208l-20 -28q-140 -192 -216.5 -408.5t-76.5 -437.5t76.5 -437.5t216.5 -411.5z" />
    <glyph glyph-name="parenright" unicode=")" horiz-adv-x="848" 
d="M303 -260l-6 -6h-207l20 27q294 408 294 849q0 220 -76.5 436.5t-217.5 409.5l-20 28h207l6 -7q164 -181 244.5 -403.5t80.5 -463.5q0 -242 -80.5 -465t-244.5 -405z" />
    <glyph glyph-name="asterisk" unicode="*" horiz-adv-x="1062" 
d="M691 716l-160 207l-160 -207l-167 119l158 208l-232 78l63 192l233 -76v247h209v-247l235 76l63 -192l-233 -78l158 -208z" />
    <glyph glyph-name="plus" unicode="+" horiz-adv-x="1258" 
d="M737 640v-329h-214v329h-333v208h333v327h214v-327h331v-208h-331z" />
    <glyph glyph-name="comma" unicode="," horiz-adv-x="726" 
d="M516 275l-152 -503h-174l86 503h240z" />
    <glyph glyph-name="hyphen" unicode="-" horiz-adv-x="1124" 
d="M933 644v-198h-743v198h743z" />
    <glyph glyph-name="period" unicode="." horiz-adv-x="644" 
d="M435 275v-275h-225v275h225z" />
    <glyph glyph-name="slash" unicode="/" horiz-adv-x="1002" 
d="M962 1484l-680 -1484h-242l681 1484h241z" />
    <glyph glyph-name="zero" unicode="0" horiz-adv-x="1482" 
d="M742 -23q-112 0 -207 37.5t-163 103t-115 144.5t-74 171q-43 140 -43 310q0 177 48 328q29 89 76.5 165t114.5 138t160 97.5t202 35.5t202 -35.5t160.5 -97.5t114.5 -138t76 -165q48 -151 48 -328q0 -178 -48 -329q-28 -89 -75.5 -165.5t-114.5 -138.5t-160 -97.5
t-202 -35.5zM742 185q71 0 131 28t102 76t70.5 103t45.5 119q28 106 28 232q0 134 -32 244q-18 62 -46.5 115t-70 98.5t-101 72t-128.5 26.5t-128 -26.5t-100.5 -72t-70 -98.5t-45.5 -115q-32 -110 -32 -244q0 -126 28 -231q17 -64 45 -119.5t70 -103.5t102.5 -76t131.5 -28
z" />
    <glyph glyph-name="one" unicode="1" horiz-adv-x="854" 
d="M554 1484v-1484h-225v1285h-269v199h494z" />
    <glyph glyph-name="two" unicode="2" horiz-adv-x="1245" 
d="M1125 198v-198h-1002v140l5 5l405 421q90 96 133 145q45 50 73 85.5t60 84.5t47.5 97.5t15.5 97.5q0 110 -62.5 171t-183.5 61q-122 0 -202.5 -61t-119.5 -170l-7 -20l-187 86l5 15q55 156 191.5 252.5t319.5 96.5q209 0 339.5 -124t130.5 -307q0 -62 -21.5 -127.5
t-49 -116t-78.5 -115t-83 -100t-90 -95.5l-308 -324h669z" />
    <glyph glyph-name="three" unicode="3" horiz-adv-x="1255" 
d="M621 -23q-185 0 -321 95.5t-195 253.5l-5 14l185 86l8 -19q41 -102 127 -166.5t201 -64.5q133 0 211 80.5t78 202.5q0 120 -79.5 201t-211.5 81q-53 0 -116 -10l-24 -3l2 151l321 405l-626 1v199h903v-177l-303 -379q110 -28 193.5 -103t124.5 -170t41 -196
q0 -99 -36.5 -187t-102 -153.5t-163 -103.5t-212.5 -38z" />
    <glyph glyph-name="four" unicode="4" horiz-adv-x="1318" 
d="M1033 335v-335h-205v335h-748v167l766 982h187v-960h185v-189h-185zM828 524v614l-475 -614h475z" />
    <glyph glyph-name="five" unicode="5" horiz-adv-x="1282" 
d="M634 -23q-187 0 -327.5 95.5t-201.5 253.5l-5 14l179 87l8 -20q43 -102 136.5 -166.5t210.5 -64.5q138 0 221 83.5t83 209.5t-83 208.5t-223 82.5q-82 0 -154.5 -33.5t-109.5 -92.5l-10 -16l-143 78l79 790h806v-199h-632l-37 -366q95 41 206 41q119 0 218.5 -39
t166 -106.5t103.5 -157t37 -190.5q0 -211 -145 -351.5t-383 -140.5z" />
    <glyph glyph-name="six" unicode="6" horiz-adv-x="1194" 
d="M597 -23q-117 0 -213 42t-157 112.5t-94 160t-33 186.5q0 108 55 239q28 64 114 218l313 549h254l-327 -550q43 9 88 9q107 0 201.5 -42t158 -110.5t100.5 -155t37 -176.5q0 -94 -35 -181t-98 -154t-157.5 -107t-206.5 -40zM597 176q124 0 198.5 84t74.5 199
q0 116 -74 199t-199 83q-124 0 -198 -83t-74 -199t74 -199.5t198 -83.5z" />
    <glyph glyph-name="seven" unicode="7" horiz-adv-x="1086" 
d="M1025 1313l-608 -1313h-238l599 1287h-698v199h945v-173z" />
    <glyph glyph-name="eight" unicode="8" horiz-adv-x="1297" 
d="M648 -23q-229 0 -378.5 132t-149.5 333q0 114 57.5 214.5t162.5 162.5q-69 54 -106 129.5t-37 159.5q0 170 129 284.5t322 114.5q197 0 323 -113t126 -286q0 -175 -141 -289q105 -61 163 -162t58 -215q0 -201 -150.5 -333t-378.5 -132zM648 907q98 0 161 57.5t63 143.5
q0 87 -63 143.5t-161 56.5q-97 0 -161 -57t-64 -143q0 -87 63.5 -144t161.5 -57zM648 176q132 0 218.5 75.5t86.5 190.5q0 116 -86.5 191t-218.5 75q-131 0 -217 -75.5t-86 -190.5t86 -190.5t217 -75.5z" />
    <glyph glyph-name="nine" unicode="9" horiz-adv-x="1194" 
d="M924 549l-312 -549h-253l326 550q-43 -9 -88 -9q-107 0 -201 42t-158 110t-101 155t-37 177q0 94 35 181t98 154t157.5 107t206.5 40q117 0 213.5 -42t157 -113t93.5 -160.5t33 -186.5q0 -107 -55 -238q-34 -80 -115 -218zM597 743q125 0 199 83t74 199q0 115 -74.5 199
t-198.5 84t-198 -83.5t-74 -199.5q0 -117 73.5 -199.5t198.5 -82.5z" />
    <glyph glyph-name="colon" unicode=":" horiz-adv-x="644" 
d="M435 1090v-275h-225v275h225zM435 275v-275h-225v275h225z" />
    <glyph glyph-name="semicolon" unicode=";" horiz-adv-x="746" 
d="M531 1090v-275h-225v275h225zM536 275l-152 -503h-174l86 503h240z" />
    <glyph glyph-name="less" unicode="&#x3c;" horiz-adv-x="1197" 
d="M437 747l592 -340v-231l-861 488v166l861 487v-230z" />
    <glyph glyph-name="equal" unicode="=" horiz-adv-x="1358" 
d="M1118 1076v-208h-878v208h878zM1118 620v-209h-878v209h878z" />
    <glyph glyph-name="greater" unicode="&#x3e;" horiz-adv-x="1157" 
d="M1029 830v-166l-861 -488v231l592 340l-592 340v230z" />
    <glyph glyph-name="question" unicode="?" horiz-adv-x="1188" 
d="M636 459v-51h-224v51q0 62 16.5 117.5t50 104t63.5 82t76 77.5l74 71q38 38 62 70q60 76 60 153q0 82 -54 128t-148 46q-220 0 -288 -230l-7 -21l-187 86l4 14q49 155 174.5 252.5t303.5 97.5q185 0 305.5 -105t120.5 -268q0 -57 -16.5 -109t-51 -100t-62.5 -78.5
t-76 -77.5q-50 -48 -73 -73q-37 -37 -63 -73q-60 -83 -60 -164zM641 275v-275h-223v275h223z" />
    <glyph glyph-name="at" unicode="@" horiz-adv-x="1902" 
d="M952 -127q-255 0 -456 127t-300 338q-76 165 -76 352t77 351q99 210 300.5 338t454.5 128q251 0 452 -129.5t300 -338.5q78 -165 78 -349q0 -61 -10.5 -119t-36.5 -117.5t-65.5 -103.5t-103.5 -72t-145 -28q-77 0 -140.5 29t-101.5 84q-103 -102 -272 -102
q-100 0 -183 38t-135.5 100.5t-81.5 140t-29 159.5q0 81 29 159t82 141t136 101.5t182 38.5q145 0 242 -85v66h201v-558q0 -51 20.5 -83.5t64.5 -32.5q72 0 107 88q25 65 25 156q0 137 -50 258q-69 165 -219 262.5t-346 97.5t-346.5 -97.5t-220.5 -262.5q-50 -121 -50 -258
t50 -258q70 -166 220.5 -263.5t346.5 -97.5q175 0 313 75l19 10l93 -172l-15 -9q-186 -102 -410 -102zM913 459q102 0 162.5 72t60.5 170q0 97 -60 166.5t-163 69.5q-102 0 -161.5 -70.5t-59.5 -167.5q0 -96 60.5 -168t160.5 -72z" />
    <glyph glyph-name="A" unicode="A" horiz-adv-x="1506" 
d="M471 401l-143 -401h-238l556 1495h215l556 -1495h-238l-142 401h-566zM964 600l-210 589l-211 -589h421z" />
    <glyph glyph-name="B" unicode="B" horiz-adv-x="1317" 
d="M727 0h-637v1495h637q198 0 320 -117.5t122 -291.5q0 -187 -138 -300q94 -62 145 -157t51 -202q0 -201 -135 -314t-365 -113zM715 1296h-399v-424h399q102 0 161 56.5t59 147.5q0 93 -60 156.5t-160 63.5zM727 673h-411v-474h411q125 0 196 60t71 168q0 110 -72 178
t-195 68z" />
    <glyph glyph-name="C" unicode="C" horiz-adv-x="1569" 
d="M829 -24q-230 0 -405.5 115.5t-262.5 308.5q-71 159 -71 347q0 186 71 347q87 192 262.5 307.5t405.5 115.5q212 0 379 -101t263 -273l8 -15l-193 -103l-9 18q-66 125 -182.5 199.5t-265.5 74.5q-172 0 -296 -92.5t-179 -244.5q-38 -106 -38 -233t38 -233
q55 -152 179 -244.5t296 -92.5q146 0 262 72t184 194l10 18l191 -106l-8 -14q-98 -167 -264.5 -266t-374.5 -99z" />
    <glyph glyph-name="D" unicode="D" horiz-adv-x="1392" 
d="M583 -2h-493v1497h493q153 0 288 -56q109 -46 193.5 -122t135.5 -169t76.5 -194.5t25.5 -206.5t-25.5 -206.5t-76.5 -194.5t-135.5 -169t-193.5 -122q-133 -57 -288 -57zM582 193q78 0 160 29q113 40 191 125.5t112.5 186.5t34.5 213q0 120 -38 225q-52 147 -172.5 237.5
t-287.5 90.5h-271v-1106q45 0 135.5 -0.5t135.5 -0.5z" />
    <glyph glyph-name="E" unicode="E" horiz-adv-x="1179" 
d="M1090 199v-199h-1000v1495h1000v-199h-774v-424h678v-199h-678v-474h774z" />
    <glyph glyph-name="F" unicode="F" horiz-adv-x="1179" 
d="M316 673v-673h-226v1495h1000v-199h-774v-424h678v-199h-678z" />
    <glyph glyph-name="G" unicode="G" horiz-adv-x="1569" 
d="M829 -24q-239 0 -418.5 124t-260.5 327q-60 147 -60 320t60 319q81 203 260.5 327t418.5 124q212 0 379 -101t263 -273l8 -15l-193 -103l-9 18q-66 125 -182.5 199.5t-265.5 74.5q-160 0 -280 -82t-180 -220q-53 -119 -53 -268q0 -145 53 -267q60 -137 180.5 -220
t279.5 -83q125 0 229 52t173 147q4 5 12 13l9 9q6 8 6 13l-1 193h-499v200h707v-804h-206v108q-187 -132 -430 -132z" />
    <glyph glyph-name="H" unicode="H" horiz-adv-x="1337" 
d="M316 673v-673h-226v1495h226v-623h705v623h225v-1495h-225v673h-705z" />
    <glyph glyph-name="I" unicode="I" horiz-adv-x="405" 
d="M316 1495v-1495h-226v1495h226z" />
    <glyph glyph-name="J" unicode="J" horiz-adv-x="1249" 
d="M625 -17q-128 0 -230.5 40.5t-168.5 111.5t-101 164.5t-35 202.5v18h227v-18q0 -83 35.5 -154.5t107.5 -117t165 -45.5q136 0 221.5 89t85.5 213v1001h227v-1001q0 -107 -36 -199t-102.5 -160t-168.5 -106.5t-227 -38.5z" />
    <glyph glyph-name="K" unicode="K" horiz-adv-x="1345" 
d="M316 528v-528h-226v1495h226v-655l598 655h278l-516 -569l579 -926h-264l-468 756z" />
    <glyph glyph-name="L" unicode="L" horiz-adv-x="1179" 
d="M1090 199v-199h-1000v1495h226v-1296h774z" />
    <glyph glyph-name="M" unicode="M" horiz-adv-x="1531" 
d="M316 1057v-1057h-226v1495h190l486 -697l484 697h190v-1495h-225v1053l-426 -611h-47z" />
    <glyph glyph-name="N" unicode="N" horiz-adv-x="1337" 
d="M316 1066v-1066h-226v1495h190l741 -1059v1059h225v-1495h-190z" />
    <glyph glyph-name="O" unicode="O" horiz-adv-x="1659" 
d="M829 -24q-237 0 -415.5 122t-261.5 323q-62 150 -62 326q0 175 62 326q83 200 261.5 322t415.5 122q243 0 424 -127.5t261 -335.5q55 -143 55 -307q0 -165 -55 -308q-80 -208 -261 -335.5t-424 -127.5zM829 177q172 0 296 92.5t179 244.5q39 108 39 233t-39 233
q-55 152 -179 244.5t-296 92.5q-167 0 -289.5 -89t-179.5 -235q-44 -112 -44 -246q0 -135 44 -247q57 -146 179.5 -234.5t289.5 -88.5z" />
    <glyph glyph-name="P" unicode="P" horiz-adv-x="1240" 
d="M316 556v-556h-226v1495h532q238 0 382.5 -130.5t144.5 -339.5q0 -210 -144.5 -339.5t-382.5 -129.5h-306zM622 1296h-306v-539h306q136 0 215.5 74.5t79.5 195.5q0 120 -80.5 194.5t-214.5 74.5z" />
    <glyph glyph-name="Q" unicode="Q" horiz-adv-x="1659" 
d="M1274 120l161 -279l-193 -103l-158 280q-123 -42 -255 -42q-225 0 -398.5 111t-262.5 298q-78 165 -78 362q0 196 78 362q89 186 262.5 297t398.5 111t399 -111t263 -297q78 -166 78 -362q0 -184 -73 -350.5t-222 -276.5zM829 177q81 0 154 21l-236 417l174 114l247 -426
q89 83 132 199.5t43 244.5q0 125 -39 233q-55 152 -179 244.5t-296 92.5t-296 -92.5t-179 -244.5q-38 -106 -38 -233t38 -233q55 -152 179 -244.5t296 -92.5z" />
    <glyph glyph-name="R" unicode="R" horiz-adv-x="1304" 
d="M316 556v-556h-226v1495h532q238 0 382.5 -130.5t144.5 -339.5q0 -141 -71.5 -254t-211.5 -170l348 -601h-262l-321 556h-315zM622 1296h-306v-539h306q136 0 215.5 74.5t79.5 195.5q0 120 -80.5 194.5t-214.5 74.5z" />
    <glyph glyph-name="S" unicode="S" horiz-adv-x="1295" 
d="M695 -24q-214 0 -377.5 118.5t-222.5 302.5l-5 14l204 87l7 -21q45 -137 144.5 -218.5t249.5 -81.5q120 0 202.5 55.5t82.5 153.5q0 89 -51 139t-157 81q-44 13 -132 38.5t-132 38.5q-169 49 -268.5 156t-99.5 259q0 186 141.5 303.5t353.5 117.5q196 0 349 -105
t211 -272l5 -14l-204 -92l-7 20q-43 121 -131.5 192t-220.5 71q-119 0 -195.5 -55.5t-76.5 -154.5q0 -83 57.5 -140t155.5 -86l249 -72q181 -54 279.5 -153t98.5 -259q0 -192 -145.5 -307.5t-364.5 -115.5z" />
    <glyph glyph-name="T" unicode="T" horiz-adv-x="1203" 
d="M715 1296v-1296h-225v1296h-400v199h1023v-199h-398z" />
    <glyph glyph-name="U" unicode="U" horiz-adv-x="1278" 
d="M639 -24q-254 0 -401.5 140t-147.5 364v1015h228v-1015q0 -128 89.5 -215.5t231.5 -87.5q141 0 231.5 88t90.5 215v1015h228v-1015q0 -224 -148.5 -364t-401.5 -140z" />
    <glyph glyph-name="V" unicode="V" horiz-adv-x="1506" 
d="M1417 1495l-556 -1495h-215l-556 1495h238l426 -1179l425 1179h238z" />
    <glyph glyph-name="W" unicode="W" horiz-adv-x="2138" 
d="M1069 1144l-326 -1144h-219l-434 1495h230l316 -1127l312 1127h241l313 -1123l316 1123h230l-434 -1495h-219z" />
    <glyph glyph-name="X" unicode="X" horiz-adv-x="1382" 
d="M692 561l-352 -561h-250l474 762l-458 733h253l333 -533l331 533h254l-461 -733l476 -762h-251z" />
    <glyph glyph-name="Y" unicode="Y" horiz-adv-x="1471" 
d="M849 688v-688h-225v688l-534 807h253l394 -594l391 594h253z" />
    <glyph glyph-name="Z" unicode="Z" horiz-adv-x="1294" 
d="M1204 199v-199h-1114v136l799 1160h-750v199h1048v-136l-800 -1160h817z" />
    <glyph glyph-name="bracketleft" unicode="[" horiz-adv-x="805" 
d="M675 65v-198h-455v1750h455v-198h-230v-1354h230z" />
    <glyph glyph-name="backslash" unicode="\" horiz-adv-x="1002" 
d="M282 1484l680 -1484h-241l-681 1484h242z" />
    <glyph glyph-name="bracketright" unicode="]" horiz-adv-x="805" 
d="M585 1617v-1750h-455v198h231v1354h-231v198h455z" />
    <glyph glyph-name="asciicircum" unicode="^" horiz-adv-x="1278" 
d="M640 1200l-206 -391h-244l360 675h179l359 -675h-244z" />
    <glyph glyph-name="underscore" unicode="_" horiz-adv-x="996" 
d="M966 65v-198h-936v198h936z" />
    <glyph glyph-name="grave" unicode="`" horiz-adv-x="492" 
d="M270 1640l184 -355h-197l-215 355h228z" />
    <glyph glyph-name="a" unicode="a" horiz-adv-x="1070" 
d="M483 -23q-172 0 -282.5 92t-110.5 244q0 68 29 124t80.5 95t111.5 65.5t131 42.5l333 75q0 83 -64.5 130t-163.5 47q-97 0 -152 -36.5t-55 -114.5l1 -18l-215 -2v18q-1 134 76.5 223t226.5 116q63 12 117 12q193 0 313.5 -102t120.5 -272v-716h-205v91
q-57 -53 -133.5 -83.5t-158.5 -30.5zM483 174q134 0 213 89t79 213v56l-281 -64q-80 -19 -134.5 -59t-54.5 -98q0 -65 49.5 -101t128.5 -36z" />
    <glyph glyph-name="b" unicode="b" horiz-adv-x="1243" 
d="M614 -25q-184 0 -319 99v-74h-205v1484h205v-489q136 100 319 100q172 0 301.5 -87.5t190.5 -232.5q47 -110 47 -241q0 -130 -47 -240q-61 -145 -190.5 -232t-301.5 -87zM614 176q103 0 177.5 53.5t108 133t33.5 171.5q0 68 -20 131.5t-58 115t-100.5 82.5t-140.5 31
t-140.5 -31t-101 -82.5t-58.5 -115t-20 -131.5q0 -92 34 -171.5t108.5 -133t177.5 -53.5z" />
    <glyph glyph-name="c" unicode="c" horiz-adv-x="1197" 
d="M629 -25q-175 0 -305.5 90t-190.5 238q-43 106 -43 231q0 124 43 232q60 148 190.5 238.5t305.5 90.5q152 0 273 -70.5t191 -192.5l9 -14l-185 -111l-10 18q-44 78 -115.5 123.5t-162.5 45.5q-78 0 -140.5 -31t-100.5 -82.5t-58 -115t-20 -131.5t20 -131t58.5 -114
t100.5 -82t140 -31q91 0 162.5 45.5t115.5 122.5l10 19l185 -112l-9 -14q-70 -121 -191 -191.5t-273 -70.5z" />
    <glyph glyph-name="d" unicode="d" horiz-adv-x="1243" 
d="M629 -25q-172 0 -301.5 87t-190.5 232q-47 110 -47 240q0 131 47 241q61 145 190.5 232.5t301.5 87.5q183 0 319 -100v489h205v-1484h-205v74q-135 -99 -319 -99zM629 176q103 0 177.5 53.5t108.5 133t34 171.5q0 68 -20 131.5t-58.5 115t-101 82.5t-140.5 31t-140.5 -31
t-100.5 -82.5t-58 -115t-20 -131.5t20 -131t58.5 -114t100.5 -82t140 -31z" />
    <glyph glyph-name="e" unicode="e" horiz-adv-x="1259" 
d="M629 -25q-164 0 -291 81t-191 216q-57 118 -57 262q0 143 57 263q64 136 191 217t291 81t291 -81t192 -217q57 -120 57 -263q0 -10 -0.5 -29t-0.5 -28v-18h-852q22 -120 104 -201.5t209 -81.5q91 0 162.5 45.5t115.5 122.5l10 19l185 -112l-9 -14q-70 -121 -191 -191.5
t-273 -70.5zM323 648h612q-28 108 -108 177t-198 69q-117 0 -197 -69.5t-109 -176.5z" />
    <glyph glyph-name="f" unicode="f" horiz-adv-x="868" 
d="M497 868v-868h-205v868h-202v199h202v74q0 104 48.5 191.5t149.5 131.5q71 31 153 31q71 0 120 -13l15 -4v-184l-24 5q-51 8 -97 8q-79 0 -119.5 -45.5t-40.5 -120.5v-74h246v-199h-246z" />
    <glyph glyph-name="g" unicode="g" horiz-adv-x="1232" 
d="M625 -419q-157 0 -285.5 77.5t-188.5 205.5l-7 14l185 101l9 -20q38 -83 112.5 -131.5t171.5 -48.5q138 0 225 84t89 208q1 29 1 87q-130 -107 -317 -107q-117 0 -218 44.5t-168.5 118t-105.5 166.5t-38 191q0 100 37.5 193.5t104 166t168 116t220.5 43.5q190 0 316 -111
v88h205v-996q0 -99 -36.5 -187.5t-102.5 -156t-164 -107t-213 -39.5zM620 250q146 0 231 93t85 228q0 133 -86.5 227t-231.5 94t-229 -93t-84 -228q0 -136 84 -228.5t231 -92.5z" />
    <glyph glyph-name="h" unicode="h" horiz-adv-x="1056" 
d="M295 644v-644h-205v1484h205v-457q99 62 232 62q195 0 317.5 -112t122.5 -283v-694h-206v644q0 107 -59.5 177.5t-172.5 70.5t-173.5 -70.5t-60.5 -177.5z" />
    <glyph glyph-name="i" unicode="i" horiz-adv-x="385" 
d="M295 1484v-273h-205v273h205zM295 1067v-1067h-205v1067h205z" />
    <glyph glyph-name="j" unicode="j" horiz-adv-x="656" 
d="M566 1484v-273h-205v273h205zM217 -419q-61 0 -112 11l-15 3v184l24 -3q51 -8 97 -8q73 0 111.5 47t38.5 119v1133h205v-1133q0 -104 -48 -191t-148 -132q-70 -30 -153 -30z" />
    <glyph glyph-name="k" unicode="k" horiz-adv-x="1083" 
d="M295 319v-319h-205v1484h205v-883l441 466h257l-409 -437l393 -630h-241l-294 477z" />
    <glyph glyph-name="l" unicode="l" horiz-adv-x="385" 
d="M295 1484v-1484h-205v1484h205z" />
    <glyph glyph-name="m" unicode="m" horiz-adv-x="1686" 
d="M295 644v-644h-205v1067h205v-40q98 62 226 62q218 0 324 -144q59 72 152 108.5t198 36.5q122 0 215 -57t139.5 -146t46.5 -192v-695h-205v646q0 105 -57 175.5t-166 70.5q-108 0 -165.5 -71t-57.5 -175v-646h-205v646q0 51 -14 96t-47.5 82.5t-83.5 54.5q-39 13 -72 13
q-34 0 -71 -13q-78 -24 -117.5 -88t-39.5 -147z" />
    <glyph glyph-name="n" unicode="n" horiz-adv-x="1056" 
d="M295 644v-644h-205v1067h205v-40q99 62 232 62q195 0 317.5 -112t122.5 -283v-694h-206v644q0 107 -59.5 177.5t-172.5 70.5t-173.5 -70.5t-60.5 -177.5z" />
    <glyph glyph-name="o" unicode="o" horiz-adv-x="1259" 
d="M629 -25q-173 0 -303.5 89t-190.5 235q-45 109 -45 235q0 120 40 223q57 151 189 244.5t310 93.5t310 -93.5t190 -244.5q40 -103 40 -223q0 -126 -45 -235q-61 -146 -191.5 -235t-303.5 -89zM629 176q103 0 177.5 53.5t108.5 133t34 171.5q0 68 -20 131.5t-58.5 115
t-101 82.5t-140.5 31t-140.5 -31t-100.5 -82.5t-58 -115t-20 -131.5t20 -131t58.5 -114t100.5 -82t140 -31z" />
    <glyph glyph-name="p" unicode="p" horiz-adv-x="1243" 
d="M295 73v-489h-205v1483h205v-74q136 101 319 101q172 0 301.5 -87.5t190.5 -232.5q47 -110 47 -241q0 -130 -47 -240q-61 -144 -191 -231.5t-301 -87.5q-184 0 -319 99zM614 175q103 0 177.5 53.5t108 133t33.5 171.5q0 68 -20 131.5t-58 115t-100.5 82.5t-140.5 31
t-140.5 -31t-101 -82.5t-58.5 -115t-20 -131.5q0 -92 34 -171.5t108.5 -133t177.5 -53.5z" />
    <glyph glyph-name="q" unicode="q" horiz-adv-x="1243" 
d="M1153 1067v-1483h-205v489q-135 -99 -319 -99q-171 0 -301 87.5t-191 231.5q-47 110 -47 240q0 131 47 241q61 145 190.5 232.5t301.5 87.5q183 0 319 -101v74h205zM629 175q103 0 177.5 53.5t108.5 133t34 171.5q0 68 -20 131.5t-58.5 115t-101 82.5t-140.5 31
t-140.5 -31t-100.5 -82.5t-58 -115t-20 -131.5t20 -131t58.5 -114t100.5 -82t140 -31z" />
    <glyph glyph-name="r" unicode="r" horiz-adv-x="730" 
d="M295 644v-644h-205v1067h205v-40q99 62 232 62q34 0 96 -8l17 -3v-204l-25 5q-54 13 -86 13q-113 0 -173.5 -70.5t-60.5 -177.5z" />
    <glyph glyph-name="s" unicode="s" horiz-adv-x="1038" 
d="M549 -23q-161 0 -281 84t-173 221l-5 13l183 93l8 -20q34 -87 103.5 -139.5t164.5 -52.5q75 0 127 33t52 92q0 45 -37 71t-105 46l-161 46q-279 81 -279 307q0 145 105 232t269 87q151 0 263 -78.5t160 -207.5l5 -14l-184 -88l-7 20q-31 78 -91.5 125t-145.5 47
q-68 0 -113.5 -29.5t-45.5 -83.5q0 -45 34 -73.5t96 -47.5q69 -22 169 -52q282 -87 282 -311q0 -146 -113.5 -233t-279.5 -87z" />
    <glyph glyph-name="t" unicode="t" horiz-adv-x="837" 
d="M629 -12q-170 0 -253.5 92.5t-83.5 243.5v544h-202v199h202v331h205v-331h246v-199h-246v-544q0 -79 34.5 -117.5t119.5 -38.5q25 0 73 6l23 3v-177l-17 -3q-59 -9 -101 -9z" />
    <glyph glyph-name="u" unicode="u" horiz-adv-x="1056" 
d="M529 -21q-195 0 -317 112t-122 283v693h205v-644q0 -106 60 -176t172 -70q113 0 173.5 70t60.5 176v644h206v-1067h-206v40q-100 -61 -232 -61z" />
    <glyph glyph-name="v" unicode="v" horiz-adv-x="1224" 
d="M1134 1067l-434 -1067h-178l-432 1067h231l291 -752l291 752h231z" />
    <glyph glyph-name="w" unicode="w" horiz-adv-x="1749" 
d="M876 724l-226 -724h-183l-377 1067h232l234 -720l220 720h197l219 -717l235 717h232l-379 -1067h-181z" />
    <glyph glyph-name="x" unicode="x" horiz-adv-x="1194" 
d="M598 367l-262 -367h-246l383 533l-383 534h246l262 -368l260 368h246l-383 -534l383 -533h-246z" />
    <glyph glyph-name="y" unicode="y" horiz-adv-x="1262" 
d="M1171 1067l-617 -1486h-227l184 461l-421 1025h235l307 -748l304 748h235z" />
    <glyph glyph-name="z" unicode="z" horiz-adv-x="1018" 
d="M928 198v-198h-838v158l552 710h-521v199h805v-157l-552 -712h554z" />
    <glyph glyph-name="braceleft" unicode="{" horiz-adv-x="800" 
d="M710 -68v-198h-101q-146 0 -229 86t-83 214v368q0 106 -88 106h-89v199h89q88 0 88 106v370q0 128 83 214.5t229 86.5h101v-199h-101q-40 0 -64 -27t-24 -66q0 -65 0.5 -195t0.5 -194q0 -114 -78 -195q80 -84 78 -198q0 -2 -0.5 -6t-0.5 -6v-372q0 -42 23.5 -68t64.5 -26
h101z" />
    <glyph glyph-name="bar" unicode="|" horiz-adv-x="744" 
d="M485 1675v-2037h-225v2037h225z" />
    <glyph glyph-name="braceright" unicode="}" horiz-adv-x="800" 
d="M190 -266h-100v198h100q40 0 64.5 27t24.5 67q0 64 -0.5 192t-0.5 193q0 116 78 197q-80 83 -78 195q0 3 0.5 9t0.5 9v371q0 41 -23.5 67t-65.5 26h-100v199h100q147 0 230 -86.5t83 -214.5v-370q0 -106 87 -106h90v-199h-90q-87 0 -87 -106v-368q0 -128 -83 -214
t-230 -86z" />
    <glyph glyph-name="asciitilde" unicode="~" horiz-adv-x="1393" 
d="M885 571q-100 0 -207 70l-38 25q-18 12 -35 20q-35 18 -69 18q-87 0 -107 -112l-2 -15h-197l2 19q5 57 22 108t49 97.5t87 74t128 27.5q44 0 85.5 -12t66 -24.5t57.5 -33.5l37 -25q30 -17 35 -20q36 -19 70 -19q75 0 94 113l3 15h197l-2 -19q-4 -45 -13.5 -85t-30 -82
t-50 -72t-76.5 -49t-106 -19z" />
    <glyph glyph-name="uni00A0" unicode="&#xa0;" horiz-adv-x="330" 
 />
    <glyph glyph-name="exclamdown" unicode="&#xa1;" horiz-adv-x="625" 
d="M425 1090v-275h-225v275h225zM415 682l10 -1076h-225l10 1076h205z" />
    <glyph glyph-name="cent" unicode="&#xa2;" horiz-adv-x="1159" 
d="M712 -17v-233h-204v239q-84 18 -155 58.5t-120.5 95t-84.5 121.5t-51.5 138.5t-16.5 144.5q0 92 27 180t78.5 164t135 132t187.5 78v238h204v-233q128 -21 229 -98t151 -185l7 -14l-185 -99l-9 19q-29 61 -79 107t-114 66v-714q64 19 114 65t79 108l9 19l185 -99l-7 -14
q-50 -109 -151 -186t-229 -98zM508 198v694q-101 -42 -157 -140t-56 -207q0 -108 56.5 -206.5t156.5 -140.5z" />
    <glyph glyph-name="sterling" unicode="&#xa3;" horiz-adv-x="1613" 
d="M1369 198v-198h-1108v198h232v446h-263l57 198h206v219q0 193 128.5 319.5t347.5 126.5q181 0 310 -96.5t181 -253.5l5 -14l-187 -86l-7 21q-36 105 -112 167.5t-190 62.5q-123 0 -187.5 -67t-64.5 -180v-219h563l-58 -198h-505v-446h652z" />
    <glyph glyph-name="currency" unicode="&#xa4;" horiz-adv-x="1336" 
d="M453 192l-151 -150l-142 141l150 149q-62 101 -62 213q0 111 63 213l-151 148l142 142l152 -150q105 61 214 61q111 0 215 -61l150 150l143 -142l-151 -148q63 -102 63 -213q0 -115 -62 -213l150 -149l-143 -141l-150 150q-101 -61 -215 -61q-115 0 -215 61zM668 341
q87 0 145.5 61.5t58.5 142.5t-58.5 143t-145.5 62q-88 0 -146.5 -61.5t-58.5 -143.5t58.5 -143t146.5 -61z" />
    <glyph glyph-name="yen" unicode="&#xa5;" horiz-adv-x="1382" 
d="M804 293v-293h-224v293h-443v198h443v88h-443v198h380l-467 707h252l390 -589l388 589h252l-466 -707h357v-198h-419v-88h419v-198h-419z" />
    <glyph glyph-name="brokenbar" unicode="&#xa6;" horiz-adv-x="744" 
d="M485 1675v-781h-225v781h225zM485 420v-782h-225v782h225z" />
    <glyph glyph-name="section" unicode="&#xa7;" horiz-adv-x="1291" 
d="M682 -85q-165 0 -288.5 85t-178.5 225l-5 14l185 91l8 -20q35 -89 107.5 -143t171.5 -54q78 0 133.5 35t55.5 96q0 82 -148 123q-25 7 -53 14.5t-62 16.5t-53 14q-135 37 -211 115t-76 199q0 148 110 228q-110 89 -110 229q0 148 107 236t276 88q156 0 271 -80t164 -212
l6 -15l-187 -86l-7 20q-32 80 -95 127t-152 47q-72 0 -120 -29.5t-48 -85.5q0 -85 137 -128q100 -29 176 -52q133 -39 211 -117.5t78 -198.5q0 -143 -121 -222q121 -92 121 -235q0 -150 -116 -237.5t-287 -87.5zM683 589l39 -11l13 -4l4 1q2 0 7.5 1.5t6.5 1.5l23 7
q44 16 69.5 46t25.5 70q0 82 -148 123l-137 37q-46 -15 -74.5 -49.5t-28.5 -76.5q0 -86 137 -127z" />
    <glyph glyph-name="dieresis" unicode="&#xa8;" horiz-adv-x="697" 
d="M193 1285q-67 0 -107 43.5t-40 100.5q0 56 40.5 98.5t106.5 42.5q65 0 105 -43t40 -98q0 -56 -40 -100t-105 -44zM518 1285q-66 0 -106 43.5t-40 100.5q0 55 41 98t105 43q63 0 104 -43.5t41 -97.5q0 -55 -40.5 -99.5t-104.5 -44.5z" />
    <glyph glyph-name="copyright" unicode="&#xa9;" horiz-adv-x="1950" 
d="M976 -23q-244 0 -436 131t-280 337q-60 143 -60 298q0 154 60 295q87 206 279.5 337.5t436.5 131.5q236 0 425.5 -126t280.5 -324q68 -151 68 -314q0 -167 -69 -318q-91 -198 -280 -323t-425 -125zM976 176q178 0 319 95t206 248q44 104 44 224q0 108 -41.5 210t-114 181
t-181 126.5t-232.5 47.5q-126 0 -234.5 -47.5t-181 -126t-114 -180.5t-41.5 -211q0 -120 44 -224q65 -154 206 -248.5t321 -94.5zM985 311q-99 0 -180.5 37t-133.5 98.5t-80 138.5t-28 158t28 157.5t80 137.5t133.5 98t180.5 37q124 0 226 -65t139 -169l5 -14l-177 -86
l-8 21q-23 59 -71.5 96.5t-113.5 37.5q-105 0 -163.5 -74.5t-58.5 -176.5q0 -103 58.5 -178.5t163.5 -75.5q65 0 113.5 38t71.5 99l8 21l177 -89l-5 -14q-37 -103 -138.5 -168t-226.5 -65z" />
    <glyph glyph-name="ordfeminine" unicode="&#xaa;" horiz-adv-x="851" 
d="M371 684q-127 0 -209 68t-82 180q0 98 72 156.5t184 84.5l219 49q-3 43 -36 68.5t-84 25.5q-53 0 -93.5 -30.5t-60.5 -79.5l-8 -20l-175 89l6 14q39 92 129.5 150t201.5 58q140 0 228 -79.5t88 -202.5v-516h-192v46q-83 -61 -188 -61zM380 858q78 0 126.5 52.5
t48.5 125.5v20l-173 -40q-99 -23 -99 -86q0 -35 26 -53.5t71 -18.5z" />
    <glyph glyph-name="guillemotleft" unicode="&#xab;" horiz-adv-x="1342" 
d="M391 545l319 -394h-262l-318 394l318 394h262zM853 545l318 -394h-260l-319 394l319 394h260z" />
    <glyph glyph-name="uni00AD" unicode="&#xad;" horiz-adv-x="1124" 
d="M933 644v-198h-743v198h743z" />
    <glyph glyph-name="registered" unicode="&#xae;" horiz-adv-x="1950" 
d="M976 -23q-244 0 -436 131t-280 337q-60 143 -60 298q0 154 60 295q87 206 279.5 337.5t436.5 131.5q236 0 425.5 -126t280.5 -324q68 -151 68 -314q0 -167 -69 -318q-91 -198 -280 -323t-425 -125zM976 176q224 0 386 147h-209l-163 290h-110v-290h-199v841h333
q141 0 224.5 -76t83.5 -200q0 -73 -33 -134.5t-100 -98.5l185 -320q81 78 127 184q44 104 44 224q0 108 -41.5 210t-114 181t-181 126.5t-232.5 47.5q-126 0 -234.5 -47.5t-181 -126t-114 -180.5t-41.5 -211q0 -120 44 -224q65 -154 206 -248.5t321 -94.5zM1016 987h-136
v-196h136q48 0 77 26.5t29 70.5q0 45 -28.5 72t-77.5 27z" />
    <glyph glyph-name="macron" unicode="&#xaf;" horiz-adv-x="568" 
d="M528 1397v-178h-488v178h488z" />
    <glyph glyph-name="degree" unicode="&#xb0;" horiz-adv-x="1082" 
d="M541 838q-148 0 -244.5 101.5t-96.5 231.5q0 132 96 234t245 102t245 -102t96 -234q0 -130 -96.5 -231.5t-244.5 -101.5zM539 1021q62 0 107 46t45 104q0 60 -44.5 106.5t-107.5 46.5t-105.5 -46.5t-42.5 -106.5q0 -59 43 -104.5t105 -45.5z" />
    <glyph glyph-name="plusminus" unicode="&#xb1;" horiz-adv-x="1258" 
d="M737 640v-329h-214v329h-333v208h333v327h214v-327h331v-208h-331zM1068 208v-208h-878v208h878z" />
    <glyph glyph-name="acute" unicode="&#xb4;" horiz-adv-x="492" 
d="M480 1640l-214 -355h-198l184 355h228z" />
    <glyph glyph-name="uni00B5" unicode="&#xb5;" horiz-adv-x="1115" 
d="M317 26v-407h-197v1471h197v-705q0 -97 54.5 -161t156.5 -64q67 0 133.5 24t116.5 65v841h197v-1090h-197v43q-129 -66 -265 -66q-106 0 -196 49z" />
    <glyph glyph-name="paragraph" unicode="&#xb6;" horiz-adv-x="828" 
d="M659 1484v-1674h-225v998q-91 10 -161.5 61.5t-106.5 124t-36 151.5q0 84 40 160.5t119 127.5t180 51h190z" />
    <glyph glyph-name="periodcentered" unicode="&#xb7;" horiz-adv-x="644" 
d="M435 880v-275h-225v275h225z" />
    <glyph glyph-name="cedilla" unicode="&#xb8;" horiz-adv-x="582" 
d="M299 -392q-142 0 -249 104l-10 9l85 138l20 -20q27 -28 65.5 -46.5t76.5 -18.5q35 0 55 17t20 48q0 37 -37 75.5t-81 64t-95 45.5l-45 19l171 53l7 -3q112 -37 186 -107.5t74 -170.5q0 -93 -69 -150t-174 -57z" />
    <glyph glyph-name="ordmasculine" unicode="&#xba;" horiz-adv-x="979" 
d="M490 684q-94 0 -173 34.5t-130 92t-79 130.5t-28 151q0 105 47.5 196t143 150t219.5 59q94 0 172.5 -34.5t129.5 -91.5t79 -129.5t28 -149.5q0 -78 -28 -150.5t-79 -130t-129.5 -92.5t-172.5 -35zM490 866q94 0 151 67t57 157q0 89 -57 156.5t-151 67.5t-150.5 -67
t-56.5 -157t56.5 -157t150.5 -67z" />
    <glyph glyph-name="guillemotright" unicode="&#xbb;" horiz-adv-x="1342" 
d="M750 545l-319 -394h-261l318 394l-318 394h261zM1211 545l-318 -394h-261l319 394l-319 394h261z" />
    <glyph glyph-name="questiondown" unicode="&#xbf;" horiz-adv-x="1188" 
d="M771 1507v-274h-225v274h225zM576 0q-185 0 -305.5 105t-120.5 268q0 58 16.5 110t51 99.5t62.5 78.5t76 77q50 48 74 72q38 40 62 73q60 81 60 165v52h225v-52q0 -62 -16.5 -117.5t-50.5 -104.5t-63.5 -82t-76.5 -78q-9 -8 -24 -22.5t-27 -26t-22 -21.5q-42 -42 -63 -70
q-59 -77 -59 -153q0 -82 53.5 -128.5t147.5 -46.5q220 0 288 231l7 22l187 -87l-4 -14q-49 -156 -174 -253t-304 -97z" />
    <glyph glyph-name="Agrave" unicode="&#xc0;" horiz-adv-x="1463" 
d="M777 2000l185 -356h-198l-216 356h229zM449 401l-143 -401h-238l556 1495h215l556 -1495h-238l-142 401h-566zM942 600l-210 589l-211 -589h421z" />
    <glyph glyph-name="Aacute" unicode="&#xc1;" horiz-adv-x="1463" 
d="M966 2000l-215 -356h-199l185 356h229zM449 401l-143 -401h-238l556 1495h215l556 -1495h-238l-142 401h-566zM942 600l-210 589l-211 -589h421z" />
    <glyph glyph-name="Acircumflex" unicode="&#xc2;" horiz-adv-x="1463" 
d="M732 1832l-141 -188h-217l267 356h180l271 -356h-217zM449 401l-143 -401h-238l556 1495h215l556 -1495h-238l-142 401h-566zM942 600l-210 589l-211 -589h421z" />
    <glyph glyph-name="Atilde" unicode="&#xc3;" horiz-adv-x="1463" 
d="M885 1644q-70 0 -147 46q-36 22 -50 29q-24 11 -42 11q-17 0 -28 -17q-10 -15 -14 -43l-1 -16h-182l1 18q5 89 61 159.5t157 70.5q70 0 147 -46q4 -2 22.5 -12.5t27.5 -15.5q25 -11 42 -11t29 18q11 18 13 44l2 16h179l-1 -18q-2 -41 -15 -80.5t-37.5 -74.5t-67 -56.5
t-96.5 -21.5zM449 401l-143 -401h-238l556 1495h215l556 -1495h-238l-142 401h-566zM942 600l-210 589l-211 -589h421z" />
    <glyph glyph-name="Adieresis" unicode="&#xc4;" horiz-adv-x="1463" 
d="M560 1644q-66 0 -106.5 43.5t-40.5 100.5q0 56 41 99t106 43t105.5 -43t40.5 -99q0 -57 -39.5 -100.5t-106.5 -43.5zM889 1644q-68 0 -108 43t-40 101q0 56 41.5 99t106.5 43q63 0 104.5 -44t41.5 -98q0 -55 -41 -99.5t-105 -44.5zM449 401l-143 -401h-238l556 1495h215
l556 -1495h-238l-142 401h-566zM942 600l-210 589l-211 -589h421z" />
    <glyph glyph-name="Aring" unicode="&#xc5;" horiz-adv-x="1463" 
d="M730 1644q-99 0 -161.5 65t-62.5 152q0 86 62.5 150t161.5 64t162.5 -64t63.5 -150t-63.5 -151.5t-162.5 -65.5zM730 1801q25 0 42.5 17.5t17.5 42.5q0 24 -17.5 40.5t-42.5 16.5t-41.5 -16.5t-16.5 -40.5q0 -25 16.5 -42.5t41.5 -17.5zM449 401l-143 -401h-238l556 1495
h215l556 -1495h-238l-142 401h-566zM942 600l-210 589l-211 -589h421z" />
    <glyph glyph-name="AE" unicode="&#xc6;" horiz-adv-x="1809" 
d="M471 401l-143 -401h-238l556 1495l1072 3v-199h-773v-424h677v-199h-677v-474h773v-199h-999v398h-248zM719 600v491l-176 -491h176z" />
    <glyph glyph-name="Ccedilla" unicode="&#xc7;" horiz-adv-x="1569" 
d="M782 -396q-140 0 -250 105l-10 9l85 139l19 -20q68 -66 146 -66q35 0 54.5 17.5t19.5 48.5q0 67 -87 125l-19 14l-18 9q-8 2 -11 2q-4 1 -10.5 1.5t-10.5 0.5q-7 2 -18.5 3.5t-18.5 3.5q-74 17 -137 46q-109 49 -192.5 127t-133.5 172.5t-75 196.5t-25 209q0 192 73 352
q87 190 262.5 304t403.5 114q212 0 379 -101t263 -273l8 -15l-193 -103l-9 18q-66 125 -182.5 199.5t-265.5 74.5q-164 0 -285.5 -85.5t-179.5 -227.5q-48 -116 -48 -257q0 -142 48 -258q58 -142 179.5 -227t285.5 -85q146 0 262 72t184 194l10 18l191 -106l-8 -14
q-83 -141 -215 -235t-301 -120q75 -75 75 -172q0 -94 -69.5 -152t-175.5 -58z" />
    <glyph glyph-name="Egrave" unicode="&#xc8;" horiz-adv-x="1149" 
d="M577 2000l184 -356h-198l-215 356h229zM1074 199v-199h-1000v1495h1000v-199h-774v-424h678v-199h-678v-474h774z" />
    <glyph glyph-name="Eacute" unicode="&#xc9;" horiz-adv-x="1149" 
d="M882 2000l-216 -356h-198l184 356h230zM1074 199v-199h-1000v1495h1000v-199h-774v-424h678v-199h-678v-474h774z" />
    <glyph glyph-name="Ecircumflex" unicode="&#xca;" horiz-adv-x="1149" 
d="M599 1832l-140 -188h-217l267 356h180l271 -356h-217zM1074 199v-199h-1000v1495h1000v-199h-774v-424h678v-199h-678v-474h774z" />
    <glyph glyph-name="Edieresis" unicode="&#xcb;" horiz-adv-x="1149" 
d="M437 1644q-67 0 -107 43.5t-40 100.5t40.5 99.5t106.5 42.5q64 0 105 -43.5t41 -98.5q0 -56 -40 -100t-106 -44zM764 1644q-67 0 -107.5 43.5t-40.5 100.5q0 55 42 98.5t106 43.5t105 -44t41 -98q0 -55 -40.5 -99.5t-105.5 -44.5zM1074 199v-199h-1000v1495h1000v-199
h-774v-424h678v-199h-678v-474h774z" />
    <glyph glyph-name="Igrave" unicode="&#xcc;" horiz-adv-x="395" 
d="M229 2000l185 -356h-198l-217 356h230zM311 1495v-1495h-225v1495h225z" />
    <glyph glyph-name="Iacute" unicode="&#xcd;" horiz-adv-x="395" 
d="M416 2000l-216 -356h-198l185 356h229zM309 1495v-1495h-225v1495h225z" />
    <glyph glyph-name="Icircumflex" unicode="&#xce;" horiz-adv-x="396" 
d="M193 1833l-141 -189h-217l267 357h180l271 -357h-217zM311 1495v-1495h-226v1495h226z" />
    <glyph glyph-name="Idieresis" unicode="&#xcf;" horiz-adv-x="363" 
d="M10 1644q-67 0 -107 43.5t-40 100.5q0 56 41 99t106 43t105.5 -43.5t40.5 -98.5q0 -56 -40 -100t-106 -44zM338 1644q-67 0 -107.5 43t-40.5 101q0 55 41.5 98.5t106.5 43.5q63 0 104.5 -44t41.5 -98q0 -55 -40.5 -99.5t-105.5 -44.5zM294 1495v-1495h-226v1495h226z" />
    <glyph glyph-name="Ntilde" unicode="&#xd1;" horiz-adv-x="1306" 
d="M763 1644q-69 0 -146 46q-36 22 -50 29q-25 11 -42 11t-29 -17q-11 -17 -13 -43l-2 -16h-181l1 18q4 89 60.5 159.5t157.5 70.5q70 0 147 -46q34 -20 50 -28q24 -11 41 -11q19 0 29 18q10 16 14 44l1 16h180l-1 -18q-2 -41 -15 -80.5t-38 -74.5t-67.5 -56.5t-96.5 -21.5z
M300 1066v-1066h-226v1495h190l741 -1059v1059h225v-1495h-190z" />
    <glyph glyph-name="Ograve" unicode="&#xd2;" horiz-adv-x="1628" 
d="M845 2000l185 -356h-199l-215 356h229zM813 -24q-237 0 -415.5 122t-261.5 323q-62 150 -62 326q0 175 62 326q83 200 261.5 322t415.5 122q243 0 424 -127.5t261 -335.5q55 -143 55 -307q0 -165 -55 -308q-80 -208 -261 -335.5t-424 -127.5zM813 177q172 0 296 92.5
t179 244.5q39 108 39 233t-39 233q-55 152 -179 244.5t-296 92.5q-167 0 -289.5 -89t-179.5 -235q-44 -112 -44 -246q0 -135 44 -247q57 -146 179.5 -234.5t289.5 -88.5z" />
    <glyph glyph-name="Oacute" unicode="&#xd3;" horiz-adv-x="1628" 
d="M1052 2000l-216 -356h-199l186 356h229zM813 -24q-237 0 -415.5 122t-261.5 323q-62 150 -62 326q0 175 62 326q83 200 261.5 322t415.5 122q243 0 424 -127.5t261 -335.5q55 -143 55 -307q0 -165 -55 -308q-80 -208 -261 -335.5t-424 -127.5zM813 177q172 0 296 92.5
t179 244.5q39 108 39 233t-39 233q-55 152 -179 244.5t-296 92.5q-167 0 -289.5 -89t-179.5 -235q-44 -112 -44 -246q0 -135 44 -247q57 -146 179.5 -234.5t289.5 -88.5z" />
    <glyph glyph-name="Ocircumflex" unicode="&#xd4;" horiz-adv-x="1628" 
d="M812 1832l-141 -188h-216l267 356h180l271 -356h-217zM813 -24q-237 0 -415.5 122t-261.5 323q-62 150 -62 326q0 175 62 326q83 200 261.5 322t415.5 122q243 0 424 -127.5t261 -335.5q55 -143 55 -307q0 -165 -55 -308q-80 -208 -261 -335.5t-424 -127.5zM813 177
q172 0 296 92.5t179 244.5q39 108 39 233t-39 233q-55 152 -179 244.5t-296 92.5q-167 0 -289.5 -89t-179.5 -235q-44 -112 -44 -246q0 -135 44 -247q57 -146 179.5 -234.5t289.5 -88.5z" />
    <glyph glyph-name="Otilde" unicode="&#xd5;" horiz-adv-x="1628" 
d="M936 1643q-68 0 -147 47q-45 27 -50 29q-24 11 -42 11q-17 0 -28 -18q-10 -15 -14 -43l-2 -16h-181l1 18q4 89 60.5 160t157.5 71q71 0 148 -46q31 -20 50 -29q24 -11 41 -11t29 19q11 21 13 44l1 16h181l-1 -18q-2 -41 -15.5 -80.5t-38.5 -75t-67 -57t-96 -21.5z
M813 -24q-237 0 -415.5 122t-261.5 323q-62 150 -62 326q0 175 62 326q83 200 261.5 322t415.5 122q243 0 424 -127.5t261 -335.5q55 -143 55 -307q0 -165 -55 -308q-80 -208 -261 -335.5t-424 -127.5zM813 177q172 0 296 92.5t179 244.5q39 108 39 233t-39 233
q-55 152 -179 244.5t-296 92.5q-167 0 -289.5 -89t-179.5 -235q-44 -112 -44 -246q0 -135 44 -247q57 -146 179.5 -234.5t289.5 -88.5z" />
    <glyph glyph-name="Odieresis" unicode="&#xd6;" horiz-adv-x="1628" 
d="M654 1644q-68 0 -107.5 43.5t-39.5 100.5t40.5 99.5t106.5 42.5q64 0 105 -43.5t41 -98.5q0 -56 -40 -100t-106 -44zM981 1644q-67 0 -107.5 43t-40.5 101q0 55 41.5 98.5t106.5 43.5q64 0 105 -44t41 -98q0 -55 -40.5 -99.5t-105.5 -44.5zM813 -24q-237 0 -415.5 122
t-261.5 323q-62 150 -62 326q0 175 62 326q83 200 261.5 322t415.5 122q243 0 424 -127.5t261 -335.5q55 -143 55 -307q0 -165 -55 -308q-80 -208 -261 -335.5t-424 -127.5zM813 177q172 0 296 92.5t179 244.5q39 108 39 233t-39 233q-55 152 -179 244.5t-296 92.5
q-167 0 -289.5 -89t-179.5 -235q-44 -112 -44 -246q0 -135 44 -247q57 -146 179.5 -234.5t289.5 -88.5z" />
    <glyph glyph-name="multiply" unicode="&#xd7;" horiz-adv-x="1234" 
d="M894 322l-277 274l-277 -274l-150 148l277 275l-275 272l150 148l275 -272l275 272l150 -148l-275 -272l277 -275z" />
    <glyph glyph-name="Oslash" unicode="&#xd8;" horiz-adv-x="1659" 
d="M611 7l-51 -100h-243l94 194q-162 108 -241.5 280.5t-79.5 365.5q0 184 68 340q86 195 262.5 312.5t408.5 117.5q111 0 218 -30l34 78h243l-77 -172q110 -73 184 -181.5t106 -224t32 -240.5q0 -184 -69 -341q-85 -195 -261.5 -312.5t-409.5 -117.5q-109 0 -218 31z
M500 295l461 1006q-61 16 -132 16q-166 0 -288.5 -88t-180.5 -234q-44 -112 -44 -248q0 -132 45 -251t139 -201zM829 177q167 0 289.5 88t179.5 233q45 113 45 249q0 132 -45 251t-140 201l-462 -1006q63 -16 133 -16z" />
    <glyph glyph-name="Ugrave" unicode="&#xd9;" horiz-adv-x="1248" 
d="M554 2000l185 -356h-199l-216 356h230zM623 -24q-254 0 -401.5 140t-147.5 364v1015h228v-1015q0 -128 89.5 -215.5t231.5 -87.5q141 0 231.5 88t90.5 215v1015h228v-1015q0 -224 -148.5 -364t-401.5 -140z" />
    <glyph glyph-name="Uacute" unicode="&#xda;" horiz-adv-x="1248" 
d="M857 2000l-217 -356h-198l185 356h230zM623 -24q-254 0 -401.5 140t-147.5 364v1015h228v-1015q0 -128 89.5 -215.5t231.5 -87.5q141 0 231.5 88t90.5 215v1015h228v-1015q0 -224 -148.5 -364t-401.5 -140z" />
    <glyph glyph-name="Ucircumflex" unicode="&#xdb;" horiz-adv-x="1248" 
d="M609 1832l-141 -188h-217l267 356h180l271 -356h-217zM623 -24q-254 0 -401.5 140t-147.5 364v1015h228v-1015q0 -128 89.5 -215.5t231.5 -87.5q141 0 231.5 88t90.5 215v1015h228v-1015q0 -224 -148.5 -364t-401.5 -140z" />
    <glyph glyph-name="Udieresis" unicode="&#xdc;" horiz-adv-x="1248" 
d="M461 1641q-67 0 -107 43.5t-40 100.5q0 56 41 99.5t106 43.5t105.5 -43.5t40.5 -99.5t-40 -100t-106 -44zM789 1641q-67 0 -107.5 43t-40.5 101q0 56 41.5 99.5t106.5 43.5q64 0 105 -44.5t41 -98.5q0 -55 -40.5 -99.5t-105.5 -44.5zM623 -24q-254 0 -401.5 140
t-147.5 364v1015h228v-1015q0 -128 89.5 -215.5t231.5 -87.5q141 0 231.5 88t90.5 215v1015h228v-1015q0 -224 -148.5 -364t-401.5 -140z" />
    <glyph glyph-name="Yacute" unicode="&#xdd;" horiz-adv-x="1415" 
d="M957 1994l-216 -356h-199l186 356h229zM820 688v-688h-225v688l-534 807h253l394 -594l391 594h253z" />
    <glyph glyph-name="germandbls" unicode="&#xdf;" horiz-adv-x="1297" 
d="M322 1068v-1068h-232v1077q0 174 120.5 290.5t317.5 116.5h183q197 0 317.5 -116.5t120.5 -290.5q0 -186 -137 -297q95 -62 145.5 -156t50.5 -201q0 -200 -135 -311.5t-363 -111.5h-211l-1 198h212q123 0 194 59t71 166q0 109 -71.5 176.5t-193.5 67.5h-214v198h202
q102 0 161 56t59 147q0 92 -60 154.5t-160 62.5h-157q-99 0 -159 -62.5t-60 -154.5z" />
    <glyph glyph-name="agrave" unicode="&#xe0;" horiz-adv-x="1039" 
d="M560 1573l183 -354h-197l-214 354h228zM467 -23q-172 0 -282.5 92t-110.5 244q0 68 29 124t80.5 95t111.5 65.5t131 42.5l333 75q0 83 -64.5 130t-163.5 47q-97 0 -152 -36.5t-55 -114.5l1 -18l-215 -2v18q-1 134 76.5 223t226.5 116q63 12 117 12q193 0 313.5 -102
t120.5 -272v-716h-205v91q-57 -53 -133.5 -83.5t-158.5 -30.5zM467 174q134 0 213 89t79 213v56l-281 -64q-80 -19 -134.5 -59t-54.5 -98q0 -65 49.5 -101t128.5 -36z" />
    <glyph glyph-name="aacute" unicode="&#xe1;" horiz-adv-x="1039" 
d="M748 1573l-215 -354h-197l184 354h228zM467 -23q-172 0 -282.5 92t-110.5 244q0 68 29 124t80.5 95t111.5 65.5t131 42.5l333 75q0 83 -64.5 130t-163.5 47q-97 0 -152 -36.5t-55 -114.5l1 -18l-215 -2v18q-1 134 76.5 223t226.5 116q63 12 117 12q193 0 313.5 -102
t120.5 -272v-716h-205v91q-57 -53 -133.5 -83.5t-158.5 -30.5zM467 174q134 0 213 89t79 213v56l-281 -64q-80 -19 -134.5 -59t-54.5 -98q0 -65 49.5 -101t128.5 -36z" />
    <glyph glyph-name="acircumflex" unicode="&#xe2;" horiz-adv-x="1039" 
d="M518 1402l-140 -187h-215l265 354h179l269 -354h-216zM467 -23q-172 0 -282.5 92t-110.5 244q0 68 29 124t80.5 95t111.5 65.5t131 42.5l333 75q0 83 -64.5 130t-163.5 47q-97 0 -152 -36.5t-55 -114.5l1 -18l-215 -2v18q-1 134 76.5 223t226.5 116q63 12 117 12
q193 0 313.5 -102t120.5 -272v-716h-205v91q-57 -53 -133.5 -83.5t-158.5 -30.5zM467 174q134 0 213 89t79 213v56l-281 -64q-80 -19 -134.5 -59t-54.5 -98q0 -65 49.5 -101t128.5 -36z" />
    <glyph glyph-name="atilde" unicode="&#xe3;" horiz-adv-x="1039" 
d="M666 1219q-70 0 -145 46q-7 4 -24 14.5t-26 14.5q-24 11 -41 11t-28 -17q-11 -18 -13 -43l-2 -16h-180l1 18q2 40 15.5 79t38.5 73.5t67 55.5t95 21q69 0 146 -46q34 -20 50 -28q21 -11 40 -11t29 18q10 16 14 44l1 16h179l-1 -19q-3 -56 -24 -106t-71.5 -87.5
t-120.5 -37.5zM467 -23q-172 0 -282.5 92t-110.5 244q0 68 29 124t80.5 95t111.5 65.5t131 42.5l333 75q0 83 -64.5 130t-163.5 47q-97 0 -152 -36.5t-55 -114.5l1 -18l-215 -2v18q-1 134 76.5 223t226.5 116q63 12 117 12q193 0 313.5 -102t120.5 -272v-716h-205v91
q-57 -53 -133.5 -83.5t-158.5 -30.5zM467 174q134 0 213 89t79 213v56l-281 -64q-80 -19 -134.5 -59t-54.5 -98q0 -65 49.5 -101t128.5 -36z" />
    <glyph glyph-name="adieresis" unicode="&#xe4;" horiz-adv-x="1039" 
d="M359 1232q-67 0 -106.5 43t-39.5 100q0 56 40.5 98.5t105.5 42.5q64 0 104.5 -43t40.5 -98q0 -56 -39.5 -99.5t-105.5 -43.5zM684 1232q-67 0 -107 43t-40 100q0 55 41 98t106 43q63 0 104 -43.5t41 -97.5q0 -55 -40.5 -99t-104.5 -44zM467 -23q-172 0 -282.5 92
t-110.5 244q0 68 29 124t80.5 95t111.5 65.5t131 42.5l333 75q0 83 -64.5 130t-163.5 47q-97 0 -152 -36.5t-55 -114.5l1 -18l-215 -2v18q-1 134 76.5 223t226.5 116q63 12 117 12q193 0 313.5 -102t120.5 -272v-716h-205v91q-57 -53 -133.5 -83.5t-158.5 -30.5zM467 174
q134 0 213 89t79 213v56l-281 -64q-80 -19 -134.5 -59t-54.5 -98q0 -65 49.5 -101t128.5 -36z" />
    <glyph glyph-name="aring" unicode="&#xe5;" horiz-adv-x="1039" 
d="M541 1222q-98 0 -160.5 65t-62.5 150q0 86 62.5 149.5t160.5 63.5t160.5 -64t62.5 -149t-62.5 -150t-160.5 -65zM541 1378q25 0 42 17.5t17 41.5q0 23 -17.5 40t-41.5 17q-25 0 -42 -16.5t-17 -40.5t17 -41.5t42 -17.5zM467 -23q-172 0 -282.5 92t-110.5 244q0 68 29 124
t80.5 95t111.5 65.5t131 42.5l333 75q0 83 -64.5 130t-163.5 47q-97 0 -152 -36.5t-55 -114.5l1 -18l-215 -2v18q-1 134 76.5 223t226.5 116q63 12 117 12q193 0 313.5 -102t120.5 -272v-716h-205v91q-57 -53 -133.5 -83.5t-158.5 -30.5zM467 174q134 0 213 89t79 213v56
l-281 -64q-80 -19 -134.5 -59t-54.5 -98q0 -65 49.5 -101t128.5 -36z" />
    <glyph glyph-name="ae" unicode="&#xe6;" horiz-adv-x="1962" 
d="M483 -23q-172 0 -282.5 92t-110.5 244q0 68 29 124t80.5 95t111.5 65t131 43l333 75q0 83 -64.5 130t-163.5 47q-97 0 -152 -36.5t-55 -114.5l1 -18l-215 -2v18q-1 133 75 221t222 117q63 13 123 13q116 0 213.5 -41t155.5 -123q74 82 176.5 127t221.5 45q175 0 306 -91
t191 -240q43 -106 43 -230q0 -9 -0.5 -28.5t-0.5 -28.5v-19h-852q22 -120 104 -201t209 -81q91 0 162.5 45.5t115.5 122.5l10 19l185 -112l-9 -14q-71 -121 -192 -192t-272 -71q-131 0 -240.5 53.5t-182.5 148.5q-166 -202 -407 -202zM1007 651h612q-28 108 -108 176.5
t-198 68.5q-117 0 -197 -69t-109 -176zM483 174q134 0 213 89t79 213v25l-1 31l-280 -64q-80 -19 -134.5 -59t-54.5 -98q0 -65 49.5 -101t128.5 -36z" />
    <glyph glyph-name="ccedilla" unicode="&#xe7;" horiz-adv-x="1161" 
d="M605 -392q-141 0 -250 104l-9 9l85 138l19 -20q65 -65 144 -65q35 0 54.5 17t19.5 48q0 60 -92 123l-15 11l-5 3q-4 2 -7 3q-1 1 -5 1q-11 0 -17 1l-27 5q-57 11 -104 31q-108 46 -182.5 131t-107 182.5t-32.5 203.5q0 139 53 255q63 139 191 222.5t295 83.5
q152 0 272.5 -70.5t191.5 -192.5l9 -14l-185 -111l-10 18q-44 78 -115.5 123.5t-162.5 45.5q-78 0 -140.5 -31t-100.5 -82.5t-58 -115t-20 -131.5t20 -131t58.5 -114t100.5 -82t140 -31q91 0 162.5 45.5t115.5 122.5l10 19l185 -112l-9 -14q-108 -186 -313 -243
q84 -78 84 -179q0 -93 -69 -150t-174 -57z" />
    <glyph glyph-name="egrave" unicode="&#xe8;" horiz-adv-x="1228" 
d="M657 1573l184 -354h-198l-214 354h228zM613 -25q-164 0 -291 81t-191 216q-57 118 -57 262q0 143 57 263q64 136 191 217t291 81t291 -81t192 -217q57 -120 57 -263q0 -10 -0.5 -29t-0.5 -28v-18h-852q22 -120 104 -201.5t209 -81.5q91 0 162.5 45.5t115.5 122.5l10 19
l185 -112l-9 -14q-70 -121 -191 -191.5t-273 -70.5zM307 648h612q-28 108 -108 177t-198 69q-117 0 -197 -69.5t-109 -176.5z" />
    <glyph glyph-name="eacute" unicode="&#xe9;" horiz-adv-x="1228" 
d="M845 1573l-215 -354h-197l184 354h228zM613 -25q-164 0 -291 81t-191 216q-57 118 -57 262q0 143 57 263q64 136 191 217t291 81t291 -81t192 -217q57 -120 57 -263q0 -10 -0.5 -29t-0.5 -28v-18h-852q22 -120 104 -201.5t209 -81.5q91 0 162.5 45.5t115.5 122.5l10 19
l185 -112l-9 -14q-70 -121 -191 -191.5t-273 -70.5zM307 648h612q-28 108 -108 177t-198 69q-117 0 -197 -69.5t-109 -176.5z" />
    <glyph glyph-name="ecircumflex" unicode="&#xea;" horiz-adv-x="1228" 
d="M609 1406l-140 -187h-215l265 354h179l269 -354h-216zM613 -25q-175 0 -305.5 90t-190.5 238q-43 106 -43 231q0 124 43 232q60 148 190.5 238.5t305.5 90.5q122 0 226 -44.5t171.5 -119t105.5 -170.5t38 -199q0 -11 -1.5 -40t-0.5 -45v-18h-852q22 -120 104 -201.5
t209 -81.5q91 0 162.5 45.5t115.5 122.5l10 19l185 -112l-9 -14q-70 -121 -191 -191.5t-273 -70.5zM307 648h612q-28 108 -108 177t-198 69q-117 0 -197 -69.5t-109 -176.5z" />
    <glyph glyph-name="edieresis" unicode="&#xeb;" horiz-adv-x="1228" 
d="M455 1219q-66 0 -106 43.5t-40 99.5t40.5 98.5t105.5 42.5q64 0 104.5 -43t40.5 -98q0 -56 -39.5 -99.5t-105.5 -43.5zM780 1219q-66 0 -106.5 43t-40.5 100q0 55 41 98t106 43q63 0 104 -43.5t41 -97.5q0 -55 -40.5 -99t-104.5 -44zM613 -25q-175 0 -305.5 90
t-190.5 238q-43 106 -43 231q0 124 43 232q60 148 190.5 238.5t305.5 90.5q122 0 226 -44.5t171.5 -119t105.5 -170.5t38 -199q0 -11 -1.5 -40t-0.5 -45v-18h-852q22 -120 104 -201.5t209 -81.5q91 0 162.5 45.5t115.5 122.5l10 19l185 -112l-9 -14q-70 -121 -191 -191.5
t-273 -70.5zM307 648h612q-28 108 -108 177t-198 69q-117 0 -197 -69.5t-109 -176.5z" />
    <glyph glyph-name="igrave" unicode="&#xec;" horiz-adv-x="377" 
d="M217 1573l184 -354h-197l-215 354h228zM293 1067v-1067h-205v1067h205z" />
    <glyph glyph-name="iacute" unicode="&#xed;" horiz-adv-x="377" 
d="M403 1573l-215 -354h-197l184 354h228zM290 1067v-1067h-205v1067h205z" />
    <glyph glyph-name="icircumflex" unicode="&#xee;" horiz-adv-x="384" 
d="M198 1406l-139 -187h-216l265 354h179l269 -354h-216zM295 1067v-1067h-205v1067h205z" />
    <glyph glyph-name="idieresis" unicode="&#xef;" horiz-adv-x="350" 
d="M21 1219q-66 0 -106 43.5t-40 99.5t40.5 98.5t105.5 42.5t105 -43t40 -98q0 -56 -39.5 -99.5t-105.5 -43.5zM347 1219q-67 0 -107 43t-40 100q0 55 41 98t106 43q62 0 103.5 -44t41.5 -97q0 -55 -40.5 -99t-104.5 -44zM278 1067v-1067h-205v1067h205z" />
    <glyph glyph-name="ntilde" unicode="&#xf1;" horiz-adv-x="1026" 
d="M659 1219q-70 0 -145 46q-7 4 -24 14.5t-26 14.5q-24 11 -41 11t-28 -17q-11 -18 -13 -43l-2 -16h-180l1 18q3 55 25 105t72 87t119 37t146 -46q34 -20 50 -28q21 -11 41 -11q18 0 28 18q10 16 14 44l1 16h179l-1 -19q-3 -56 -24 -106t-71.5 -87.5t-120.5 -37.5zM279 644
v-644h-205v1067h205v-40q99 62 232 62q195 0 317.5 -112t122.5 -283v-694h-206v644q0 107 -59.5 177.5t-172.5 70.5t-173.5 -70.5t-60.5 -177.5z" />
    <glyph glyph-name="ograve" unicode="&#xf2;" horiz-adv-x="1228" 
d="M619 1573l184 -354h-197l-215 354h228zM613 -25q-173 0 -303.5 89t-190.5 235q-45 109 -45 235q0 120 40 223q57 151 189 244.5t310 93.5t310 -93.5t190 -244.5q40 -103 40 -223q0 -126 -45 -235q-61 -146 -191.5 -235t-303.5 -89zM613 176q103 0 177.5 53.5t108.5 133
t34 171.5q0 68 -20 131.5t-58.5 115t-101 82.5t-140.5 31t-140.5 -31t-100.5 -82.5t-58 -115t-20 -131.5t20 -131t58.5 -114t100.5 -82t140 -31z" />
    <glyph glyph-name="oacute" unicode="&#xf3;" horiz-adv-x="1228" 
d="M845 1573l-215 -354h-197l184 354h228zM613 -25q-173 0 -303.5 89t-190.5 235q-45 109 -45 235q0 120 40 223q57 151 189 244.5t310 93.5t310 -93.5t190 -244.5q40 -103 40 -223q0 -126 -45 -235q-61 -146 -191.5 -235t-303.5 -89zM613 176q103 0 177.5 53.5t108.5 133
t34 171.5q0 68 -20 131.5t-58.5 115t-101 82.5t-140.5 31t-140.5 -31t-100.5 -82.5t-58 -115t-20 -131.5t20 -131t58.5 -114t100.5 -82t140 -31z" />
    <glyph glyph-name="ocircumflex" unicode="&#xf4;" horiz-adv-x="1228" 
d="M604 1406l-139 -187h-216l265 354h179l269 -354h-216zM613 -25q-173 0 -303.5 89t-190.5 235q-45 109 -45 235q0 120 40 223q57 151 189 244.5t310 93.5t310 -93.5t190 -244.5q40 -103 40 -223q0 -126 -45 -235q-61 -146 -191.5 -235t-303.5 -89zM613 176
q103 0 177.5 53.5t108.5 133t34 171.5q0 68 -20 131.5t-58.5 115t-101 82.5t-140.5 31t-140.5 -31t-100.5 -82.5t-58 -115t-20 -131.5t20 -131t58.5 -114t100.5 -82t140 -31z" />
    <glyph glyph-name="otilde" unicode="&#xf5;" horiz-adv-x="1228" 
d="M712 1218q-69 0 -146 46q-2 1 -21 12.5t-28 16.5q-24 11 -42 11q-16 0 -28 -17q-9 -17 -13 -43l-1 -16h-181l1 18q2 40 16 79t39 73.5t67 55.5t94 21q71 0 146 -46q4 -2 22.5 -12.5t27.5 -15.5q24 -11 41 -11q18 0 29 18t13 44l2 16h178l-1 -19q-3 -56 -24 -106
t-71 -87.5t-120 -37.5zM613 -25q-173 0 -303.5 89t-190.5 235q-45 109 -45 235q0 120 40 223q57 151 189 244.5t310 93.5t310 -93.5t190 -244.5q40 -103 40 -223q0 -126 -45 -235q-61 -146 -191.5 -235t-303.5 -89zM613 176q103 0 177.5 53.5t108.5 133t34 171.5
q0 68 -20 131.5t-58.5 115t-101 82.5t-140.5 31t-140.5 -31t-100.5 -82.5t-58 -115t-20 -131.5t20 -131t58.5 -114t100.5 -82t140 -31z" />
    <glyph glyph-name="odieresis" unicode="&#xf6;" horiz-adv-x="1228" 
d="M430 1215q-66 0 -106 43.5t-40 99.5t40.5 98.5t105.5 42.5q64 0 104.5 -43t40.5 -98q0 -56 -39.5 -99.5t-105.5 -43.5zM756 1215q-67 0 -107 43t-40 100q0 55 41 98t106 43q62 0 103.5 -44t41.5 -97q0 -54 -40.5 -98.5t-104.5 -44.5zM613 -25q-173 0 -303.5 89
t-190.5 235q-45 109 -45 235q0 120 40 223q57 151 189 244.5t310 93.5t310 -93.5t190 -244.5q40 -103 40 -223q0 -126 -45 -235q-61 -146 -191.5 -235t-303.5 -89zM613 176q103 0 177.5 53.5t108.5 133t34 171.5q0 68 -20 131.5t-58.5 115t-101 82.5t-140.5 31t-140.5 -31
t-100.5 -82.5t-58 -115t-20 -131.5t20 -131t58.5 -114t100.5 -82t140 -31z" />
    <glyph glyph-name="divide" unicode="&#xf7;" horiz-adv-x="1355" 
d="M790 1286v-275h-225v275h225zM1155 848v-208h-955v208h955zM790 477v-275h-225v275h225z" />
    <glyph glyph-name="oslash" unicode="&#xf8;" horiz-adv-x="1228" 
d="M404 14l-39 -85h-241l96 211q-146 159 -146 394q0 129 46 238q60 146 190.5 234.5t302.5 88.5q14 0 42 -2l58 126h242l-85 -185q141 -75 212 -210.5t71 -289.5q0 -128 -46 -237q-61 -145 -191.5 -233.5t-302.5 -88.5q-111 0 -209 39zM324 370l239 520
q-88 -12 -150.5 -67.5t-90.5 -130t-28 -158.5q0 -90 30 -164zM613 176q103 0 177.5 53.5t108.5 132.5t34 172q0 95 -37 178.5t-112 132.5l-295 -645q57 -24 124 -24z" />
    <glyph glyph-name="ugrave" unicode="&#xf9;" horiz-adv-x="1026" 
d="M493 1573l184 -354h-197l-215 354h228zM513 -21q-195 0 -317 112t-122 283v693h205v-644q0 -106 60 -176t172 -70q113 0 173.5 70t60.5 176v644h206v-1067h-206v40q-100 -61 -232 -61z" />
    <glyph glyph-name="uacute" unicode="&#xfa;" horiz-adv-x="1026" 
d="M741 1573l-215 -354h-197l184 354h228zM513 -21q-195 0 -317 112t-122 283v693h205v-644q0 -106 60 -176t172 -70q113 0 173.5 70t60.5 176v644h206v-1067h-206v40q-100 -61 -232 -61z" />
    <glyph glyph-name="ucircumflex" unicode="&#xfb;" horiz-adv-x="1026" 
d="M506 1406l-139 -187h-216l265 354h179l269 -354h-216zM513 -21q-195 0 -317 112t-122 283v693h205v-644q0 -106 60 -176t172 -70q113 0 173.5 70t60.5 176v644h206v-1067h-206v40q-100 -61 -232 -61z" />
    <glyph glyph-name="udieresis" unicode="&#xfc;" horiz-adv-x="1026" 
d="M342 1219q-66 0 -106 43.5t-40 99.5t40.5 98.5t105.5 42.5q64 0 104.5 -43t40.5 -98q0 -56 -39.5 -99.5t-105.5 -43.5zM667 1219q-66 0 -106.5 43t-40.5 100q0 55 41 98t106 43q63 0 104 -43.5t41 -97.5q0 -55 -40.5 -99t-104.5 -44zM513 -21q-195 0 -317 112t-122 283
v693h205v-644q0 -106 60 -176t172 -70q113 0 173.5 70t60.5 176v644h206v-1067h-206v40q-100 -61 -232 -61z" />
    <glyph glyph-name="yacute" unicode="&#xfd;" horiz-adv-x="1215" 
d="M880 1573l-215 -354h-197l184 354h228zM1147 1067l-617 -1486h-227l184 461l-421 1025h235l307 -748l304 748h235z" />
    <glyph glyph-name="ydieresis" unicode="&#xff;" horiz-adv-x="1215" 
d="M442 1219q-66 0 -106 43.5t-40 99.5t40.5 98.5t105.5 42.5t105 -43t40 -98q0 -56 -39.5 -99.5t-105.5 -43.5zM768 1219q-66 0 -106.5 43t-40.5 100q0 55 41 98t106 43q63 0 104 -43.5t41 -97.5q0 -55 -40.5 -99t-104.5 -44zM1147 1067l-617 -1486h-227l184 461l-421 1025
h235l307 -748l304 748h235z" />
    <glyph glyph-name="Amacron" unicode="&#x100;" horiz-adv-x="1463" 
d="M983 1823v-179h-491v179h491zM449 401l-143 -401h-238l556 1495h215l556 -1495h-238l-142 401h-566zM942 600l-210 589l-211 -589h421z" />
    <glyph glyph-name="amacron" unicode="&#x101;" horiz-adv-x="1039" 
d="M764 1397v-178h-487v178h487zM467 -23q-172 0 -282.5 92t-110.5 244q0 68 29 124t80.5 95t111.5 65.5t131 42.5l333 75q0 83 -64.5 130t-163.5 47q-97 0 -152 -36.5t-55 -114.5l1 -18l-215 -2v18q-1 134 76.5 223t226.5 116q63 12 117 12q193 0 313.5 -102t120.5 -272
v-716h-205v91q-57 -53 -133.5 -83.5t-158.5 -30.5zM467 174q134 0 213 89t79 213v56l-281 -64q-80 -19 -134.5 -59t-54.5 -98q0 -65 49.5 -101t128.5 -36z" />
    <glyph glyph-name="Abreve" unicode="&#x102;" horiz-adv-x="1463" 
d="M731 1644q-68 0 -126 28t-95 72.5t-58 98.5t-21 109v18h176v-18q0 -54 35.5 -98.5t88.5 -44.5q54 0 91 44.5t37 98.5v18h175v-18q0 -118 -84.5 -213t-218.5 -95zM449 401l-143 -401h-238l556 1495h215l556 -1495h-238l-142 401h-566zM942 600l-210 589l-211 -589h421z
" />
    <glyph glyph-name="abreve" unicode="&#x103;" horiz-adv-x="1039" 
d="M543 1219q-67 0 -125 27.5t-95 71.5t-58 98t-21 109v18h175v-18q1 -54 36 -98t88 -44t89.5 44.5t36.5 97.5v18h174v-18q0 -117 -83.5 -211.5t-216.5 -94.5zM467 -23q-172 0 -282.5 92t-110.5 244q0 68 29 124t80.5 95t111.5 65.5t131 42.5l333 75q0 83 -64.5 130
t-163.5 47q-97 0 -152 -36.5t-55 -114.5l1 -18l-215 -2v18q-1 134 76.5 223t226.5 116q63 12 117 12q193 0 313.5 -102t120.5 -272v-716h-205v91q-57 -53 -133.5 -83.5t-158.5 -30.5zM467 174q134 0 213 89t79 213v56l-281 -64q-80 -19 -134.5 -59t-54.5 -98
q0 -65 49.5 -101t128.5 -36z" />
    <glyph glyph-name="Aogonek" unicode="&#x104;" horiz-adv-x="1459" 
d="M1226 -416q-106 0 -175.5 57t-69.5 151q0 75 45.5 134.5t121.5 99.5l-133 375h-566l-143 -401h-238l556 1495h215l553 -1487l-16 -6q-82 -34 -148 -84t-66 -103q0 -65 75 -65q39 0 78 18.5t66 47.5l19 20l87 -143l-10 -9q-110 -100 -251 -100zM942 600l-210 589
l-211 -589h421z" />
    <glyph glyph-name="aogonek" unicode="&#x105;" horiz-adv-x="1043" 
d="M768 -409q-105 0 -174 57t-69 150q0 92 66 159t168 105v29q-57 -53 -133.5 -83.5t-158.5 -30.5q-172 0 -282.5 92t-110.5 244q0 68 29 124t80.5 95t111.5 65.5t131 42.5l333 75q0 83 -64.5 130t-163.5 47q-97 0 -152 -36.5t-55 -114.5v-18l-214 -2v18q-1 133 75 221
t222 117q63 13 123 13q193 0 313.5 -102t120.5 -272v-711l-14 -4q-111 -36 -162 -65q-83 -50 -83 -114q0 -31 19.5 -48.5t54.5 -17.5q39 0 77.5 18.5t65.5 48.5l19 20l86 -142l-10 -9q-109 -101 -249 -101zM467 174q134 0 213 89t79 213v56l-281 -64q-80 -19 -134.5 -59
t-54.5 -98q0 -65 49.5 -101t128.5 -36z" />
    <glyph glyph-name="Cacute" unicode="&#x106;" horiz-adv-x="1533" 
d="M1040 2000l-217 -356h-198l185 356h230zM813 -24q-230 0 -405.5 115.5t-262.5 308.5q-71 159 -71 347q0 186 71 347q87 192 262.5 307.5t405.5 115.5q212 0 379 -101t263 -273l8 -15l-193 -103l-9 18q-66 125 -182.5 199.5t-265.5 74.5q-172 0 -296 -92.5t-179 -244.5
q-38 -106 -38 -233t38 -233q55 -152 179 -244.5t296 -92.5q146 0 262 72t184 194l10 18l191 -106l-8 -14q-98 -167 -264.5 -266t-374.5 -99z" />
    <glyph glyph-name="cacute" unicode="&#x107;" horiz-adv-x="1161" 
d="M807 1573l-215 -354h-197l184 354h228zM613 -25q-175 0 -305.5 90t-190.5 238q-43 106 -43 231q0 124 43 232q60 148 190.5 238.5t305.5 90.5q152 0 273 -70.5t191 -192.5l9 -14l-185 -111l-10 18q-44 78 -115.5 123.5t-162.5 45.5q-78 0 -140.5 -31t-100.5 -82.5
t-58 -115t-20 -131.5t20 -131t58.5 -114t100.5 -82t140 -31q91 0 162.5 45.5t115.5 122.5l10 19l185 -112l-9 -14q-70 -121 -191 -191.5t-273 -70.5z" />
    <glyph glyph-name="Ccircumflex" unicode="&#x108;" horiz-adv-x="1533" 
d="M794 1832l-140 -188h-218l267 356h181l271 -356h-218zM813 -24q-230 0 -405.5 115.5t-262.5 308.5q-71 159 -71 347q0 186 71 347q87 192 262.5 307.5t405.5 115.5q212 0 379 -101t263 -273l8 -15l-193 -103l-9 18q-66 125 -182.5 199.5t-265.5 74.5q-172 0 -296 -92.5
t-179 -244.5q-38 -106 -38 -233t38 -233q55 -152 179 -244.5t296 -92.5q146 0 262 72t184 194l10 18l191 -106l-8 -14q-98 -167 -264.5 -266t-374.5 -99z" />
    <glyph glyph-name="ccircumflex" unicode="&#x109;" horiz-adv-x="1161" 
d="M603 1406l-139 -187h-216l265 354h179l269 -354h-216zM613 -25q-175 0 -305.5 90t-190.5 238q-43 106 -43 231q0 124 43 232q60 148 190.5 238.5t305.5 90.5q152 0 273 -70.5t191 -192.5l9 -14l-185 -111l-10 18q-44 78 -115.5 123.5t-162.5 45.5q-78 0 -140.5 -31
t-100.5 -82.5t-58 -115t-20 -131.5t20 -131t58.5 -114t100.5 -82t140 -31q91 0 162.5 45.5t115.5 122.5l10 19l185 -112l-9 -14q-70 -121 -191 -191.5t-273 -70.5z" />
    <glyph glyph-name="Cdotaccent" unicode="&#x10a;" horiz-adv-x="1533" 
d="M790 1644q-67 0 -107 43.5t-40 100.5q0 56 41 99t106 43t105.5 -43t40.5 -99q0 -57 -39.5 -100.5t-106.5 -43.5zM813 -24q-230 0 -405.5 115.5t-262.5 308.5q-71 159 -71 347q0 186 71 347q87 192 262.5 307.5t405.5 115.5q212 0 379 -101t263 -273l8 -15l-193 -103
l-9 18q-66 125 -182.5 199.5t-265.5 74.5q-172 0 -296 -92.5t-179 -244.5q-38 -106 -38 -233t38 -233q55 -152 179 -244.5t296 -92.5q146 0 262 72t184 194l10 18l191 -106l-8 -14q-98 -167 -264.5 -266t-374.5 -99z" />
    <glyph glyph-name="cdotaccent" unicode="&#x10b;" horiz-adv-x="1161" 
d="M598 1219q-66 0 -106 43.5t-40 99.5t40.5 98.5t105.5 42.5t105 -43t40 -98q0 -56 -39.5 -99.5t-105.5 -43.5zM613 -25q-175 0 -305.5 90t-190.5 238q-43 106 -43 231q0 124 43 232q60 148 190.5 238.5t305.5 90.5q152 0 273 -70.5t191 -192.5l9 -14l-185 -111l-10 18
q-44 78 -115.5 123.5t-162.5 45.5q-78 0 -140.5 -31t-100.5 -82.5t-58 -115t-20 -131.5t20 -131t58.5 -114t100.5 -82t140 -31q91 0 162.5 45.5t115.5 122.5l10 19l185 -112l-9 -14q-70 -121 -191 -191.5t-273 -70.5z" />
    <glyph glyph-name="Ccaron" unicode="&#x10c;" horiz-adv-x="1533" 
d="M1155 2000l-271 -356h-181l-267 356h218l140 -187l143 187h218zM813 -24q-230 0 -405.5 115.5t-262.5 308.5q-71 159 -71 347q0 186 71 347q87 192 262.5 307.5t405.5 115.5q212 0 379 -101t263 -273l8 -15l-193 -103l-9 18q-66 125 -182.5 199.5t-265.5 74.5
q-172 0 -296 -92.5t-179 -244.5q-38 -106 -38 -233t38 -233q55 -152 179 -244.5t296 -92.5q146 0 262 72t184 194l10 18l191 -106l-8 -14q-98 -167 -264.5 -266t-374.5 -99z" />
    <glyph glyph-name="ccaron" unicode="&#x10d;" horiz-adv-x="1161" 
d="M961 1573l-269 -354h-179l-265 354h216l139 -187l142 187h216zM613 -25q-175 0 -305.5 90t-190.5 238q-43 106 -43 231q0 124 43 232q60 148 190.5 238.5t305.5 90.5q152 0 273 -70.5t191 -192.5l9 -14l-185 -111l-10 18q-44 78 -115.5 123.5t-162.5 45.5
q-78 0 -140.5 -31t-100.5 -82.5t-58 -115t-20 -131.5t20 -131t58.5 -114t100.5 -82t140 -31q91 0 162.5 45.5t115.5 122.5l10 19l185 -112l-9 -14q-70 -121 -191 -191.5t-273 -70.5z" />
    <glyph glyph-name="Dcaron" unicode="&#x10e;" horiz-adv-x="1362" 
d="M1070 2000l-271 -356h-181l-267 356h217l141 -187l143 187h218zM567 -2h-493v1497h493q153 0 288 -56q109 -46 193.5 -122t135.5 -169t76.5 -194.5t25.5 -206.5t-25.5 -206.5t-76.5 -194.5t-135.5 -169t-193.5 -122q-133 -57 -288 -57zM566 193q78 0 160 29
q113 40 191 125.5t112.5 186.5t34.5 213q0 120 -38 225q-52 147 -172.5 237.5t-287.5 90.5h-271v-1106q45 0 135.5 -0.5t135.5 -0.5z" />
    <glyph glyph-name="dcaron" unicode="&#x10f;" horiz-adv-x="1212" 
d="M990 1573l-268 -354h-179l-266 354h216l140 -187l141 187h216zM613 -25q-172 0 -301.5 87t-190.5 232q-47 110 -47 240q0 131 47 241q61 145 190.5 232.5t301.5 87.5q183 0 319 -100v489h205v-1484h-205v74q-135 -99 -319 -99zM613 176q103 0 177.5 53.5t108.5 133
t34 171.5q0 68 -20 131.5t-58.5 115t-101 82.5t-140.5 31t-140.5 -31t-100.5 -82.5t-58 -115t-20 -131.5t20 -131t58.5 -114t100.5 -82t140 -31z" />
    <glyph glyph-name="Emacron" unicode="&#x112;" horiz-adv-x="1149" 
d="M843 1823v-179h-491v179h491zM1074 199v-199h-1000v1495h1000v-199h-774v-424h678v-199h-678v-474h774z" />
    <glyph glyph-name="emacron" unicode="&#x113;" horiz-adv-x="1228" 
d="M847 1397v-178h-487v178h487zM613 -25q-175 0 -305.5 90t-190.5 238q-43 106 -43 231q0 124 43 232q60 148 190.5 238.5t305.5 90.5q122 0 226 -44.5t171.5 -119t105.5 -170.5t38 -199q0 -11 -1.5 -40t-0.5 -45v-18h-852q22 -120 104 -201.5t209 -81.5q91 0 162.5 45.5
t115.5 122.5l10 19l185 -112l-9 -14q-70 -121 -191 -191.5t-273 -70.5zM307 648h612q-28 108 -108 177t-198 69q-117 0 -197 -69.5t-109 -176.5z" />
    <glyph glyph-name="Ebreve" unicode="&#x114;" horiz-adv-x="1149" 
d="M599 1644q-90 0 -160.5 47.5t-105.5 116.5t-35 144v18h176v-18q0 -54 36 -98.5t89 -44.5t90 44.5t37 98.5v18h175v-18q0 -118 -84 -213t-218 -95zM1074 199v-199h-1000v1495h1000v-199h-774v-424h678v-199h-678v-474h774z" />
    <glyph glyph-name="ebreve" unicode="&#x115;" horiz-adv-x="1228" 
d="M620 1219q-89 0 -159 47t-104.5 116t-35.5 143v18h176v-18q0 -53 35.5 -97.5t87.5 -44.5q53 0 89.5 44.5t36.5 97.5v18h174v-18q0 -117 -83.5 -211.5t-216.5 -94.5zM613 -25q-175 0 -305.5 90t-190.5 238q-43 106 -43 231q0 124 43 232q60 148 190.5 238.5t305.5 90.5
q122 0 226 -44.5t171.5 -119t105.5 -170.5t38 -199q0 -11 -1.5 -40t-0.5 -45v-18h-852q22 -120 104 -201.5t209 -81.5q91 0 162.5 45.5t115.5 122.5l10 19l185 -112l-9 -14q-70 -121 -191 -191.5t-273 -70.5zM307 648h612q-28 108 -108 177t-198 69q-117 0 -197 -69.5
t-109 -176.5z" />
    <glyph glyph-name="Edotaccent" unicode="&#x116;" horiz-adv-x="1149" 
d="M595 1644q-66 0 -106.5 43.5t-40.5 100.5q0 56 41 99t106 43t105.5 -43t40.5 -99q0 -57 -39.5 -100.5t-106.5 -43.5zM1074 199v-199h-1000v1495h1000v-199h-774v-424h678v-199h-678v-474h774z" />
    <glyph glyph-name="edotaccent" unicode="&#x117;" horiz-adv-x="1228" 
d="M612 1219q-66 0 -106 43.5t-40 99.5t40.5 98.5t105.5 42.5t105 -43t40 -98q0 -56 -39.5 -99.5t-105.5 -43.5zM613 -25q-175 0 -305.5 90t-190.5 238q-43 106 -43 231q0 124 43 232q60 148 190.5 238.5t305.5 90.5q122 0 226 -44.5t171.5 -119t105.5 -170.5t38 -199
q0 -11 -1.5 -40t-0.5 -45v-18h-852q22 -120 104 -201.5t209 -81.5q91 0 162.5 45.5t115.5 122.5l10 19l185 -112l-9 -14q-70 -121 -191 -191.5t-273 -70.5zM307 648h612q-28 108 -108 177t-198 69q-117 0 -197 -69.5t-109 -176.5z" />
    <glyph glyph-name="Eogonek" unicode="&#x118;" horiz-adv-x="1152" 
d="M913 -416q-107 0 -176 57t-69 151q0 123 123 208h-717v1495h1000v-199h-774v-424h678v-199h-678v-474h774v-193l-12 -4q-82 -34 -148 -84t-66 -103q0 -31 20 -48t56 -17q81 0 144 66l19 20l86 -143l-10 -9q-108 -100 -250 -100z" />
    <glyph glyph-name="eogonek" unicode="&#x119;" horiz-adv-x="1228" 
d="M613 -413q-106 0 -174.5 56.5t-68.5 149.5q0 116 108 197q-131 31 -225 118t-136.5 196.5t-42.5 229.5q0 139 53 255q63 139 191 222.5t295 83.5q122 0 226 -44.5t171.5 -119t105.5 -170.5t38 -199q0 -11 -1.5 -40t-0.5 -45v-18h-852q22 -120 104 -201.5t209 -81.5
q91 0 162.5 45.5t115.5 122.5l10 19l185 -112l-9 -14q-90 -156 -253 -222q-36 -14 -77 -25q-12 -2 -15 -2l-8 -2q-8 -2 -15 -7l-16 -9q-59 -31 -101.5 -71.5t-42.5 -81.5q0 -65 75 -65q80 0 143 66l19 20l85 -142l-10 -9q-107 -100 -248 -100zM307 648h612q-28 108 -108 177
t-198 69q-117 0 -197 -69.5t-109 -176.5z" />
    <glyph glyph-name="Ecaron" unicode="&#x11a;" horiz-adv-x="1149" 
d="M960 2000l-271 -356h-180l-267 356h217l140 -187l144 187h217zM1074 199v-199h-1000v1495h1000v-199h-774v-424h678v-199h-678v-474h774z" />
    <glyph glyph-name="ecaron" unicode="&#x11b;" horiz-adv-x="1228" 
d="M969 1573l-269 -354h-179l-265 354h215l140 -187l142 187h216zM613 -25q-175 0 -305.5 90t-190.5 238q-43 106 -43 231q0 124 43 232q60 148 190.5 238.5t305.5 90.5q122 0 226 -44.5t171.5 -119t105.5 -170.5t38 -199q0 -11 -1.5 -40t-0.5 -45v-18h-852
q22 -120 104 -201.5t209 -81.5q91 0 162.5 45.5t115.5 122.5l10 19l185 -112l-9 -14q-70 -121 -191 -191.5t-273 -70.5zM307 648h612q-28 108 -108 177t-198 69q-117 0 -197 -69.5t-109 -176.5z" />
    <glyph glyph-name="Gcircumflex" unicode="&#x11c;" horiz-adv-x="1533" 
d="M813 1834l-142 -188h-216l267 356h180l271 -356h-218zM813 -24q-239 0 -418.5 124t-260.5 327q-60 147 -60 320t60 319q81 203 260.5 327t418.5 124q212 0 379 -101t263 -273l8 -15l-193 -103l-9 18q-66 125 -182.5 199.5t-265.5 74.5q-160 0 -280 -82t-180 -220
q-53 -119 -53 -268q0 -145 53 -267q60 -137 180.5 -220t279.5 -83q125 0 229 52t173 147q4 5 12 13l9 9q6 8 6 13l-1 193h-499v200h707v-804h-206v108q-187 -132 -430 -132z" />
    <glyph glyph-name="gcircumflex" unicode="&#x11d;" horiz-adv-x="1201" 
d="M610 1408l-140 -187h-215l265 354h179l269 -354h-216zM609 -419q-157 0 -285.5 77.5t-188.5 205.5l-7 14l185 101l9 -20q38 -83 112.5 -131.5t171.5 -48.5q139 0 226.5 84t87.5 208v87q-128 -107 -316 -107q-117 0 -218 44.5t-168.5 118t-105.5 166.5t-38 191
q0 100 37.5 193.5t104 166t168 116t220.5 43.5q190 0 316 -111v88h205v-996q0 -99 -36.5 -187.5t-102.5 -156t-164 -107t-213 -39.5zM604 250q146 0 231 93t85 228q0 133 -86.5 227t-231.5 94t-229 -93t-84 -228q0 -136 84 -228.5t231 -92.5z" />
    <glyph glyph-name="Gbreve" unicode="&#x11e;" horiz-adv-x="1533" 
d="M812 1644q-68 0 -126 28t-95 72.5t-58 98.5t-21 109v18h176v-18q0 -54 35.5 -98.5t88.5 -44.5q54 0 91 44.5t37 98.5v18h175v-18q0 -118 -84.5 -213t-218.5 -95zM813 -24q-239 0 -418.5 124t-260.5 327q-60 147 -60 320t60 319q81 203 260.5 327t418.5 124
q212 0 379 -101t263 -273l8 -15l-193 -103l-9 18q-66 125 -182.5 199.5t-265.5 74.5q-160 0 -280 -82t-180 -220q-53 -119 -53 -268q0 -145 53 -267q60 -137 180.5 -220t279.5 -83q125 0 229 52t173 147q4 5 12 13l9 9q6 8 6 13l-1 193h-499v200h707v-804h-206v108
q-187 -132 -430 -132z" />
    <glyph glyph-name="gbreve" unicode="&#x11f;" horiz-adv-x="1201" 
d="M626 1219q-67 0 -125 27.5t-95 71.5t-58 98t-21 109v18h176v-18q0 -54 35 -98t88 -44t89.5 44.5t36.5 97.5v18h174v-18q0 -117 -83.5 -211.5t-216.5 -94.5zM609 -419q-157 0 -285.5 77.5t-188.5 205.5l-7 14l185 101l9 -20q38 -83 112.5 -131.5t171.5 -48.5q138 0 225 84
t89 208q1 29 1 87q-130 -107 -317 -107q-117 0 -218 44.5t-168.5 118t-105.5 166.5t-38 191q0 100 37.5 193.5t104 166t168 116t220.5 43.5q190 0 316 -111v88h205v-996q0 -99 -36.5 -187.5t-102.5 -156t-164 -107t-213 -39.5zM604 250q146 0 231 93t85 228q0 133 -86.5 227
t-231.5 94t-229 -93t-84 -228q0 -136 84 -228.5t231 -92.5z" />
    <glyph glyph-name="Gdotaccent" unicode="&#x120;" horiz-adv-x="1533" 
d="M790 1644q-67 0 -107 43.5t-40 100.5q0 56 41 99t106 43t105.5 -43t40.5 -99q0 -57 -39.5 -100.5t-106.5 -43.5zM813 -24q-239 0 -418.5 124t-260.5 327q-60 147 -60 320t60 319q81 203 260.5 327t418.5 124q212 0 379 -101t263 -273l8 -15l-193 -103l-9 18
q-66 125 -182.5 199.5t-265.5 74.5q-160 0 -280 -82t-180 -220q-53 -119 -53 -268q0 -145 53 -267q60 -137 180.5 -220t279.5 -83q125 0 229 52t173 147q4 5 12 13l9 9q6 8 6 13l-1 193h-499v200h707v-804h-206v108q-187 -132 -430 -132z" />
    <glyph glyph-name="gdotaccent" unicode="&#x121;" horiz-adv-x="1201" 
d="M622 1219q-66 0 -106 43.5t-40 99.5t40.5 98.5t105.5 42.5q64 0 104.5 -43t40.5 -98q0 -56 -39.5 -99.5t-105.5 -43.5zM609 -419q-157 0 -285.5 77.5t-188.5 205.5l-7 14l185 101l9 -20q38 -83 112.5 -131.5t171.5 -48.5q138 0 225 84t89 208q1 29 1 87
q-130 -107 -317 -107q-117 0 -218 44.5t-168.5 118t-105.5 166.5t-38 191q0 100 37.5 193.5t104 166t168 116t220.5 43.5q190 0 316 -111v88h205v-996q0 -99 -36.5 -187.5t-102.5 -156t-164 -107t-213 -39.5zM604 250q146 0 231 93t85 228q0 133 -86.5 227t-231.5 94
t-229 -93t-84 -228q0 -136 84 -228.5t231 -92.5z" />
    <glyph glyph-name="Itilde" unicode="&#x128;" horiz-adv-x="363" 
d="M320 1644q-69 0 -148 46q-31 20 -50 29q-24 11 -41 11t-29 -17q-11 -19 -13 -43l-2 -16h-181l1 18q4 89 60.5 159.5t157.5 70.5q70 0 147 -46q4 -2 22.5 -12.5t27.5 -15.5q24 -11 42 -11q17 0 29 18q11 21 13 44l2 16h179l-1 -18q-2 -41 -15 -80.5t-38 -74.5t-67 -56.5
t-96 -21.5zM294 1495v-1495h-225v1495h225z" />
    <glyph glyph-name="itilde" unicode="&#x129;" horiz-adv-x="351" 
d="M306 1219q-69 0 -146 46q-47 27 -50 29q-24 11 -41 11t-28 -17q-11 -18 -13 -43l-2 -16h-180l1 18q3 55 25 105t72 87t119 37t146 -46q4 -2 22.5 -12.5t27.5 -15.5q21 -11 41 -11q18 0 29 18q11 21 13 44l2 16h178l-1 -19q-3 -56 -24 -106t-71 -87.5t-120 -37.5z
M279 1067v-1067h-205v1067h205z" />
    <glyph glyph-name="Imacron" unicode="&#x12a;" horiz-adv-x="367" 
d="M426 1823v-179h-491v179h491zM296 1495v-1495h-225v1495h225z" />
    <glyph glyph-name="imacron" unicode="&#x12b;" horiz-adv-x="351" 
d="M427 1397v-178h-487v178h487zM278 1067v-1067h-204v1067h204z" />
    <glyph glyph-name="Iogonek" unicode="&#x12e;" horiz-adv-x="370" 
d="M62 -416q-107 0 -175.5 57t-68.5 151q0 96 70.5 164.5t177.5 105.5v1433h226v-1490l-14 -4q-89 -25 -140 -45q-69 -27 -104.5 -58t-35.5 -82q0 -66 76 -66q81 0 144 66l19 20l85 -141l-10 -10q-106 -101 -250 -101z" />
    <glyph glyph-name="iogonek" unicode="&#x12f;" horiz-adv-x="347" 
d="M273 1484v-273h-205v273h205zM101 -410q-106 0 -174.5 57t-68.5 150q0 86 58.5 150.5t151.5 104.5v1015h205v-1067h-39l-2 -1l-14 -6l-21 -11q-64 -31 -112 -74t-48 -87q0 -32 19.5 -49t55.5 -17q39 0 77.5 18.5t65.5 48.5l19 20l85 -142l-10 -9q-108 -101 -248 -101z
" />
    <glyph glyph-name="Idotaccent" unicode="&#x130;" horiz-adv-x="373" 
d="M178 1644q-67 0 -107 43.5t-40 100.5q0 56 41 99t106 43t106 -43t41 -99q0 -57 -40 -100.5t-107 -43.5zM299 1495v-1495h-225v1495h225z" />
    <glyph glyph-name="dotlessi" unicode="&#x131;" horiz-adv-x="354" 
d="M280 1067v-1067h-205v1067h205z" />
    <glyph glyph-name="Omacron" unicode="&#x14c;" horiz-adv-x="1628" 
d="M1090 1823v-179h-491v179h491zM813 -24q-237 0 -415.5 122t-261.5 323q-62 150 -62 326q0 175 62 326q83 200 261.5 322t415.5 122q243 0 424 -127.5t261 -335.5q55 -143 55 -307q0 -165 -55 -308q-80 -208 -261 -335.5t-424 -127.5zM813 177q172 0 296 92.5t179 244.5
q39 108 39 233t-39 233q-55 152 -179 244.5t-296 92.5q-167 0 -289.5 -89t-179.5 -235q-44 -112 -44 -246q0 -135 44 -247q57 -146 179.5 -234.5t289.5 -88.5z" />
    <glyph glyph-name="omacron" unicode="&#x14d;" horiz-adv-x="1228" 
d="M851 1397v-178h-487v178h487zM613 -25q-173 0 -303.5 89t-190.5 235q-45 109 -45 235q0 120 40 223q57 151 189 244.5t310 93.5t310 -93.5t190 -244.5q40 -103 40 -223q0 -126 -45 -235q-61 -146 -191.5 -235t-303.5 -89zM613 176q103 0 177.5 53.5t108.5 133t34 171.5
q0 68 -20 131.5t-58.5 115t-101 82.5t-140.5 31t-140.5 -31t-100.5 -82.5t-58 -115t-20 -131.5t20 -131t58.5 -114t100.5 -82t140 -31z" />
    <glyph glyph-name="Obreve" unicode="&#x14e;" horiz-adv-x="1628" 
d="M809 1644q-68 0 -126 28t-95 72.5t-58 98.5t-21 109v18h176v-18q0 -54 35.5 -98.5t88.5 -44.5q54 0 91 44.5t37 98.5v18h175v-18q0 -118 -84.5 -213t-218.5 -95zM813 -24q-237 0 -415.5 122t-261.5 323q-62 150 -62 326q0 175 62 326q83 200 261.5 322t415.5 122
q243 0 424 -127.5t261 -335.5q55 -143 55 -307q0 -165 -55 -308q-80 -208 -261 -335.5t-424 -127.5zM813 177q172 0 296 92.5t179 244.5q39 108 39 233t-39 233q-55 152 -179 244.5t-296 92.5q-167 0 -289.5 -89t-179.5 -235q-44 -112 -44 -246q0 -135 44 -247
q57 -146 179.5 -234.5t289.5 -88.5z" />
    <glyph glyph-name="obreve" unicode="&#x14f;" horiz-adv-x="1228" 
d="M604 1219q-89 0 -159 47t-104.5 116t-34.5 143v18h175v-18q0 -53 35.5 -97.5t87.5 -44.5q53 0 89.5 44.5t36.5 97.5v18h174v-18q0 -117 -83.5 -211.5t-216.5 -94.5zM613 -25q-173 0 -303.5 89t-190.5 235q-45 109 -45 235q0 120 40 223q57 151 189 244.5t310 93.5
t310 -93.5t190 -244.5q40 -103 40 -223q0 -126 -45 -235q-61 -146 -191.5 -235t-303.5 -89zM613 176q103 0 177.5 53.5t108.5 133t34 171.5q0 68 -20 131.5t-58.5 115t-101 82.5t-140.5 31t-140.5 -31t-100.5 -82.5t-58 -115t-20 -131.5t20 -131t58.5 -114t100.5 -82
t140 -31z" />
    <glyph glyph-name="Ohungarumlaut" unicode="&#x150;" horiz-adv-x="1628" 
d="M916 2002l-217 -358h-198l185 358h230zM1197 2002l-219 -358h-198l187 358h230zM813 -24q-237 0 -415.5 122t-261.5 323q-62 150 -62 326q0 175 62 326q83 200 261.5 322t415.5 122q243 0 424 -127.5t261 -335.5q55 -143 55 -307q0 -165 -55 -308q-80 -208 -261 -335.5
t-424 -127.5zM813 177q172 0 296 92.5t179 244.5q39 108 39 233t-39 233q-55 152 -179 244.5t-296 92.5q-167 0 -289.5 -89t-179.5 -235q-44 -112 -44 -246q0 -135 44 -247q57 -146 179.5 -234.5t289.5 -88.5z" />
    <glyph glyph-name="ohungarumlaut" unicode="&#x151;" horiz-adv-x="1228" 
d="M755 1575l-215 -356h-197l184 356h228zM1034 1575l-217 -356h-197l186 356h228zM613 -25q-173 0 -303.5 89t-190.5 235q-45 109 -45 235q0 120 40 223q57 151 189 244.5t310 93.5t310 -93.5t190 -244.5q40 -103 40 -223q0 -126 -45 -235q-61 -146 -191.5 -235t-303.5 -89
zM613 176q103 0 177.5 53.5t108.5 133t34 171.5q0 68 -20 131.5t-58.5 115t-101 82.5t-140.5 31t-140.5 -31t-100.5 -82.5t-58 -115t-20 -131.5t20 -131t58.5 -114t100.5 -82t140 -31z" />
    <glyph glyph-name="OE" unicode="&#x152;" horiz-adv-x="2438" 
d="M829 -24q-230 0 -405.5 115.5t-262.5 308.5q-71 159 -71 347q0 186 71 347q87 192 262.5 307.5t405.5 115.5q150 0 282 -52.5t232 -149.5v180h1000v-199h-774v-424h678v-199h-678v-474h774v-199h-1000v178q-100 -97 -232 -149.5t-282 -52.5zM829 177q172 0 296 92.5
t179 244.5q39 108 39 233t-39 233q-55 152 -179 244.5t-296 92.5q-167 0 -289.5 -89t-179.5 -235q-44 -112 -44 -246q0 -135 44 -247q57 -146 179.5 -234.5t289.5 -88.5z" />
    <glyph glyph-name="oe" unicode="&#x153;" horiz-adv-x="2141" 
d="M629 -25q-172 0 -301.5 87t-190.5 232q-47 110 -47 240q0 131 47 241q61 145 190.5 232.5t301.5 87.5q119 0 222.5 -45t177.5 -128q15 -17 32 -40q73 100 184.5 156.5t246.5 56.5q172 0 302 -87.5t191 -232.5q47 -110 47 -241q0 -10 -0.5 -29t-0.5 -28v-18h-852
q22 -120 104 -201.5t209 -81.5q91 0 162.5 45.5t115.5 122.5l10 19l185 -112l-8 -14q-71 -121 -192 -191.5t-273 -70.5q-134 0 -246.5 56t-184.5 155q-13 -18 -33 -40q-74 -82 -177 -126.5t-222 -44.5zM629 176q100 0 175 54.5t110 134.5t35 170t-35 170t-109.5 134.5
t-175.5 54.5q-78 0 -140.5 -31t-100.5 -82.5t-58 -115t-20 -131.5t20 -131t58.5 -114t100.5 -82t140 -31zM1186 648h612q-28 108 -108 177t-198 69q-117 0 -197 -69.5t-109 -176.5z" />
    <glyph glyph-name="Rcaron" unicode="&#x158;" horiz-adv-x="1262" 
d="M952 2000l-271 -356h-180l-267 356h217l140 -187l144 187h217zM300 556v-556h-226v1495h532q238 0 382.5 -130.5t144.5 -339.5q0 -141 -71.5 -254t-211.5 -170l348 -601h-262l-321 556h-315zM606 1296h-306v-539h306q136 0 215.5 74.5t79.5 195.5q0 120 -80.5 194.5
t-214.5 74.5z" />
    <glyph glyph-name="rcaron" unicode="&#x159;" horiz-adv-x="729" 
d="M713 1573l-269 -354h-179l-265 354h216l139 -187l142 187h216zM293 644v-644h-204v1067h204v-40q100 62 233 62q32 0 96 -8l17 -3v-204l-25 5q-56 13 -86 13q-113 0 -174 -70.5t-61 -177.5z" />
    <glyph glyph-name="Sacute" unicode="&#x15a;" horiz-adv-x="1261" 
d="M905 2000l-217 -356h-198l185 356h230zM676 -24q-214 0 -377.5 118.5t-222.5 302.5l-5 14l204 87l7 -21q45 -137 144.5 -218.5t249.5 -81.5q120 0 202.5 55.5t82.5 153.5q0 89 -51 139t-157 81q-44 13 -132 38.5t-132 38.5q-169 49 -268.5 156t-99.5 259
q0 186 141.5 303.5t353.5 117.5q196 0 349 -105t211 -272l5 -14l-204 -92l-7 20q-43 121 -131.5 192t-220.5 71q-119 0 -195.5 -55.5t-76.5 -154.5q0 -83 57.5 -140t155.5 -86l249 -72q181 -54 279.5 -152.5t98.5 -259.5q0 -192 -145.5 -307.5t-364.5 -115.5z" />
    <glyph glyph-name="sacute" unicode="&#x15b;" horiz-adv-x="1001" 
d="M717 1556l-214 -354h-197l183 354h228zM529 -23q-161 0 -281 84t-173 221l-5 13l183 93l8 -20q34 -87 103.5 -139.5t164.5 -52.5q75 0 127 33t52 92q0 45 -37.5 71.5t-104.5 45.5l-161 46q-279 81 -279 307q0 145 105 232t269 87q151 0 263 -78.5t160 -207.5l5 -14
l-184 -88l-7 20q-31 78 -91.5 125t-145.5 47q-68 0 -113.5 -29.5t-45.5 -83.5q0 -82 130 -121q69 -22 169 -52q130 -40 206 -117t76 -194q0 -146 -113.5 -233t-279.5 -87z" />
    <glyph glyph-name="Scircumflex" unicode="&#x15c;" horiz-adv-x="1261" 
d="M617 1832l-142 -188h-217l268 356h180l270 -356h-217zM676 -24q-214 0 -377.5 118.5t-222.5 302.5l-5 14l204 87l7 -21q45 -137 144.5 -218.5t249.5 -81.5q120 0 202.5 55.5t82.5 153.5q0 89 -51 139t-157 81q-44 13 -132 38.5t-132 38.5q-169 49 -268.5 156t-99.5 259
q0 186 141.5 303.5t353.5 117.5q196 0 349 -105t211 -272l5 -14l-204 -92l-7 20q-43 121 -131.5 192t-220.5 71q-119 0 -195.5 -55.5t-76.5 -154.5q0 -83 57.5 -140t155.5 -86l249 -72q181 -54 279.5 -152.5t98.5 -259.5q0 -192 -145.5 -307.5t-364.5 -115.5z" />
    <glyph glyph-name="scircumflex" unicode="&#x15d;" horiz-adv-x="1001" 
d="M498 1414l-140 -187h-216l265 354h179l269 -354h-216zM529 -23q-161 0 -281 84t-173 221l-5 13l183 93l8 -20q34 -87 103.5 -139.5t164.5 -52.5q75 0 127 33t52 92q0 45 -37.5 71.5t-104.5 45.5l-161 46q-279 81 -279 307q0 145 105 232t269 87q151 0 263 -78.5
t160 -207.5l5 -14l-184 -88l-7 20q-31 78 -91.5 125t-145.5 47q-68 0 -113.5 -29.5t-45.5 -83.5q0 -82 130 -121q69 -22 169 -52q130 -40 206 -117t76 -194q0 -146 -113.5 -233t-279.5 -87z" />
    <glyph glyph-name="Scedilla" unicode="&#x15e;" horiz-adv-x="1261" 
d="M661 -395q-143 0 -251 105l-10 9l86 138l19 -20q65 -65 145 -65q35 0 55 17.5t20 48.5q0 63 -97 126l-16 11q-4 4 -12 7q-2 1 -8 1q-11 0 -18 1l-31 6q-44 9 -88 24q-139 49 -238.5 151t-140.5 232l-5 14l204 87l7 -21q45 -137 144.5 -218.5t249.5 -81.5
q120 0 202.5 55.5t82.5 153.5q0 89 -51.5 139.5t-156.5 80.5l-264 77q-168 49 -268 156t-100 259q0 186 141.5 303.5t353.5 117.5q196 0 349 -105t211 -272l5 -14l-204 -92l-7 20q-43 121 -131.5 192t-220.5 71q-119 0 -195.5 -55.5t-76.5 -154.5q0 -83 57.5 -140t155.5 -86
l249 -72q378 -111 378 -412q0 -153 -98 -262.5t-264 -144.5q82 -79 82 -179q0 -94 -69.5 -151t-175.5 -57z" />
    <glyph glyph-name="scedilla" unicode="&#x15f;" horiz-adv-x="1001" 
d="M525 -392q-142 0 -249 104l-10 9l85 138l19 -20q67 -65 144 -65q35 0 54.5 17t19.5 48q0 58 -84 117l-22 14q-5 3 -13 9l-5 2q-1 1 -5 1q-2 1 -6.5 1.5t-6.5 0.5l-22 4q-29 5 -64 17q-102 36 -175 108.5t-110 168.5l-5 13l183 93l8 -20q34 -87 103.5 -139.5t164.5 -52.5
q75 0 127 33t52 92q0 45 -37 71t-105 46l-161 46q-279 81 -279 307q0 145 105 232t269 87q151 0 263 -78.5t160 -207.5l5 -14l-184 -88l-7 20q-31 78 -91.5 125t-145.5 47q-68 0 -113.5 -29.5t-45.5 -83.5q0 -82 130 -121l169 -52q282 -87 282 -311q0 -106 -65 -185.5
t-177 -112.5q88 -80 88 -184q0 -93 -69 -150t-174 -57z" />
    <glyph glyph-name="Scaron" unicode="&#x160;" horiz-adv-x="1261" 
d="M969 2000l-271 -356h-180l-267 356h216l141 -187l144 187h217zM676 -24q-214 0 -377.5 118.5t-222.5 302.5l-5 14l204 87l7 -21q45 -137 144.5 -218.5t249.5 -81.5q120 0 202.5 55.5t82.5 153.5q0 89 -51 139t-157 81q-44 13 -132 38.5t-132 38.5q-169 49 -268.5 156
t-99.5 259q0 186 141.5 303.5t353.5 117.5q196 0 349 -105t211 -272l5 -14l-204 -92l-7 20q-43 121 -131.5 192t-220.5 71q-119 0 -195.5 -55.5t-76.5 -154.5q0 -83 57.5 -140t155.5 -86l249 -72q181 -54 279.5 -152.5t98.5 -259.5q0 -192 -145.5 -307.5t-364.5 -115.5z" />
    <glyph glyph-name="scaron" unicode="&#x161;" horiz-adv-x="1001" 
d="M853 1573l-268 -354h-180l-265 354h216l140 -187l141 187h216zM529 -23q-161 0 -281 84t-173 221l-5 13l183 93l8 -20q34 -87 103.5 -139.5t164.5 -52.5q75 0 127 33t52 92q0 45 -37.5 71.5t-104.5 45.5l-161 46q-279 81 -279 307q0 145 105 232t269 87q151 0 263 -78.5
t160 -207.5l5 -14l-184 -88l-7 20q-31 78 -91.5 125t-145.5 47q-68 0 -113.5 -29.5t-45.5 -83.5q0 -82 130 -121q69 -22 169 -52q130 -40 206 -117t76 -194q0 -146 -113.5 -233t-279.5 -87z" />
    <glyph glyph-name="Utilde" unicode="&#x168;" horiz-adv-x="1248" 
d="M774 1644q-69 0 -146 46q-36 22 -50 29q-24 11 -42 11t-28 -17q-11 -18 -13 -43l-2 -16h-181l1 18q3 56 25 106t72 87t120 37t147 -46q4 -2 22.5 -12.5t27.5 -15.5q24 -11 41 -11q18 0 30 18q10 16 14 44l1 16h179v-18q-2 -41 -15.5 -80.5t-38.5 -74.5t-67.5 -56.5
t-96.5 -21.5zM623 -24q-254 0 -401.5 140t-147.5 364v1015h228v-1015q0 -128 89.5 -215.5t231.5 -87.5q141 0 231.5 88t90.5 215v1015h228v-1015q0 -224 -148.5 -364t-401.5 -140z" />
    <glyph glyph-name="utilde" unicode="&#x169;" horiz-adv-x="1026" 
d="M629 1219q-69 0 -146 46q-47 27 -50 29q-24 11 -41 11t-28 -17q-11 -18 -13 -43l-2 -16h-180l1 18q3 55 25 105t72 87t119 37t146 -46q4 -2 22.5 -12.5t27.5 -15.5q21 -11 41 -11q18 0 29 18t13 44l2 16h178l-1 -19q-3 -56 -24 -106t-71 -87.5t-120 -37.5zM513 -21
q-195 0 -317 112t-122 283v693h205v-644q0 -106 60 -176t172 -70q113 0 173.5 70t60.5 176v644h206v-1067h-206v40q-100 -61 -232 -61z" />
    <glyph glyph-name="Umacron" unicode="&#x16a;" horiz-adv-x="1248" 
d="M870 1823v-179h-491v179h491zM623 -24q-254 0 -401.5 140t-147.5 364v1015h228v-1015q0 -128 89.5 -215.5t231.5 -87.5q141 0 231.5 88t90.5 215v1015h228v-1015q0 -224 -148.5 -364t-401.5 -140z" />
    <glyph glyph-name="umacron" unicode="&#x16b;" horiz-adv-x="1026" 
d="M747 1397v-178h-487v178h487zM513 -21q-195 0 -317 112t-122 283v693h205v-644q0 -106 60 -176t172 -70q113 0 173.5 70t60.5 176v644h206v-1067h-206v40q-100 -61 -232 -61z" />
    <glyph glyph-name="Ubreve" unicode="&#x16c;" horiz-adv-x="1248" 
d="M608 1644q-68 0 -126 28t-95 72.5t-58 98.5t-21 109v18h176v-18q0 -54 35.5 -98.5t88.5 -44.5q54 0 91 44.5t37 98.5v18h175v-18q0 -118 -84.5 -213t-218.5 -95zM623 -24q-254 0 -401.5 140t-147.5 364v1015h228v-1015q0 -128 89.5 -215.5t231.5 -87.5q141 0 231.5 88
t90.5 215v1015h228v-1015q0 -224 -148.5 -364t-401.5 -140z" />
    <glyph glyph-name="ubreve" unicode="&#x16d;" horiz-adv-x="1026" 
d="M515 1219q-89 0 -159 47t-104.5 116t-34.5 143v18h175v-18q0 -53 35.5 -97.5t87.5 -44.5q53 0 89.5 44.5t36.5 97.5v18h174v-18q0 -117 -83.5 -211.5t-216.5 -94.5zM513 -21q-195 0 -317 112t-122 283v693h205v-644q0 -106 60 -176t172 -70q113 0 173.5 70t60.5 176v644
h206v-1067h-206v40q-100 -61 -232 -61z" />
    <glyph glyph-name="Uring" unicode="&#x16e;" horiz-adv-x="1248" 
d="M588 1644q-99 0 -162 65.5t-63 151.5t63 150t162 64q98 0 161 -64t63 -150q0 -87 -62.5 -152t-161.5 -65zM588 1801q25 0 42 17.5t17 42.5q0 23 -17 40t-42 17q-26 0 -43 -16.5t-17 -40.5q0 -25 17.5 -42.5t42.5 -17.5zM623 -24q-254 0 -401.5 140t-147.5 364v1015h228
v-1015q0 -128 89.5 -215.5t231.5 -87.5q141 0 231.5 88t90.5 215v1015h228v-1015q0 -224 -148.5 -364t-401.5 -140z" />
    <glyph glyph-name="uring" unicode="&#x16f;" horiz-adv-x="1026" 
d="M504 1219q-98 0 -160.5 65t-62.5 151q0 85 62.5 148.5t160.5 63.5t160.5 -63.5t62.5 -148.5q0 -86 -62.5 -151t-160.5 -65zM504 1375q25 0 42 17.5t17 42.5q0 23 -17 39.5t-42 16.5t-42 -16.5t-17 -39.5q0 -25 17 -42.5t42 -17.5zM513 -21q-195 0 -317 112t-122 283v693
h205v-644q0 -106 60 -176t172 -70q113 0 173.5 70t60.5 176v644h206v-1067h-206v40q-100 -61 -232 -61z" />
    <glyph glyph-name="Uhungarumlaut" unicode="&#x170;" horiz-adv-x="1248" 
d="M761 2023l-215 -358h-199l186 358h228zM1043 2023l-218 -358h-198l187 358h229zM623 -24q-254 0 -401.5 140t-147.5 364v1015h228v-1015q0 -128 89.5 -215.5t231.5 -87.5q141 0 231.5 88t90.5 215v1015h228v-1015q0 -224 -148.5 -364t-401.5 -140z" />
    <glyph glyph-name="uhungarumlaut" unicode="&#x171;" horiz-adv-x="1029" 
d="M674 1575l-214 -356h-197l183 356h228zM954 1575l-217 -356h-197l186 356h228zM513 -21q-195 0 -317 112t-122 283v693h205v-644q0 -106 60 -176t172 -70q113 0 173.5 70t60.5 176v644h206v-1067h-206v40q-100 -61 -232 -61z" />
    <glyph glyph-name="Uogonek" unicode="&#x172;" horiz-adv-x="1252" 
d="M954 -391q-106 0 -175.5 57t-69.5 151q0 101 87 180q-80 -21 -173 -21q-254 0 -401.5 140t-147.5 364v1015h228v-1015q0 -128 89.5 -215.5t231.5 -87.5q141 0 231.5 88t90.5 215v1015h228v-1015q0 -119 -44.5 -218t-128.5 -167l147 -50l-43 -18q-49 -20 -93.5 -45.5
t-82 -64.5t-37.5 -76q0 -31 19.5 -48.5t54.5 -17.5q81 0 145 66l20 20l85 -141l-10 -9q-109 -102 -251 -102z" />
    <glyph glyph-name="uogonek" unicode="&#x173;" horiz-adv-x="1029" 
d="M791 -413q-106 0 -174.5 56.5t-68.5 149.5q0 75 57.5 136t139.5 100v11q-100 -61 -232 -61q-195 0 -317 112t-122 283v693h205v-644q0 -106 60 -176t172 -70q113 0 173.5 70t60.5 176v644h206v-1061l-12 -4q-50 -21 -93.5 -46t-81 -63.5t-37.5 -75.5q0 -31 19.5 -48
t55.5 -17q39 0 77.5 18.5t65.5 47.5l19 20l85 -142l-10 -9q-107 -100 -248 -100z" />
    <glyph glyph-name="Wcircumflex" unicode="&#x174;" horiz-adv-x="2097" 
d="M1043 1832l-141 -188h-217l267 356h180l271 -356h-217zM1048 1144l-326 -1144h-219l-434 1495h230l316 -1127l312 1127h241l313 -1123l316 1123h230l-434 -1495h-219z" />
    <glyph glyph-name="wcircumflex" unicode="&#x175;" horiz-adv-x="1706" 
d="M847 1406l-140 -187h-216l266 354h179l268 -354h-216zM854 724l-226 -724h-183l-377 1067h232l234 -720l220 720h197l219 -717l235 717h232l-379 -1067h-181z" />
    <glyph glyph-name="Ycircumflex" unicode="&#x176;" horiz-adv-x="1415" 
d="M698 1832l-140 -188h-218l267 356h181l271 -356h-218zM820 688v-688h-225v688l-534 807h253l394 -594l391 594h253z" />
    <glyph glyph-name="ycircumflex" unicode="&#x177;" horiz-adv-x="1215" 
d="M601 1406l-140 -187h-216l266 354h179l268 -354h-216zM1147 1067l-617 -1486h-227l184 461l-421 1025h235l307 -748l304 748h235z" />
    <glyph glyph-name="Ydieresis" unicode="&#x178;" horiz-adv-x="1415" 
d="M531 1644q-67 0 -107 43.5t-40 100.5q0 56 41 99t106 43t105.5 -43t40.5 -99q0 -57 -39.5 -100.5t-106.5 -43.5zM859 1644q-67 0 -107.5 43t-40.5 101q0 56 41.5 99t106.5 43q63 0 104.5 -44t41.5 -98q0 -55 -40.5 -99.5t-105.5 -44.5zM820 688v-688h-225v688l-534 807
h253l394 -594l391 594h253z" />
    <glyph glyph-name="Zacute" unicode="&#x179;" horiz-adv-x="1264" 
d="M865 2000l-217 -356h-198l185 356h230zM1188 199v-199h-1114v136l799 1160h-750v199h1048v-136l-800 -1160h817z" />
    <glyph glyph-name="zacute" unicode="&#x17a;" horiz-adv-x="987" 
d="M721 1573l-215 -354h-197l184 354h228zM912 198v-198h-838v158l552 710h-521v199h805v-157l-552 -712h554z" />
    <glyph glyph-name="Zdotaccent" unicode="&#x17b;" horiz-adv-x="1264" 
d="M655 1644q-68 0 -107.5 43.5t-39.5 100.5t40.5 99.5t106.5 42.5q64 0 105 -43.5t41 -98.5q0 -56 -40 -100t-106 -44zM1188 199v-199h-1114v136l799 1160h-750v199h1048v-136l-800 -1160h817z" />
    <glyph glyph-name="zdotaccent" unicode="&#x17c;" horiz-adv-x="987" 
d="M479 1219q-66 0 -106 43.5t-40 99.5t40.5 98.5t105.5 42.5t105 -43t40 -98q0 -56 -39.5 -99.5t-105.5 -43.5zM912 198v-198h-838v158l552 710h-521v199h805v-157l-552 -712h554z" />
    <glyph glyph-name="Zcaron" unicode="&#x17d;" horiz-adv-x="1264" 
d="M1019 2000l-270 -356h-182l-267 356h218l141 -187l142 187h218zM1188 199v-199h-1114v136l799 1160h-750v199h1048v-136l-800 -1160h817z" />
    <glyph glyph-name="zcaron" unicode="&#x17e;" horiz-adv-x="987" 
d="M844 1573l-269 -354h-179l-265 354h216l139 -187l142 187h216zM912 198v-198h-838v158l552 710h-521v199h805v-157l-552 -712h554z" />
    <glyph glyph-name="circumflex" unicode="&#x2c6;" horiz-adv-x="794" 
d="M396 1473l-139 -188h-217l266 355h179l269 -355h-217z" />
    <glyph glyph-name="caron" unicode="&#x2c7;" horiz-adv-x="794" 
d="M754 1640l-269 -355h-179l-266 355h217l139 -187l141 187h217z" />
    <glyph glyph-name="breve" unicode="&#x2d8;" horiz-adv-x="679" 
d="M338 1285q-132 0 -215 95.5t-83 211.5v18h176v-18q0 -54 35 -98.5t87 -44.5q54 0 91 44.5t37 98.5v18h174v-18q0 -117 -84 -212t-218 -95z" />
    <glyph glyph-name="dotaccent" unicode="&#x2d9;" horiz-adv-x="372" 
d="M187 1285q-67 0 -107 43.5t-40 100.5q0 56 40.5 98.5t106.5 42.5q65 0 105 -43t40 -98q0 -56 -40 -100t-105 -44z" />
    <glyph glyph-name="ring" unicode="&#x2da;" horiz-adv-x="527" 
d="M264 1285q-98 0 -161 65t-63 151q0 87 62.5 150t161.5 63q98 0 160.5 -64t62.5 -149t-62.5 -150.5t-160.5 -65.5zM264 1442q25 0 42 17.5t17 41.5q0 23 -17 40t-42 17t-42.5 -16.5t-17.5 -40.5t17.5 -41.5t42.5 -17.5z" />
    <glyph glyph-name="ogonek" unicode="&#x2db;" horiz-adv-x="582" 
d="M283 -389q-106 0 -174.5 57.5t-68.5 150.5q0 100 78 170t193 106l7 3l158 -53l-44 -18q-81 -33 -146.5 -82.5t-65.5 -102.5q0 -31 19.5 -48t55.5 -17q77 0 143 66l19 20l85 -141l-10 -9q-109 -102 -249 -102z" />
    <glyph glyph-name="tilde" unicode="&#x2dc;" horiz-adv-x="756" 
d="M500 1285q-67 0 -146 47q-3 1 -22 12.5t-28 15.5q-23 12 -41 12q-17 0 -28 -18q-11 -17 -13 -42l-2 -17h-180l1 19q4 88 60 158.5t157 70.5q70 0 147 -46q31 -20 49 -29q24 -11 41 -11q16 0 28 19q11 18 13 43l2 17h178l-1 -19q-2 -41 -15 -80t-38 -74t-67 -56.5
t-95 -21.5z" />
    <glyph glyph-name="hungarumlaut" unicode="&#x2dd;" horiz-adv-x="771" 
d="M452 1642l-215 -357h-197l184 357h228zM731 1642l-217 -357h-197l186 357h228z" />
    <glyph glyph-name="gravecomb" unicode="&#x300;" 
d="M-209 1573l184 -354h-197l-215 354h228z" />
    <glyph glyph-name="acutecomb" unicode="&#x301;" 
d="M-23 1573l-215 -354h-197l184 354h228z" />
    <glyph glyph-name="uni0302" unicode="&#x302;" 
d="M-386 1406l-139 -187h-216l265 354h179l269 -354h-216z" />
    <glyph glyph-name="tildecomb" unicode="&#x303;" 
d="M-258 1219q-69 0 -146 46q-47 27 -50 29q-24 11 -41 11t-28 -17q-11 -18 -13 -43l-2 -16h-180l1 18q3 55 25 105t72 87t119 37t146 -46q4 -2 22.5 -12.5t27.5 -15.5q21 -11 41 -11q18 0 29 18q11 21 13 44l2 16h178l-1 -19q-3 -56 -24 -106t-71 -87.5t-120 -37.5z" />
    <glyph glyph-name="uni0304" unicode="&#x304;" 
d="M-38 1397v-178h-487v178h487z" />
    <glyph glyph-name="uni0306" unicode="&#x306;" 
d="M-342 1219q-89 0 -159 47t-104.5 116t-34.5 143v18h175v-18q0 -53 35.5 -97.5t87.5 -44.5q53 0 90 44.5t37 97.5v18h174v-18q0 -74 -35 -143t-105.5 -116t-160.5 -47z" />
    <glyph glyph-name="uni0307" unicode="&#x307;" 
d="M-177 1219q-66 0 -106 43.5t-40 99.5t40.5 98.5t105.5 42.5t105 -43t40 -98q0 -56 -39.5 -99.5t-105.5 -43.5z" />
    <glyph glyph-name="uni0308" unicode="&#x308;" 
d="M-512 1219q-66 0 -106 43.5t-40 99.5t40.5 98.5t105.5 42.5t105 -43t40 -98q0 -56 -39.5 -99.5t-105.5 -43.5zM-186 1219q-67 0 -107 43t-40 100q0 55 41 98t106 43q62 0 103.5 -44t41.5 -97q0 -55 -40.5 -99t-104.5 -44z" />
    <glyph glyph-name="uni030A" unicode="&#x30a;" 
d="M-260 1219q-98 0 -160.5 65t-62.5 151q0 85 62.5 148.5t160.5 63.5t160.5 -63.5t62.5 -148.5q0 -86 -62.5 -151t-160.5 -65zM-260 1375q25 0 42 17.5t17 42.5q0 23 -17 39.5t-42 16.5t-42 -16.5t-17 -39.5q0 -25 17 -42.5t42 -17.5z" />
    <glyph glyph-name="uni030B" unicode="&#x30b;" 
d="M-310 1575l-215 -356h-197l184 356h228zM-31 1575l-217 -356h-197l186 356h228z" />
    <glyph glyph-name="uni030C" unicode="&#x30c;" 
d="M-28 1573l-269 -354h-179l-265 354h216l139 -187l142 187h216z" />
    <glyph glyph-name="uni0326" unicode="&#x326;" 
d="M-40 -30l-233 -428h-170l143 428h260z" />
    <glyph glyph-name="uni0327" unicode="&#x327;" 
d="M-281 -392q-142 0 -249 104l-10 9l85 138l19 -20q67 -65 144 -65q35 0 54.5 17t19.5 48q0 54 -64.5 102.5t-148.5 82.5l-45 19l171 53l7 -3q112 -37 186 -107.5t74 -170.5q0 -93 -69 -150t-174 -57z" />
    <glyph glyph-name="uni0328" unicode="&#x328;" 
d="M-292 -388q-106 0 -174.5 56.5t-68.5 150.5q0 101 77.5 170.5t193.5 105.5l7 3l157 -53l-44 -18q-81 -33 -146.5 -82.5t-65.5 -102.5q0 -31 19.5 -48t55.5 -17q38 0 77 18.5t66 47.5l19 21l85 -142l-10 -9q-108 -101 -248 -101z" />
    <glyph glyph-name="uni0335" unicode="&#x335;" 
d="M-40 755v-199h-834v199h834z" />
    <glyph glyph-name="uni0336" unicode="&#x336;" 
d="M-47 749v-189h-1344v189h1344z" />
    <glyph glyph-name="Wgrave" unicode="&#x1e80;" horiz-adv-x="2097" 
d="M1104 2000l185 -356h-198l-217 356h230zM1048 1144l-326 -1144h-219l-434 1495h230l316 -1127l312 1127h241l313 -1123l316 1123h230l-434 -1495h-219z" />
    <glyph glyph-name="wgrave" unicode="&#x1e81;" horiz-adv-x="1706" 
d="M902 1573l184 -354h-197l-215 354h228zM854 724l-226 -724h-183l-377 1067h232l234 -720l220 720h197l219 -717l235 717h232l-379 -1067h-181z" />
    <glyph glyph-name="Wacute" unicode="&#x1e82;" horiz-adv-x="2097" 
d="M1293 2000l-216 -356h-199l186 356h229zM1048 1144l-326 -1144h-219l-434 1495h230l316 -1127l312 1127h241l313 -1123l316 1123h230l-434 -1495h-219z" />
    <glyph glyph-name="wacute" unicode="&#x1e83;" horiz-adv-x="1706" 
d="M1090 1573l-214 -354h-197l184 354h227zM854 724l-226 -724h-183l-377 1067h232l234 -720l220 720h197l219 -717l235 717h232l-379 -1067h-181z" />
    <glyph glyph-name="Wdieresis" unicode="&#x1e84;" horiz-adv-x="2097" 
d="M879 1644q-67 0 -107 43.5t-40 100.5q0 56 41 99t106 43t105.5 -43t40.5 -99q0 -57 -39.5 -100.5t-106.5 -43.5zM1208 1644q-68 0 -108 43t-40 101q0 56 41.5 99t106.5 43q63 0 104.5 -44t41.5 -98q0 -55 -41 -99.5t-105 -44.5zM1048 1144l-326 -1144h-219l-434 1495h230
l316 -1127l312 1127h241l313 -1123l316 1123h230l-434 -1495h-219z" />
    <glyph glyph-name="wdieresis" unicode="&#x1e85;" horiz-adv-x="1706" 
d="M684 1219q-66 0 -105.5 43.5t-39.5 99.5t40 98.5t105 42.5t105 -43t40 -98q0 -56 -39.5 -99.5t-105.5 -43.5zM1010 1219q-66 0 -106.5 43t-40.5 100q0 55 41 98t106 43q63 0 104 -43.5t41 -97.5q0 -55 -40.5 -99t-104.5 -44zM854 724l-226 -724h-183l-377 1067h232
l234 -720l220 720h197l219 -717l235 717h232l-379 -1067h-181z" />
    <glyph glyph-name="endash" unicode="&#x2013;" horiz-adv-x="1258" 
d="M1068 644v-198h-878v198h878z" />
    <glyph glyph-name="emdash" unicode="&#x2014;" horiz-adv-x="1720" 
d="M1530 644v-198h-1340v198h1340z" />
    <glyph glyph-name="quoteleft" unicode="&#x2018;" horiz-adv-x="724" 
d="M514 1484l-85 -570h-239l150 570h174z" />
    <glyph glyph-name="quoteright" unicode="&#x2019;" horiz-adv-x="724" 
d="M514 1484l-150 -570h-174l84 570h240z" />
    <glyph glyph-name="quotesinglbase" unicode="&#x201a;" horiz-adv-x="724" 
d="M514 275l-150 -570h-174l84 570h240z" />
    <glyph glyph-name="quotedblleft" unicode="&#x201c;" horiz-adv-x="1060" 
d="M514 1484l-85 -570h-239l150 570h174zM850 1484l-84 -570h-239l150 570h173z" />
    <glyph glyph-name="quotedblright" unicode="&#x201d;" horiz-adv-x="1060" 
d="M514 1484l-150 -570h-174l84 570h240zM850 1484l-150 -570h-173l84 570h239z" />
    <glyph glyph-name="quotedblbase" unicode="&#x201e;" horiz-adv-x="1060" 
d="M514 275l-150 -570h-174l84 570h240zM850 275l-150 -570h-173l84 570h239z" />
    <glyph glyph-name="dagger" unicode="&#x2020;" horiz-adv-x="1509" 
d="M867 892v-1263h-225v1263h-442v198h442v394h225v-394h443v-198h-443z" />
    <glyph glyph-name="daggerdbl" unicode="&#x2021;" horiz-adv-x="1509" 
d="M867 23v-394h-225v394h-442v198h442v671h-442v198h442v394h225v-394h443v-198h-443v-671h443v-198h-443z" />
    <glyph glyph-name="bullet" unicode="&#x2022;" horiz-adv-x="883" 
d="M443 516q-105 0 -169 69.5t-64 161.5q0 89 65.5 156.5t167.5 67.5q103 0 166.5 -69.5t63.5 -158.5q0 -90 -63.5 -158.5t-166.5 -68.5z" />
    <glyph glyph-name="ellipsis" unicode="&#x2026;" horiz-adv-x="1799" 
d="M435 275v-275h-225v275h225zM1012 275v-275h-225v275h225zM1589 275v-275h-225v275h225z" />
    <glyph glyph-name="guilsinglleft" unicode="&#x2039;" horiz-adv-x="880" 
d="M391 545l319 -394h-262l-318 394l318 394h262z" />
    <glyph glyph-name="guilsinglright" unicode="&#x203a;" horiz-adv-x="880" 
d="M750 545l-319 -394h-261l318 394l-318 394h261z" />
    <glyph glyph-name="Euro" unicode="&#x20ac;" horiz-adv-x="1704" 
d="M1039 -23q-125 0 -233 41t-185.5 112t-131 160.5t-81.5 193.5h-328l57 198h238q-2 58 -2 87h-236l58 198h204q25 110 76.5 205t129.5 171t190 120t244 44q204 0 350.5 -107.5t209.5 -281.5l5 -14l-200 -97l-8 21q-42 122 -134.5 201t-222.5 79q-76 0 -144 -28.5
t-118.5 -77.5t-87.5 -108.5t-59 -126.5h557l-57 -198h-534l-1 -28q0 -19 2 -59h533l-58 -198h-434q49 -135 151.5 -221.5t249.5 -86.5q131 0 222.5 78t135.5 200l8 21l199 -97l-5 -14q-64 -173 -211 -280t-349 -107z" />
    <glyph glyph-name="trademark" unicode="&#x2122;" horiz-adv-x="2157" 
d="M660 1308v-884h-197v884h-273v176h741v-176h-271zM1174 1109v-685h-197v1060h170l325 -460l326 460h169v-1060h-197v683l-276 -385h-47z" />
    <glyph glyph-name="partialdiff" unicode="&#x2202;" horiz-adv-x="1273" 
d="M637 -23q-107 0 -199 31t-158 85.5t-113 127t-70 155.5t-23 171q0 113 40 215t112.5 180t184 124t245.5 46q115 0 233 -30q-67 152 -183.5 249t-278.5 97q-85 0 -204 -45l-24 -9l-37 193l14 5q138 55 253 55q181 0 331.5 -98.5t251.5 -249.5q74 -112 122 -248
q64 -183 64 -389q0 -165 -45 -296q-58 -169 -189.5 -269t-326.5 -100zM637 176q72 0 132 28.5t99 74.5t66 106t39 121.5t12 122.5q0 83 -24 214q-159 71 -305 71q-116 0 -200.5 -50.5t-125.5 -133t-41 -185.5q0 -95 40 -178t121 -137t187 -54z" />
    <glyph glyph-name="summation" unicode="&#x2211;" horiz-adv-x="1205" 
d="M1075 198v-198h-925v154l371 589l-371 587v154h925v-199h-671l342 -542l-342 -545h671z" />
    <glyph glyph-name="minus" unicode="&#x2212;" horiz-adv-x="1358" 
d="M1118 848v-208h-878v208h878z" />
    <glyph glyph-name="uni2215" unicode="&#x2215;" horiz-adv-x="958" 
d="M962 1484l-680 -1484h-242l681 1484h241z" />
    <glyph glyph-name="uni2219" unicode="&#x2219;" horiz-adv-x="1014" 
d="M508 450q-133 0 -215.5 89t-82.5 206q0 115 83.5 202t214.5 87q132 0 214 -88.5t82 -204.5q0 -115 -82 -203t-214 -88z" />
    <glyph glyph-name="radical" unicode="&#x221a;" horiz-adv-x="1657" 
d="M1249 1285l-553 -1285h-186l-330 775h213l210 -507l505 1216h369v-199h-228z" />
    <glyph glyph-name="integral" unicode="&#x222b;" horiz-adv-x="934" 
d="M187 -381q-55 0 -114 13l-15 4v184l24 -4q45 -8 105 -8q80 0 122.5 47t42.5 123v1170q0 153 99 256t272 103q48 0 113 -13l16 -3v-184l-24 3q-54 8 -105 8q-80 0 -123 -47t-43 -123v-1170q0 -153 -98.5 -256t-271.5 -103z" />
    <glyph glyph-name="approxequal" unicode="&#x2248;" horiz-adv-x="1509" 
d="M275 772l-35 -35v226l5 5q58 62 139 96t172 34q44 0 87.5 -9.5t69 -20t63.5 -28.5q64 -30 86 -37q46 -16 96 -16q73 0 145.5 35.5t129.5 91.5l35 35v-225l-4 -5q-119 -130 -308 -130q-103 0 -223 57q-50 25 -86 37q-46 16 -97 16q-72 0 -145.5 -36t-129.5 -91zM276 372
l-36 -36v227l5 5q123 129 311 129q100 0 220 -57q70 -31 87 -37q52 -16 95 -16q74 0 146 35.5t129 91.5l35 36v-227l-4 -5q-121 -129 -308 -129q-65 0 -115 14.5t-116 46.5q-38 18 -59.5 26.5t-52.5 15.5t-63 7q-73 0 -146 -36t-128 -91z" />
    <glyph glyph-name="notequal" unicode="&#x2260;" horiz-adv-x="1358" 
d="M710 411l-54 -191h-217l55 191h-254v209h310l70 248h-380v208h437l54 191h216l-53 -191h224v-208h-281l-70 -248h351v-209h-408z" />
    <glyph glyph-name="lessequal" unicode="&#x2264;" horiz-adv-x="1291" 
d="M484 868l592 -339v-230l-861 487v165l861 488v-231zM1123 198v-198h-955v198h955z" />
    <glyph glyph-name="greaterequal" unicode="&#x2265;" horiz-adv-x="1251" 
d="M1078 951v-165l-861 -487v230l591 339l-591 340v231zM1123 198v-198h-955v198h955z" />
    <glyph glyph-name="uniF8FF" unicode="&#xf8ff;" horiz-adv-x="1860" 
d="M1800 1630v-1869h-1740v1869h1740zM321 205h198v344h687v183h-687v491h687v176h-890v-1186q0 -2 1 -3q0 -5 4 -5zM1338 390h-685v-185h888v1194h-203v-334h-685v-190h685v-485zM1037 -26q11 0 29 4q8 6 12 6q9 0 9 9q0 1 1.5 4.5t1.5 5.5t0.5 5.5t0.5 5.5q0 10 -1 14
l-3 8l-9 9q-5 5 -8 5l-10 2q-13 3 -14 4q-8 5 -13 5t-8 4q-3 6 -3 8q0 10 12 10q7 0 10 -1q2 -1 5.5 -2t5.5 -2q3 -2 5.5 -3t4 -1.5t2.5 -0.5q8 -3 10 -4l14 27q-4 4 -26 11q-15 5 -28 5q-14 0 -26 -6q-1 -1 -5.5 -2.5t-5.5 -2.5q-6 -6 -8 -9q-6 -9 -6 -23q0 -4 2 -10
q1 -5 4 -9t7 -7l7 -5q4 -3 11 -3q2 0 6.5 -2t7.5 -2l6 -1q1 0 2 -1t2.5 -2t2.5 -2l7 -5q4 -3 4 -6q0 -9 -5 -10q-10 -2 -13 -2q-9 0 -24 6q-12 5 -23 14l-13 -26q14 -12 29 -16l6 -2q5 -1 9 -2q10 -2 16 -2zM499 -27q33 0 51 18t21 51q2 20 -11 36q-9 12 -10 13
q-10 10 -13 12q-12 8 -38 8q-17 0 -36 -8q-19 -13 -26 -25q-10 -17 -10 -36q0 -21 10 -35q9 -20 25 -27q15 -7 37 -7zM1349 -27q18 0 30 7q16 10 24 19l-20 19q-4 -4 -17 -10q-5 -4 -17 -4q-11 0 -17 5l-7 6q-1 0 -7 9q-4 5 -4 20q0 13 4 20l14 12q6 5 17 5q12 0 17 -5
q13 -4 17 -12l18 23q-1 2 -10 11q-7 7 -11 7q-8 0 -15 3q-9 3 -16 3q-31 0 -50 -18q-20 -19 -20 -51q0 -23 8 -35q11 -17 27 -27q13 -7 35 -7zM419 107h-98v-130h35v47h59v26h-59v31h63v26zM620 107h-31v-130h33v78l60 -78h31v130h-33v-77zM725 81h42v-104h34v104h39v26
h-115v-26zM919 107h-36l-57 -130h35l10 22h57l9 -22h38zM1098 81h40v-104h34v104h41v26h-115v-26zM1260 107h-33v-130h33v130zM1495 107h-36l-58 -130h38l8 22h61l6 -22h37zM500 2q-16 0 -27 12q-10 11 -10 28q0 13 5 20q1 1 2 3t2 3.5t2 2.5l7 5q7 5 19 5q9 0 19 -5
q9 -5 12 -14q0 -1 2 -4.5t2 -5.5v-20q0 -5 -4 -10q-2 -2 -4 -5l-3 -4.5t-2.5 -3t-2.5 -1.5q-18 -6 -19 -6zM901 73l16 -48h-36zM1476 73l17 -48h-36zM1031 -413q-13 0 -17 4q-10 3 -13 12l-2 6q0 1 -1 2q0 1 -1 3l7 2q4 1 8 1l2 -3q9 -13 17 -13q3 0 9 3t6 7q0 5 -3 8
q-2 2 -17 6q-18 4 -20 7q-8 13 -5 22q5 13 19 16q0 3 13 2q14 -2 20 -9q7 -3 7 -15v-3h-16v3q-5 11 -13 11q-1 0 -2 -1h-3q-9 -5 -9 -11l17 -6q16 -6 23 -13t7 -14q0 -4 -9 -18q-4 -6 -11 -8q-4 -1 -13 -1zM635 -414q-24 0 -33 22q-4 10 -4 20q0 15 3 22q1 3 10 12q5 5 13 8
q6 2 14 2q30 0 36 -29q3 -15 0 -27t-14 -22q-9 -8 -25 -8zM1281 -413q-24 0 -38 27q-3 7 -2 15l2 14q6 21 26 27q2 0 4 1t6 1q15 0 25 -10q5 -5 6 -8l2 -6l-8 -3l-6 -2q-3 0 -4 4q-4 11 -15 11q-9 0 -15 -8q-6 -7 -6 -16q0 -1 0.5 -5t0.5 -7q0 -5 3 -10q4 -11 16 -11
q11 0 16 13l2 5l8 -2q8 -3 8 -4l-2 -6q-11 -20 -29 -20zM1540 -413q-12 0 -20 6q-8 5 -12 14q-10 19 0 45q1 3 5 6.5t5 4.5q4 5 12 7q2 2 13 2q1 0 13 -3q2 -1 10 -8q5 -5 7 -9l1 -4q-2 -2 -9 -3l-8 -2q-1 1 -2 4q-4 9 -14 9q-12 0 -16 -9q-4 -10 -4 -19q0 -11 4 -19
q5 -8 16 -8t16 13q0 3 2 3v2l9 -3l5 -2v-3q0 -2 -2 -6l-3 -7q-11 -11 -28 -11zM112 -377l-8 -36h-9l-9 2l-19 79q0 2 8 2h9l11 -53q2 1 2 5q0 9 5 19q7 15 7 24l2 5h18l8 -27l6 -26q1 0 3 9l3 17q2 4 4 12.5t3 12.5q0 2 7 2q10 0 10 -2q-4 -10 -8 -32q-1 -5 -3.5 -13.5
t-3.5 -12.5l-4 -18v-5h-18v5l-4 10l-6 20l-6 25zM241 -381l-8 -32h-15q-2 2 -4 2l-3 12l-6 28l-6 27l-3 12q0 2 8 2h8q1 0 1 -2q1 -2 1 -7q4 -9 4 -18l6 -26l14 53h20q2 0 2 -2l7 -27l5 -27l13 54q0 2 7 2q9 0 9 -2q0 -1 -0.5 -4.5t-0.5 -5.5l-3 -15q-2 -10 -5 -15l-11 -41
h-7l-9 2l-9 30q0 1 -1 5.5t-1 5.5q0 2 -4 9q0 6 -1 9q-2 -6 -2 -9q-3 -6 -3 -9q0 -8 -3 -11zM377 -353l-15 -58l-10 -2q-8 0 -9 4l-2 12q-1 6 -7 27q-2 6 -4 16t-2 12l-3 12h16l5 -27l8 -26l3 9l11 44h19l8 -27q3 -24 8 -27q0 4 1 7q-1 2 3 20l6 27h8q9 0 9 -2q0 -1 -1 -4.5
t-1 -5.5q0 -3 -2 -15q0 -3 -2 -8t-3 -7l-11 -39l-7 -2h-10l-8 32l-5 21zM526 -393l-1 -18h-15v79q0 2 4 2h52v-14h-40v-19h33v-14h-33v-16zM727 -359v-54h-16v83h16l32 -53v53h15v-81l-7 -2h-8zM849 -344v-69h-17v69h-23v14h65v-14h-25zM907 -411l-8 -2h-7q0 2 -2 2l3 9
l9 22l11 26q1 2 3.5 10t4.5 12q0 2 7 2h9l33 -81q-2 0 -2 -2h-5l-11 2l-6 19h-32zM1135 -344v-69h-17v69h-25v14h65v-14h-23zM1206 -330v-83h-15v83h15zM1358 -411l-9 -2h-6l-2 2q2 3 4 9l7 22q5 14 10 26q2 4 5 11.5t4 10.5q0 2 9 2h9l32 -81q-2 0 -2 -2h-7l-9 2l-7 19h-31
zM1646 -413q-21 0 -30 12q-10 13 -10 29q0 7 8 25q6 14 19 17q17 0 37 -6q14 -4 14 -34q0 -20 -8 -31q-9 -12 -30 -12zM1735 -411l-8 -2h-7v83h25l6 -27l5 -18q2 -6 2 -8l7 24q2 6 4 12.5t3 10t1 4.5v2h26v-83h-17v63l-6 -28l-6 -21l-2 -10v-4h-10l-7 2l-6 30l-10 29v-59z
M637 -399q20 0 20 16v24q0 3 -10 13q-4 4 -9 4q-10 0 -18 -8q-2 -2 -4 -8q-1 -3 -1 -14q0 -12 7 -20q5 -7 15 -7zM1646 -399q7 0 10 4q11 5 11 23q0 21 -11 26q-2 1 -4 3q-1 1 -5 1q-15 0 -18 -9t-3 -21q0 -16 2 -19q5 -8 18 -8zM1377 -358l-8 -20h22l-5 14q-3 6 -3 7
q0 2 -1 3l-1 2zM930 -352l-5 -6l-6 -20h20q-2 5 -4 14q-3 6 -3 7q0 2 -1 3zM471 -395v-16h-16v16h16zM1468 -403l-1 -8h-14v16h15v-8z" />
    <glyph glyph-name="G.ss01" horiz-adv-x="1570" 
d="M829 -24q-230 0 -405.5 115.5t-262.5 308.5q-71 159 -71 347q0 186 71 347q87 192 262.5 307.5t405.5 115.5q212 0 379 -101t263 -273l8 -15l-193 -103l-9 18q-66 125 -182.5 199.5t-265.5 74.5q-172 0 -296 -92.5t-179 -244.5q-38 -106 -38 -233t38 -233
q55 -152 179 -244.5t296 -92.5q128 0 233.5 54t174.5 151q3 4 6.5 8t7.5 8.5t6 6.5q6 9 7 16v66l1 116h-456v200h672v-422q0 -5 -4 -13l-6 -14q-4 -9 -18 -33l-30 -52q-95 -145 -248 -219t-346 -74z" />
    <glyph glyph-name="Q.ss01" horiz-adv-x="1659" 
d="M1470 -194v-199h-235q-203 0 -342.5 101.5t-167.5 275.5q-205 27 -355 147.5t-221 298.5q-59 147 -59 317q0 172 61 322q82 202 260.5 325t417.5 123t418 -123t261 -325q61 -150 61 -322q0 -171 -59 -318q-72 -178 -221 -298t-353 -147q29 -86 109.5 -132t189.5 -46h235z
M829 177q172 0 296 92.5t179 244.5q39 108 39 233t-39 233q-55 152 -179 244.5t-296 92.5q-167 0 -289.5 -89t-179.5 -235q-44 -112 -44 -246q0 -135 44 -247q57 -146 179.5 -234.5t289.5 -88.5z" />
    <glyph glyph-name="g.001" horiz-adv-x="1232" 
d="M625 -419q-157 0 -285.5 77.5t-188.5 205.5l-7 14l185 101l9 -20q38 -83 112.5 -131.5t171.5 -48.5q138 0 225 84t89 208q1 29 1 87q-130 -107 -317 -107q-117 0 -218 44.5t-168.5 118t-105.5 166.5t-38 191q0 100 37.5 193.5t104 166t168 116t220.5 43.5q190 0 316 -111
v88h205v-996q0 -99 -36.5 -187.5t-102.5 -156t-164 -107t-213 -39.5zM620 250q146 0 231 93t85 228q0 133 -86.5 227t-231.5 94t-229 -93t-84 -228q0 -136 84 -228.5t231 -92.5z" />
    <glyph glyph-name="uni030C.alt" 
d="M-41 1484l-41 -507h-167l-42 507h250z" />
    <glyph glyph-name="uni0335.alt" 
d="M-41 749v-189h-641v189h641z" />
    <glyph glyph-name="_FSHallmark" horiz-adv-x="1728" 
d="M1668 1375v-190h-1604v190h1604zM1322 287q-75 0 -132 18q-98 25 -161 98.5t-63 173.5l186 -4q0 -8 12 -32q3 -25 26.5 -49t47.5 -31q33 -20 92 -20q67 0 104 22q34 20 34 52q0 59 -152 88q-134 39 -234 88q-96 48 -96 158q0 86 55 137.5t149 86.5q2 0 52 7t80 7
q75 0 180 -38q68 -24 109 -85.5t41 -134.5h-192q0 42 -50 78q-5 1 -20.5 9t-25.5 9q-7 1 -22.5 5.5t-23.5 4.5q-44 0 -90 -28q-38 -23 -38 -58q0 -63 36 -78q2 -1 20 -9t32.5 -12.5t29.5 -6.5l72 -20l58 -14q7 -1 27 -6.5t31 -5.5q37 -9 44 -14l40 -18q38 -24 62 -52
q22 -51 24 -88q3 -41 -20 -94q-80 -144 -324 -144zM274 545v-258h-210v798h674v-180h-464v-182h388v-178h-388zM816 291q-32 0 -62 30q-34 28 -34 64t30 66q26 26 66 26q47 0 78 -28q32 -29 32 -64q0 -38 -32 -70q-36 -24 -78 -24zM1666 189v-190h-1606v190h1606z" />
    <glyph glyph-name="_Fontastica" horiz-adv-x="1338" 
d="M262 536v-340h-196q-3 0 -4.5 2t-1.5 4v2v1178h884v-174h-682v-490h682v-182h-682zM1278 1382v-1186h-884v184h682v482h-682v188h682v332h202zM252 2q-9 0 -36 8q-15 4 -25.5 22.5t-10.5 35.5q0 28 21.5 47t50.5 19q21 0 32.5 -7.5t25.5 -26.5q10 -13 10 -32
q0 -28 -20 -47t-48 -19zM770 2q-35 0 -60 20l14 26q20 -20 46 -20q16 0 16 12q0 1 -2 3.5t-2 4.5l-6 4q-6 0 -14 4q-5 3 -13 3.5t-11 2.5q-20 13 -20 34q0 38 52 38q24 0 52 -14l-14 -28q-16 16 -50 16q-2 0 -2 -2l-2 -8q0 -1 1 -3t1 -3q0 -2 1.5 -3.5l2.5 -2.5h2
q3 0 7.5 -2t6.5 -2q15 0 30.5 -12.5t15.5 -27.5q0 -19 -16 -29.5t-36 -10.5zM1068 2q-18 0 -34 8q-15 7 -24.5 24t-9.5 34q0 14 10.5 33.5t23.5 24.5q20 8 34 8q18 0 30 -6t22 -16l-20 -24q-3 5 -13.5 11.5t-16.5 6.5q-18 0 -30 -18q-4 -6 -4 -20q0 -24 16 -32q12 -6 18 -6
q5 0 16.5 6t13.5 10l20 -20q-18 -24 -52 -24zM112 50v-46h-34v128h96v-26h-62v-30h58v-26h-58zM368 80v-76h-32v128h30l58 -78v78h32v-128h-30zM542 104v-100h-34v100h-38v28h108v-28h-36zM608 28l-8 -24h-34l54 128h34l54 -128h-36l-8 24h-56zM898 104v-100h-32v100h-38v28
h108v-28h-38zM984 132v-128h-34v128h34zM1164 28l-10 -24h-34l56 128h34l54 -128h-36l-10 24h-54zM252 28q14 0 24 12.5t10 27.5q0 13 -10.5 25.5t-23.5 12.5q-8 0 -20 -6q-16 -8 -16 -32q0 -17 9.5 -28.5t26.5 -11.5zM654 52l-18 46l-18 -46h36zM1208 52l-18 46l-16 -46h34
z" />
    <glyph glyph-name="_www.fontastica.com" horiz-adv-x="3906" 
d="M132 627v-120h-68l-4 2v418h316v-62h-244v-174h244v-64h-244zM494 927v-420h-316v64h244v172h-244v66h244v118h72zM2500 541q-41 0 -86.5 15.5t-75.5 40.5l36 72q22 -19 61 -36.5t65 -17.5q16 0 32 8q14 7 14 22t-10 20q-18 12 -58 24q-55 17 -62 20q-26 11 -40 30
q-14 20 -14 56q0 53 40.5 80.5t97.5 27.5q74 0 140 -40l-34 -72q-70 36 -114 36q-36 0 -36 -24q0 -27 66 -44q45 -10 62 -20q28 -16 40 -32q16 -22 16 -58q0 -54 -41 -81t-99 -27zM1086 539q-79 0 -133.5 51.5t-54.5 130.5t54 129.5t134 50.5t134 -50.5t54 -129.5
t-53.5 -130.5t-134.5 -51.5zM3312 539q-77 0 -129.5 52.5t-52.5 129.5q0 78 53.5 129t132.5 51q86 0 140 -60l-52 -64q-34 46 -86 46q-43 0 -69.5 -28.5t-26.5 -71.5q0 -33 12 -52q31 -50 84 -50q46 0 86 40l54 -56q-66 -66 -146 -66zM708 671v-124h-90v348h260v-72h-170
v-78h156v-74h-156zM1406 755v-208h-86v348h80l160 -210l-2 210h86v-348h-80zM1876 821v-274h-90v274h-104v74h300v-74h-106zM2062 607l-24 -60h-94l150 348h94l146 -348h-96l-24 60h-152zM2852 821v-274h-92v274h-104v74h300v-74h-104zM3084 895v-348h-90v348h90zM3574 607
l-24 -60h-94l150 348h94l146 -348h-98l-22 60h-152zM1088 617q40 0 67 31.5t27 72.5q0 15 -14 52q-19 50 -80 50q-43 0 -69.5 -29t-26.5 -73q0 -42 27 -73t69 -31zM2186 677l-46 126l-50 -126h96zM3698 677l-48 126l-48 -126h96z" />
    </font>
</defs>
</svg>
